solid OpenSCAD_Model
  facet normal 0 -1 2.22045e-16
    outer loop
      vertex 13.8374 -21.6 1.05172
      vertex 13.7738 -21.6 0.65
      vertex 13.8374 -21.6 0.248278
    endloop
  endfacet
  facet normal 0 -1 2.22045e-16
    outer loop
      vertex 14.3096 -21.6 -0.401722
      vertex 13.8374 -21.6 1.05172
      vertex 14.022 -21.6 -0.114121
    endloop
  endfacet
  facet normal 0 -1 2.22045e-16
    outer loop
      vertex 14.022 -21.6 -0.114121
      vertex 13.8374 -21.6 1.05172
      vertex 13.8374 -21.6 0.248278
    endloop
  endfacet
  facet normal 0 -1 2.22045e-16
    outer loop
      vertex 14.672 -21.6 -0.586373
      vertex 13.8374 -21.6 1.05172
      vertex 14.3096 -21.6 -0.401722
    endloop
  endfacet
  facet normal 0 -1 2.22045e-16
    outer loop
      vertex 15.0738 -21.6 -0.65
      vertex 13.8374 -21.6 1.05172
      vertex 14.672 -21.6 -0.586373
    endloop
  endfacet
  facet normal 0 -1 2.22045e-16
    outer loop
      vertex 15.4755 -21.6 -0.586373
      vertex 13.8374 -21.6 1.05172
      vertex 15.0738 -21.6 -0.65
    endloop
  endfacet
  facet normal 0 -1 2.22045e-16
    outer loop
      vertex 15.8379 -21.6 -0.401722
      vertex 13.8374 -21.6 1.05172
      vertex 15.4755 -21.6 -0.586373
    endloop
  endfacet
  facet normal 0 -1 2.22045e-16
    outer loop
      vertex 16.1255 -21.6 -0.114121
      vertex 13.8374 -21.6 1.05172
      vertex 15.8379 -21.6 -0.401722
    endloop
  endfacet
  facet normal 0 -1 2.22045e-16
    outer loop
      vertex 16.3101 -21.6 0.248278
      vertex 13.8374 -21.6 1.05172
      vertex 16.1255 -21.6 -0.114121
    endloop
  endfacet
  facet normal 0 -1 2.22045e-16
    outer loop
      vertex 16.3738 -21.6 0.65
      vertex 13.8374 -21.6 1.05172
      vertex 16.3101 -21.6 0.248278
    endloop
  endfacet
  facet normal 0 -1 2.22045e-16
    outer loop
      vertex 16.3101 -21.6 1.05172
      vertex 13.8374 -21.6 1.05172
      vertex 16.3738 -21.6 0.65
    endloop
  endfacet
  facet normal 0 -1 2.22045e-16
    outer loop
      vertex 16.1255 -21.6 1.41412
      vertex 13.8374 -21.6 1.05172
      vertex 16.3101 -21.6 1.05172
    endloop
  endfacet
  facet normal 0 -1 2.22045e-16
    outer loop
      vertex 15.8379 -21.6 1.70172
      vertex 13.8374 -21.6 1.05172
      vertex 16.1255 -21.6 1.41412
    endloop
  endfacet
  facet normal 0 -1 2.22045e-16
    outer loop
      vertex 15.4755 -21.6 1.88637
      vertex 13.8374 -21.6 1.05172
      vertex 15.8379 -21.6 1.70172
    endloop
  endfacet
  facet normal 0 -1 2.22045e-16
    outer loop
      vertex 15.0738 -21.6 1.95
      vertex 13.8374 -21.6 1.05172
      vertex 15.4755 -21.6 1.88637
    endloop
  endfacet
  facet normal 0 -1 2.22045e-16
    outer loop
      vertex 14.672 -21.6 1.88637
      vertex 13.8374 -21.6 1.05172
      vertex 15.0738 -21.6 1.95
    endloop
  endfacet
  facet normal 0 -1 2.22045e-16
    outer loop
      vertex 14.3096 -21.6 1.70172
      vertex 13.8374 -21.6 1.05172
      vertex 14.672 -21.6 1.88637
    endloop
  endfacet
  facet normal 0 -1 2.22045e-16
    outer loop
      vertex 14.022 -21.6 1.41412
      vertex 13.8374 -21.6 1.05172
      vertex 14.3096 -21.6 1.70172
    endloop
  endfacet
  facet normal -0.987688 -3.47357e-17 -0.156436
    outer loop
      vertex 13.7738 -21.6 0.65
      vertex 13.7738 21.6 0.65
      vertex 13.8374 -21.6 0.248278
    endloop
  endfacet
  facet normal -0.987688 -3.47357e-17 -0.156436
    outer loop
      vertex 13.8374 -21.6 0.248278
      vertex 13.7738 21.6 0.65
      vertex 13.8374 21.6 0.248278
    endloop
  endfacet
  facet normal -0.987688 3.47357e-17 0.156436
    outer loop
      vertex 13.7738 -21.6 0.65
      vertex 13.8374 -21.6 1.05172
      vertex 13.7738 21.6 0.65
    endloop
  endfacet
  facet normal -0.987688 3.47357e-17 0.156436
    outer loop
      vertex 13.7738 21.6 0.65
      vertex 13.8374 -21.6 1.05172
      vertex 13.8374 21.6 1.05172
    endloop
  endfacet
  facet normal -0.891007 1.00806e-16 0.453989
    outer loop
      vertex 13.8374 -21.6 1.05172
      vertex 14.022 -21.6 1.41412
      vertex 13.8374 21.6 1.05172
    endloop
  endfacet
  facet normal -0.891007 1.00806e-16 0.453989
    outer loop
      vertex 13.8374 21.6 1.05172
      vertex 14.022 -21.6 1.41412
      vertex 14.022 21.6 1.41412
    endloop
  endfacet
  facet normal -0.707107 1.57009e-16 0.707107
    outer loop
      vertex 14.0555 21.5 1.44764
      vertex 14.022 21.6 1.41412
      vertex 14.0555 -21.5 1.44764
    endloop
  endfacet
  facet normal -0.707107 1.57009e-16 0.707107
    outer loop
      vertex 14.022 -21.6 1.41412
      vertex 14.3096 -21.6 1.70172
      vertex 14.0555 -21.5 1.44764
    endloop
  endfacet
  facet normal -0.707107 1.57009e-16 0.707107
    outer loop
      vertex 14.022 -21.6 1.41412
      vertex 14.0555 -21.5 1.44764
      vertex 14.022 21.6 1.41412
    endloop
  endfacet
  facet normal -0.707107 1.57009e-16 0.707107
    outer loop
      vertex 14.022 21.6 1.41412
      vertex 14.0555 21.5 1.44764
      vertex 14.3096 21.5 1.70172
    endloop
  endfacet
  facet normal -0.707107 1.57009e-16 0.707107
    outer loop
      vertex 14.022 21.6 1.41412
      vertex 14.3096 21.5 1.70172
      vertex 14.3096 21.6 1.70172
    endloop
  endfacet
  facet normal -0.707107 1.57009e-16 0.707107
    outer loop
      vertex 14.0555 -21.5 1.44764
      vertex 14.3096 -21.6 1.70172
      vertex 14.3096 -21.5 1.70172
    endloop
  endfacet
  facet normal -0.453989 1.97843e-16 0.891007
    outer loop
      vertex 14.3096 -21.5 1.70172
      vertex 14.3096 -21.6 1.70172
      vertex 14.672 -21.6 1.88637
    endloop
  endfacet
  facet normal -0.453989 1.97843e-16 0.891007
    outer loop
      vertex 14.6361 -21.5 1.86806
      vertex 14.3096 -21.5 1.70172
      vertex 14.672 -21.6 1.88637
    endloop
  endfacet
  facet normal -0.453989 1.97843e-16 0.891007
    outer loop
      vertex 14.3096 21.6 1.70172
      vertex 14.3096 21.5 1.70172
      vertex 14.672 21.6 1.88637
    endloop
  endfacet
  facet normal -0.453989 1.97843e-16 0.891007
    outer loop
      vertex 14.3096 21.5 1.70172
      vertex 14.6361 21.5 1.86806
      vertex 14.672 21.6 1.88637
    endloop
  endfacet
  facet normal -0.453989 1.97843e-16 0.891007
    outer loop
      vertex 14.672 21.6 1.88637
      vertex 14.6361 -21.5 1.86806
      vertex 14.672 -21.6 1.88637
    endloop
  endfacet
  facet normal -0.453989 1.97843e-16 0.891007
    outer loop
      vertex 14.6361 21.5 1.86806
      vertex 14.6361 -21.5 1.86806
      vertex 14.672 21.6 1.88637
    endloop
  endfacet
  facet normal -0.156436 2.19311e-16 0.987688
    outer loop
      vertex 14.672 21.6 1.88637
      vertex 14.672 -21.6 1.88637
      vertex 15.0738 -21.6 1.95
    endloop
  endfacet
  facet normal -0.156436 2.19311e-16 0.987688
    outer loop
      vertex 15.0738 21.6 1.95
      vertex 14.672 21.6 1.88637
      vertex 15.0738 -21.6 1.95
    endloop
  endfacet
  facet normal 0.156436 2.19311e-16 0.987688
    outer loop
      vertex 15.3282 -21.5 1.90971
      vertex 15.0738 -21.6 1.95
      vertex 15.4755 -21.6 1.88637
    endloop
  endfacet
  facet normal 0.156436 2.19311e-16 0.987688
    outer loop
      vertex 15.3282 -21.5 1.90971
      vertex 15.3282 21.5 1.90971
      vertex 15.0738 21.6 1.95
    endloop
  endfacet
  facet normal 0.156436 2.19311e-16 0.987688
    outer loop
      vertex 15.0738 21.6 1.95
      vertex 15.0738 -21.6 1.95
      vertex 15.3282 -21.5 1.90971
    endloop
  endfacet
  facet normal 0.156436 2.19311e-16 0.987688
    outer loop
      vertex 15.4755 21.5 1.88637
      vertex 15.0738 21.6 1.95
      vertex 15.3282 21.5 1.90971
    endloop
  endfacet
  facet normal 0.156436 2.19311e-16 0.987688
    outer loop
      vertex 15.4755 21.6 1.88637
      vertex 15.0738 21.6 1.95
      vertex 15.4755 21.5 1.88637
    endloop
  endfacet
  facet normal 0.156436 2.19311e-16 0.987688
    outer loop
      vertex 15.4755 -21.5 1.88637
      vertex 15.3282 -21.5 1.90971
      vertex 15.4755 -21.6 1.88637
    endloop
  endfacet
  facet normal 0.453989 1.97843e-16 0.891007
    outer loop
      vertex 15.4755 -21.5 1.88637
      vertex 15.4755 -21.6 1.88637
      vertex 15.8379 -21.6 1.70172
    endloop
  endfacet
  facet normal 0.453989 1.97843e-16 0.891007
    outer loop
      vertex 15.8379 -21.5 1.70172
      vertex 15.4755 -21.5 1.88637
      vertex 15.8379 -21.6 1.70172
    endloop
  endfacet
  facet normal 0.707107 1.57009e-16 0.707107
    outer loop
      vertex 15.8379 -21.5 1.70172
      vertex 15.8379 -21.6 1.70172
      vertex 16.1255 -21.6 1.41412
    endloop
  endfacet
  facet normal 0.707107 1.57009e-16 0.707107
    outer loop
      vertex 15.9515 -21.5 1.58811
      vertex 15.8379 -21.5 1.70172
      vertex 16.1255 -21.6 1.41412
    endloop
  endfacet
  facet normal 0.707107 1.57009e-16 0.707107
    outer loop
      vertex 15.8379 21.6 1.70172
      vertex 15.8379 21.5 1.70172
      vertex 16.1255 21.6 1.41412
    endloop
  endfacet
  facet normal 0.707107 1.57009e-16 0.707107
    outer loop
      vertex 15.8379 21.5 1.70172
      vertex 15.9515 21.5 1.58811
      vertex 16.1255 21.6 1.41412
    endloop
  endfacet
  facet normal 0.707107 1.57009e-16 0.707107
    outer loop
      vertex 16.1255 21.6 1.41412
      vertex 15.9515 -21.5 1.58811
      vertex 16.1255 -21.6 1.41412
    endloop
  endfacet
  facet normal 0.707107 1.57009e-16 0.707107
    outer loop
      vertex 15.9515 21.5 1.58811
      vertex 15.9515 -21.5 1.58811
      vertex 16.1255 21.6 1.41412
    endloop
  endfacet
  facet normal 0.891007 1.00806e-16 0.453989
    outer loop
      vertex 16.1255 21.6 1.41412
      vertex 16.1255 -21.6 1.41412
      vertex 16.3101 -21.6 1.05172
    endloop
  endfacet
  facet normal 0.891007 1.00806e-16 0.453989
    outer loop
      vertex 16.3101 21.6 1.05172
      vertex 16.1255 21.6 1.41412
      vertex 16.3101 -21.6 1.05172
    endloop
  endfacet
  facet normal 0.987688 3.47357e-17 0.156436
    outer loop
      vertex 16.3101 21.6 1.05172
      vertex 16.3101 -21.6 1.05172
      vertex 16.3738 -21.6 0.65
    endloop
  endfacet
  facet normal 0.987688 3.47357e-17 0.156436
    outer loop
      vertex 16.3738 21.6 0.65
      vertex 16.3101 21.6 1.05172
      vertex 16.3738 -21.6 0.65
    endloop
  endfacet
  facet normal 0.987688 -3.47357e-17 -0.156436
    outer loop
      vertex 16.3738 -21.6 0.65
      vertex 16.3101 -21.6 0.248278
      vertex 16.3101 21.6 0.248278
    endloop
  endfacet
  facet normal 0.987688 -3.47357e-17 -0.156436
    outer loop
      vertex 16.3738 21.6 0.65
      vertex 16.3738 -21.6 0.65
      vertex 16.3101 21.6 0.248278
    endloop
  endfacet
  facet normal 0.891007 -1.00806e-16 -0.453989
    outer loop
      vertex 16.3101 -21.6 0.248278
      vertex 16.1255 -21.6 -0.114121
      vertex 16.1255 21.6 -0.114121
    endloop
  endfacet
  facet normal 0.891007 -1.00806e-16 -0.453989
    outer loop
      vertex 16.3101 21.6 0.248278
      vertex 16.3101 -21.6 0.248278
      vertex 16.1255 21.6 -0.114121
    endloop
  endfacet
  facet normal 0.707107 -1.57009e-16 -0.707107
    outer loop
      vertex 16.1255 -21.6 -0.114121
      vertex 15.8379 -21.6 -0.401722
      vertex 15.8379 21.6 -0.401722
    endloop
  endfacet
  facet normal 0.707107 -1.57009e-16 -0.707107
    outer loop
      vertex 16.1255 21.6 -0.114121
      vertex 16.1255 -21.6 -0.114121
      vertex 15.8379 21.6 -0.401722
    endloop
  endfacet
  facet normal 0.453989 -1.97843e-16 -0.891007
    outer loop
      vertex 15.4755 -21.6 -0.586373
      vertex 15.4755 21.6 -0.586373
      vertex 15.8379 -21.6 -0.401722
    endloop
  endfacet
  facet normal 0.453989 -1.97843e-16 -0.891007
    outer loop
      vertex 15.8379 -21.6 -0.401722
      vertex 15.4755 21.6 -0.586373
      vertex 15.8379 21.6 -0.401722
    endloop
  endfacet
  facet normal 0.156436 -2.19311e-16 -0.987688
    outer loop
      vertex 15.0738 -21.6 -0.65
      vertex 15.0738 21.6 -0.65
      vertex 15.4755 -21.6 -0.586373
    endloop
  endfacet
  facet normal 0.156436 -2.19311e-16 -0.987688
    outer loop
      vertex 15.4755 -21.6 -0.586373
      vertex 15.0738 21.6 -0.65
      vertex 15.4755 21.6 -0.586373
    endloop
  endfacet
  facet normal -0.156436 -2.19311e-16 -0.987688
    outer loop
      vertex 14.672 -21.6 -0.586373
      vertex 14.672 21.6 -0.586373
      vertex 15.0738 -21.6 -0.65
    endloop
  endfacet
  facet normal -0.156436 -2.19311e-16 -0.987688
    outer loop
      vertex 15.0738 -21.6 -0.65
      vertex 14.672 21.6 -0.586373
      vertex 15.0738 21.6 -0.65
    endloop
  endfacet
  facet normal -0.453989 -1.97843e-16 -0.891007
    outer loop
      vertex 14.3096 -21.6 -0.401722
      vertex 14.3096 21.6 -0.401722
      vertex 14.672 -21.6 -0.586373
    endloop
  endfacet
  facet normal -0.453989 -1.97843e-16 -0.891007
    outer loop
      vertex 14.672 -21.6 -0.586373
      vertex 14.3096 21.6 -0.401722
      vertex 14.672 21.6 -0.586373
    endloop
  endfacet
  facet normal -0.707107 -1.57009e-16 -0.707107
    outer loop
      vertex 14.022 -21.6 -0.114121
      vertex 14.022 21.6 -0.114121
      vertex 14.3096 -21.6 -0.401722
    endloop
  endfacet
  facet normal -0.707107 -1.57009e-16 -0.707107
    outer loop
      vertex 14.3096 -21.6 -0.401722
      vertex 14.022 21.6 -0.114121
      vertex 14.3096 21.6 -0.401722
    endloop
  endfacet
  facet normal -0.891007 -1.00806e-16 -0.453989
    outer loop
      vertex 13.8374 -21.6 0.248278
      vertex 13.8374 21.6 0.248278
      vertex 14.022 -21.6 -0.114121
    endloop
  endfacet
  facet normal -0.891007 -1.00806e-16 -0.453989
    outer loop
      vertex 14.022 -21.6 -0.114121
      vertex 13.8374 21.6 0.248278
      vertex 14.022 21.6 -0.114121
    endloop
  endfacet
  facet normal 0 1 -2.22045e-16
    outer loop
      vertex 13.7738 21.6 0.65
      vertex 13.8374 21.6 1.05172
      vertex 13.8374 21.6 0.248278
    endloop
  endfacet
  facet normal 0 1 -2.22045e-16
    outer loop
      vertex 13.8374 21.6 0.248278
      vertex 13.8374 21.6 1.05172
      vertex 14.022 21.6 1.41412
    endloop
  endfacet
  facet normal 0 1 -2.22045e-16
    outer loop
      vertex 13.8374 21.6 0.248278
      vertex 14.022 21.6 1.41412
      vertex 14.3096 21.6 1.70172
    endloop
  endfacet
  facet normal 0 1 -2.22045e-16
    outer loop
      vertex 13.8374 21.6 0.248278
      vertex 14.3096 21.6 1.70172
      vertex 14.672 21.6 1.88637
    endloop
  endfacet
  facet normal 0 1 -2.22045e-16
    outer loop
      vertex 13.8374 21.6 0.248278
      vertex 14.672 21.6 1.88637
      vertex 15.0738 21.6 1.95
    endloop
  endfacet
  facet normal 0 1 -2.22045e-16
    outer loop
      vertex 13.8374 21.6 0.248278
      vertex 15.0738 21.6 1.95
      vertex 15.4755 21.6 1.88637
    endloop
  endfacet
  facet normal 0 1 -2.22045e-16
    outer loop
      vertex 13.8374 21.6 0.248278
      vertex 15.4755 21.6 1.88637
      vertex 15.8379 21.6 1.70172
    endloop
  endfacet
  facet normal 0 1 -2.22045e-16
    outer loop
      vertex 13.8374 21.6 0.248278
      vertex 15.8379 21.6 1.70172
      vertex 16.1255 21.6 1.41412
    endloop
  endfacet
  facet normal 0 1 -2.22045e-16
    outer loop
      vertex 13.8374 21.6 0.248278
      vertex 16.1255 21.6 1.41412
      vertex 16.3101 21.6 1.05172
    endloop
  endfacet
  facet normal 0 1 -2.22045e-16
    outer loop
      vertex 13.8374 21.6 0.248278
      vertex 16.3101 21.6 1.05172
      vertex 16.3738 21.6 0.65
    endloop
  endfacet
  facet normal 0 1 -2.22045e-16
    outer loop
      vertex 13.8374 21.6 0.248278
      vertex 16.3738 21.6 0.65
      vertex 16.3101 21.6 0.248278
    endloop
  endfacet
  facet normal 0 1 -2.22045e-16
    outer loop
      vertex 13.8374 21.6 0.248278
      vertex 16.3101 21.6 0.248278
      vertex 16.1255 21.6 -0.114121
    endloop
  endfacet
  facet normal 0 1 -2.22045e-16
    outer loop
      vertex 13.8374 21.6 0.248278
      vertex 16.1255 21.6 -0.114121
      vertex 15.8379 21.6 -0.401722
    endloop
  endfacet
  facet normal 0 1 -2.22045e-16
    outer loop
      vertex 13.8374 21.6 0.248278
      vertex 15.8379 21.6 -0.401722
      vertex 15.4755 21.6 -0.586373
    endloop
  endfacet
  facet normal 0 1 -2.22045e-16
    outer loop
      vertex 13.8374 21.6 0.248278
      vertex 15.4755 21.6 -0.586373
      vertex 15.0738 21.6 -0.65
    endloop
  endfacet
  facet normal 0 1 -2.22045e-16
    outer loop
      vertex 13.8374 21.6 0.248278
      vertex 15.0738 21.6 -0.65
      vertex 14.672 21.6 -0.586373
    endloop
  endfacet
  facet normal 0 1 -2.22045e-16
    outer loop
      vertex 13.8374 21.6 0.248278
      vertex 14.672 21.6 -0.586373
      vertex 14.3096 21.6 -0.401722
    endloop
  endfacet
  facet normal 0 1 -2.22045e-16
    outer loop
      vertex 13.8374 21.6 0.248278
      vertex 14.3096 21.6 -0.401722
      vertex 14.022 21.6 -0.114121
    endloop
  endfacet
  facet normal 0 -1 0
    outer loop
      vertex 14.3485 21.5 -0.0619074
      vertex 14.9865 21.5 0.0619079
      vertex 14.6361 21.5 1.86806
    endloop
  endfacet
  facet normal 0 -1 0
    outer loop
      vertex 14.0555 21.5 1.44764
      vertex 14.3485 21.5 -0.0619074
      vertex 14.3096 21.5 1.70172
    endloop
  endfacet
  facet normal 0 -1 0
    outer loop
      vertex 14.3096 21.5 1.70172
      vertex 14.3485 21.5 -0.0619074
      vertex 14.6361 21.5 1.86806
    endloop
  endfacet
  facet normal 0.98169 0 0.190485
    outer loop
      vertex 14.3485 -21.5 -0.0619074
      vertex 14.3485 21.5 -0.0619074
      vertex 14.0555 21.5 1.44764
    endloop
  endfacet
  facet normal 0.98169 0 0.190485
    outer loop
      vertex 14.0555 -21.5 1.44764
      vertex 14.3485 -21.5 -0.0619074
      vertex 14.0555 21.5 1.44764
    endloop
  endfacet
  facet normal 0 1 0
    outer loop
      vertex 14.6361 -21.5 1.86806
      vertex 14.9865 -21.5 0.0619079
      vertex 14.3096 -21.5 1.70172
    endloop
  endfacet
  facet normal 0 1 0
    outer loop
      vertex 14.3096 -21.5 1.70172
      vertex 14.9865 -21.5 0.0619079
      vertex 14.3485 -21.5 -0.0619074
    endloop
  endfacet
  facet normal 0 1 0
    outer loop
      vertex 14.3096 -21.5 1.70172
      vertex 14.3485 -21.5 -0.0619074
      vertex 14.0555 -21.5 1.44764
    endloop
  endfacet
  facet normal -0.98169 0 -0.190485
    outer loop
      vertex 14.9865 21.5 0.0619079
      vertex 14.9865 -21.5 0.0619079
      vertex 14.6361 21.5 1.86806
    endloop
  endfacet
  facet normal -0.98169 0 -0.190485
    outer loop
      vertex 14.6361 21.5 1.86806
      vertex 14.9865 -21.5 0.0619079
      vertex 14.6361 -21.5 1.86806
    endloop
  endfacet
  facet normal 0.453989 1.97843e-16 0.891007
    outer loop
      vertex 15.4755 21.6 1.88637
      vertex 15.4755 21.5 1.88637
      vertex 15.8379 21.5 1.70172
    endloop
  endfacet
  facet normal 0.453989 1.97843e-16 0.891007
    outer loop
      vertex 15.8379 21.6 1.70172
      vertex 15.4755 21.6 1.88637
      vertex 15.8379 21.5 1.70172
    endloop
  endfacet
  facet normal 0 -1 0
    outer loop
      vertex 15.8037 21.5 -0.0295761
      vertex 15.9515 21.5 1.58811
      vertex 15.8379 21.5 1.70172
    endloop
  endfacet
  facet normal 0 -1 0
    outer loop
      vertex 15.3282 21.5 1.90971
      vertex 15.8037 21.5 -0.0295761
      vertex 15.4755 21.5 1.88637
    endloop
  endfacet
  facet normal 0 -1 0
    outer loop
      vertex 15.4755 21.5 1.88637
      vertex 15.8037 21.5 -0.0295761
      vertex 15.8379 21.5 1.70172
    endloop
  endfacet
  facet normal 0 -1 0
    outer loop
      vertex 15.1563 21.5 0.0295754
      vertex 15.8037 21.5 -0.0295761
      vertex 15.3282 21.5 1.90971
    endloop
  endfacet
  facet normal 0.995851 0 -0.0910022
    outer loop
      vertex 15.1563 21.5 0.0295754
      vertex 15.3282 21.5 1.90971
      vertex 15.3282 -21.5 1.90971
    endloop
  endfacet
  facet normal 0.995851 0 -0.0910022
    outer loop
      vertex 15.1563 -21.5 0.0295754
      vertex 15.1563 21.5 0.0295754
      vertex 15.3282 -21.5 1.90971
    endloop
  endfacet
  facet normal 0 1 0
    outer loop
      vertex 15.4755 -21.5 1.88637
      vertex 15.8379 -21.5 1.70172
      vertex 15.3282 -21.5 1.90971
    endloop
  endfacet
  facet normal 0 1 0
    outer loop
      vertex 15.3282 -21.5 1.90971
      vertex 15.8379 -21.5 1.70172
      vertex 15.9515 -21.5 1.58811
    endloop
  endfacet
  facet normal 0 1 0
    outer loop
      vertex 15.3282 -21.5 1.90971
      vertex 15.9515 -21.5 1.58811
      vertex 15.8037 -21.5 -0.0295761
    endloop
  endfacet
  facet normal 0 1 0
    outer loop
      vertex 15.3282 -21.5 1.90971
      vertex 15.8037 -21.5 -0.0295761
      vertex 15.1563 -21.5 0.0295754
    endloop
  endfacet
  facet normal -0.995851 0 0.0910022
    outer loop
      vertex 15.9515 21.5 1.58811
      vertex 15.8037 21.5 -0.0295761
      vertex 15.9515 -21.5 1.58811
    endloop
  endfacet
  facet normal -0.995851 0 0.0910022
    outer loop
      vertex 15.9515 -21.5 1.58811
      vertex 15.8037 21.5 -0.0295761
      vertex 15.8037 -21.5 -0.0295761
    endloop
  endfacet
  facet normal -0.190485 0 0.98169
    outer loop
      vertex 14.9865 -21.5 0.0619079
      vertex 14.9865 21.5 0.0619079
      vertex 14.3485 21.5 -0.0619074
    endloop
  endfacet
  facet normal -0.190485 0 0.98169
    outer loop
      vertex 14.3485 -21.5 -0.0619074
      vertex 14.9865 -21.5 0.0619079
      vertex 14.3485 21.5 -0.0619074
    endloop
  endfacet
  facet normal 0.0910022 0 0.995851
    outer loop
      vertex 15.8037 -21.5 -0.0295761
      vertex 15.8037 21.5 -0.0295761
      vertex 15.1563 21.5 0.0295754
    endloop
  endfacet
  facet normal 0.0910022 0 0.995851
    outer loop
      vertex 15.1563 -21.5 0.0295754
      vertex 15.8037 -21.5 -0.0295761
      vertex 15.1563 21.5 0.0295754
    endloop
  endfacet
endsolid OpenSCAD_Model
