solid OpenSCAD_Model
  facet normal -0.936256 -7.80084e-17 -0.351318
    outer loop
      vertex 153.807 -216 11.574
      vertex 153.807 216 11.574
      vertex 158.15 -216 9.59233e-14
    endloop
  endfacet
  facet normal -0.936256 -7.80084e-17 -0.351318
    outer loop
      vertex 158.15 -216 9.59233e-14
      vertex 153.807 216 11.574
      vertex 158.15 216 0
    endloop
  endfacet
  facet normal 0 2.22045e-16 1
    outer loop
      vertex 154.461 -215 11.574
      vertex 153.807 -216 11.574
      vertex 174.313 -216 11.574
    endloop
  endfacet
  facet normal 0 2.22045e-16 1
    outer loop
      vertex 161.404 -215 11.574
      vertex 154.461 -215 11.574
      vertex 174.313 -216 11.574
    endloop
  endfacet
  facet normal 0 2.22045e-16 1
    outer loop
      vertex 153.807 216 11.574
      vertex 153.807 -216 11.574
      vertex 154.461 -215 11.574
    endloop
  endfacet
  facet normal 0 2.22045e-16 1
    outer loop
      vertex 174.313 216 11.574
      vertex 153.807 216 11.574
      vertex 154.461 215 11.574
    endloop
  endfacet
  facet normal 0 2.22045e-16 1
    outer loop
      vertex 174.313 216 11.574
      vertex 154.461 215 11.574
      vertex 161.404 215 11.574
    endloop
  endfacet
  facet normal 0 2.22045e-16 1
    outer loop
      vertex 167.196 -215 11.574
      vertex 161.404 -215 11.574
      vertex 174.313 -216 11.574
    endloop
  endfacet
  facet normal 0 2.22045e-16 1
    outer loop
      vertex 173.729 -215 11.574
      vertex 167.196 -215 11.574
      vertex 174.313 -216 11.574
    endloop
  endfacet
  facet normal 0 2.22045e-16 1
    outer loop
      vertex 161.404 215 11.574
      vertex 161.404 -215 11.574
      vertex 167.196 -215 11.574
    endloop
  endfacet
  facet normal 0 2.22045e-16 1
    outer loop
      vertex 174.313 216 11.574
      vertex 161.404 215 11.574
      vertex 167.196 215 11.574
    endloop
  endfacet
  facet normal 0 2.22045e-16 1
    outer loop
      vertex 174.313 216 11.574
      vertex 173.729 215 11.574
      vertex 174.313 -216 11.574
    endloop
  endfacet
  facet normal 0 2.22045e-16 1
    outer loop
      vertex 174.313 216 11.574
      vertex 167.196 215 11.574
      vertex 173.729 215 11.574
    endloop
  endfacet
  facet normal 0 2.22045e-16 1
    outer loop
      vertex 173.729 215 11.574
      vertex 173.729 -215 11.574
      vertex 174.313 -216 11.574
    endloop
  endfacet
  facet normal 0 2.22045e-16 1
    outer loop
      vertex 167.196 -215 11.574
      vertex 167.196 215 11.574
      vertex 161.404 215 11.574
    endloop
  endfacet
  facet normal 0 2.22045e-16 1
    outer loop
      vertex 154.461 -215 11.574
      vertex 154.461 215 11.574
      vertex 153.807 216 11.574
    endloop
  endfacet
  facet normal 0 -1 2.22045e-16
    outer loop
      vertex 174.313 -216 11.574
      vertex 153.807 -216 11.574
      vertex 158.15 -216 9.59233e-14
    endloop
  endfacet
  facet normal 0 -1 2.22045e-16
    outer loop
      vertex 173.15 -216 9.59233e-14
      vertex 174.313 -216 11.574
      vertex 158.15 -216 9.59233e-14
    endloop
  endfacet
  facet normal 0 -2.22045e-16 -1
    outer loop
      vertex 158.15 -216 9.59233e-14
      vertex 158.15 216 0
      vertex 173.15 -216 9.59233e-14
    endloop
  endfacet
  facet normal 0 -2.22045e-16 -1
    outer loop
      vertex 173.15 -216 9.59233e-14
      vertex 158.15 216 0
      vertex 173.15 216 0
    endloop
  endfacet
  facet normal 0 1 -2.22045e-16
    outer loop
      vertex 153.807 216 11.574
      vertex 174.313 216 11.574
      vertex 158.15 216 0
    endloop
  endfacet
  facet normal 0 1 -2.22045e-16
    outer loop
      vertex 158.15 216 0
      vertex 174.313 216 11.574
      vertex 173.15 216 0
    endloop
  endfacet
  facet normal 0.994989 -2.22001e-17 -0.0999804
    outer loop
      vertex 174.313 -216 11.574
      vertex 173.15 -216 9.59233e-14
      vertex 173.15 216 0
    endloop
  endfacet
  facet normal 0.994989 -2.22001e-17 -0.0999804
    outer loop
      vertex 174.313 216 11.574
      vertex 174.313 -216 11.574
      vertex 173.15 216 0
    endloop
  endfacet
  facet normal 0 1 0
    outer loop
      vertex 164.542 -215 3.21064
      vertex 158.456 -215 0.927234
      vertex 161.404 -215 11.574
    endloop
  endfacet
  facet normal 0 1 0
    outer loop
      vertex 161.404 -215 11.574
      vertex 158.456 -215 0.927234
      vertex 154.461 -215 11.574
    endloop
  endfacet
  facet normal 0.936265 0 0.351294
    outer loop
      vertex 158.456 -215 0.927234
      vertex 158.456 215 0.927234
      vertex 154.461 215 11.574
    endloop
  endfacet
  facet normal 0.936265 0 0.351294
    outer loop
      vertex 154.461 -215 11.574
      vertex 158.456 -215 0.927234
      vertex 154.461 215 11.574
    endloop
  endfacet
  facet normal -0.936265 0 -0.351294
    outer loop
      vertex 164.542 215 3.21064
      vertex 164.542 -215 3.21064
      vertex 161.404 215 11.574
    endloop
  endfacet
  facet normal -0.936265 0 -0.351294
    outer loop
      vertex 161.404 215 11.574
      vertex 164.542 -215 3.21064
      vertex 161.404 -215 11.574
    endloop
  endfacet
  facet normal 0 -1 0
    outer loop
      vertex 158.456 215 0.927234
      vertex 164.542 215 3.21064
      vertex 161.404 215 11.574
    endloop
  endfacet
  facet normal 0 -1 0
    outer loop
      vertex 154.461 215 11.574
      vertex 158.456 215 0.927234
      vertex 161.404 215 11.574
    endloop
  endfacet
  facet normal 0.99499 0 -0.0999712
    outer loop
      vertex 166.199 215 1.64819
      vertex 167.196 215 11.574
      vertex 167.196 -215 11.574
    endloop
  endfacet
  facet normal 0.99499 0 -0.0999712
    outer loop
      vertex 166.199 -215 1.64819
      vertex 166.199 215 1.64819
      vertex 167.196 -215 11.574
    endloop
  endfacet
  facet normal 0 1 0
    outer loop
      vertex 173.729 -215 11.574
      vertex 172.666 -215 0.998373
      vertex 167.196 -215 11.574
    endloop
  endfacet
  facet normal 0 1 0
    outer loop
      vertex 167.196 -215 11.574
      vertex 172.666 -215 0.998373
      vertex 166.199 -215 1.64819
    endloop
  endfacet
  facet normal -0.99499 0 0.0999712
    outer loop
      vertex 173.729 215 11.574
      vertex 172.666 215 0.998373
      vertex 173.729 -215 11.574
    endloop
  endfacet
  facet normal -0.99499 0 0.0999712
    outer loop
      vertex 173.729 -215 11.574
      vertex 172.666 215 0.998373
      vertex 172.666 -215 0.998373
    endloop
  endfacet
  facet normal 0 -1 0
    outer loop
      vertex 172.666 215 0.998373
      vertex 173.729 215 11.574
      vertex 167.196 215 11.574
    endloop
  endfacet
  facet normal 0 -1 0
    outer loop
      vertex 166.199 215 1.64819
      vertex 172.666 215 0.998373
      vertex 167.196 215 11.574
    endloop
  endfacet
  facet normal -0.351294 0 0.936265
    outer loop
      vertex 164.542 -215 3.21064
      vertex 164.542 215 3.21064
      vertex 158.456 215 0.927234
    endloop
  endfacet
  facet normal -0.351294 0 0.936265
    outer loop
      vertex 158.456 -215 0.927234
      vertex 164.542 -215 3.21064
      vertex 158.456 215 0.927234
    endloop
  endfacet
  facet normal 0.0999712 0 0.99499
    outer loop
      vertex 172.666 -215 0.998373
      vertex 172.666 215 0.998373
      vertex 166.199 215 1.64819
    endloop
  endfacet
  facet normal 0.0999712 0 0.99499
    outer loop
      vertex 166.199 -215 1.64819
      vertex 172.666 -215 0.998373
      vertex 166.199 215 1.64819
    endloop
  endfacet
endsolid OpenSCAD_Model
