solid OpenSCAD_Model
  facet normal -0.982339 -4.15463e-17 -0.187108
    outer loop
      vertex 138.562 -217 19.963
      vertex 138.562 -197 19.963
      vertex 142.613 -217 -1.3
    endloop
  endfacet
  facet normal -0.982339 -4.15463e-17 -0.187108
    outer loop
      vertex 142.613 -217 -1.3
      vertex 138.562 -197 19.963
      vertex 142.613 -197 -1.3
    endloop
  endfacet
  facet normal 0 2.22045e-16 1
    outer loop
      vertex 153.361 -215 19.963
      vertex 138.562 -217 19.963
      vertex 160.797 -217 19.963
    endloop
  endfacet
  facet normal 0 2.22045e-16 1
    outer loop
      vertex 139.491 -215 19.963
      vertex 139.491 -197 19.963
      vertex 138.562 -197 19.963
    endloop
  endfacet
  facet normal 0 2.22045e-16 1
    outer loop
      vertex 160.797 -197 19.963
      vertex 159.888 -197 19.963
      vertex 160.797 -217 19.963
    endloop
  endfacet
  facet normal 0 2.22045e-16 1
    outer loop
      vertex 159.888 -197 19.963
      vertex 159.888 -215 19.963
      vertex 160.797 -217 19.963
    endloop
  endfacet
  facet normal 0 2.22045e-16 1
    outer loop
      vertex 146.112 -197 19.963
      vertex 146.112 -215 19.963
      vertex 153.361 -215 19.963
    endloop
  endfacet
  facet normal 0 2.22045e-16 1
    outer loop
      vertex 146.112 -215 19.963
      vertex 138.562 -217 19.963
      vertex 153.361 -215 19.963
    endloop
  endfacet
  facet normal 0 2.22045e-16 1
    outer loop
      vertex 139.491 -215 19.963
      vertex 138.562 -217 19.963
      vertex 146.112 -215 19.963
    endloop
  endfacet
  facet normal 0 2.22045e-16 1
    outer loop
      vertex 138.562 -197 19.963
      vertex 138.562 -217 19.963
      vertex 139.491 -215 19.963
    endloop
  endfacet
  facet normal 0 2.22045e-16 1
    outer loop
      vertex 159.888 -215 19.963
      vertex 153.361 -215 19.963
      vertex 160.797 -217 19.963
    endloop
  endfacet
  facet normal 0 2.22045e-16 1
    outer loop
      vertex 153.361 -215 19.963
      vertex 153.361 -197 19.963
      vertex 146.112 -197 19.963
    endloop
  endfacet
  facet normal 0 -1 2.22045e-16
    outer loop
      vertex 160.797 -217 19.963
      vertex 138.562 -217 19.963
      vertex 142.613 -217 -1.3
    endloop
  endfacet
  facet normal 0 -1 2.22045e-16
    outer loop
      vertex 158.863 -217 -1.3
      vertex 160.797 -217 19.963
      vertex 142.613 -217 -1.3
    endloop
  endfacet
  facet normal 0 -2.22045e-16 -1
    outer loop
      vertex 142.613 -217 -1.3
      vertex 142.613 -197 -1.3
      vertex 158.863 -217 -1.3
    endloop
  endfacet
  facet normal 0 -2.22045e-16 -1
    outer loop
      vertex 158.863 -217 -1.3
      vertex 142.613 -197 -1.3
      vertex 158.863 -197 -1.3
    endloop
  endfacet
  facet normal 0 1 -2.22045e-16
    outer loop
      vertex 138.562 -197 19.963
      vertex 139.491 -197 19.963
      vertex 142.613 -197 -1.3
    endloop
  endfacet
  facet normal 0 1 -2.22045e-16
    outer loop
      vertex 142.613 -197 -1.3
      vertex 139.491 -197 19.963
      vertex 143.485 -197 -0.619076
    endloop
  endfacet
  facet normal 0 1 -2.22045e-16
    outer loop
      vertex 142.613 -197 -1.3
      vertex 143.485 -197 -0.619076
      vertex 149.865 -197 0.619077
    endloop
  endfacet
  facet normal 0 1 -2.22045e-16
    outer loop
      vertex 149.865 -197 0.619077
      vertex 146.112 -197 19.963
      vertex 153.361 -197 19.963
    endloop
  endfacet
  facet normal 0 1 -2.22045e-16
    outer loop
      vertex 149.865 -197 0.619077
      vertex 153.361 -197 19.963
      vertex 151.563 -197 0.295758
    endloop
  endfacet
  facet normal 0 1 -2.22045e-16
    outer loop
      vertex 149.865 -197 0.619077
      vertex 151.563 -197 0.295758
      vertex 142.613 -197 -1.3
    endloop
  endfacet
  facet normal 0 1 -2.22045e-16
    outer loop
      vertex 151.563 -197 0.295758
      vertex 158.037 -197 -0.295757
      vertex 142.613 -197 -1.3
    endloop
  endfacet
  facet normal 0 1 -2.22045e-16
    outer loop
      vertex 158.037 -197 -0.295757
      vertex 159.888 -197 19.963
      vertex 160.797 -197 19.963
    endloop
  endfacet
  facet normal 0 1 -2.22045e-16
    outer loop
      vertex 158.037 -197 -0.295757
      vertex 160.797 -197 19.963
      vertex 158.863 -197 -1.3
    endloop
  endfacet
  facet normal 0 1 -2.22045e-16
    outer loop
      vertex 158.037 -197 -0.295757
      vertex 158.863 -197 -1.3
      vertex 142.613 -197 -1.3
    endloop
  endfacet
  facet normal 0.98169 0 0.190485
    outer loop
      vertex 143.485 -215 -0.619076
      vertex 143.485 -197 -0.619076
      vertex 139.491 -197 19.963
    endloop
  endfacet
  facet normal 0.98169 0 0.190485
    outer loop
      vertex 139.491 -215 19.963
      vertex 143.485 -215 -0.619076
      vertex 139.491 -197 19.963
    endloop
  endfacet
  facet normal 0 1 0
    outer loop
      vertex 149.865 -215 0.619077
      vertex 143.485 -215 -0.619076
      vertex 146.112 -215 19.963
    endloop
  endfacet
  facet normal 0 1 0
    outer loop
      vertex 146.112 -215 19.963
      vertex 143.485 -215 -0.619076
      vertex 139.491 -215 19.963
    endloop
  endfacet
  facet normal -0.98169 0 -0.190485
    outer loop
      vertex 149.865 -197 0.619077
      vertex 149.865 -215 0.619077
      vertex 146.112 -197 19.963
    endloop
  endfacet
  facet normal -0.98169 0 -0.190485
    outer loop
      vertex 146.112 -197 19.963
      vertex 149.865 -215 0.619077
      vertex 146.112 -215 19.963
    endloop
  endfacet
  facet normal 0.995851 0 -0.0910022
    outer loop
      vertex 151.563 -197 0.295758
      vertex 153.361 -197 19.963
      vertex 153.361 -215 19.963
    endloop
  endfacet
  facet normal 0.995851 0 -0.0910022
    outer loop
      vertex 151.563 -215 0.295758
      vertex 151.563 -197 0.295758
      vertex 153.361 -215 19.963
    endloop
  endfacet
  facet normal 0 1 0
    outer loop
      vertex 159.888 -215 19.963
      vertex 158.037 -215 -0.295757
      vertex 153.361 -215 19.963
    endloop
  endfacet
  facet normal 0 1 0
    outer loop
      vertex 153.361 -215 19.963
      vertex 158.037 -215 -0.295757
      vertex 151.563 -215 0.295758
    endloop
  endfacet
  facet normal -0.995851 0 0.0910022
    outer loop
      vertex 159.888 -197 19.963
      vertex 158.037 -197 -0.295757
      vertex 159.888 -215 19.963
    endloop
  endfacet
  facet normal -0.995851 0 0.0910022
    outer loop
      vertex 159.888 -215 19.963
      vertex 158.037 -197 -0.295757
      vertex 158.037 -215 -0.295757
    endloop
  endfacet
  facet normal 0.995885 -2.01236e-17 -0.0906287
    outer loop
      vertex 160.797 -217 19.963
      vertex 158.863 -217 -1.3
      vertex 158.863 -197 -1.3
    endloop
  endfacet
  facet normal 0.995885 -2.01236e-17 -0.0906287
    outer loop
      vertex 160.797 -197 19.963
      vertex 160.797 -217 19.963
      vertex 158.863 -197 -1.3
    endloop
  endfacet
  facet normal 0.0910022 0 0.995851
    outer loop
      vertex 158.037 -215 -0.295757
      vertex 158.037 -197 -0.295757
      vertex 151.563 -197 0.295758
    endloop
  endfacet
  facet normal 0.0910022 0 0.995851
    outer loop
      vertex 151.563 -215 0.295758
      vertex 158.037 -215 -0.295757
      vertex 151.563 -197 0.295758
    endloop
  endfacet
  facet normal -0.190485 0 0.98169
    outer loop
      vertex 149.865 -215 0.619077
      vertex 149.865 -197 0.619077
      vertex 143.485 -197 -0.619076
    endloop
  endfacet
  facet normal -0.190485 0 0.98169
    outer loop
      vertex 143.485 -215 -0.619076
      vertex 149.865 -215 0.619077
      vertex 143.485 -197 -0.619076
    endloop
  endfacet
endsolid OpenSCAD_Model
