solid OpenSCAD_Model
  facet normal -1 0 0
    outer loop
      vertex -215 -215 423.5
      vertex -215 -215 430
      vertex -215 215 423.5
    endloop
  endfacet
  facet normal -1 0 0
    outer loop
      vertex -215 215 423.5
      vertex -215 -215 430
      vertex -215 215 430
    endloop
  endfacet
  facet normal 0 -1 0
    outer loop
      vertex -215 -215 430
      vertex -215 -215 423.5
      vertex 215 -215 423.5
    endloop
  endfacet
  facet normal 0 -1 0
    outer loop
      vertex 215 -215 430
      vertex -215 -215 430
      vertex 215 -215 423.5
    endloop
  endfacet
  facet normal 0 0 -1
    outer loop
      vertex -215 -215 423.5
      vertex -215 215 423.5
      vertex 215 -215 423.5
    endloop
  endfacet
  facet normal 0 0 -1
    outer loop
      vertex 215 -215 423.5
      vertex -215 215 423.5
      vertex 215 215 423.5
    endloop
  endfacet
  facet normal 0 1 0
    outer loop
      vertex -215 215 423.5
      vertex -215 215 430
      vertex 215 215 423.5
    endloop
  endfacet
  facet normal 0 1 0
    outer loop
      vertex 215 215 423.5
      vertex -215 215 430
      vertex 215 215 430
    endloop
  endfacet
  facet normal 0 0 1
    outer loop
      vertex -215 215 430
      vertex -215 -215 430
      vertex 215 -215 430
    endloop
  endfacet
  facet normal 0 0 1
    outer loop
      vertex 215 215 430
      vertex -215 215 430
      vertex 215 -215 430
    endloop
  endfacet
  facet normal 1 0 0
    outer loop
      vertex 215 -215 430
      vertex 215 -215 423.5
      vertex 215 215 423.5
    endloop
  endfacet
  facet normal 1 0 0
    outer loop
      vertex 215 215 430
      vertex 215 -215 430
      vertex 215 215 423.5
    endloop
  endfacet
  facet normal -0.0999712 0 -0.99499
    outer loop
      vertex 166.199 -215 1.64819
      vertex 166.199 215 1.64819
      vertex 172.666 -215 0.998373
    endloop
  endfacet
  facet normal -0.0999712 0 -0.99499
    outer loop
      vertex 172.666 -215 0.998373
      vertex 166.199 215 1.64819
      vertex 172.666 215 0.998373
    endloop
  endfacet
  facet normal -0.99499 0 0.0999712
    outer loop
      vertex 166.199 -215 1.64819
      vertex 208.484 -215 422.502
      vertex 166.199 215 1.64819
    endloop
  endfacet
  facet normal -0.99499 0 0.0999712
    outer loop
      vertex 166.199 215 1.64819
      vertex 208.484 -215 422.502
      vertex 208.484 215 422.502
    endloop
  endfacet
  facet normal 0 -1 0
    outer loop
      vertex 208.484 -215 422.502
      vertex 166.199 -215 1.64819
      vertex 172.666 -215 0.998373
    endloop
  endfacet
  facet normal 0 -1 0
    outer loop
      vertex 214.951 -215 421.852
      vertex 208.484 -215 422.502
      vertex 172.666 -215 0.998373
    endloop
  endfacet
  facet normal 0.99499 0 -0.0999712
    outer loop
      vertex 214.951 -215 421.852
      vertex 172.666 -215 0.998373
      vertex 172.666 215 0.998373
    endloop
  endfacet
  facet normal 0.99499 0 -0.0999712
    outer loop
      vertex 214.951 215 421.852
      vertex 214.951 -215 421.852
      vertex 172.666 215 0.998373
    endloop
  endfacet
  facet normal 0 1 0
    outer loop
      vertex 166.199 215 1.64819
      vertex 208.484 215 422.502
      vertex 172.666 215 0.998373
    endloop
  endfacet
  facet normal 0 1 0
    outer loop
      vertex 172.666 215 0.998373
      vertex 208.484 215 422.502
      vertex 214.951 215 421.852
    endloop
  endfacet
  facet normal 0.0999712 0 0.99499
    outer loop
      vertex 208.484 215 422.502
      vertex 208.484 -215 422.502
      vertex 214.951 -215 421.852
    endloop
  endfacet
  facet normal 0.0999712 0 0.99499
    outer loop
      vertex 214.951 215 421.852
      vertex 208.484 215 422.502
      vertex 214.951 -215 421.852
    endloop
  endfacet
  facet normal -0.0999712 0 0.99499
    outer loop
      vertex -214.951 215 421.852
      vertex -214.951 -215 421.852
      vertex -208.484 -215 422.502
    endloop
  endfacet
  facet normal -0.0999712 0 0.99499
    outer loop
      vertex -208.484 215 422.502
      vertex -214.951 215 421.852
      vertex -208.484 -215 422.502
    endloop
  endfacet
  facet normal 0 -1 0
    outer loop
      vertex -208.484 -215 422.502
      vertex -214.951 -215 421.852
      vertex -172.666 -215 0.998373
    endloop
  endfacet
  facet normal 0 -1 0
    outer loop
      vertex -166.199 -215 1.64819
      vertex -208.484 -215 422.502
      vertex -172.666 -215 0.998373
    endloop
  endfacet
  facet normal -0.99499 0 -0.0999712
    outer loop
      vertex -214.951 -215 421.852
      vertex -214.951 215 421.852
      vertex -172.666 -215 0.998373
    endloop
  endfacet
  facet normal -0.99499 0 -0.0999712
    outer loop
      vertex -172.666 -215 0.998373
      vertex -214.951 215 421.852
      vertex -172.666 215 0.998373
    endloop
  endfacet
  facet normal 0 1 0
    outer loop
      vertex -214.951 215 421.852
      vertex -208.484 215 422.502
      vertex -172.666 215 0.998373
    endloop
  endfacet
  facet normal 0 1 0
    outer loop
      vertex -172.666 215 0.998373
      vertex -208.484 215 422.502
      vertex -166.199 215 1.64819
    endloop
  endfacet
  facet normal 0.99499 0 0.0999712
    outer loop
      vertex -208.484 215 422.502
      vertex -208.484 -215 422.502
      vertex -166.199 -215 1.64819
    endloop
  endfacet
  facet normal 0.99499 0 0.0999712
    outer loop
      vertex -166.199 215 1.64819
      vertex -208.484 215 422.502
      vertex -166.199 -215 1.64819
    endloop
  endfacet
  facet normal 0.0999712 0 -0.99499
    outer loop
      vertex -172.666 -215 0.998373
      vertex -172.666 215 0.998373
      vertex -166.199 -215 1.64819
    endloop
  endfacet
  facet normal 0.0999712 0 -0.99499
    outer loop
      vertex -166.199 -215 1.64819
      vertex -172.666 215 0.998373
      vertex -166.199 215 1.64819
    endloop
  endfacet
  facet normal -0.351294 0 0.936265
    outer loop
      vertex 1.10821 215 420.289
      vertex 1.10821 -215 420.289
      vertex 7.19394 -215 422.573
    endloop
  endfacet
  facet normal -0.351294 0 0.936265
    outer loop
      vertex 7.19394 215 422.573
      vertex 1.10821 215 420.289
      vertex 7.19394 -215 422.573
    endloop
  endfacet
  facet normal 0 -1 0
    outer loop
      vertex 7.19394 -215 422.573
      vertex 1.10821 -215 420.289
      vertex 158.456 -215 0.927234
    endloop
  endfacet
  facet normal 0 -1 0
    outer loop
      vertex 164.542 -215 3.21064
      vertex 7.19394 -215 422.573
      vertex 158.456 -215 0.927234
    endloop
  endfacet
  facet normal -0.936265 0 -0.351294
    outer loop
      vertex 1.10821 -215 420.289
      vertex 1.10821 215 420.289
      vertex 158.456 -215 0.927234
    endloop
  endfacet
  facet normal -0.936265 0 -0.351294
    outer loop
      vertex 158.456 -215 0.927234
      vertex 1.10821 215 420.289
      vertex 158.456 215 0.927234
    endloop
  endfacet
  facet normal 0 1 0
    outer loop
      vertex 1.10821 215 420.289
      vertex 7.19394 215 422.573
      vertex 158.456 215 0.927234
    endloop
  endfacet
  facet normal 0 1 0
    outer loop
      vertex 158.456 215 0.927234
      vertex 7.19394 215 422.573
      vertex 164.542 215 3.21064
    endloop
  endfacet
  facet normal 0.936265 0 0.351294
    outer loop
      vertex 7.19394 215 422.573
      vertex 7.19394 -215 422.573
      vertex 164.542 -215 3.21064
    endloop
  endfacet
  facet normal 0.936265 0 0.351294
    outer loop
      vertex 164.542 215 3.21064
      vertex 7.19394 215 422.573
      vertex 164.542 -215 3.21064
    endloop
  endfacet
  facet normal 0.351294 0 -0.936265
    outer loop
      vertex 158.456 -215 0.927234
      vertex 158.456 215 0.927234
      vertex 164.542 -215 3.21064
    endloop
  endfacet
  facet normal 0.351294 0 -0.936265
    outer loop
      vertex 164.542 -215 3.21064
      vertex 158.456 215 0.927234
      vertex 164.542 215 3.21064
    endloop
  endfacet
  facet normal -0.351294 0 -0.936265
    outer loop
      vertex -164.542 -215 3.21064
      vertex -164.542 215 3.21064
      vertex -158.456 -215 0.927234
    endloop
  endfacet
  facet normal -0.351294 0 -0.936265
    outer loop
      vertex -158.456 -215 0.927234
      vertex -164.542 215 3.21064
      vertex -158.456 215 0.927234
    endloop
  endfacet
  facet normal -0.936265 0 0.351294
    outer loop
      vertex -164.542 -215 3.21064
      vertex -7.19394 -215 422.573
      vertex -164.542 215 3.21064
    endloop
  endfacet
  facet normal -0.936265 0 0.351294
    outer loop
      vertex -164.542 215 3.21064
      vertex -7.19394 -215 422.573
      vertex -7.19394 215 422.573
    endloop
  endfacet
  facet normal 0 -1 0
    outer loop
      vertex -7.19394 -215 422.573
      vertex -164.542 -215 3.21064
      vertex -158.456 -215 0.927234
    endloop
  endfacet
  facet normal 0 -1 0
    outer loop
      vertex -1.10821 -215 420.289
      vertex -7.19394 -215 422.573
      vertex -158.456 -215 0.927234
    endloop
  endfacet
  facet normal 0.936265 0 -0.351294
    outer loop
      vertex -1.10821 -215 420.289
      vertex -158.456 -215 0.927234
      vertex -158.456 215 0.927234
    endloop
  endfacet
  facet normal 0.936265 0 -0.351294
    outer loop
      vertex -1.10821 215 420.289
      vertex -1.10821 -215 420.289
      vertex -158.456 215 0.927234
    endloop
  endfacet
  facet normal 0 1 0
    outer loop
      vertex -164.542 215 3.21064
      vertex -7.19394 215 422.573
      vertex -158.456 215 0.927234
    endloop
  endfacet
  facet normal 0 1 0
    outer loop
      vertex -158.456 215 0.927234
      vertex -7.19394 215 422.573
      vertex -1.10821 215 420.289
    endloop
  endfacet
  facet normal 0.351294 0 0.936265
    outer loop
      vertex -7.19394 215 422.573
      vertex -7.19394 -215 422.573
      vertex -1.10821 -215 420.289
    endloop
  endfacet
  facet normal 0.351294 0 0.936265
    outer loop
      vertex -1.10821 215 420.289
      vertex -7.19394 215 422.573
      vertex -1.10821 -215 420.289
    endloop
  endfacet
endsolid OpenSCAD_Model
