solid OpenSCAD_Model
  facet normal -1 0 0
    outer loop
      vertex -215 -215 423.5
      vertex -215 -215 430
      vertex -215 215 423.5
    endloop
  endfacet
  facet normal -1 0 0
    outer loop
      vertex -215 215 423.5
      vertex -215 -215 430
      vertex -215 215 430
    endloop
  endfacet
  facet normal 0 -1 0
    outer loop
      vertex -215 -215 430
      vertex -215 -215 423.5
      vertex 215 -215 423.5
    endloop
  endfacet
  facet normal 0 -1 0
    outer loop
      vertex 215 -215 430
      vertex -215 -215 430
      vertex 215 -215 423.5
    endloop
  endfacet
  facet normal 0 0 -1
    outer loop
      vertex -215 -215 423.5
      vertex -215 215 423.5
      vertex 215 -215 423.5
    endloop
  endfacet
  facet normal 0 0 -1
    outer loop
      vertex 215 -215 423.5
      vertex -215 215 423.5
      vertex 215 215 423.5
    endloop
  endfacet
  facet normal 0 1 0
    outer loop
      vertex -215 215 423.5
      vertex -215 215 430
      vertex 215 215 423.5
    endloop
  endfacet
  facet normal 0 1 0
    outer loop
      vertex 215 215 423.5
      vertex -215 215 430
      vertex 215 215 430
    endloop
  endfacet
  facet normal 0 0 1
    outer loop
      vertex -215 215 430
      vertex -215 -215 430
      vertex 215 -215 430
    endloop
  endfacet
  facet normal 0 0 1
    outer loop
      vertex 215 215 430
      vertex -215 215 430
      vertex 215 -215 430
    endloop
  endfacet
  facet normal 1 0 0
    outer loop
      vertex 215 -215 430
      vertex 215 -215 423.5
      vertex 215 215 423.5
    endloop
  endfacet
  facet normal 1 0 0
    outer loop
      vertex 215 215 430
      vertex 215 -215 430
      vertex 215 215 423.5
    endloop
  endfacet
  facet normal -0.0999712 0 -0.99499
    outer loop
      vertex 166.199 -215 1.64819
      vertex 166.199 215 1.64819
      vertex 172.666 -215 0.998373
    endloop
  endfacet
  facet normal -0.0999712 0 -0.99499
    outer loop
      vertex 172.666 -215 0.998373
      vertex 166.199 215 1.64819
      vertex 172.666 215 0.998373
    endloop
  endfacet
  facet normal -0.99499 0 0.0999712
    outer loop
      vertex 166.199 -215 1.64819
      vertex 208.484 -215 422.502
      vertex 166.199 215 1.64819
    endloop
  endfacet
  facet normal -0.99499 0 0.0999712
    outer loop
      vertex 166.199 215 1.64819
      vertex 208.484 -215 422.502
      vertex 208.484 215 422.502
    endloop
  endfacet
  facet normal 0 -1 0
    outer loop
      vertex 208.484 -215 422.502
      vertex 166.199 -215 1.64819
      vertex 172.666 -215 0.998373
    endloop
  endfacet
  facet normal 0 -1 0
    outer loop
      vertex 214.951 -215 421.852
      vertex 208.484 -215 422.502
      vertex 172.666 -215 0.998373
    endloop
  endfacet
  facet normal 0.99499 0 -0.0999712
    outer loop
      vertex 214.951 -215 421.852
      vertex 172.666 -215 0.998373
      vertex 172.666 215 0.998373
    endloop
  endfacet
  facet normal 0.99499 0 -0.0999712
    outer loop
      vertex 214.951 215 421.852
      vertex 214.951 -215 421.852
      vertex 172.666 215 0.998373
    endloop
  endfacet
  facet normal 0 1 0
    outer loop
      vertex 166.199 215 1.64819
      vertex 208.484 215 422.502
      vertex 172.666 215 0.998373
    endloop
  endfacet
  facet normal 0 1 0
    outer loop
      vertex 172.666 215 0.998373
      vertex 208.484 215 422.502
      vertex 214.951 215 421.852
    endloop
  endfacet
  facet normal 0.0999712 0 0.99499
    outer loop
      vertex 208.484 215 422.502
      vertex 208.484 -215 422.502
      vertex 214.951 -215 421.852
    endloop
  endfacet
  facet normal 0.0999712 0 0.99499
    outer loop
      vertex 214.951 215 421.852
      vertex 208.484 215 422.502
      vertex 214.951 -215 421.852
    endloop
  endfacet
  facet normal -0.0999712 0 0.99499
    outer loop
      vertex -214.951 215 421.852
      vertex -214.951 -215 421.852
      vertex -208.484 -215 422.502
    endloop
  endfacet
  facet normal -0.0999712 0 0.99499
    outer loop
      vertex -208.484 215 422.502
      vertex -214.951 215 421.852
      vertex -208.484 -215 422.502
    endloop
  endfacet
  facet normal 0 -1 0
    outer loop
      vertex -208.484 -215 422.502
      vertex -214.951 -215 421.852
      vertex -172.666 -215 0.998373
    endloop
  endfacet
  facet normal 0 -1 0
    outer loop
      vertex -166.199 -215 1.64819
      vertex -208.484 -215 422.502
      vertex -172.666 -215 0.998373
    endloop
  endfacet
  facet normal -0.99499 0 -0.0999712
    outer loop
      vertex -214.951 -215 421.852
      vertex -214.951 215 421.852
      vertex -172.666 -215 0.998373
    endloop
  endfacet
  facet normal -0.99499 0 -0.0999712
    outer loop
      vertex -172.666 -215 0.998373
      vertex -214.951 215 421.852
      vertex -172.666 215 0.998373
    endloop
  endfacet
  facet normal 0 1 0
    outer loop
      vertex -214.951 215 421.852
      vertex -208.484 215 422.502
      vertex -172.666 215 0.998373
    endloop
  endfacet
  facet normal 0 1 0
    outer loop
      vertex -172.666 215 0.998373
      vertex -208.484 215 422.502
      vertex -166.199 215 1.64819
    endloop
  endfacet
  facet normal 0.99499 0 0.0999712
    outer loop
      vertex -208.484 215 422.502
      vertex -208.484 -215 422.502
      vertex -166.199 -215 1.64819
    endloop
  endfacet
  facet normal 0.99499 0 0.0999712
    outer loop
      vertex -166.199 215 1.64819
      vertex -208.484 215 422.502
      vertex -166.199 -215 1.64819
    endloop
  endfacet
  facet normal 0.0999712 0 -0.99499
    outer loop
      vertex -172.666 -215 0.998373
      vertex -172.666 215 0.998373
      vertex -166.199 -215 1.64819
    endloop
  endfacet
  facet normal 0.0999712 0 -0.99499
    outer loop
      vertex -166.199 -215 1.64819
      vertex -172.666 215 0.998373
      vertex -166.199 215 1.64819
    endloop
  endfacet
  facet normal -0.352267 0 0.9359
    outer loop
      vertex 0.611625 215 420.284
      vertex 0.611625 -215 420.284
      vertex 6.69497 -215 422.573
    endloop
  endfacet
  facet normal -0.352267 0 0.9359
    outer loop
      vertex 6.69497 215 422.573
      vertex 0.611625 215 420.284
      vertex 6.69497 -215 422.573
    endloop
  endfacet
  facet normal 0 -1 0
    outer loop
      vertex 6.69497 -215 422.573
      vertex 0.611625 -215 420.284
      vertex 158.455 -215 0.926613
    endloop
  endfacet
  facet normal 0 -1 0
    outer loop
      vertex 164.538 -215 3.21635
      vertex 6.69497 -215 422.573
      vertex 158.455 -215 0.926613
    endloop
  endfacet
  facet normal -0.9359 0 -0.352267
    outer loop
      vertex 0.611625 -215 420.284
      vertex 0.611625 215 420.284
      vertex 158.455 -215 0.926613
    endloop
  endfacet
  facet normal -0.9359 0 -0.352267
    outer loop
      vertex 158.455 -215 0.926613
      vertex 0.611625 215 420.284
      vertex 158.455 215 0.926613
    endloop
  endfacet
  facet normal 0 1 0
    outer loop
      vertex 0.611625 215 420.284
      vertex 6.69497 215 422.573
      vertex 158.455 215 0.926613
    endloop
  endfacet
  facet normal 0 1 0
    outer loop
      vertex 158.455 215 0.926613
      vertex 6.69497 215 422.573
      vertex 164.538 215 3.21635
    endloop
  endfacet
  facet normal 0.9359 0 0.352267
    outer loop
      vertex 6.69497 215 422.573
      vertex 6.69497 -215 422.573
      vertex 164.538 -215 3.21635
    endloop
  endfacet
  facet normal 0.9359 0 0.352267
    outer loop
      vertex 164.538 215 3.21635
      vertex 6.69497 215 422.573
      vertex 164.538 -215 3.21635
    endloop
  endfacet
  facet normal 0.352267 0 -0.9359
    outer loop
      vertex 158.455 -215 0.926613
      vertex 158.455 215 0.926613
      vertex 164.538 -215 3.21635
    endloop
  endfacet
  facet normal 0.352267 0 -0.9359
    outer loop
      vertex 164.538 -215 3.21635
      vertex 158.455 215 0.926613
      vertex 164.538 215 3.21635
    endloop
  endfacet
  facet normal -0.352267 0 -0.9359
    outer loop
      vertex -164.538 -215 3.21635
      vertex -164.538 215 3.21635
      vertex -158.455 -215 0.926613
    endloop
  endfacet
  facet normal -0.352267 0 -0.9359
    outer loop
      vertex -158.455 -215 0.926613
      vertex -164.538 215 3.21635
      vertex -158.455 215 0.926613
    endloop
  endfacet
  facet normal -0.9359 0 0.352267
    outer loop
      vertex -164.538 -215 3.21635
      vertex -6.69497 -215 422.573
      vertex -164.538 215 3.21635
    endloop
  endfacet
  facet normal -0.9359 0 0.352267
    outer loop
      vertex -164.538 215 3.21635
      vertex -6.69497 -215 422.573
      vertex -6.69497 215 422.573
    endloop
  endfacet
  facet normal 0 -1 0
    outer loop
      vertex -6.69497 -215 422.573
      vertex -164.538 -215 3.21635
      vertex -158.455 -215 0.926613
    endloop
  endfacet
  facet normal 0 -1 0
    outer loop
      vertex -0.611625 -215 420.284
      vertex -6.69497 -215 422.573
      vertex -158.455 -215 0.926613
    endloop
  endfacet
  facet normal 0.9359 0 -0.352267
    outer loop
      vertex -0.611625 -215 420.284
      vertex -158.455 -215 0.926613
      vertex -158.455 215 0.926613
    endloop
  endfacet
  facet normal 0.9359 0 -0.352267
    outer loop
      vertex -0.611625 215 420.284
      vertex -0.611625 -215 420.284
      vertex -158.455 215 0.926613
    endloop
  endfacet
  facet normal 0 1 0
    outer loop
      vertex -164.538 215 3.21635
      vertex -6.69497 215 422.573
      vertex -158.455 215 0.926613
    endloop
  endfacet
  facet normal 0 1 0
    outer loop
      vertex -158.455 215 0.926613
      vertex -6.69497 215 422.573
      vertex -0.611625 215 420.284
    endloop
  endfacet
  facet normal 0.352267 0 0.9359
    outer loop
      vertex -6.69497 215 422.573
      vertex -6.69497 -215 422.573
      vertex -0.611625 -215 420.284
    endloop
  endfacet
  facet normal 0.352267 0 0.9359
    outer loop
      vertex -0.611625 215 420.284
      vertex -6.69497 215 422.573
      vertex -0.611625 -215 420.284
    endloop
  endfacet
endsolid OpenSCAD_Model
