solid OpenSCAD_Model
  facet normal -0.201199 0 -0.97955
    outer loop
      vertex -22.0709 -121 0.0402396
      vertex -22.0709 121 0.0402396
      vertex -21.6791 -121 -0.0402399
    endloop
  endfacet
  facet normal -0.201199 0 -0.97955
    outer loop
      vertex -21.6791 -121 -0.0402399
      vertex -22.0709 121 0.0402396
      vertex -21.6791 121 -0.0402399
    endloop
  endfacet
  facet normal -0.97955 0 0.201199
    outer loop
      vertex -22.0709 -121 0.0402396
      vertex -13.3292 -121 42.6
      vertex -22.0709 121 0.0402396
    endloop
  endfacet
  facet normal -0.97955 0 0.201199
    outer loop
      vertex -22.0709 121 0.0402396
      vertex -13.3292 -121 42.6
      vertex -13.3292 121 42.6
    endloop
  endfacet
  facet normal 0 -1 0
    outer loop
      vertex -13.3292 -121 42.6
      vertex -22.0709 -121 0.0402396
      vertex -21.6791 -121 -0.0402399
    endloop
  endfacet
  facet normal 0 -1 0
    outer loop
      vertex -21.5981 -121 0.353855
      vertex -13.3292 -121 42.6
      vertex -21.6597 -121 0.0542231
    endloop
  endfacet
  facet normal 0 -1 0
    outer loop
      vertex -21.6597 -121 0.0542231
      vertex -13.3292 -121 42.6
      vertex -21.6791 -121 -0.0402399
    endloop
  endfacet
  facet normal 0 -1 0
    outer loop
      vertex -17.5 -121 42.6
      vertex -13.3292 -121 42.6
      vertex -17.5 -121 43
    endloop
  endfacet
  facet normal 0 -1 0
    outer loop
      vertex 21.5981 -121 0.353855
      vertex 4.5906 -121 42.6
      vertex 4.375 -121 42.6
    endloop
  endfacet
  facet normal 0 -1 0
    outer loop
      vertex -21.5981 -121 0.353855
      vertex -12.9291 -121 42.5598
      vertex -13.3292 -121 42.6
    endloop
  endfacet
  facet normal 0 -1 0
    outer loop
      vertex -4.375 -121 42.6
      vertex -4.5906 -121 42.6
      vertex -4.18947 -121 42.5253
    endloop
  endfacet
  facet normal 0 -1 0
    outer loop
      vertex 17.5 -121 43
      vertex -4.375 -121 42.6
      vertex 4.375 -121 42.6
    endloop
  endfacet
  facet normal 0 -1 0
    outer loop
      vertex -12.9291 -121 42.5598
      vertex -13.125 -121 42.6
      vertex -13.3292 -121 42.6
    endloop
  endfacet
  facet normal 0 -1 0
    outer loop
      vertex 21.6597 -121 0.0542231
      vertex 4.375 -121 42.6
      vertex 21.3395 -121 -0.0746906
    endloop
  endfacet
  facet normal 0 -1 0
    outer loop
      vertex 21.5981 -121 0.353855
      vertex 4.375 -121 42.6
      vertex 21.6597 -121 0.0542231
    endloop
  endfacet
  facet normal 0 -1 0
    outer loop
      vertex 22.0709 -121 0.0402396
      vertex 21.6597 -121 0.0542231
      vertex 21.6791 -121 -0.0402399
    endloop
  endfacet
  facet normal 0 -1 0
    outer loop
      vertex 13.3292 -121 42.6
      vertex 13.125 -121 42.6
      vertex 22.0709 -121 0.0402396
    endloop
  endfacet
  facet normal 0 -1 0
    outer loop
      vertex 17.5 -121 43
      vertex 13.3292 -121 42.6
      vertex 17.5 -121 42.6
    endloop
  endfacet
  facet normal 0 -1 0
    outer loop
      vertex -17.5 -121 43
      vertex -13.3292 -121 42.6
      vertex 17.5 -121 43
    endloop
  endfacet
  facet normal 0 -1 0
    outer loop
      vertex -21.3395 -121 -0.0746906
      vertex -21.5981 -121 0.353855
      vertex -21.6597 -121 0.0542231
    endloop
  endfacet
  facet normal 0 -1 0
    outer loop
      vertex 17.5 -121 43
      vertex -13.3292 -121 42.6
      vertex -13.125 -121 42.6
    endloop
  endfacet
  facet normal 0 -1 0
    outer loop
      vertex 17.5 -121 43
      vertex -4.5906 -121 42.6
      vertex -4.375 -121 42.6
    endloop
  endfacet
  facet normal 0 -1 0
    outer loop
      vertex 17.5 -121 43
      vertex -13.125 -121 42.6
      vertex -4.5906 -121 42.6
    endloop
  endfacet
  facet normal 0 -1 0
    outer loop
      vertex 17.5 -121 43
      vertex 4.375 -121 42.6
      vertex 4.5906 -121 42.6
    endloop
  endfacet
  facet normal 0 -1 0
    outer loop
      vertex 17.5 -121 43
      vertex 13.125 -121 42.6
      vertex 13.3292 -121 42.6
    endloop
  endfacet
  facet normal 0 -1 0
    outer loop
      vertex 17.5 -121 43
      vertex 4.5906 -121 42.6
      vertex 13.125 -121 42.6
    endloop
  endfacet
  facet normal 0 -1 0
    outer loop
      vertex 13.125 -121 42.6
      vertex 12.9291 -121 42.5598
      vertex 22.0709 -121 0.0402396
    endloop
  endfacet
  facet normal 0 -1 0
    outer loop
      vertex 22.0709 -121 0.0402396
      vertex 21.5981 -121 0.353855
      vertex 21.6597 -121 0.0542231
    endloop
  endfacet
  facet normal 0 -1 0
    outer loop
      vertex 12.9291 -121 42.5598
      vertex 21.5981 -121 0.353855
      vertex 22.0709 -121 0.0402396
    endloop
  endfacet
  facet normal 0 -1 0
    outer loop
      vertex 4.18947 -121 42.5253
      vertex 21.3395 -121 -0.0746906
      vertex 4.375 -121 42.6
    endloop
  endfacet
  facet normal 0 -1 0
    outer loop
      vertex -4.5906 -121 42.6
      vertex -21.3395 -121 -0.0746906
      vertex -4.18947 -121 42.5253
    endloop
  endfacet
  facet normal 0 -1 0
    outer loop
      vertex -4.5906 -121 42.6
      vertex -21.5981 -121 0.353855
      vertex -21.3395 -121 -0.0746906
    endloop
  endfacet
  facet normal 0.97955 0 -0.201199
    outer loop
      vertex -21.6597 -121 0.0542231
      vertex -21.6791 -121 -0.0402399
      vertex -21.6791 121 -0.0402399
    endloop
  endfacet
  facet normal 0.97955 0 -0.201199
    outer loop
      vertex -21.6597 121 0.0542231
      vertex -21.6597 -121 0.0542231
      vertex -21.6791 121 -0.0402399
    endloop
  endfacet
  facet normal 0 1 0
    outer loop
      vertex -22.0709 121 0.0402396
      vertex -13.3292 121 42.6
      vertex -21.6791 121 -0.0402399
    endloop
  endfacet
  facet normal 0 1 0
    outer loop
      vertex 17.5 121 43
      vertex -13.3292 121 42.6
      vertex -17.5 121 43
    endloop
  endfacet
  facet normal 0 1 0
    outer loop
      vertex -13.3292 121 42.6
      vertex -17.5 121 42.6
      vertex -17.5 121 43
    endloop
  endfacet
  facet normal 0 1 0
    outer loop
      vertex -13.125 121 42.6
      vertex -13.3292 121 42.6
      vertex 17.5 121 43
    endloop
  endfacet
  facet normal 0 1 0
    outer loop
      vertex -4.18947 121 42.5253
      vertex -4.5906 121 42.6
      vertex -4.375 121 42.6
    endloop
  endfacet
  facet normal 0 1 0
    outer loop
      vertex 13.125 121 42.6
      vertex 17.5 121 43
      vertex 13.3292 121 42.6
    endloop
  endfacet
  facet normal 0 1 0
    outer loop
      vertex 22.0709 121 0.0402396
      vertex 21.6597 121 0.0542231
      vertex 21.5981 121 0.353855
    endloop
  endfacet
  facet normal 0 1 0
    outer loop
      vertex 21.6597 121 0.0542231
      vertex 22.0709 121 0.0402396
      vertex 21.6791 121 -0.0402399
    endloop
  endfacet
  facet normal 0 1 0
    outer loop
      vertex 12.9291 121 42.5598
      vertex 13.3292 121 42.6
      vertex 21.5981 121 0.353855
    endloop
  endfacet
  facet normal 0 1 0
    outer loop
      vertex -4.375 121 42.6
      vertex 17.5 121 43
      vertex 4.375 121 42.6
    endloop
  endfacet
  facet normal 0 1 0
    outer loop
      vertex 21.5981 121 0.353855
      vertex 4.18947 121 42.5253
      vertex 4.5906 121 42.6
    endloop
  endfacet
  facet normal 0 1 0
    outer loop
      vertex -4.5906 121 42.6
      vertex -4.18947 121 42.5253
      vertex -21.5981 121 0.353855
    endloop
  endfacet
  facet normal 0 1 0
    outer loop
      vertex -21.6597 121 0.0542231
      vertex -4.18947 121 42.5253
      vertex -21.3395 121 -0.0746906
    endloop
  endfacet
  facet normal 0 1 0
    outer loop
      vertex -21.6791 121 -0.0402399
      vertex -13.3292 121 42.6
      vertex -21.6597 121 0.0542231
    endloop
  endfacet
  facet normal 0 1 0
    outer loop
      vertex -12.9291 121 42.5598
      vertex -13.3292 121 42.6
      vertex -13.125 121 42.6
    endloop
  endfacet
  facet normal 0 1 0
    outer loop
      vertex -21.6597 121 0.0542231
      vertex -13.3292 121 42.6
      vertex -21.5981 121 0.353855
    endloop
  endfacet
  facet normal 0 1 0
    outer loop
      vertex -13.3292 121 42.6
      vertex -12.9291 121 42.5598
      vertex -21.5981 121 0.353855
    endloop
  endfacet
  facet normal 0 1 0
    outer loop
      vertex -21.6597 121 0.0542231
      vertex -21.5981 121 0.353855
      vertex -4.18947 121 42.5253
    endloop
  endfacet
  facet normal 0 1 0
    outer loop
      vertex -4.375 121 42.6
      vertex -4.5906 121 42.6
      vertex 17.5 121 43
    endloop
  endfacet
  facet normal 0 1 0
    outer loop
      vertex -4.5906 121 42.6
      vertex -13.125 121 42.6
      vertex 17.5 121 43
    endloop
  endfacet
  facet normal 0 1 0
    outer loop
      vertex 4.5906 121 42.6
      vertex 17.5 121 43
      vertex 13.125 121 42.6
    endloop
  endfacet
  facet normal 0 1 0
    outer loop
      vertex 4.375 121 42.6
      vertex 17.5 121 43
      vertex 4.5906 121 42.6
    endloop
  endfacet
  facet normal 0 1 0
    outer loop
      vertex 4.375 121 42.6
      vertex 4.5906 121 42.6
      vertex 4.18947 121 42.5253
    endloop
  endfacet
  facet normal 0 1 0
    outer loop
      vertex 4.18947 121 42.5253
      vertex 21.5981 121 0.353855
      vertex 21.6597 121 0.0542231
    endloop
  endfacet
  facet normal 0 1 0
    outer loop
      vertex 13.125 121 42.6
      vertex 13.3292 121 42.6
      vertex 12.9291 121 42.5598
    endloop
  endfacet
  facet normal 0 1 0
    outer loop
      vertex 13.3292 121 42.6
      vertex 17.5 121 43
      vertex 17.5 121 42.6
    endloop
  endfacet
  facet normal 0 1 0
    outer loop
      vertex 4.18947 121 42.5253
      vertex 21.6597 121 0.0542231
      vertex 21.3395 121 -0.0746906
    endloop
  endfacet
  facet normal 0 1 0
    outer loop
      vertex 22.0709 121 0.0402396
      vertex 21.5981 121 0.353855
      vertex 13.3292 121 42.6
    endloop
  endfacet
  facet normal 0 0 -1
    outer loop
      vertex -17.5 -121 42.6
      vertex -17.5 121 42.6
      vertex -13.3292 -121 42.6
    endloop
  endfacet
  facet normal 0 0 -1
    outer loop
      vertex -13.3292 -121 42.6
      vertex -17.5 121 42.6
      vertex -13.3292 121 42.6
    endloop
  endfacet
  facet normal -1 0 0
    outer loop
      vertex -17.5 -121 42.6
      vertex -17.5 -121 43
      vertex -17.5 121 42.6
    endloop
  endfacet
  facet normal -1 0 0
    outer loop
      vertex -17.5 121 42.6
      vertex -17.5 -121 43
      vertex -17.5 121 43
    endloop
  endfacet
  facet normal 0 0 1
    outer loop
      vertex -17.5 121 43
      vertex -17.5 -121 43
      vertex 17.5 -121 43
    endloop
  endfacet
  facet normal 0 0 1
    outer loop
      vertex 17.5 121 43
      vertex -17.5 121 43
      vertex 17.5 -121 43
    endloop
  endfacet
  facet normal 1 0 0
    outer loop
      vertex 17.5 -121 43
      vertex 17.5 -121 42.6
      vertex 17.5 121 42.6
    endloop
  endfacet
  facet normal 1 0 0
    outer loop
      vertex 17.5 121 43
      vertex 17.5 -121 43
      vertex 17.5 121 42.6
    endloop
  endfacet
  facet normal 0 0 -1
    outer loop
      vertex 13.3292 -121 42.6
      vertex 13.3292 121 42.6
      vertex 17.5 -121 42.6
    endloop
  endfacet
  facet normal 0 0 -1
    outer loop
      vertex 17.5 -121 42.6
      vertex 13.3292 121 42.6
      vertex 17.5 121 42.6
    endloop
  endfacet
  facet normal 0.97955 0 0.201199
    outer loop
      vertex 13.3292 121 42.6
      vertex 13.3292 -121 42.6
      vertex 22.0709 -121 0.0402396
    endloop
  endfacet
  facet normal 0.97955 0 0.201199
    outer loop
      vertex 22.0709 121 0.0402396
      vertex 13.3292 121 42.6
      vertex 22.0709 -121 0.0402396
    endloop
  endfacet
  facet normal 0.201199 0 -0.97955
    outer loop
      vertex 21.6791 -121 -0.0402399
      vertex 21.6791 121 -0.0402399
      vertex 22.0709 -121 0.0402396
    endloop
  endfacet
  facet normal 0.201199 0 -0.97955
    outer loop
      vertex 22.0709 -121 0.0402396
      vertex 21.6791 121 -0.0402399
      vertex 22.0709 121 0.0402396
    endloop
  endfacet
  facet normal -0.97955 0 -0.201199
    outer loop
      vertex 21.6597 -121 0.0542231
      vertex 21.6597 121 0.0542231
      vertex 21.6791 -121 -0.0402399
    endloop
  endfacet
  facet normal -0.97955 0 -0.201199
    outer loop
      vertex 21.6791 -121 -0.0402399
      vertex 21.6597 121 0.0542231
      vertex 21.6791 121 -0.0402399
    endloop
  endfacet
  facet normal 0.373455 0 -0.927648
    outer loop
      vertex 21.3395 -121 -0.0746906
      vertex 21.3395 121 -0.0746906
      vertex 21.6597 -121 0.0542231
    endloop
  endfacet
  facet normal 0.373455 0 -0.927648
    outer loop
      vertex 21.6597 -121 0.0542231
      vertex 21.3395 121 -0.0746906
      vertex 21.6597 121 0.0542231
    endloop
  endfacet
  facet normal -0.927648 0 -0.373455
    outer loop
      vertex 4.18947 -121 42.5253
      vertex 4.18947 121 42.5253
      vertex 21.3395 -121 -0.0746906
    endloop
  endfacet
  facet normal -0.927648 0 -0.373455
    outer loop
      vertex 21.3395 -121 -0.0746906
      vertex 4.18947 121 42.5253
      vertex 21.3395 121 -0.0746906
    endloop
  endfacet
  facet normal -0.373455 0 0.927648
    outer loop
      vertex 4.18947 121 42.5253
      vertex 4.18947 -121 42.5253
      vertex 4.375 -121 42.6
    endloop
  endfacet
  facet normal -0.373455 0 0.927648
    outer loop
      vertex 4.375 121 42.6
      vertex 4.18947 121 42.5253
      vertex 4.375 -121 42.6
    endloop
  endfacet
  facet normal 0 0 -1
    outer loop
      vertex -4.375 -121 42.6
      vertex -4.375 121 42.6
      vertex 4.375 -121 42.6
    endloop
  endfacet
  facet normal 0 0 -1
    outer loop
      vertex 4.375 -121 42.6
      vertex -4.375 121 42.6
      vertex 4.375 121 42.6
    endloop
  endfacet
  facet normal 0.373455 0 0.927648
    outer loop
      vertex -4.375 121 42.6
      vertex -4.375 -121 42.6
      vertex -4.18947 -121 42.5253
    endloop
  endfacet
  facet normal 0.373455 0 0.927648
    outer loop
      vertex -4.18947 121 42.5253
      vertex -4.375 121 42.6
      vertex -4.18947 -121 42.5253
    endloop
  endfacet
  facet normal 0.927648 0 -0.373455
    outer loop
      vertex -4.18947 -121 42.5253
      vertex -21.3395 -121 -0.0746906
      vertex -21.3395 121 -0.0746906
    endloop
  endfacet
  facet normal 0.927648 0 -0.373455
    outer loop
      vertex -4.18947 121 42.5253
      vertex -4.18947 -121 42.5253
      vertex -21.3395 121 -0.0746906
    endloop
  endfacet
  facet normal -0.373455 0 -0.927648
    outer loop
      vertex -21.6597 -121 0.0542231
      vertex -21.6597 121 0.0542231
      vertex -21.3395 -121 -0.0746906
    endloop
  endfacet
  facet normal -0.373455 0 -0.927648
    outer loop
      vertex -21.3395 -121 -0.0746906
      vertex -21.6597 121 0.0542231
      vertex -21.3395 121 -0.0746906
    endloop
  endfacet
  facet normal 0.97955 0 -0.201199
    outer loop
      vertex -12.9291 -121 42.5598
      vertex -21.5981 -121 0.353855
      vertex -21.5981 121 0.353855
    endloop
  endfacet
  facet normal 0.97955 0 -0.201199
    outer loop
      vertex -12.9291 121 42.5598
      vertex -12.9291 -121 42.5598
      vertex -21.5981 121 0.353855
    endloop
  endfacet
  facet normal -0.927648 0 0.373455
    outer loop
      vertex -21.5981 -121 0.353855
      vertex -4.5906 -121 42.6
      vertex -21.5981 121 0.353855
    endloop
  endfacet
  facet normal -0.927648 0 0.373455
    outer loop
      vertex -21.5981 121 0.353855
      vertex -4.5906 -121 42.6
      vertex -4.5906 121 42.6
    endloop
  endfacet
  facet normal 0 0 -1
    outer loop
      vertex -13.125 -121 42.6
      vertex -13.125 121 42.6
      vertex -4.5906 -121 42.6
    endloop
  endfacet
  facet normal 0 0 -1
    outer loop
      vertex -4.5906 -121 42.6
      vertex -13.125 121 42.6
      vertex -4.5906 121 42.6
    endloop
  endfacet
  facet normal 0.201199 0 0.97955
    outer loop
      vertex -13.125 121 42.6
      vertex -13.125 -121 42.6
      vertex -12.9291 -121 42.5598
    endloop
  endfacet
  facet normal 0.201199 0 0.97955
    outer loop
      vertex -12.9291 121 42.5598
      vertex -13.125 121 42.6
      vertex -12.9291 -121 42.5598
    endloop
  endfacet
  facet normal 0 0 -1
    outer loop
      vertex 4.5906 -121 42.6
      vertex 4.5906 121 42.6
      vertex 13.125 -121 42.6
    endloop
  endfacet
  facet normal 0 0 -1
    outer loop
      vertex 13.125 -121 42.6
      vertex 4.5906 121 42.6
      vertex 13.125 121 42.6
    endloop
  endfacet
  facet normal 0.927648 0 0.373455
    outer loop
      vertex 4.5906 121 42.6
      vertex 4.5906 -121 42.6
      vertex 21.5981 -121 0.353855
    endloop
  endfacet
  facet normal 0.927648 0 0.373455
    outer loop
      vertex 21.5981 121 0.353855
      vertex 4.5906 121 42.6
      vertex 21.5981 -121 0.353855
    endloop
  endfacet
  facet normal -0.97955 0 -0.201199
    outer loop
      vertex 12.9291 -121 42.5598
      vertex 12.9291 121 42.5598
      vertex 21.5981 -121 0.353855
    endloop
  endfacet
  facet normal -0.97955 0 -0.201199
    outer loop
      vertex 21.5981 -121 0.353855
      vertex 12.9291 121 42.5598
      vertex 21.5981 121 0.353855
    endloop
  endfacet
  facet normal -0.201199 0 0.97955
    outer loop
      vertex 12.9291 121 42.5598
      vertex 12.9291 -121 42.5598
      vertex 13.125 -121 42.6
    endloop
  endfacet
  facet normal -0.201199 0 0.97955
    outer loop
      vertex 13.125 121 42.6
      vertex 12.9291 121 42.5598
      vertex 13.125 -121 42.6
    endloop
  endfacet
endsolid OpenSCAD_Model
