solid OpenSCAD_Model
  facet normal -0.93591 -7.82129e-17 -0.35224
    outer loop
      vertex -41.856 -22 11.574
      vertex -41.856 -1 11.574
      vertex -37.5 -22 4.66294e-15
    endloop
  endfacet
  facet normal -0.93591 -7.82129e-17 -0.35224
    outer loop
      vertex -37.5 -22 4.66294e-15
      vertex -41.856 -1 11.574
      vertex -37.5 -1 0
    endloop
  endfacet
  facet normal 0 2.22045e-16 1
    outer loop
      vertex -28.4539 -21 11.574
      vertex -41.856 -22 11.574
      vertex -21.337 -22 11.574
    endloop
  endfacet
  facet normal 0 2.22045e-16 1
    outer loop
      vertex -41.2026 -21 11.574
      vertex -41.2026 -1 11.574
      vertex -41.856 -1 11.574
    endloop
  endfacet
  facet normal 0 2.22045e-16 1
    outer loop
      vertex -21.337 -1 11.574
      vertex -21.9212 -1 11.574
      vertex -21.337 -22 11.574
    endloop
  endfacet
  facet normal 0 2.22045e-16 1
    outer loop
      vertex -21.9212 -1 11.574
      vertex -21.9212 -21 11.574
      vertex -21.337 -22 11.574
    endloop
  endfacet
  facet normal 0 2.22045e-16 1
    outer loop
      vertex -34.2574 -1 11.574
      vertex -34.2574 -21 11.574
      vertex -28.4539 -21 11.574
    endloop
  endfacet
  facet normal 0 2.22045e-16 1
    outer loop
      vertex -34.2574 -21 11.574
      vertex -41.856 -22 11.574
      vertex -28.4539 -21 11.574
    endloop
  endfacet
  facet normal 0 2.22045e-16 1
    outer loop
      vertex -41.2026 -21 11.574
      vertex -41.856 -22 11.574
      vertex -34.2574 -21 11.574
    endloop
  endfacet
  facet normal 0 2.22045e-16 1
    outer loop
      vertex -41.856 -1 11.574
      vertex -41.856 -22 11.574
      vertex -41.2026 -21 11.574
    endloop
  endfacet
  facet normal 0 2.22045e-16 1
    outer loop
      vertex -21.9212 -21 11.574
      vertex -28.4539 -21 11.574
      vertex -21.337 -22 11.574
    endloop
  endfacet
  facet normal 0 2.22045e-16 1
    outer loop
      vertex -28.4539 -21 11.574
      vertex -28.4539 -1 11.574
      vertex -34.2574 -1 11.574
    endloop
  endfacet
  facet normal 0 -1 2.22045e-16
    outer loop
      vertex -21.337 -22 11.574
      vertex -41.856 -22 11.574
      vertex -37.5 -22 4.66294e-15
    endloop
  endfacet
  facet normal 0 -1 2.22045e-16
    outer loop
      vertex -22.5 -22 4.66294e-15
      vertex -21.337 -22 11.574
      vertex -37.5 -22 4.66294e-15
    endloop
  endfacet
  facet normal 0 -2.22045e-16 -1
    outer loop
      vertex -37.5 -22 4.66294e-15
      vertex -37.5 -1 0
      vertex -22.5 -22 4.66294e-15
    endloop
  endfacet
  facet normal 0 -2.22045e-16 -1
    outer loop
      vertex -22.5 -22 4.66294e-15
      vertex -37.5 -1 0
      vertex -22.5 -1 0
    endloop
  endfacet
  facet normal 0 1 -2.22045e-16
    outer loop
      vertex -41.856 -1 11.574
      vertex -41.2026 -1 11.574
      vertex -37.5 -1 0
    endloop
  endfacet
  facet normal 0 1 -2.22045e-16
    outer loop
      vertex -37.5 -1 0
      vertex -41.2026 -1 11.574
      vertex -37.195 -1 0.926613
    endloop
  endfacet
  facet normal 0 1 -2.22045e-16
    outer loop
      vertex -37.5 -1 0
      vertex -37.195 -1 0.926613
      vertex -31.1116 -1 3.21635
    endloop
  endfacet
  facet normal 0 1 -2.22045e-16
    outer loop
      vertex -31.1116 -1 3.21635
      vertex -34.2574 -1 11.574
      vertex -28.4539 -1 11.574
    endloop
  endfacet
  facet normal 0 1 -2.22045e-16
    outer loop
      vertex -31.1116 -1 3.21635
      vertex -28.4539 -1 11.574
      vertex -29.4512 -1 1.64819
    endloop
  endfacet
  facet normal 0 1 -2.22045e-16
    outer loop
      vertex -31.1116 -1 3.21635
      vertex -29.4512 -1 1.64819
      vertex -37.5 -1 0
    endloop
  endfacet
  facet normal 0 1 -2.22045e-16
    outer loop
      vertex -29.4512 -1 1.64819
      vertex -22.9838 -1 0.998373
      vertex -37.5 -1 0
    endloop
  endfacet
  facet normal 0 1 -2.22045e-16
    outer loop
      vertex -22.9838 -1 0.998373
      vertex -21.9212 -1 11.574
      vertex -21.337 -1 11.574
    endloop
  endfacet
  facet normal 0 1 -2.22045e-16
    outer loop
      vertex -22.9838 -1 0.998373
      vertex -21.337 -1 11.574
      vertex -22.5 -1 0
    endloop
  endfacet
  facet normal 0 1 -2.22045e-16
    outer loop
      vertex -22.9838 -1 0.998373
      vertex -22.5 -1 0
      vertex -37.5 -1 0
    endloop
  endfacet
  facet normal 0.9359 0 0.352267
    outer loop
      vertex -37.195 -21 0.926613
      vertex -37.195 -1 0.926613
      vertex -41.2026 -1 11.574
    endloop
  endfacet
  facet normal 0.9359 0 0.352267
    outer loop
      vertex -41.2026 -21 11.574
      vertex -37.195 -21 0.926613
      vertex -41.2026 -1 11.574
    endloop
  endfacet
  facet normal 0 1 0
    outer loop
      vertex -31.1116 -21 3.21635
      vertex -37.195 -21 0.926613
      vertex -34.2574 -21 11.574
    endloop
  endfacet
  facet normal 0 1 0
    outer loop
      vertex -34.2574 -21 11.574
      vertex -37.195 -21 0.926613
      vertex -41.2026 -21 11.574
    endloop
  endfacet
  facet normal -0.9359 0 -0.352267
    outer loop
      vertex -31.1116 -1 3.21635
      vertex -31.1116 -21 3.21635
      vertex -34.2574 -1 11.574
    endloop
  endfacet
  facet normal -0.9359 0 -0.352267
    outer loop
      vertex -34.2574 -1 11.574
      vertex -31.1116 -21 3.21635
      vertex -34.2574 -21 11.574
    endloop
  endfacet
  facet normal 0.99499 0 -0.0999712
    outer loop
      vertex -29.4512 -1 1.64819
      vertex -28.4539 -1 11.574
      vertex -28.4539 -21 11.574
    endloop
  endfacet
  facet normal 0.99499 0 -0.0999712
    outer loop
      vertex -29.4512 -21 1.64819
      vertex -29.4512 -1 1.64819
      vertex -28.4539 -21 11.574
    endloop
  endfacet
  facet normal 0 1 0
    outer loop
      vertex -21.9212 -21 11.574
      vertex -22.9838 -21 0.998373
      vertex -28.4539 -21 11.574
    endloop
  endfacet
  facet normal 0 1 0
    outer loop
      vertex -28.4539 -21 11.574
      vertex -22.9838 -21 0.998373
      vertex -29.4512 -21 1.64819
    endloop
  endfacet
  facet normal -0.99499 0 0.0999712
    outer loop
      vertex -21.9212 -1 11.574
      vertex -22.9838 -1 0.998373
      vertex -21.9212 -21 11.574
    endloop
  endfacet
  facet normal -0.99499 0 0.0999712
    outer loop
      vertex -21.9212 -21 11.574
      vertex -22.9838 -1 0.998373
      vertex -22.9838 -21 0.998373
    endloop
  endfacet
  facet normal 0.994989 -2.22001e-17 -0.0999804
    outer loop
      vertex -21.337 -22 11.574
      vertex -22.5 -22 4.66294e-15
      vertex -22.5 -1 0
    endloop
  endfacet
  facet normal 0.994989 -2.22001e-17 -0.0999804
    outer loop
      vertex -21.337 -1 11.574
      vertex -21.337 -22 11.574
      vertex -22.5 -1 0
    endloop
  endfacet
  facet normal 0.0999712 0 0.99499
    outer loop
      vertex -22.9838 -21 0.998373
      vertex -22.9838 -1 0.998373
      vertex -29.4512 -1 1.64819
    endloop
  endfacet
  facet normal 0.0999712 0 0.99499
    outer loop
      vertex -29.4512 -21 1.64819
      vertex -22.9838 -21 0.998373
      vertex -29.4512 -1 1.64819
    endloop
  endfacet
  facet normal -0.352267 0 0.9359
    outer loop
      vertex -31.1116 -21 3.21635
      vertex -31.1116 -1 3.21635
      vertex -37.195 -1 0.926613
    endloop
  endfacet
  facet normal -0.352267 0 0.9359
    outer loop
      vertex -37.195 -21 0.926613
      vertex -31.1116 -21 3.21635
      vertex -37.195 -1 0.926613
    endloop
  endfacet
  facet normal -0.994006 -2.42756e-17 -0.109327
    outer loop
      vertex -34.25 -22 33.7229
      vertex -34.25 -1 33.7229
      vertex -33.087 -22 23.1489
    endloop
  endfacet
  facet normal -0.994006 -2.42756e-17 -0.109327
    outer loop
      vertex -33.087 -22 23.1489
      vertex -34.25 -1 33.7229
      vertex -33.087 -1 23.1489
    endloop
  endfacet
  facet normal -1 0 0
    outer loop
      vertex -34.25 -22 33.7229
      vertex -34.25 -22 42.2229
      vertex -34.25 -1 33.7229
    endloop
  endfacet
  facet normal -1 0 0
    outer loop
      vertex -34.25 -1 33.7229
      vertex -34.25 -22 42.2229
      vertex -34.25 -1 42.2229
    endloop
  endfacet
  facet normal 0 -1 2.22045e-16
    outer loop
      vertex -34.25 -22 42.2229
      vertex -34.25 -22 33.7229
      vertex -33.087 -22 23.1489
    endloop
  endfacet
  facet normal 0 -1 2.22045e-16
    outer loop
      vertex -25.75 -22 33.7229
      vertex -34.25 -22 42.2229
      vertex -24.587 -22 23.1489
    endloop
  endfacet
  facet normal 0 -1 2.22045e-16
    outer loop
      vertex -24.587 -22 23.1489
      vertex -34.25 -22 42.2229
      vertex -33.087 -22 23.1489
    endloop
  endfacet
  facet normal 0 -1 2.22045e-16
    outer loop
      vertex -25.75 -22 42.2229
      vertex -34.25 -22 42.2229
      vertex -25.75 -22 33.7229
    endloop
  endfacet
  facet normal 0 -2.22045e-16 -1
    outer loop
      vertex -33.087 -22 23.1489
      vertex -33.087 -1 23.1489
      vertex -32.2039 -21 23.1489
    endloop
  endfacet
  facet normal 0 -2.22045e-16 -1
    outer loop
      vertex -33.087 -22 23.1489
      vertex -32.2039 -21 23.1489
      vertex -24.587 -22 23.1489
    endloop
  endfacet
  facet normal 0 -2.22045e-16 -1
    outer loop
      vertex -25.6712 -1 23.1489
      vertex -24.587 -22 23.1489
      vertex -25.6712 -21 23.1489
    endloop
  endfacet
  facet normal 0 -2.22045e-16 -1
    outer loop
      vertex -32.2039 -21 23.1489
      vertex -25.6712 -21 23.1489
      vertex -24.587 -22 23.1489
    endloop
  endfacet
  facet normal 0 -2.22045e-16 -1
    outer loop
      vertex -24.587 -22 23.1489
      vertex -25.6712 -1 23.1489
      vertex -24.587 -1 23.1489
    endloop
  endfacet
  facet normal 0 -2.22045e-16 -1
    outer loop
      vertex -32.2039 -21 23.1489
      vertex -33.087 -1 23.1489
      vertex -32.2039 -1 23.1489
    endloop
  endfacet
  facet normal 0 1 -2.22045e-16
    outer loop
      vertex -34.25 -1 33.7229
      vertex -34.25 -1 42.2229
      vertex -33.087 -1 23.1489
    endloop
  endfacet
  facet normal 0 1 -2.22045e-16
    outer loop
      vertex -33.25 -1 41.2229
      vertex -34.25 -1 42.2229
      vertex -25.75 -1 42.2229
    endloop
  endfacet
  facet normal 0 1 -2.22045e-16
    outer loop
      vertex -25.75 -1 34.7229
      vertex -26.7338 -1 33.7246
      vertex -33.2012 -1 33.0747
    endloop
  endfacet
  facet normal 0 1 -2.22045e-16
    outer loop
      vertex -33.25 -1 34.7229
      vertex -34.25 -1 42.2229
      vertex -33.25 -1 41.2229
    endloop
  endfacet
  facet normal 0 1 -2.22045e-16
    outer loop
      vertex -33.087 -1 23.1489
      vertex -34.25 -1 42.2229
      vertex -33.25 -1 34.7229
    endloop
  endfacet
  facet normal 0 1 -2.22045e-16
    outer loop
      vertex -26.7338 -1 33.7246
      vertex -25.75 -1 34.7229
      vertex -25.75 -1 33.7229
    endloop
  endfacet
  facet normal 0 1 -2.22045e-16
    outer loop
      vertex -25.6712 -1 23.1489
      vertex -25.75 -1 33.7229
      vertex -24.587 -1 23.1489
    endloop
  endfacet
  facet normal 0 1 -2.22045e-16
    outer loop
      vertex -26.7338 -1 33.7246
      vertex -25.75 -1 33.7229
      vertex -25.6712 -1 23.1489
    endloop
  endfacet
  facet normal 0 1 -2.22045e-16
    outer loop
      vertex -32.2039 -1 23.1489
      vertex -33.087 -1 23.1489
      vertex -33.2012 -1 33.0747
    endloop
  endfacet
  facet normal 0 1 -2.22045e-16
    outer loop
      vertex -33.087 -1 23.1489
      vertex -33.25 -1 34.7229
      vertex -33.2012 -1 33.0747
    endloop
  endfacet
  facet normal 0 1 -2.22045e-16
    outer loop
      vertex -33.25 -1 41.2229
      vertex -25.75 -1 42.2229
      vertex -25.75 -1 41.2229
    endloop
  endfacet
  facet normal 0 1 -2.22045e-16
    outer loop
      vertex -25.75 -1 34.7229
      vertex -33.2012 -1 33.0747
      vertex -33.25 -1 34.7229
    endloop
  endfacet
  facet normal 0 2.22045e-16 1
    outer loop
      vertex -34.25 -1 42.2229
      vertex -34.25 -22 42.2229
      vertex -25.75 -22 42.2229
    endloop
  endfacet
  facet normal 0 2.22045e-16 1
    outer loop
      vertex -25.75 -1 42.2229
      vertex -34.25 -1 42.2229
      vertex -25.75 -22 42.2229
    endloop
  endfacet
  facet normal 1 0 0
    outer loop
      vertex -25.75 -21 34.7229
      vertex -25.75 -22 33.7229
      vertex -25.75 -1 33.7229
    endloop
  endfacet
  facet normal 1 0 0
    outer loop
      vertex -25.75 -22 42.2229
      vertex -25.75 -22 33.7229
      vertex -25.75 -21 34.7229
    endloop
  endfacet
  facet normal 1 0 0
    outer loop
      vertex -25.75 -21 41.2229
      vertex -25.75 -1 41.2229
      vertex -25.75 -22 42.2229
    endloop
  endfacet
  facet normal 1 0 0
    outer loop
      vertex -25.75 -22 42.2229
      vertex -25.75 -21 34.7229
      vertex -25.75 -21 41.2229
    endloop
  endfacet
  facet normal 1 0 0
    outer loop
      vertex -25.75 -1 42.2229
      vertex -25.75 -22 42.2229
      vertex -25.75 -1 41.2229
    endloop
  endfacet
  facet normal 1 0 0
    outer loop
      vertex -25.75 -1 34.7229
      vertex -25.75 -21 34.7229
      vertex -25.75 -1 33.7229
    endloop
  endfacet
  facet normal 0.994006 2.42756e-17 0.109327
    outer loop
      vertex -25.75 -1 33.7229
      vertex -25.75 -22 33.7229
      vertex -24.587 -22 23.1489
    endloop
  endfacet
  facet normal 0.994006 2.42756e-17 0.109327
    outer loop
      vertex -24.587 -1 23.1489
      vertex -25.75 -1 33.7229
      vertex -24.587 -22 23.1489
    endloop
  endfacet
  facet normal -0.99499 0 -0.0999712
    outer loop
      vertex -25.6712 -1 23.1489
      vertex -25.6712 -21 23.1489
      vertex -26.7338 -1 33.7246
    endloop
  endfacet
  facet normal -0.99499 0 -0.0999712
    outer loop
      vertex -26.7338 -1 33.7246
      vertex -25.6712 -21 23.1489
      vertex -26.7338 -21 33.7246
    endloop
  endfacet
  facet normal 0 1 0
    outer loop
      vertex -25.6712 -21 23.1489
      vertex -32.2039 -21 23.1489
      vertex -26.7338 -21 33.7246
    endloop
  endfacet
  facet normal 0 1 0
    outer loop
      vertex -26.7338 -21 33.7246
      vertex -32.2039 -21 23.1489
      vertex -33.2012 -21 33.0747
    endloop
  endfacet
  facet normal 0.99499 0 0.0999712
    outer loop
      vertex -32.2039 -21 23.1489
      vertex -32.2039 -1 23.1489
      vertex -33.2012 -1 33.0747
    endloop
  endfacet
  facet normal 0.99499 0 0.0999712
    outer loop
      vertex -33.2012 -21 33.0747
      vertex -32.2039 -21 23.1489
      vertex -33.2012 -1 33.0747
    endloop
  endfacet
  facet normal 0.0999712 0 -0.99499
    outer loop
      vertex -26.7338 -1 33.7246
      vertex -26.7338 -21 33.7246
      vertex -33.2012 -1 33.0747
    endloop
  endfacet
  facet normal 0.0999712 0 -0.99499
    outer loop
      vertex -33.2012 -1 33.0747
      vertex -26.7338 -21 33.7246
      vertex -33.2012 -21 33.0747
    endloop
  endfacet
  facet normal 0 0 1
    outer loop
      vertex -25.75 -21 34.7229
      vertex -25.75 -1 34.7229
      vertex -33.25 -1 34.7229
    endloop
  endfacet
  facet normal 0 0 1
    outer loop
      vertex -33.25 -21 34.7229
      vertex -25.75 -21 34.7229
      vertex -33.25 -1 34.7229
    endloop
  endfacet
  facet normal 1 0 0
    outer loop
      vertex -33.25 -1 34.7229
      vertex -33.25 -1 41.2229
      vertex -33.25 -21 41.2229
    endloop
  endfacet
  facet normal 1 0 0
    outer loop
      vertex -33.25 -21 34.7229
      vertex -33.25 -1 34.7229
      vertex -33.25 -21 41.2229
    endloop
  endfacet
  facet normal 0 0 -1
    outer loop
      vertex -25.75 -1 41.2229
      vertex -25.75 -21 41.2229
      vertex -33.25 -1 41.2229
    endloop
  endfacet
  facet normal 0 0 -1
    outer loop
      vertex -33.25 -1 41.2229
      vertex -25.75 -21 41.2229
      vertex -33.25 -21 41.2229
    endloop
  endfacet
  facet normal 0 1 0
    outer loop
      vertex -25.75 -21 41.2229
      vertex -25.75 -21 34.7229
      vertex -33.25 -21 41.2229
    endloop
  endfacet
  facet normal 0 1 0
    outer loop
      vertex -33.25 -21 41.2229
      vertex -25.75 -21 34.7229
      vertex -33.25 -21 34.7229
    endloop
  endfacet
  facet normal -0.994989 -2.22001e-17 -0.0999804
    outer loop
      vertex 22.5 -1 0
      vertex 22.5 -22 4.66294e-15
      vertex 21.337 -1 11.574
    endloop
  endfacet
  facet normal -0.994989 -2.22001e-17 -0.0999804
    outer loop
      vertex 21.337 -1 11.574
      vertex 22.5 -22 4.66294e-15
      vertex 21.337 -22 11.574
    endloop
  endfacet
  facet normal 0 2.22045e-16 1
    outer loop
      vertex 41.856 -22 11.574
      vertex 41.856 -1 11.574
      vertex 41.2026 -1 11.574
    endloop
  endfacet
  facet normal 0 2.22045e-16 1
    outer loop
      vertex 34.2574 -21 11.574
      vertex 41.856 -22 11.574
      vertex 41.2026 -21 11.574
    endloop
  endfacet
  facet normal 0 2.22045e-16 1
    outer loop
      vertex 41.2026 -21 11.574
      vertex 41.856 -22 11.574
      vertex 41.2026 -1 11.574
    endloop
  endfacet
  facet normal 0 2.22045e-16 1
    outer loop
      vertex 28.4539 -21 11.574
      vertex 41.856 -22 11.574
      vertex 34.2574 -21 11.574
    endloop
  endfacet
  facet normal 0 2.22045e-16 1
    outer loop
      vertex 28.4539 -1 11.574
      vertex 34.2574 -21 11.574
      vertex 34.2574 -1 11.574
    endloop
  endfacet
  facet normal 0 2.22045e-16 1
    outer loop
      vertex 28.4539 -21 11.574
      vertex 34.2574 -21 11.574
      vertex 28.4539 -1 11.574
    endloop
  endfacet
  facet normal 0 2.22045e-16 1
    outer loop
      vertex 21.9212 -21 11.574
      vertex 41.856 -22 11.574
      vertex 28.4539 -21 11.574
    endloop
  endfacet
  facet normal 0 2.22045e-16 1
    outer loop
      vertex 21.337 -22 11.574
      vertex 41.856 -22 11.574
      vertex 21.9212 -21 11.574
    endloop
  endfacet
  facet normal 0 2.22045e-16 1
    outer loop
      vertex 21.337 -1 11.574
      vertex 21.9212 -21 11.574
      vertex 21.9212 -1 11.574
    endloop
  endfacet
  facet normal 0 2.22045e-16 1
    outer loop
      vertex 21.337 -22 11.574
      vertex 21.9212 -21 11.574
      vertex 21.337 -1 11.574
    endloop
  endfacet
  facet normal 0 -1 2.22045e-16
    outer loop
      vertex 22.5 -22 4.66294e-15
      vertex 37.5 -22 4.66294e-15
      vertex 41.856 -22 11.574
    endloop
  endfacet
  facet normal 0 -1 2.22045e-16
    outer loop
      vertex 21.337 -22 11.574
      vertex 22.5 -22 4.66294e-15
      vertex 41.856 -22 11.574
    endloop
  endfacet
  facet normal 0 1 -2.22045e-16
    outer loop
      vertex 34.2574 -1 11.574
      vertex 29.4512 -1 1.64819
      vertex 28.4539 -1 11.574
    endloop
  endfacet
  facet normal 0 1 -2.22045e-16
    outer loop
      vertex 31.1116 -1 3.21635
      vertex 29.4512 -1 1.64819
      vertex 34.2574 -1 11.574
    endloop
  endfacet
  facet normal 0 1 -2.22045e-16
    outer loop
      vertex 22.9838 -1 0.998373
      vertex 29.4512 -1 1.64819
      vertex 37.195 -1 0.926613
    endloop
  endfacet
  facet normal 0 1 -2.22045e-16
    outer loop
      vertex 29.4512 -1 1.64819
      vertex 31.1116 -1 3.21635
      vertex 37.195 -1 0.926613
    endloop
  endfacet
  facet normal 0 1 -2.22045e-16
    outer loop
      vertex 41.856 -1 11.574
      vertex 37.195 -1 0.926613
      vertex 41.2026 -1 11.574
    endloop
  endfacet
  facet normal 0 1 -2.22045e-16
    outer loop
      vertex 37.5 -1 0
      vertex 37.195 -1 0.926613
      vertex 41.856 -1 11.574
    endloop
  endfacet
  facet normal 0 1 -2.22045e-16
    outer loop
      vertex 22.9838 -1 0.998373
      vertex 37.195 -1 0.926613
      vertex 37.5 -1 0
    endloop
  endfacet
  facet normal 0 1 -2.22045e-16
    outer loop
      vertex 22.9838 -1 0.998373
      vertex 37.5 -1 0
      vertex 22.5 -1 0
    endloop
  endfacet
  facet normal 0 1 -2.22045e-16
    outer loop
      vertex 22.9838 -1 0.998373
      vertex 22.5 -1 0
      vertex 21.9212 -1 11.574
    endloop
  endfacet
  facet normal 0 1 -2.22045e-16
    outer loop
      vertex 22.5 -1 0
      vertex 21.337 -1 11.574
      vertex 21.9212 -1 11.574
    endloop
  endfacet
  facet normal 0 -2.22045e-16 -1
    outer loop
      vertex 37.5 -1 0
      vertex 37.5 -22 4.66294e-15
      vertex 22.5 -1 0
    endloop
  endfacet
  facet normal 0 -2.22045e-16 -1
    outer loop
      vertex 22.5 -1 0
      vertex 37.5 -22 4.66294e-15
      vertex 22.5 -22 4.66294e-15
    endloop
  endfacet
  facet normal 0.93591 -7.82129e-17 -0.35224
    outer loop
      vertex 37.5 -1 0
      vertex 41.856 -1 11.574
      vertex 41.856 -22 11.574
    endloop
  endfacet
  facet normal 0.93591 -7.82129e-17 -0.35224
    outer loop
      vertex 37.5 -22 4.66294e-15
      vertex 37.5 -1 0
      vertex 41.856 -22 11.574
    endloop
  endfacet
  facet normal 0.99499 0 0.0999712
    outer loop
      vertex 21.9212 -1 11.574
      vertex 21.9212 -21 11.574
      vertex 22.9838 -21 0.998373
    endloop
  endfacet
  facet normal 0.99499 0 0.0999712
    outer loop
      vertex 22.9838 -1 0.998373
      vertex 21.9212 -1 11.574
      vertex 22.9838 -21 0.998373
    endloop
  endfacet
  facet normal 0 1 0
    outer loop
      vertex 21.9212 -21 11.574
      vertex 28.4539 -21 11.574
      vertex 22.9838 -21 0.998373
    endloop
  endfacet
  facet normal 0 1 0
    outer loop
      vertex 22.9838 -21 0.998373
      vertex 28.4539 -21 11.574
      vertex 29.4512 -21 1.64819
    endloop
  endfacet
  facet normal -0.99499 0 -0.0999712
    outer loop
      vertex 28.4539 -21 11.574
      vertex 28.4539 -1 11.574
      vertex 29.4512 -21 1.64819
    endloop
  endfacet
  facet normal -0.99499 0 -0.0999712
    outer loop
      vertex 29.4512 -21 1.64819
      vertex 28.4539 -1 11.574
      vertex 29.4512 -1 1.64819
    endloop
  endfacet
  facet normal 0.9359 0 -0.352267
    outer loop
      vertex 34.2574 -21 11.574
      vertex 31.1116 -21 3.21635
      vertex 31.1116 -1 3.21635
    endloop
  endfacet
  facet normal 0.9359 0 -0.352267
    outer loop
      vertex 34.2574 -1 11.574
      vertex 34.2574 -21 11.574
      vertex 31.1116 -1 3.21635
    endloop
  endfacet
  facet normal 0 1 0
    outer loop
      vertex 31.1116 -21 3.21635
      vertex 34.2574 -21 11.574
      vertex 37.195 -21 0.926613
    endloop
  endfacet
  facet normal 0 1 0
    outer loop
      vertex 37.195 -21 0.926613
      vertex 34.2574 -21 11.574
      vertex 41.2026 -21 11.574
    endloop
  endfacet
  facet normal -0.9359 0 0.352267
    outer loop
      vertex 37.195 -21 0.926613
      vertex 41.2026 -21 11.574
      vertex 37.195 -1 0.926613
    endloop
  endfacet
  facet normal -0.9359 0 0.352267
    outer loop
      vertex 37.195 -1 0.926613
      vertex 41.2026 -21 11.574
      vertex 41.2026 -1 11.574
    endloop
  endfacet
  facet normal 0.352267 0 0.9359
    outer loop
      vertex 31.1116 -1 3.21635
      vertex 31.1116 -21 3.21635
      vertex 37.195 -21 0.926613
    endloop
  endfacet
  facet normal 0.352267 0 0.9359
    outer loop
      vertex 37.195 -1 0.926613
      vertex 31.1116 -1 3.21635
      vertex 37.195 -21 0.926613
    endloop
  endfacet
  facet normal -0.0999712 0 0.99499
    outer loop
      vertex 22.9838 -1 0.998373
      vertex 22.9838 -21 0.998373
      vertex 29.4512 -21 1.64819
    endloop
  endfacet
  facet normal -0.0999712 0 0.99499
    outer loop
      vertex 29.4512 -1 1.64819
      vertex 22.9838 -1 0.998373
      vertex 29.4512 -21 1.64819
    endloop
  endfacet
  facet normal 0 -2.22045e-16 -1
    outer loop
      vertex 25.6712 -1 23.1489
      vertex 25.6712 -21 23.1489
      vertex 24.587 -1 23.1489
    endloop
  endfacet
  facet normal 0 -2.22045e-16 -1
    outer loop
      vertex 24.587 -22 23.1489
      vertex 25.6712 -21 23.1489
      vertex 33.087 -22 23.1489
    endloop
  endfacet
  facet normal 0 -2.22045e-16 -1
    outer loop
      vertex 33.087 -1 23.1489
      vertex 32.2039 -21 23.1489
      vertex 32.2039 -1 23.1489
    endloop
  endfacet
  facet normal 0 -2.22045e-16 -1
    outer loop
      vertex 33.087 -22 23.1489
      vertex 32.2039 -21 23.1489
      vertex 33.087 -1 23.1489
    endloop
  endfacet
  facet normal 0 -2.22045e-16 -1
    outer loop
      vertex 25.6712 -21 23.1489
      vertex 32.2039 -21 23.1489
      vertex 33.087 -22 23.1489
    endloop
  endfacet
  facet normal 0 -2.22045e-16 -1
    outer loop
      vertex 24.587 -1 23.1489
      vertex 25.6712 -21 23.1489
      vertex 24.587 -22 23.1489
    endloop
  endfacet
  facet normal -0.994006 2.42756e-17 0.109327
    outer loop
      vertex 25.75 -1 33.7229
      vertex 24.587 -1 23.1489
      vertex 25.75 -22 33.7229
    endloop
  endfacet
  facet normal -0.994006 2.42756e-17 0.109327
    outer loop
      vertex 25.75 -22 33.7229
      vertex 24.587 -1 23.1489
      vertex 24.587 -22 23.1489
    endloop
  endfacet
  facet normal 0 -1 2.22045e-16
    outer loop
      vertex 33.087 -22 23.1489
      vertex 34.25 -22 33.7229
      vertex 34.25 -22 42.2229
    endloop
  endfacet
  facet normal 0 -1 2.22045e-16
    outer loop
      vertex 25.75 -22 33.7229
      vertex 33.087 -22 23.1489
      vertex 25.75 -22 42.2229
    endloop
  endfacet
  facet normal 0 -1 2.22045e-16
    outer loop
      vertex 25.75 -22 42.2229
      vertex 33.087 -22 23.1489
      vertex 34.25 -22 42.2229
    endloop
  endfacet
  facet normal 0 -1 2.22045e-16
    outer loop
      vertex 24.587 -22 23.1489
      vertex 33.087 -22 23.1489
      vertex 25.75 -22 33.7229
    endloop
  endfacet
  facet normal 0 1 -2.22045e-16
    outer loop
      vertex 25.75 -1 34.7229
      vertex 33.25 -1 34.7229
      vertex 25.75 -1 33.7229
    endloop
  endfacet
  facet normal 0 1 -2.22045e-16
    outer loop
      vertex 34.25 -1 33.7229
      vertex 33.25 -1 34.7229
      vertex 34.25 -1 42.2229
    endloop
  endfacet
  facet normal 0 1 -2.22045e-16
    outer loop
      vertex 25.75 -1 42.2229
      vertex 33.25 -1 41.2229
      vertex 25.75 -1 41.2229
    endloop
  endfacet
  facet normal 0 1 -2.22045e-16
    outer loop
      vertex 34.25 -1 42.2229
      vertex 33.25 -1 41.2229
      vertex 25.75 -1 42.2229
    endloop
  endfacet
  facet normal 0 1 -2.22045e-16
    outer loop
      vertex 33.25 -1 34.7229
      vertex 33.25 -1 41.2229
      vertex 34.25 -1 42.2229
    endloop
  endfacet
  facet normal 0 1 -2.22045e-16
    outer loop
      vertex 26.7338 -1 33.7246
      vertex 33.25 -1 34.7229
      vertex 34.25 -1 33.7229
    endloop
  endfacet
  facet normal 0 1 -2.22045e-16
    outer loop
      vertex 33.2012 -1 33.0747
      vertex 34.25 -1 33.7229
      vertex 33.087 -1 23.1489
    endloop
  endfacet
  facet normal 0 1 -2.22045e-16
    outer loop
      vertex 26.7338 -1 33.7246
      vertex 34.25 -1 33.7229
      vertex 33.2012 -1 33.0747
    endloop
  endfacet
  facet normal 0 1 -2.22045e-16
    outer loop
      vertex 25.75 -1 33.7229
      vertex 33.25 -1 34.7229
      vertex 26.7338 -1 33.7246
    endloop
  endfacet
  facet normal 0 1 -2.22045e-16
    outer loop
      vertex 25.6712 -1 23.1489
      vertex 25.75 -1 33.7229
      vertex 26.7338 -1 33.7246
    endloop
  endfacet
  facet normal 0 1 -2.22045e-16
    outer loop
      vertex 33.2012 -1 33.0747
      vertex 33.087 -1 23.1489
      vertex 32.2039 -1 23.1489
    endloop
  endfacet
  facet normal 0 1 -2.22045e-16
    outer loop
      vertex 25.75 -1 33.7229
      vertex 25.6712 -1 23.1489
      vertex 24.587 -1 23.1489
    endloop
  endfacet
  facet normal 0.994006 -2.42756e-17 -0.109327
    outer loop
      vertex 33.087 -1 23.1489
      vertex 34.25 -1 33.7229
      vertex 34.25 -22 33.7229
    endloop
  endfacet
  facet normal 0.994006 -2.42756e-17 -0.109327
    outer loop
      vertex 33.087 -22 23.1489
      vertex 33.087 -1 23.1489
      vertex 34.25 -22 33.7229
    endloop
  endfacet
  facet normal -0.99499 0 0.0999712
    outer loop
      vertex 32.2039 -1 23.1489
      vertex 32.2039 -21 23.1489
      vertex 33.2012 -1 33.0747
    endloop
  endfacet
  facet normal -0.99499 0 0.0999712
    outer loop
      vertex 33.2012 -1 33.0747
      vertex 32.2039 -21 23.1489
      vertex 33.2012 -21 33.0747
    endloop
  endfacet
  facet normal 0 1 0
    outer loop
      vertex 25.6712 -21 23.1489
      vertex 26.7338 -21 33.7246
      vertex 32.2039 -21 23.1489
    endloop
  endfacet
  facet normal 0 1 0
    outer loop
      vertex 32.2039 -21 23.1489
      vertex 26.7338 -21 33.7246
      vertex 33.2012 -21 33.0747
    endloop
  endfacet
  facet normal 0.99499 0 -0.0999712
    outer loop
      vertex 25.6712 -21 23.1489
      vertex 25.6712 -1 23.1489
      vertex 26.7338 -1 33.7246
    endloop
  endfacet
  facet normal 0.99499 0 -0.0999712
    outer loop
      vertex 26.7338 -21 33.7246
      vertex 25.6712 -21 23.1489
      vertex 26.7338 -1 33.7246
    endloop
  endfacet
  facet normal -1 0 0
    outer loop
      vertex 25.75 -1 42.2229
      vertex 25.75 -1 41.2229
      vertex 25.75 -22 42.2229
    endloop
  endfacet
  facet normal -1 0 0
    outer loop
      vertex 25.75 -22 42.2229
      vertex 25.75 -1 41.2229
      vertex 25.75 -21 41.2229
    endloop
  endfacet
  facet normal -1 0 0
    outer loop
      vertex 25.75 -22 42.2229
      vertex 25.75 -21 41.2229
      vertex 25.75 -21 34.7229
    endloop
  endfacet
  facet normal -1 0 0
    outer loop
      vertex 25.75 -21 34.7229
      vertex 25.75 -1 34.7229
      vertex 25.75 -1 33.7229
    endloop
  endfacet
  facet normal -1 0 0
    outer loop
      vertex 25.75 -21 34.7229
      vertex 25.75 -1 33.7229
      vertex 25.75 -22 33.7229
    endloop
  endfacet
  facet normal -1 0 0
    outer loop
      vertex 25.75 -21 34.7229
      vertex 25.75 -22 33.7229
      vertex 25.75 -22 42.2229
    endloop
  endfacet
  facet normal 0 2.22045e-16 1
    outer loop
      vertex 34.25 -22 42.2229
      vertex 34.25 -1 42.2229
      vertex 25.75 -1 42.2229
    endloop
  endfacet
  facet normal 0 2.22045e-16 1
    outer loop
      vertex 25.75 -22 42.2229
      vertex 34.25 -22 42.2229
      vertex 25.75 -1 42.2229
    endloop
  endfacet
  facet normal 1 0 0
    outer loop
      vertex 34.25 -1 33.7229
      vertex 34.25 -1 42.2229
      vertex 34.25 -22 42.2229
    endloop
  endfacet
  facet normal 1 0 0
    outer loop
      vertex 34.25 -22 33.7229
      vertex 34.25 -1 33.7229
      vertex 34.25 -22 42.2229
    endloop
  endfacet
  facet normal -0.0999712 0 -0.99499
    outer loop
      vertex 26.7338 -21 33.7246
      vertex 26.7338 -1 33.7246
      vertex 33.2012 -21 33.0747
    endloop
  endfacet
  facet normal -0.0999712 0 -0.99499
    outer loop
      vertex 33.2012 -21 33.0747
      vertex 26.7338 -1 33.7246
      vertex 33.2012 -1 33.0747
    endloop
  endfacet
  facet normal 0 0 -1
    outer loop
      vertex 25.75 -21 41.2229
      vertex 25.75 -1 41.2229
      vertex 33.25 -21 41.2229
    endloop
  endfacet
  facet normal 0 0 -1
    outer loop
      vertex 33.25 -21 41.2229
      vertex 25.75 -1 41.2229
      vertex 33.25 -1 41.2229
    endloop
  endfacet
  facet normal -1 0 0
    outer loop
      vertex 33.25 -21 34.7229
      vertex 33.25 -21 41.2229
      vertex 33.25 -1 34.7229
    endloop
  endfacet
  facet normal -1 0 0
    outer loop
      vertex 33.25 -1 34.7229
      vertex 33.25 -21 41.2229
      vertex 33.25 -1 41.2229
    endloop
  endfacet
  facet normal 0 0 1
    outer loop
      vertex 25.75 -1 34.7229
      vertex 25.75 -21 34.7229
      vertex 33.25 -21 34.7229
    endloop
  endfacet
  facet normal 0 0 1
    outer loop
      vertex 33.25 -1 34.7229
      vertex 25.75 -1 34.7229
      vertex 33.25 -21 34.7229
    endloop
  endfacet
  facet normal 0 1 0
    outer loop
      vertex 25.75 -21 34.7229
      vertex 25.75 -21 41.2229
      vertex 33.25 -21 34.7229
    endloop
  endfacet
  facet normal 0 1 0
    outer loop
      vertex 33.25 -21 34.7229
      vertex 25.75 -21 41.2229
      vertex 33.25 -21 41.2229
    endloop
  endfacet
  facet normal 0 -2.22045e-16 -1
    outer loop
      vertex -11.856 -22 23.1489
      vertex -11.856 -1 23.1489
      vertex -10.7026 -21 23.1489
    endloop
  endfacet
  facet normal 0 -2.22045e-16 -1
    outer loop
      vertex -11.856 -22 23.1489
      vertex -10.7026 -21 23.1489
      vertex 11.856 -22 23.1489
    endloop
  endfacet
  facet normal 0 -2.22045e-16 -1
    outer loop
      vertex -10.7026 -21 23.1489
      vertex -3.75739 -21 23.1489
      vertex 11.856 -22 23.1489
    endloop
  endfacet
  facet normal 0 -2.22045e-16 -1
    outer loop
      vertex 3.75739 -21 23.1489
      vertex -3.75739 -1 23.1489
      vertex 3.75739 -1 23.1489
    endloop
  endfacet
  facet normal 0 -2.22045e-16 -1
    outer loop
      vertex 10.7026 -1 23.1489
      vertex 11.856 -22 23.1489
      vertex 10.7026 -21 23.1489
    endloop
  endfacet
  facet normal 0 -2.22045e-16 -1
    outer loop
      vertex -3.75739 -21 23.1489
      vertex 3.75739 -21 23.1489
      vertex 11.856 -22 23.1489
    endloop
  endfacet
  facet normal 0 -2.22045e-16 -1
    outer loop
      vertex -3.75739 -1 23.1489
      vertex 3.75739 -21 23.1489
      vertex -3.75739 -21 23.1489
    endloop
  endfacet
  facet normal 0 -2.22045e-16 -1
    outer loop
      vertex 3.75739 -21 23.1489
      vertex 10.7026 -21 23.1489
      vertex 11.856 -22 23.1489
    endloop
  endfacet
  facet normal 0 -2.22045e-16 -1
    outer loop
      vertex 11.856 -22 23.1489
      vertex 10.7026 -1 23.1489
      vertex 11.856 -1 23.1489
    endloop
  endfacet
  facet normal 0 -2.22045e-16 -1
    outer loop
      vertex -10.7026 -21 23.1489
      vertex -11.856 -1 23.1489
      vertex -10.7026 -1 23.1489
    endloop
  endfacet
  facet normal -0.93591 7.82129e-17 0.35224
    outer loop
      vertex -11.856 -22 23.1489
      vertex -7.5 -22 34.7229
      vertex -11.856 -1 23.1489
    endloop
  endfacet
  facet normal -0.93591 7.82129e-17 0.35224
    outer loop
      vertex -11.856 -1 23.1489
      vertex -7.5 -22 34.7229
      vertex -7.5 -21 34.7229
    endloop
  endfacet
  facet normal -0.93591 7.82129e-17 0.35224
    outer loop
      vertex -7.5 -1 34.7229
      vertex -11.856 -1 23.1489
      vertex -7.5 -21 34.7229
    endloop
  endfacet
  facet normal 0 -1 2.22045e-16
    outer loop
      vertex -7.5 -22 34.7229
      vertex -11.856 -22 23.1489
      vertex 11.856 -22 23.1489
    endloop
  endfacet
  facet normal 0 -1 2.22045e-16
    outer loop
      vertex 7.5 -22 42.2229
      vertex -7.5 -22 34.7229
      vertex 7.5 -22 34.7229
    endloop
  endfacet
  facet normal 0 -1 2.22045e-16
    outer loop
      vertex 7.5 -22 34.7229
      vertex -7.5 -22 34.7229
      vertex 11.856 -22 23.1489
    endloop
  endfacet
  facet normal 0 -1 2.22045e-16
    outer loop
      vertex -7.5 -22 42.2229
      vertex -7.5 -22 34.7229
      vertex 7.5 -22 42.2229
    endloop
  endfacet
  facet normal 0.93591 7.82129e-17 0.35224
    outer loop
      vertex 7.5 -21 34.7229
      vertex 7.5 -22 34.7229
      vertex 11.856 -22 23.1489
    endloop
  endfacet
  facet normal 0.93591 7.82129e-17 0.35224
    outer loop
      vertex 11.856 -1 23.1489
      vertex 7.5 -21 34.7229
      vertex 11.856 -22 23.1489
    endloop
  endfacet
  facet normal 0.93591 7.82129e-17 0.35224
    outer loop
      vertex 7.5 -1 34.7229
      vertex 7.5 -21 34.7229
      vertex 11.856 -1 23.1489
    endloop
  endfacet
  facet normal 0 1 -2.22045e-16
    outer loop
      vertex -11.856 -1 23.1489
      vertex -7.5 -1 34.7229
      vertex -10.7026 -1 23.1489
    endloop
  endfacet
  facet normal 0 1 -2.22045e-16
    outer loop
      vertex 0.611625 -1 31.5066
      vertex -7.5 -1 34.7229
      vertex 7.5 -1 34.7229
    endloop
  endfacet
  facet normal 0 1 -2.22045e-16
    outer loop
      vertex 10.7026 -1 23.1489
      vertex 7.5 -1 34.7229
      vertex 11.856 -1 23.1489
    endloop
  endfacet
  facet normal 0 1 -2.22045e-16
    outer loop
      vertex 6.69497 -1 33.7963
      vertex 7.5 -1 34.7229
      vertex 10.7026 -1 23.1489
    endloop
  endfacet
  facet normal 0 1 -2.22045e-16
    outer loop
      vertex 3.75739 -1 23.1489
      vertex -3.75739 -1 23.1489
      vertex 0.611625 -1 31.5066
    endloop
  endfacet
  facet normal 0 1 -2.22045e-16
    outer loop
      vertex -0.611625 -1 31.5066
      vertex -7.5 -1 34.7229
      vertex 0.611625 -1 31.5066
    endloop
  endfacet
  facet normal 0 1 -2.22045e-16
    outer loop
      vertex -0.611625 -1 31.5066
      vertex 0.611625 -1 31.5066
      vertex -3.75739 -1 23.1489
    endloop
  endfacet
  facet normal 0 1 -2.22045e-16
    outer loop
      vertex -6.69497 -1 33.7963
      vertex -7.5 -1 34.7229
      vertex -0.611625 -1 31.5066
    endloop
  endfacet
  facet normal 0 1 -2.22045e-16
    outer loop
      vertex -10.7026 -1 23.1489
      vertex -7.5 -1 34.7229
      vertex -6.69497 -1 33.7963
    endloop
  endfacet
  facet normal 0 1 -2.22045e-16
    outer loop
      vertex 0.611625 -1 31.5066
      vertex 7.5 -1 34.7229
      vertex 6.69497 -1 33.7963
    endloop
  endfacet
  facet normal -0.9359 0 -0.352267
    outer loop
      vertex 10.7026 -1 23.1489
      vertex 10.7026 -21 23.1489
      vertex 6.69497 -1 33.7963
    endloop
  endfacet
  facet normal -0.9359 0 -0.352267
    outer loop
      vertex 6.69497 -1 33.7963
      vertex 10.7026 -21 23.1489
      vertex 6.69497 -21 33.7963
    endloop
  endfacet
  facet normal 0 1 0
    outer loop
      vertex 10.7026 -21 23.1489
      vertex 3.75739 -21 23.1489
      vertex 6.69497 -21 33.7963
    endloop
  endfacet
  facet normal 0 1 0
    outer loop
      vertex 6.69497 -21 33.7963
      vertex 3.75739 -21 23.1489
      vertex 0.611625 -21 31.5066
    endloop
  endfacet
  facet normal 0.9359 0 0.352267
    outer loop
      vertex 3.75739 -21 23.1489
      vertex 3.75739 -1 23.1489
      vertex 0.611625 -1 31.5066
    endloop
  endfacet
  facet normal 0.9359 0 0.352267
    outer loop
      vertex 0.611625 -21 31.5066
      vertex 3.75739 -21 23.1489
      vertex 0.611625 -1 31.5066
    endloop
  endfacet
  facet normal -0.9359 0 0.352267
    outer loop
      vertex -0.611625 -21 31.5066
      vertex -0.611625 -1 31.5066
      vertex -3.75739 -21 23.1489
    endloop
  endfacet
  facet normal -0.9359 0 0.352267
    outer loop
      vertex -3.75739 -21 23.1489
      vertex -0.611625 -1 31.5066
      vertex -3.75739 -1 23.1489
    endloop
  endfacet
  facet normal 0 1 0
    outer loop
      vertex -0.611625 -21 31.5066
      vertex -3.75739 -21 23.1489
      vertex -6.69497 -21 33.7963
    endloop
  endfacet
  facet normal 0 1 0
    outer loop
      vertex -6.69497 -21 33.7963
      vertex -3.75739 -21 23.1489
      vertex -10.7026 -21 23.1489
    endloop
  endfacet
  facet normal 0.9359 0 -0.352267
    outer loop
      vertex -6.69497 -1 33.7963
      vertex -6.69497 -21 33.7963
      vertex -10.7026 -21 23.1489
    endloop
  endfacet
  facet normal 0.9359 0 -0.352267
    outer loop
      vertex -10.7026 -1 23.1489
      vertex -6.69497 -1 33.7963
      vertex -10.7026 -21 23.1489
    endloop
  endfacet
  facet normal 0 0 1
    outer loop
      vertex 7.5 -21 34.7229
      vertex 7.5 -1 34.7229
      vertex -7.5 -1 34.7229
    endloop
  endfacet
  facet normal 0 0 1
    outer loop
      vertex -7.5 -21 34.7229
      vertex 7.5 -21 34.7229
      vertex -7.5 -1 34.7229
    endloop
  endfacet
  facet normal 0 1 0
    outer loop
      vertex -7.5 -21 41.2229
      vertex 7.5 -21 41.2229
      vertex -7.5 -21 34.7229
    endloop
  endfacet
  facet normal 0 1 0
    outer loop
      vertex -7.5 -21 34.7229
      vertex 7.5 -21 41.2229
      vertex 7.5 -21 34.7229
    endloop
  endfacet
  facet normal -1 0 0
    outer loop
      vertex -7.5 -22 34.7229
      vertex -7.5 -22 42.2229
      vertex -7.5 -21 34.7229
    endloop
  endfacet
  facet normal -1 0 0
    outer loop
      vertex -7.5 -21 41.2229
      vertex -7.5 -22 42.2229
      vertex -7.5 -1 42.2229
    endloop
  endfacet
  facet normal -1 0 0
    outer loop
      vertex -7.5 -21 34.7229
      vertex -7.5 -22 42.2229
      vertex -7.5 -21 41.2229
    endloop
  endfacet
  facet normal -1 0 0
    outer loop
      vertex -7.5 -21 41.2229
      vertex -7.5 -1 42.2229
      vertex -7.5 -1 41.2229
    endloop
  endfacet
  facet normal 0 2.22045e-16 1
    outer loop
      vertex -7.5 -1 42.2229
      vertex -7.5 -22 42.2229
      vertex 7.5 -22 42.2229
    endloop
  endfacet
  facet normal 0 2.22045e-16 1
    outer loop
      vertex 7.5 -1 42.2229
      vertex -7.5 -1 42.2229
      vertex 7.5 -22 42.2229
    endloop
  endfacet
  facet normal 1 0 0
    outer loop
      vertex 7.5 -22 42.2229
      vertex 7.5 -22 34.7229
      vertex 7.5 -21 34.7229
    endloop
  endfacet
  facet normal 1 0 0
    outer loop
      vertex 7.5 -1 41.2229
      vertex 7.5 -22 42.2229
      vertex 7.5 -21 41.2229
    endloop
  endfacet
  facet normal 1 0 0
    outer loop
      vertex 7.5 -21 41.2229
      vertex 7.5 -22 42.2229
      vertex 7.5 -21 34.7229
    endloop
  endfacet
  facet normal 1 0 0
    outer loop
      vertex 7.5 -1 42.2229
      vertex 7.5 -22 42.2229
      vertex 7.5 -1 41.2229
    endloop
  endfacet
  facet normal -0.352267 0 -0.9359
    outer loop
      vertex -0.611625 -1 31.5066
      vertex -0.611625 -21 31.5066
      vertex -6.69497 -1 33.7963
    endloop
  endfacet
  facet normal -0.352267 0 -0.9359
    outer loop
      vertex -6.69497 -1 33.7963
      vertex -0.611625 -21 31.5066
      vertex -6.69497 -21 33.7963
    endloop
  endfacet
  facet normal 0.352267 0 -0.9359
    outer loop
      vertex 6.69497 -1 33.7963
      vertex 6.69497 -21 33.7963
      vertex 0.611625 -1 31.5066
    endloop
  endfacet
  facet normal 0.352267 0 -0.9359
    outer loop
      vertex 0.611625 -1 31.5066
      vertex 6.69497 -21 33.7963
      vertex 0.611625 -21 31.5066
    endloop
  endfacet
  facet normal 0 0 -1
    outer loop
      vertex 7.5 -1 41.2229
      vertex 7.5 -21 41.2229
      vertex -7.5 -1 41.2229
    endloop
  endfacet
  facet normal 0 0 -1
    outer loop
      vertex -7.5 -1 41.2229
      vertex 7.5 -21 41.2229
      vertex -7.5 -21 41.2229
    endloop
  endfacet
  facet normal 0 1 -2.22045e-16
    outer loop
      vertex -7.5 -1 41.2229
      vertex -7.5 -1 42.2229
      vertex 7.5 -1 41.2229
    endloop
  endfacet
  facet normal 0 1 -2.22045e-16
    outer loop
      vertex 7.5 -1 41.2229
      vertex -7.5 -1 42.2229
      vertex 7.5 -1 42.2229
    endloop
  endfacet
  facet normal -0.93591 7.82129e-17 -0.35224
    outer loop
      vertex -37.5 22 4.66294e-15
      vertex -37.5 1 0
      vertex -41.856 22 11.574
    endloop
  endfacet
  facet normal -0.93591 7.82129e-17 -0.35224
    outer loop
      vertex -41.856 22 11.574
      vertex -37.5 1 0
      vertex -41.856 1 11.574
    endloop
  endfacet
  facet normal 0 -2.22045e-16 1
    outer loop
      vertex -21.337 22 11.574
      vertex -41.2026 21 11.574
      vertex -34.2574 21 11.574
    endloop
  endfacet
  facet normal 0 -2.22045e-16 1
    outer loop
      vertex -28.4539 21 11.574
      vertex -21.337 22 11.574
      vertex -34.2574 21 11.574
    endloop
  endfacet
  facet normal 0 -2.22045e-16 1
    outer loop
      vertex -41.2026 1 11.574
      vertex -41.2026 21 11.574
      vertex -41.856 22 11.574
    endloop
  endfacet
  facet normal 0 -2.22045e-16 1
    outer loop
      vertex -34.2574 1 11.574
      vertex -28.4539 1 11.574
      vertex -34.2574 21 11.574
    endloop
  endfacet
  facet normal 0 -2.22045e-16 1
    outer loop
      vertex -28.4539 1 11.574
      vertex -28.4539 21 11.574
      vertex -34.2574 21 11.574
    endloop
  endfacet
  facet normal 0 -2.22045e-16 1
    outer loop
      vertex -21.9212 21 11.574
      vertex -21.337 22 11.574
      vertex -28.4539 21 11.574
    endloop
  endfacet
  facet normal 0 -2.22045e-16 1
    outer loop
      vertex -21.9212 1 11.574
      vertex -21.337 1 11.574
      vertex -21.9212 21 11.574
    endloop
  endfacet
  facet normal 0 -2.22045e-16 1
    outer loop
      vertex -21.337 1 11.574
      vertex -21.337 22 11.574
      vertex -21.9212 21 11.574
    endloop
  endfacet
  facet normal 0 -2.22045e-16 1
    outer loop
      vertex -21.337 22 11.574
      vertex -41.856 22 11.574
      vertex -41.2026 21 11.574
    endloop
  endfacet
  facet normal 0 -2.22045e-16 1
    outer loop
      vertex -41.856 22 11.574
      vertex -41.856 1 11.574
      vertex -41.2026 1 11.574
    endloop
  endfacet
  facet normal 0 -1 -2.22045e-16
    outer loop
      vertex -22.9838 1 0.998373
      vertex -22.5 1 0
      vertex -21.337 1 11.574
    endloop
  endfacet
  facet normal 0 -1 -2.22045e-16
    outer loop
      vertex -31.1116 1 3.21635
      vertex -37.195 1 0.926613
      vertex -37.5 1 0
    endloop
  endfacet
  facet normal 0 -1 -2.22045e-16
    outer loop
      vertex -29.4512 1 1.64819
      vertex -28.4539 1 11.574
      vertex -31.1116 1 3.21635
    endloop
  endfacet
  facet normal 0 -1 -2.22045e-16
    outer loop
      vertex -37.5 1 0
      vertex -22.5 1 0
      vertex -22.9838 1 0.998373
    endloop
  endfacet
  facet normal 0 -1 -2.22045e-16
    outer loop
      vertex -37.5 1 0
      vertex -22.9838 1 0.998373
      vertex -29.4512 1 1.64819
    endloop
  endfacet
  facet normal 0 -1 -2.22045e-16
    outer loop
      vertex -37.195 1 0.926613
      vertex -41.2026 1 11.574
      vertex -37.5 1 0
    endloop
  endfacet
  facet normal 0 -1 -2.22045e-16
    outer loop
      vertex -37.5 1 0
      vertex -29.4512 1 1.64819
      vertex -31.1116 1 3.21635
    endloop
  endfacet
  facet normal 0 -1 -2.22045e-16
    outer loop
      vertex -41.856 1 11.574
      vertex -37.5 1 0
      vertex -41.2026 1 11.574
    endloop
  endfacet
  facet normal 0 -1 -2.22045e-16
    outer loop
      vertex -34.2574 1 11.574
      vertex -31.1116 1 3.21635
      vertex -28.4539 1 11.574
    endloop
  endfacet
  facet normal 0 -1 -2.22045e-16
    outer loop
      vertex -21.9212 1 11.574
      vertex -22.9838 1 0.998373
      vertex -21.337 1 11.574
    endloop
  endfacet
  facet normal 0 1 2.22045e-16
    outer loop
      vertex -22.5 22 4.66294e-15
      vertex -37.5 22 4.66294e-15
      vertex -21.337 22 11.574
    endloop
  endfacet
  facet normal 0 1 2.22045e-16
    outer loop
      vertex -21.337 22 11.574
      vertex -37.5 22 4.66294e-15
      vertex -41.856 22 11.574
    endloop
  endfacet
  facet normal 0 2.22045e-16 -1
    outer loop
      vertex -22.5 22 4.66294e-15
      vertex -22.5 1 0
      vertex -37.5 22 4.66294e-15
    endloop
  endfacet
  facet normal 0 2.22045e-16 -1
    outer loop
      vertex -37.5 22 4.66294e-15
      vertex -22.5 1 0
      vertex -37.5 1 0
    endloop
  endfacet
  facet normal 0.9359 0 0.352267
    outer loop
      vertex -37.195 21 0.926613
      vertex -41.2026 21 11.574
      vertex -41.2026 1 11.574
    endloop
  endfacet
  facet normal 0.9359 0 0.352267
    outer loop
      vertex -37.195 1 0.926613
      vertex -37.195 21 0.926613
      vertex -41.2026 1 11.574
    endloop
  endfacet
  facet normal 0.994989 2.22001e-17 -0.0999804
    outer loop
      vertex -22.5 22 4.66294e-15
      vertex -21.337 22 11.574
      vertex -21.337 1 11.574
    endloop
  endfacet
  facet normal 0.994989 2.22001e-17 -0.0999804
    outer loop
      vertex -22.5 1 0
      vertex -22.5 22 4.66294e-15
      vertex -21.337 1 11.574
    endloop
  endfacet
  facet normal -0.99499 0 0.0999712
    outer loop
      vertex -22.9838 1 0.998373
      vertex -21.9212 1 11.574
      vertex -22.9838 21 0.998373
    endloop
  endfacet
  facet normal -0.99499 0 0.0999712
    outer loop
      vertex -22.9838 21 0.998373
      vertex -21.9212 1 11.574
      vertex -21.9212 21 11.574
    endloop
  endfacet
  facet normal 0 -1 0
    outer loop
      vertex -28.4539 21 11.574
      vertex -29.4512 21 1.64819
      vertex -22.9838 21 0.998373
    endloop
  endfacet
  facet normal 0 -1 0
    outer loop
      vertex -21.9212 21 11.574
      vertex -28.4539 21 11.574
      vertex -22.9838 21 0.998373
    endloop
  endfacet
  facet normal 0.99499 0 -0.0999712
    outer loop
      vertex -28.4539 1 11.574
      vertex -29.4512 1 1.64819
      vertex -29.4512 21 1.64819
    endloop
  endfacet
  facet normal 0.99499 0 -0.0999712
    outer loop
      vertex -28.4539 21 11.574
      vertex -28.4539 1 11.574
      vertex -29.4512 21 1.64819
    endloop
  endfacet
  facet normal -0.9359 0 -0.352267
    outer loop
      vertex -34.2574 21 11.574
      vertex -31.1116 21 3.21635
      vertex -34.2574 1 11.574
    endloop
  endfacet
  facet normal -0.9359 0 -0.352267
    outer loop
      vertex -34.2574 1 11.574
      vertex -31.1116 21 3.21635
      vertex -31.1116 1 3.21635
    endloop
  endfacet
  facet normal 0 -1 0
    outer loop
      vertex -34.2574 21 11.574
      vertex -41.2026 21 11.574
      vertex -37.195 21 0.926613
    endloop
  endfacet
  facet normal 0 -1 0
    outer loop
      vertex -31.1116 21 3.21635
      vertex -34.2574 21 11.574
      vertex -37.195 21 0.926613
    endloop
  endfacet
  facet normal -0.352267 0 0.9359
    outer loop
      vertex -37.195 21 0.926613
      vertex -37.195 1 0.926613
      vertex -31.1116 1 3.21635
    endloop
  endfacet
  facet normal -0.352267 0 0.9359
    outer loop
      vertex -31.1116 21 3.21635
      vertex -37.195 21 0.926613
      vertex -31.1116 1 3.21635
    endloop
  endfacet
  facet normal 0.0999712 0 0.99499
    outer loop
      vertex -29.4512 21 1.64819
      vertex -29.4512 1 1.64819
      vertex -22.9838 1 0.998373
    endloop
  endfacet
  facet normal 0.0999712 0 0.99499
    outer loop
      vertex -22.9838 21 0.998373
      vertex -29.4512 21 1.64819
      vertex -22.9838 1 0.998373
    endloop
  endfacet
  facet normal -1 0 0
    outer loop
      vertex -34.25 22 33.7229
      vertex -34.25 1 33.7229
      vertex -34.25 22 42.2229
    endloop
  endfacet
  facet normal -1 0 0
    outer loop
      vertex -34.25 22 42.2229
      vertex -34.25 1 33.7229
      vertex -34.25 1 42.2229
    endloop
  endfacet
  facet normal 0 -2.22045e-16 1
    outer loop
      vertex -25.75 1 42.2229
      vertex -25.75 22 42.2229
      vertex -34.25 22 42.2229
    endloop
  endfacet
  facet normal 0 -2.22045e-16 1
    outer loop
      vertex -34.25 1 42.2229
      vertex -25.75 1 42.2229
      vertex -34.25 22 42.2229
    endloop
  endfacet
  facet normal 0 -1 -2.22045e-16
    outer loop
      vertex -34.25 1 33.7229
      vertex -33.087 1 23.1489
      vertex -32.2039 1 23.1489
    endloop
  endfacet
  facet normal 0 -1 -2.22045e-16
    outer loop
      vertex -26.7338 1 33.7246
      vertex -34.25 1 33.7229
      vertex -33.2012 1 33.0747
    endloop
  endfacet
  facet normal 0 -1 -2.22045e-16
    outer loop
      vertex -33.2012 1 33.0747
      vertex -34.25 1 33.7229
      vertex -32.2039 1 23.1489
    endloop
  endfacet
  facet normal 0 -1 -2.22045e-16
    outer loop
      vertex -25.75 1 34.7229
      vertex -34.25 1 33.7229
      vertex -26.7338 1 33.7246
    endloop
  endfacet
  facet normal 0 -1 -2.22045e-16
    outer loop
      vertex -24.587 1 23.1489
      vertex -26.7338 1 33.7246
      vertex -25.6712 1 23.1489
    endloop
  endfacet
  facet normal 0 -1 -2.22045e-16
    outer loop
      vertex -25.75 1 33.7229
      vertex -26.7338 1 33.7246
      vertex -24.587 1 23.1489
    endloop
  endfacet
  facet normal 0 -1 -2.22045e-16
    outer loop
      vertex -25.75 1 34.7229
      vertex -26.7338 1 33.7246
      vertex -25.75 1 33.7229
    endloop
  endfacet
  facet normal 0 -1 -2.22045e-16
    outer loop
      vertex -33.25 1 34.7229
      vertex -34.25 1 33.7229
      vertex -25.75 1 34.7229
    endloop
  endfacet
  facet normal 0 -1 -2.22045e-16
    outer loop
      vertex -33.25 1 41.2229
      vertex -34.25 1 33.7229
      vertex -33.25 1 34.7229
    endloop
  endfacet
  facet normal 0 -1 -2.22045e-16
    outer loop
      vertex -34.25 1 42.2229
      vertex -34.25 1 33.7229
      vertex -33.25 1 41.2229
    endloop
  endfacet
  facet normal 0 -1 -2.22045e-16
    outer loop
      vertex -25.75 1 42.2229
      vertex -33.25 1 41.2229
      vertex -25.75 1 41.2229
    endloop
  endfacet
  facet normal 0 -1 -2.22045e-16
    outer loop
      vertex -34.25 1 42.2229
      vertex -33.25 1 41.2229
      vertex -25.75 1 42.2229
    endloop
  endfacet
  facet normal 0 1 2.22045e-16
    outer loop
      vertex -25.75 22 33.7229
      vertex -24.587 22 23.1489
      vertex -33.087 22 23.1489
    endloop
  endfacet
  facet normal 0 1 2.22045e-16
    outer loop
      vertex -25.75 22 33.7229
      vertex -33.087 22 23.1489
      vertex -25.75 22 42.2229
    endloop
  endfacet
  facet normal 0 1 2.22045e-16
    outer loop
      vertex -33.087 22 23.1489
      vertex -34.25 22 33.7229
      vertex -25.75 22 42.2229
    endloop
  endfacet
  facet normal 0 1 2.22045e-16
    outer loop
      vertex -34.25 22 33.7229
      vertex -34.25 22 42.2229
      vertex -25.75 22 42.2229
    endloop
  endfacet
  facet normal -0.994006 2.42756e-17 -0.109327
    outer loop
      vertex -33.087 22 23.1489
      vertex -33.087 1 23.1489
      vertex -34.25 22 33.7229
    endloop
  endfacet
  facet normal -0.994006 2.42756e-17 -0.109327
    outer loop
      vertex -34.25 22 33.7229
      vertex -33.087 1 23.1489
      vertex -34.25 1 33.7229
    endloop
  endfacet
  facet normal 1 0 0
    outer loop
      vertex -25.75 22 33.7229
      vertex -25.75 21 41.2229
      vertex -25.75 21 34.7229
    endloop
  endfacet
  facet normal 1 0 0
    outer loop
      vertex -25.75 1 41.2229
      vertex -25.75 21 41.2229
      vertex -25.75 22 42.2229
    endloop
  endfacet
  facet normal 1 0 0
    outer loop
      vertex -25.75 1 34.7229
      vertex -25.75 1 33.7229
      vertex -25.75 21 34.7229
    endloop
  endfacet
  facet normal 1 0 0
    outer loop
      vertex -25.75 1 33.7229
      vertex -25.75 22 33.7229
      vertex -25.75 21 34.7229
    endloop
  endfacet
  facet normal 1 0 0
    outer loop
      vertex -25.75 22 33.7229
      vertex -25.75 22 42.2229
      vertex -25.75 21 41.2229
    endloop
  endfacet
  facet normal 1 0 0
    outer loop
      vertex -25.75 22 42.2229
      vertex -25.75 1 42.2229
      vertex -25.75 1 41.2229
    endloop
  endfacet
  facet normal 0 0 -1
    outer loop
      vertex -33.25 1 41.2229
      vertex -33.25 21 41.2229
      vertex -25.75 1 41.2229
    endloop
  endfacet
  facet normal 0 0 -1
    outer loop
      vertex -25.75 1 41.2229
      vertex -33.25 21 41.2229
      vertex -25.75 21 41.2229
    endloop
  endfacet
  facet normal 1 0 0
    outer loop
      vertex -33.25 21 41.2229
      vertex -33.25 1 41.2229
      vertex -33.25 1 34.7229
    endloop
  endfacet
  facet normal 1 0 0
    outer loop
      vertex -33.25 21 34.7229
      vertex -33.25 21 41.2229
      vertex -33.25 1 34.7229
    endloop
  endfacet
  facet normal 0 0 1
    outer loop
      vertex -33.25 21 34.7229
      vertex -33.25 1 34.7229
      vertex -25.75 1 34.7229
    endloop
  endfacet
  facet normal 0 0 1
    outer loop
      vertex -25.75 21 34.7229
      vertex -33.25 21 34.7229
      vertex -25.75 1 34.7229
    endloop
  endfacet
  facet normal 0.994006 -2.42756e-17 0.109327
    outer loop
      vertex -24.587 1 23.1489
      vertex -24.587 22 23.1489
      vertex -25.75 22 33.7229
    endloop
  endfacet
  facet normal 0.994006 -2.42756e-17 0.109327
    outer loop
      vertex -25.75 1 33.7229
      vertex -24.587 1 23.1489
      vertex -25.75 22 33.7229
    endloop
  endfacet
  facet normal 0 2.22045e-16 -1
    outer loop
      vertex -24.587 22 23.1489
      vertex -24.587 1 23.1489
      vertex -25.6712 21 23.1489
    endloop
  endfacet
  facet normal 0 2.22045e-16 -1
    outer loop
      vertex -24.587 22 23.1489
      vertex -25.6712 21 23.1489
      vertex -33.087 22 23.1489
    endloop
  endfacet
  facet normal 0 2.22045e-16 -1
    outer loop
      vertex -32.2039 1 23.1489
      vertex -33.087 22 23.1489
      vertex -32.2039 21 23.1489
    endloop
  endfacet
  facet normal 0 2.22045e-16 -1
    outer loop
      vertex -25.6712 21 23.1489
      vertex -32.2039 21 23.1489
      vertex -33.087 22 23.1489
    endloop
  endfacet
  facet normal 0 2.22045e-16 -1
    outer loop
      vertex -33.087 22 23.1489
      vertex -32.2039 1 23.1489
      vertex -33.087 1 23.1489
    endloop
  endfacet
  facet normal 0 2.22045e-16 -1
    outer loop
      vertex -25.6712 21 23.1489
      vertex -24.587 1 23.1489
      vertex -25.6712 1 23.1489
    endloop
  endfacet
  facet normal -0.99499 0 -0.0999712
    outer loop
      vertex -26.7338 1 33.7246
      vertex -26.7338 21 33.7246
      vertex -25.6712 1 23.1489
    endloop
  endfacet
  facet normal -0.99499 0 -0.0999712
    outer loop
      vertex -25.6712 1 23.1489
      vertex -26.7338 21 33.7246
      vertex -25.6712 21 23.1489
    endloop
  endfacet
  facet normal 0.0999712 0 -0.99499
    outer loop
      vertex -33.2012 1 33.0747
      vertex -33.2012 21 33.0747
      vertex -26.7338 1 33.7246
    endloop
  endfacet
  facet normal 0.0999712 0 -0.99499
    outer loop
      vertex -26.7338 1 33.7246
      vertex -33.2012 21 33.0747
      vertex -26.7338 21 33.7246
    endloop
  endfacet
  facet normal 0.99499 0 0.0999712
    outer loop
      vertex -33.2012 21 33.0747
      vertex -33.2012 1 33.0747
      vertex -32.2039 1 23.1489
    endloop
  endfacet
  facet normal 0.99499 0 0.0999712
    outer loop
      vertex -32.2039 21 23.1489
      vertex -33.2012 21 33.0747
      vertex -32.2039 1 23.1489
    endloop
  endfacet
  facet normal 0 -1 0
    outer loop
      vertex -33.25 21 41.2229
      vertex -33.25 21 34.7229
      vertex -25.75 21 34.7229
    endloop
  endfacet
  facet normal 0 -1 0
    outer loop
      vertex -25.75 21 41.2229
      vertex -33.25 21 41.2229
      vertex -25.75 21 34.7229
    endloop
  endfacet
  facet normal 0 -1 0
    outer loop
      vertex -26.7338 21 33.7246
      vertex -33.2012 21 33.0747
      vertex -32.2039 21 23.1489
    endloop
  endfacet
  facet normal 0 -1 0
    outer loop
      vertex -25.6712 21 23.1489
      vertex -26.7338 21 33.7246
      vertex -32.2039 21 23.1489
    endloop
  endfacet
  facet normal -0.994989 2.22001e-17 -0.0999804
    outer loop
      vertex 21.337 1 11.574
      vertex 21.337 22 11.574
      vertex 22.5 1 0
    endloop
  endfacet
  facet normal -0.994989 2.22001e-17 -0.0999804
    outer loop
      vertex 22.5 1 0
      vertex 21.337 22 11.574
      vertex 22.5 22 4.66294e-15
    endloop
  endfacet
  facet normal 0 -2.22045e-16 1
    outer loop
      vertex 21.337 22 11.574
      vertex 21.337 1 11.574
      vertex 21.9212 1 11.574
    endloop
  endfacet
  facet normal 0 -2.22045e-16 1
    outer loop
      vertex 28.4539 21 11.574
      vertex 21.337 22 11.574
      vertex 21.9212 21 11.574
    endloop
  endfacet
  facet normal 0 -2.22045e-16 1
    outer loop
      vertex 21.9212 21 11.574
      vertex 21.337 22 11.574
      vertex 21.9212 1 11.574
    endloop
  endfacet
  facet normal 0 -2.22045e-16 1
    outer loop
      vertex 34.2574 21 11.574
      vertex 21.337 22 11.574
      vertex 28.4539 21 11.574
    endloop
  endfacet
  facet normal 0 -2.22045e-16 1
    outer loop
      vertex 34.2574 1 11.574
      vertex 28.4539 21 11.574
      vertex 28.4539 1 11.574
    endloop
  endfacet
  facet normal 0 -2.22045e-16 1
    outer loop
      vertex 34.2574 21 11.574
      vertex 28.4539 21 11.574
      vertex 34.2574 1 11.574
    endloop
  endfacet
  facet normal 0 -2.22045e-16 1
    outer loop
      vertex 41.2026 21 11.574
      vertex 21.337 22 11.574
      vertex 34.2574 21 11.574
    endloop
  endfacet
  facet normal 0 -2.22045e-16 1
    outer loop
      vertex 41.856 22 11.574
      vertex 21.337 22 11.574
      vertex 41.2026 21 11.574
    endloop
  endfacet
  facet normal 0 -2.22045e-16 1
    outer loop
      vertex 41.856 1 11.574
      vertex 41.2026 21 11.574
      vertex 41.2026 1 11.574
    endloop
  endfacet
  facet normal 0 -2.22045e-16 1
    outer loop
      vertex 41.856 22 11.574
      vertex 41.2026 21 11.574
      vertex 41.856 1 11.574
    endloop
  endfacet
  facet normal 0 -1 -2.22045e-16
    outer loop
      vertex 21.9212 1 11.574
      vertex 21.337 1 11.574
      vertex 22.5 1 0
    endloop
  endfacet
  facet normal 0 -1 -2.22045e-16
    outer loop
      vertex 22.9838 1 0.998373
      vertex 21.9212 1 11.574
      vertex 22.5 1 0
    endloop
  endfacet
  facet normal 0 -1 -2.22045e-16
    outer loop
      vertex 41.856 1 11.574
      vertex 41.2026 1 11.574
      vertex 37.5 1 0
    endloop
  endfacet
  facet normal 0 -1 -2.22045e-16
    outer loop
      vertex 41.2026 1 11.574
      vertex 37.195 1 0.926613
      vertex 37.5 1 0
    endloop
  endfacet
  facet normal 0 -1 -2.22045e-16
    outer loop
      vertex 29.4512 1 1.64819
      vertex 22.9838 1 0.998373
      vertex 22.5 1 0
    endloop
  endfacet
  facet normal 0 -1 -2.22045e-16
    outer loop
      vertex 37.5 1 0
      vertex 29.4512 1 1.64819
      vertex 22.5 1 0
    endloop
  endfacet
  facet normal 0 -1 -2.22045e-16
    outer loop
      vertex 37.5 1 0
      vertex 31.1116 1 3.21635
      vertex 29.4512 1 1.64819
    endloop
  endfacet
  facet normal 0 -1 -2.22045e-16
    outer loop
      vertex 37.195 1 0.926613
      vertex 31.1116 1 3.21635
      vertex 37.5 1 0
    endloop
  endfacet
  facet normal 0 -1 -2.22045e-16
    outer loop
      vertex 31.1116 1 3.21635
      vertex 34.2574 1 11.574
      vertex 28.4539 1 11.574
    endloop
  endfacet
  facet normal 0 -1 -2.22045e-16
    outer loop
      vertex 28.4539 1 11.574
      vertex 29.4512 1 1.64819
      vertex 31.1116 1 3.21635
    endloop
  endfacet
  facet normal 0 2.22045e-16 -1
    outer loop
      vertex 22.5 1 0
      vertex 22.5 22 4.66294e-15
      vertex 37.5 1 0
    endloop
  endfacet
  facet normal 0 2.22045e-16 -1
    outer loop
      vertex 37.5 1 0
      vertex 22.5 22 4.66294e-15
      vertex 37.5 22 4.66294e-15
    endloop
  endfacet
  facet normal 0 1 2.22045e-16
    outer loop
      vertex 21.337 22 11.574
      vertex 41.856 22 11.574
      vertex 22.5 22 4.66294e-15
    endloop
  endfacet
  facet normal 0 1 2.22045e-16
    outer loop
      vertex 22.5 22 4.66294e-15
      vertex 41.856 22 11.574
      vertex 37.5 22 4.66294e-15
    endloop
  endfacet
  facet normal 0.93591 7.82129e-17 -0.35224
    outer loop
      vertex 41.856 1 11.574
      vertex 37.5 1 0
      vertex 37.5 22 4.66294e-15
    endloop
  endfacet
  facet normal 0.93591 7.82129e-17 -0.35224
    outer loop
      vertex 41.856 22 11.574
      vertex 41.856 1 11.574
      vertex 37.5 22 4.66294e-15
    endloop
  endfacet
  facet normal -0.9359 0 0.352267
    outer loop
      vertex 41.2026 21 11.574
      vertex 37.195 21 0.926613
      vertex 41.2026 1 11.574
    endloop
  endfacet
  facet normal -0.9359 0 0.352267
    outer loop
      vertex 41.2026 1 11.574
      vertex 37.195 21 0.926613
      vertex 37.195 1 0.926613
    endloop
  endfacet
  facet normal 0 -1 0
    outer loop
      vertex 37.195 21 0.926613
      vertex 41.2026 21 11.574
      vertex 34.2574 21 11.574
    endloop
  endfacet
  facet normal 0 -1 0
    outer loop
      vertex 31.1116 21 3.21635
      vertex 37.195 21 0.926613
      vertex 34.2574 21 11.574
    endloop
  endfacet
  facet normal 0.9359 0 -0.352267
    outer loop
      vertex 31.1116 21 3.21635
      vertex 34.2574 21 11.574
      vertex 34.2574 1 11.574
    endloop
  endfacet
  facet normal 0.9359 0 -0.352267
    outer loop
      vertex 31.1116 1 3.21635
      vertex 31.1116 21 3.21635
      vertex 34.2574 1 11.574
    endloop
  endfacet
  facet normal -0.99499 0 -0.0999712
    outer loop
      vertex 29.4512 1 1.64819
      vertex 28.4539 1 11.574
      vertex 29.4512 21 1.64819
    endloop
  endfacet
  facet normal -0.99499 0 -0.0999712
    outer loop
      vertex 29.4512 21 1.64819
      vertex 28.4539 1 11.574
      vertex 28.4539 21 11.574
    endloop
  endfacet
  facet normal 0 -1 0
    outer loop
      vertex 22.9838 21 0.998373
      vertex 29.4512 21 1.64819
      vertex 28.4539 21 11.574
    endloop
  endfacet
  facet normal 0 -1 0
    outer loop
      vertex 21.9212 21 11.574
      vertex 22.9838 21 0.998373
      vertex 28.4539 21 11.574
    endloop
  endfacet
  facet normal 0.99499 0 0.0999712
    outer loop
      vertex 21.9212 1 11.574
      vertex 22.9838 1 0.998373
      vertex 22.9838 21 0.998373
    endloop
  endfacet
  facet normal 0.99499 0 0.0999712
    outer loop
      vertex 21.9212 21 11.574
      vertex 21.9212 1 11.574
      vertex 22.9838 21 0.998373
    endloop
  endfacet
  facet normal -0.0999712 0 0.99499
    outer loop
      vertex 29.4512 1 1.64819
      vertex 29.4512 21 1.64819
      vertex 22.9838 21 0.998373
    endloop
  endfacet
  facet normal -0.0999712 0 0.99499
    outer loop
      vertex 22.9838 1 0.998373
      vertex 29.4512 1 1.64819
      vertex 22.9838 21 0.998373
    endloop
  endfacet
  facet normal 0.352267 0 0.9359
    outer loop
      vertex 37.195 1 0.926613
      vertex 37.195 21 0.926613
      vertex 31.1116 21 3.21635
    endloop
  endfacet
  facet normal 0.352267 0 0.9359
    outer loop
      vertex 31.1116 1 3.21635
      vertex 37.195 1 0.926613
      vertex 31.1116 21 3.21635
    endloop
  endfacet
  facet normal -0.994006 -2.42756e-17 0.109327
    outer loop
      vertex 24.587 1 23.1489
      vertex 25.75 1 33.7229
      vertex 24.587 22 23.1489
    endloop
  endfacet
  facet normal -0.994006 -2.42756e-17 0.109327
    outer loop
      vertex 24.587 22 23.1489
      vertex 25.75 1 33.7229
      vertex 25.75 22 33.7229
    endloop
  endfacet
  facet normal 0 -1 -2.22045e-16
    outer loop
      vertex 25.75 1 33.7229
      vertex 24.587 1 23.1489
      vertex 25.6712 1 23.1489
    endloop
  endfacet
  facet normal 0 -1 -2.22045e-16
    outer loop
      vertex 33.25 1 34.7229
      vertex 25.75 1 33.7229
      vertex 26.7338 1 33.7246
    endloop
  endfacet
  facet normal 0 -1 -2.22045e-16
    outer loop
      vertex 26.7338 1 33.7246
      vertex 25.75 1 33.7229
      vertex 25.6712 1 23.1489
    endloop
  endfacet
  facet normal 0 -1 -2.22045e-16
    outer loop
      vertex 34.25 1 33.7229
      vertex 26.7338 1 33.7246
      vertex 33.2012 1 33.0747
    endloop
  endfacet
  facet normal 0 -1 -2.22045e-16
    outer loop
      vertex 33.087 1 23.1489
      vertex 33.2012 1 33.0747
      vertex 32.2039 1 23.1489
    endloop
  endfacet
  facet normal 0 -1 -2.22045e-16
    outer loop
      vertex 34.25 1 33.7229
      vertex 33.2012 1 33.0747
      vertex 33.087 1 23.1489
    endloop
  endfacet
  facet normal 0 -1 -2.22045e-16
    outer loop
      vertex 33.25 1 34.7229
      vertex 26.7338 1 33.7246
      vertex 34.25 1 33.7229
    endloop
  endfacet
  facet normal 0 -1 -2.22045e-16
    outer loop
      vertex 25.75 1 42.2229
      vertex 25.75 1 41.2229
      vertex 34.25 1 42.2229
    endloop
  endfacet
  facet normal 0 -1 -2.22045e-16
    outer loop
      vertex 25.75 1 41.2229
      vertex 33.25 1 41.2229
      vertex 34.25 1 42.2229
    endloop
  endfacet
  facet normal 0 -1 -2.22045e-16
    outer loop
      vertex 34.25 1 42.2229
      vertex 33.25 1 34.7229
      vertex 34.25 1 33.7229
    endloop
  endfacet
  facet normal 0 -1 -2.22045e-16
    outer loop
      vertex 33.25 1 41.2229
      vertex 33.25 1 34.7229
      vertex 34.25 1 42.2229
    endloop
  endfacet
  facet normal 0 -1 -2.22045e-16
    outer loop
      vertex 33.25 1 34.7229
      vertex 25.75 1 34.7229
      vertex 25.75 1 33.7229
    endloop
  endfacet
  facet normal 0 2.22045e-16 -1
    outer loop
      vertex 24.587 1 23.1489
      vertex 24.587 22 23.1489
      vertex 25.6712 1 23.1489
    endloop
  endfacet
  facet normal 0 2.22045e-16 -1
    outer loop
      vertex 32.2039 21 23.1489
      vertex 24.587 22 23.1489
      vertex 33.087 22 23.1489
    endloop
  endfacet
  facet normal 0 2.22045e-16 -1
    outer loop
      vertex 32.2039 1 23.1489
      vertex 33.087 22 23.1489
      vertex 33.087 1 23.1489
    endloop
  endfacet
  facet normal 0 2.22045e-16 -1
    outer loop
      vertex 25.6712 21 23.1489
      vertex 24.587 22 23.1489
      vertex 32.2039 21 23.1489
    endloop
  endfacet
  facet normal 0 2.22045e-16 -1
    outer loop
      vertex 25.6712 1 23.1489
      vertex 24.587 22 23.1489
      vertex 25.6712 21 23.1489
    endloop
  endfacet
  facet normal 0 2.22045e-16 -1
    outer loop
      vertex 32.2039 21 23.1489
      vertex 33.087 22 23.1489
      vertex 32.2039 1 23.1489
    endloop
  endfacet
  facet normal 0 1 2.22045e-16
    outer loop
      vertex 24.587 22 23.1489
      vertex 25.75 22 33.7229
      vertex 33.087 22 23.1489
    endloop
  endfacet
  facet normal 0 1 2.22045e-16
    outer loop
      vertex 33.087 22 23.1489
      vertex 25.75 22 33.7229
      vertex 25.75 22 42.2229
    endloop
  endfacet
  facet normal 0 1 2.22045e-16
    outer loop
      vertex 33.087 22 23.1489
      vertex 25.75 22 42.2229
      vertex 34.25 22 42.2229
    endloop
  endfacet
  facet normal 0 1 2.22045e-16
    outer loop
      vertex 33.087 22 23.1489
      vertex 34.25 22 42.2229
      vertex 34.25 22 33.7229
    endloop
  endfacet
  facet normal -1 0 0
    outer loop
      vertex 25.75 1 42.2229
      vertex 25.75 22 42.2229
      vertex 25.75 1 41.2229
    endloop
  endfacet
  facet normal -1 0 0
    outer loop
      vertex 25.75 21 34.7229
      vertex 25.75 22 42.2229
      vertex 25.75 22 33.7229
    endloop
  endfacet
  facet normal -1 0 0
    outer loop
      vertex 25.75 1 34.7229
      vertex 25.75 22 33.7229
      vertex 25.75 1 33.7229
    endloop
  endfacet
  facet normal -1 0 0
    outer loop
      vertex 25.75 21 41.2229
      vertex 25.75 22 42.2229
      vertex 25.75 21 34.7229
    endloop
  endfacet
  facet normal -1 0 0
    outer loop
      vertex 25.75 1 41.2229
      vertex 25.75 22 42.2229
      vertex 25.75 21 41.2229
    endloop
  endfacet
  facet normal -1 0 0
    outer loop
      vertex 25.75 21 34.7229
      vertex 25.75 22 33.7229
      vertex 25.75 1 34.7229
    endloop
  endfacet
  facet normal 0 0 1
    outer loop
      vertex 33.25 1 34.7229
      vertex 33.25 21 34.7229
      vertex 25.75 21 34.7229
    endloop
  endfacet
  facet normal 0 0 1
    outer loop
      vertex 25.75 1 34.7229
      vertex 33.25 1 34.7229
      vertex 25.75 21 34.7229
    endloop
  endfacet
  facet normal -1 0 0
    outer loop
      vertex 33.25 21 34.7229
      vertex 33.25 1 34.7229
      vertex 33.25 21 41.2229
    endloop
  endfacet
  facet normal -1 0 0
    outer loop
      vertex 33.25 21 41.2229
      vertex 33.25 1 34.7229
      vertex 33.25 1 41.2229
    endloop
  endfacet
  facet normal 0 0 -1
    outer loop
      vertex 33.25 21 41.2229
      vertex 33.25 1 41.2229
      vertex 25.75 21 41.2229
    endloop
  endfacet
  facet normal 0 0 -1
    outer loop
      vertex 25.75 21 41.2229
      vertex 33.25 1 41.2229
      vertex 25.75 1 41.2229
    endloop
  endfacet
  facet normal 0 -2.22045e-16 1
    outer loop
      vertex 25.75 22 42.2229
      vertex 25.75 1 42.2229
      vertex 34.25 1 42.2229
    endloop
  endfacet
  facet normal 0 -2.22045e-16 1
    outer loop
      vertex 34.25 22 42.2229
      vertex 25.75 22 42.2229
      vertex 34.25 1 42.2229
    endloop
  endfacet
  facet normal 1 0 0
    outer loop
      vertex 34.25 22 42.2229
      vertex 34.25 1 42.2229
      vertex 34.25 1 33.7229
    endloop
  endfacet
  facet normal 1 0 0
    outer loop
      vertex 34.25 22 33.7229
      vertex 34.25 22 42.2229
      vertex 34.25 1 33.7229
    endloop
  endfacet
  facet normal 0.994006 2.42756e-17 -0.109327
    outer loop
      vertex 34.25 1 33.7229
      vertex 33.087 1 23.1489
      vertex 33.087 22 23.1489
    endloop
  endfacet
  facet normal 0.994006 2.42756e-17 -0.109327
    outer loop
      vertex 34.25 22 33.7229
      vertex 34.25 1 33.7229
      vertex 33.087 22 23.1489
    endloop
  endfacet
  facet normal -0.99499 0 0.0999712
    outer loop
      vertex 33.2012 21 33.0747
      vertex 32.2039 21 23.1489
      vertex 33.2012 1 33.0747
    endloop
  endfacet
  facet normal -0.99499 0 0.0999712
    outer loop
      vertex 33.2012 1 33.0747
      vertex 32.2039 21 23.1489
      vertex 32.2039 1 23.1489
    endloop
  endfacet
  facet normal -0.0999712 0 -0.99499
    outer loop
      vertex 33.2012 21 33.0747
      vertex 33.2012 1 33.0747
      vertex 26.7338 21 33.7246
    endloop
  endfacet
  facet normal -0.0999712 0 -0.99499
    outer loop
      vertex 26.7338 21 33.7246
      vertex 33.2012 1 33.0747
      vertex 26.7338 1 33.7246
    endloop
  endfacet
  facet normal 0.99499 0 -0.0999712
    outer loop
      vertex 25.6712 21 23.1489
      vertex 26.7338 21 33.7246
      vertex 26.7338 1 33.7246
    endloop
  endfacet
  facet normal 0.99499 0 -0.0999712
    outer loop
      vertex 25.6712 1 23.1489
      vertex 25.6712 21 23.1489
      vertex 26.7338 1 33.7246
    endloop
  endfacet
  facet normal 0 -1 0
    outer loop
      vertex 32.2039 21 23.1489
      vertex 33.2012 21 33.0747
      vertex 26.7338 21 33.7246
    endloop
  endfacet
  facet normal 0 -1 0
    outer loop
      vertex 25.6712 21 23.1489
      vertex 32.2039 21 23.1489
      vertex 26.7338 21 33.7246
    endloop
  endfacet
  facet normal 0 -1 0
    outer loop
      vertex 33.25 21 34.7229
      vertex 33.25 21 41.2229
      vertex 25.75 21 41.2229
    endloop
  endfacet
  facet normal 0 -1 0
    outer loop
      vertex 25.75 21 34.7229
      vertex 33.25 21 34.7229
      vertex 25.75 21 41.2229
    endloop
  endfacet
  facet normal 0 2.22045e-16 -1
    outer loop
      vertex 11.856 22 23.1489
      vertex 11.856 1 23.1489
      vertex 10.7026 21 23.1489
    endloop
  endfacet
  facet normal 0 2.22045e-16 -1
    outer loop
      vertex 11.856 22 23.1489
      vertex 10.7026 21 23.1489
      vertex -11.856 22 23.1489
    endloop
  endfacet
  facet normal 0 2.22045e-16 -1
    outer loop
      vertex 10.7026 21 23.1489
      vertex 3.75739 21 23.1489
      vertex -11.856 22 23.1489
    endloop
  endfacet
  facet normal 0 2.22045e-16 -1
    outer loop
      vertex -3.75739 21 23.1489
      vertex 3.75739 1 23.1489
      vertex -3.75739 1 23.1489
    endloop
  endfacet
  facet normal 0 2.22045e-16 -1
    outer loop
      vertex -10.7026 1 23.1489
      vertex -11.856 22 23.1489
      vertex -10.7026 21 23.1489
    endloop
  endfacet
  facet normal 0 2.22045e-16 -1
    outer loop
      vertex 3.75739 21 23.1489
      vertex -3.75739 21 23.1489
      vertex -11.856 22 23.1489
    endloop
  endfacet
  facet normal 0 2.22045e-16 -1
    outer loop
      vertex 3.75739 1 23.1489
      vertex -3.75739 21 23.1489
      vertex 3.75739 21 23.1489
    endloop
  endfacet
  facet normal 0 2.22045e-16 -1
    outer loop
      vertex -3.75739 21 23.1489
      vertex -10.7026 21 23.1489
      vertex -11.856 22 23.1489
    endloop
  endfacet
  facet normal 0 2.22045e-16 -1
    outer loop
      vertex -11.856 22 23.1489
      vertex -10.7026 1 23.1489
      vertex -11.856 1 23.1489
    endloop
  endfacet
  facet normal 0 2.22045e-16 -1
    outer loop
      vertex 10.7026 21 23.1489
      vertex 11.856 1 23.1489
      vertex 10.7026 1 23.1489
    endloop
  endfacet
  facet normal -0.93591 -7.82129e-17 0.35224
    outer loop
      vertex -7.5 21 34.7229
      vertex -7.5 22 34.7229
      vertex -11.856 22 23.1489
    endloop
  endfacet
  facet normal -0.93591 -7.82129e-17 0.35224
    outer loop
      vertex -7.5 21 34.7229
      vertex -11.856 22 23.1489
      vertex -7.5 1 34.7229
    endloop
  endfacet
  facet normal -0.93591 -7.82129e-17 0.35224
    outer loop
      vertex -11.856 22 23.1489
      vertex -11.856 1 23.1489
      vertex -7.5 1 34.7229
    endloop
  endfacet
  facet normal 0 -1 -2.22045e-16
    outer loop
      vertex 0.611625 1 31.5066
      vertex -6.69497 1 33.7963
      vertex -0.611625 1 31.5066
    endloop
  endfacet
  facet normal 0 -1 -2.22045e-16
    outer loop
      vertex 6.69497 1 33.7963
      vertex 7.5 1 34.7229
      vertex -6.69497 1 33.7963
    endloop
  endfacet
  facet normal 0 -1 -2.22045e-16
    outer loop
      vertex -10.7026 1 23.1489
      vertex -6.69497 1 33.7963
      vertex -7.5 1 34.7229
    endloop
  endfacet
  facet normal 0 -1 -2.22045e-16
    outer loop
      vertex -3.75739 1 23.1489
      vertex 3.75739 1 23.1489
      vertex -0.611625 1 31.5066
    endloop
  endfacet
  facet normal 0 -1 -2.22045e-16
    outer loop
      vertex 3.75739 1 23.1489
      vertex 0.611625 1 31.5066
      vertex -0.611625 1 31.5066
    endloop
  endfacet
  facet normal 0 -1 -2.22045e-16
    outer loop
      vertex 0.611625 1 31.5066
      vertex 6.69497 1 33.7963
      vertex -6.69497 1 33.7963
    endloop
  endfacet
  facet normal 0 -1 -2.22045e-16
    outer loop
      vertex 10.7026 1 23.1489
      vertex 11.856 1 23.1489
      vertex 6.69497 1 33.7963
    endloop
  endfacet
  facet normal 0 -1 -2.22045e-16
    outer loop
      vertex 11.856 1 23.1489
      vertex 7.5 1 34.7229
      vertex 6.69497 1 33.7963
    endloop
  endfacet
  facet normal 0 -1 -2.22045e-16
    outer loop
      vertex 7.5 1 34.7229
      vertex -7.5 1 34.7229
      vertex -6.69497 1 33.7963
    endloop
  endfacet
  facet normal 0 -1 -2.22045e-16
    outer loop
      vertex -7.5 1 34.7229
      vertex -11.856 1 23.1489
      vertex -10.7026 1 23.1489
    endloop
  endfacet
  facet normal 0 1 2.22045e-16
    outer loop
      vertex -7.5 22 42.2229
      vertex 7.5 22 42.2229
      vertex -7.5 22 34.7229
    endloop
  endfacet
  facet normal 0 1 2.22045e-16
    outer loop
      vertex -7.5 22 34.7229
      vertex 7.5 22 42.2229
      vertex 7.5 22 34.7229
    endloop
  endfacet
  facet normal 0 1 2.22045e-16
    outer loop
      vertex -7.5 22 34.7229
      vertex 7.5 22 34.7229
      vertex 11.856 22 23.1489
    endloop
  endfacet
  facet normal 0 1 2.22045e-16
    outer loop
      vertex -7.5 22 34.7229
      vertex 11.856 22 23.1489
      vertex -11.856 22 23.1489
    endloop
  endfacet
  facet normal 0.9359 0 -0.352267
    outer loop
      vertex -6.69497 1 33.7963
      vertex -10.7026 1 23.1489
      vertex -10.7026 21 23.1489
    endloop
  endfacet
  facet normal 0.9359 0 -0.352267
    outer loop
      vertex -6.69497 21 33.7963
      vertex -6.69497 1 33.7963
      vertex -10.7026 21 23.1489
    endloop
  endfacet
  facet normal 0 -1 0
    outer loop
      vertex -6.69497 21 33.7963
      vertex -10.7026 21 23.1489
      vertex -3.75739 21 23.1489
    endloop
  endfacet
  facet normal 0 -1 0
    outer loop
      vertex -0.611625 21 31.5066
      vertex -6.69497 21 33.7963
      vertex -3.75739 21 23.1489
    endloop
  endfacet
  facet normal -0.9359 0 0.352267
    outer loop
      vertex -3.75739 1 23.1489
      vertex -0.611625 1 31.5066
      vertex -3.75739 21 23.1489
    endloop
  endfacet
  facet normal -0.9359 0 0.352267
    outer loop
      vertex -3.75739 21 23.1489
      vertex -0.611625 1 31.5066
      vertex -0.611625 21 31.5066
    endloop
  endfacet
  facet normal 0.9359 0 0.352267
    outer loop
      vertex 0.611625 21 31.5066
      vertex 0.611625 1 31.5066
      vertex 3.75739 1 23.1489
    endloop
  endfacet
  facet normal 0.9359 0 0.352267
    outer loop
      vertex 3.75739 21 23.1489
      vertex 0.611625 21 31.5066
      vertex 3.75739 1 23.1489
    endloop
  endfacet
  facet normal 0 -1 0
    outer loop
      vertex 6.69497 21 33.7963
      vertex 0.611625 21 31.5066
      vertex 3.75739 21 23.1489
    endloop
  endfacet
  facet normal 0 -1 0
    outer loop
      vertex 10.7026 21 23.1489
      vertex 6.69497 21 33.7963
      vertex 3.75739 21 23.1489
    endloop
  endfacet
  facet normal -0.9359 0 -0.352267
    outer loop
      vertex 6.69497 1 33.7963
      vertex 6.69497 21 33.7963
      vertex 10.7026 1 23.1489
    endloop
  endfacet
  facet normal -0.9359 0 -0.352267
    outer loop
      vertex 10.7026 1 23.1489
      vertex 6.69497 21 33.7963
      vertex 10.7026 21 23.1489
    endloop
  endfacet
  facet normal 0.93591 -7.82129e-17 0.35224
    outer loop
      vertex 11.856 1 23.1489
      vertex 11.856 22 23.1489
      vertex 7.5 22 34.7229
    endloop
  endfacet
  facet normal 0.93591 -7.82129e-17 0.35224
    outer loop
      vertex 7.5 21 34.7229
      vertex 11.856 1 23.1489
      vertex 7.5 22 34.7229
    endloop
  endfacet
  facet normal 0.93591 -7.82129e-17 0.35224
    outer loop
      vertex 7.5 21 34.7229
      vertex 7.5 1 34.7229
      vertex 11.856 1 23.1489
    endloop
  endfacet
  facet normal 0 0 1
    outer loop
      vertex 7.5 21 34.7229
      vertex -7.5 21 34.7229
      vertex -7.5 1 34.7229
    endloop
  endfacet
  facet normal 0 0 1
    outer loop
      vertex 7.5 1 34.7229
      vertex 7.5 21 34.7229
      vertex -7.5 1 34.7229
    endloop
  endfacet
  facet normal -1 0 0
    outer loop
      vertex -7.5 22 34.7229
      vertex -7.5 21 34.7229
      vertex -7.5 22 42.2229
    endloop
  endfacet
  facet normal -1 0 0
    outer loop
      vertex -7.5 22 42.2229
      vertex -7.5 21 34.7229
      vertex -7.5 21 41.2229
    endloop
  endfacet
  facet normal -1 0 0
    outer loop
      vertex -7.5 22 42.2229
      vertex -7.5 21 41.2229
      vertex -7.5 1 41.2229
    endloop
  endfacet
  facet normal -1 0 0
    outer loop
      vertex -7.5 22 42.2229
      vertex -7.5 1 41.2229
      vertex -7.5 1 42.2229
    endloop
  endfacet
  facet normal 0 -1 0
    outer loop
      vertex 7.5 21 41.2229
      vertex -7.5 21 34.7229
      vertex 7.5 21 34.7229
    endloop
  endfacet
  facet normal 0 -1 0
    outer loop
      vertex -7.5 21 41.2229
      vertex -7.5 21 34.7229
      vertex 7.5 21 41.2229
    endloop
  endfacet
  facet normal 0.352267 0 -0.9359
    outer loop
      vertex 0.611625 1 31.5066
      vertex 0.611625 21 31.5066
      vertex 6.69497 1 33.7963
    endloop
  endfacet
  facet normal 0.352267 0 -0.9359
    outer loop
      vertex 6.69497 1 33.7963
      vertex 0.611625 21 31.5066
      vertex 6.69497 21 33.7963
    endloop
  endfacet
  facet normal -0.352267 0 -0.9359
    outer loop
      vertex -6.69497 1 33.7963
      vertex -6.69497 21 33.7963
      vertex -0.611625 1 31.5066
    endloop
  endfacet
  facet normal -0.352267 0 -0.9359
    outer loop
      vertex -0.611625 1 31.5066
      vertex -6.69497 21 33.7963
      vertex -0.611625 21 31.5066
    endloop
  endfacet
  facet normal 1 0 0
    outer loop
      vertex 7.5 22 34.7229
      vertex 7.5 21 41.2229
      vertex 7.5 21 34.7229
    endloop
  endfacet
  facet normal 1 0 0
    outer loop
      vertex 7.5 22 42.2229
      vertex 7.5 21 41.2229
      vertex 7.5 22 34.7229
    endloop
  endfacet
  facet normal 1 0 0
    outer loop
      vertex 7.5 1 41.2229
      vertex 7.5 21 41.2229
      vertex 7.5 22 42.2229
    endloop
  endfacet
  facet normal 1 0 0
    outer loop
      vertex 7.5 1 42.2229
      vertex 7.5 1 41.2229
      vertex 7.5 22 42.2229
    endloop
  endfacet
  facet normal 0 -2.22045e-16 1
    outer loop
      vertex 7.5 1 42.2229
      vertex 7.5 22 42.2229
      vertex -7.5 22 42.2229
    endloop
  endfacet
  facet normal 0 -2.22045e-16 1
    outer loop
      vertex -7.5 1 42.2229
      vertex 7.5 1 42.2229
      vertex -7.5 22 42.2229
    endloop
  endfacet
  facet normal 0 -1 -2.22045e-16
    outer loop
      vertex -7.5 1 41.2229
      vertex 7.5 1 41.2229
      vertex 7.5 1 42.2229
    endloop
  endfacet
  facet normal 0 -1 -2.22045e-16
    outer loop
      vertex -7.5 1 42.2229
      vertex -7.5 1 41.2229
      vertex 7.5 1 42.2229
    endloop
  endfacet
  facet normal 0 0 -1
    outer loop
      vertex -7.5 1 41.2229
      vertex -7.5 21 41.2229
      vertex 7.5 1 41.2229
    endloop
  endfacet
  facet normal 0 0 -1
    outer loop
      vertex 7.5 1 41.2229
      vertex -7.5 21 41.2229
      vertex 7.5 21 41.2229
    endloop
  endfacet
endsolid OpenSCAD_Model
