solid OpenSCAD_Model
  facet normal -0.93591 -7.82129e-17 -0.35224
    outer loop
      vertex 153.794 -216 11.574
      vertex 153.794 -195 11.574
      vertex 158.15 -216 4.66294e-15
    endloop
  endfacet
  facet normal -0.93591 -7.82129e-17 -0.35224
    outer loop
      vertex 158.15 -216 4.66294e-15
      vertex 153.794 -195 11.574
      vertex 158.15 -195 0
    endloop
  endfacet
  facet normal 0 2.22045e-16 1
    outer loop
      vertex 167.196 -215 11.574
      vertex 153.794 -216 11.574
      vertex 174.313 -216 11.574
    endloop
  endfacet
  facet normal 0 2.22045e-16 1
    outer loop
      vertex 154.447 -215 11.574
      vertex 154.447 -195 11.574
      vertex 153.794 -195 11.574
    endloop
  endfacet
  facet normal 0 2.22045e-16 1
    outer loop
      vertex 174.313 -195 11.574
      vertex 173.729 -195 11.574
      vertex 174.313 -216 11.574
    endloop
  endfacet
  facet normal 0 2.22045e-16 1
    outer loop
      vertex 173.729 -195 11.574
      vertex 173.729 -215 11.574
      vertex 174.313 -216 11.574
    endloop
  endfacet
  facet normal 0 2.22045e-16 1
    outer loop
      vertex 161.393 -195 11.574
      vertex 161.393 -215 11.574
      vertex 167.196 -215 11.574
    endloop
  endfacet
  facet normal 0 2.22045e-16 1
    outer loop
      vertex 161.393 -215 11.574
      vertex 153.794 -216 11.574
      vertex 167.196 -215 11.574
    endloop
  endfacet
  facet normal 0 2.22045e-16 1
    outer loop
      vertex 154.447 -215 11.574
      vertex 153.794 -216 11.574
      vertex 161.393 -215 11.574
    endloop
  endfacet
  facet normal 0 2.22045e-16 1
    outer loop
      vertex 153.794 -195 11.574
      vertex 153.794 -216 11.574
      vertex 154.447 -215 11.574
    endloop
  endfacet
  facet normal 0 2.22045e-16 1
    outer loop
      vertex 173.729 -215 11.574
      vertex 167.196 -215 11.574
      vertex 174.313 -216 11.574
    endloop
  endfacet
  facet normal 0 2.22045e-16 1
    outer loop
      vertex 167.196 -215 11.574
      vertex 167.196 -195 11.574
      vertex 161.393 -195 11.574
    endloop
  endfacet
  facet normal 0 -1 2.22045e-16
    outer loop
      vertex 174.313 -216 11.574
      vertex 153.794 -216 11.574
      vertex 158.15 -216 4.66294e-15
    endloop
  endfacet
  facet normal 0 -1 2.22045e-16
    outer loop
      vertex 173.15 -216 4.66294e-15
      vertex 174.313 -216 11.574
      vertex 158.15 -216 4.66294e-15
    endloop
  endfacet
  facet normal 0 -2.22045e-16 -1
    outer loop
      vertex 158.15 -216 4.66294e-15
      vertex 158.15 -195 0
      vertex 173.15 -216 4.66294e-15
    endloop
  endfacet
  facet normal 0 -2.22045e-16 -1
    outer loop
      vertex 173.15 -216 4.66294e-15
      vertex 158.15 -195 0
      vertex 173.15 -195 0
    endloop
  endfacet
  facet normal 0 1 -2.22045e-16
    outer loop
      vertex 153.794 -195 11.574
      vertex 154.447 -195 11.574
      vertex 158.15 -195 0
    endloop
  endfacet
  facet normal 0 1 -2.22045e-16
    outer loop
      vertex 158.15 -195 0
      vertex 154.447 -195 11.574
      vertex 158.455 -195 0.926613
    endloop
  endfacet
  facet normal 0 1 -2.22045e-16
    outer loop
      vertex 158.15 -195 0
      vertex 158.455 -195 0.926613
      vertex 164.538 -195 3.21635
    endloop
  endfacet
  facet normal 0 1 -2.22045e-16
    outer loop
      vertex 164.538 -195 3.21635
      vertex 161.393 -195 11.574
      vertex 167.196 -195 11.574
    endloop
  endfacet
  facet normal 0 1 -2.22045e-16
    outer loop
      vertex 164.538 -195 3.21635
      vertex 167.196 -195 11.574
      vertex 166.199 -195 1.64819
    endloop
  endfacet
  facet normal 0 1 -2.22045e-16
    outer loop
      vertex 164.538 -195 3.21635
      vertex 166.199 -195 1.64819
      vertex 158.15 -195 0
    endloop
  endfacet
  facet normal 0 1 -2.22045e-16
    outer loop
      vertex 166.199 -195 1.64819
      vertex 172.666 -195 0.998373
      vertex 158.15 -195 0
    endloop
  endfacet
  facet normal 0 1 -2.22045e-16
    outer loop
      vertex 172.666 -195 0.998373
      vertex 173.729 -195 11.574
      vertex 174.313 -195 11.574
    endloop
  endfacet
  facet normal 0 1 -2.22045e-16
    outer loop
      vertex 172.666 -195 0.998373
      vertex 174.313 -195 11.574
      vertex 173.15 -195 0
    endloop
  endfacet
  facet normal 0 1 -2.22045e-16
    outer loop
      vertex 172.666 -195 0.998373
      vertex 173.15 -195 0
      vertex 158.15 -195 0
    endloop
  endfacet
  facet normal 0.9359 0 0.352267
    outer loop
      vertex 158.455 -215 0.926613
      vertex 158.455 -195 0.926613
      vertex 154.447 -195 11.574
    endloop
  endfacet
  facet normal 0.9359 0 0.352267
    outer loop
      vertex 154.447 -215 11.574
      vertex 158.455 -215 0.926613
      vertex 154.447 -195 11.574
    endloop
  endfacet
  facet normal 0 1 0
    outer loop
      vertex 164.538 -215 3.21635
      vertex 158.455 -215 0.926613
      vertex 161.393 -215 11.574
    endloop
  endfacet
  facet normal 0 1 0
    outer loop
      vertex 161.393 -215 11.574
      vertex 158.455 -215 0.926613
      vertex 154.447 -215 11.574
    endloop
  endfacet
  facet normal -0.9359 0 -0.352267
    outer loop
      vertex 164.538 -195 3.21635
      vertex 164.538 -215 3.21635
      vertex 161.393 -195 11.574
    endloop
  endfacet
  facet normal -0.9359 0 -0.352267
    outer loop
      vertex 161.393 -195 11.574
      vertex 164.538 -215 3.21635
      vertex 161.393 -215 11.574
    endloop
  endfacet
  facet normal 0.99499 0 -0.0999712
    outer loop
      vertex 166.199 -195 1.64819
      vertex 167.196 -195 11.574
      vertex 167.196 -215 11.574
    endloop
  endfacet
  facet normal 0.99499 0 -0.0999712
    outer loop
      vertex 166.199 -215 1.64819
      vertex 166.199 -195 1.64819
      vertex 167.196 -215 11.574
    endloop
  endfacet
  facet normal 0 1 0
    outer loop
      vertex 173.729 -215 11.574
      vertex 172.666 -215 0.998373
      vertex 167.196 -215 11.574
    endloop
  endfacet
  facet normal 0 1 0
    outer loop
      vertex 167.196 -215 11.574
      vertex 172.666 -215 0.998373
      vertex 166.199 -215 1.64819
    endloop
  endfacet
  facet normal -0.99499 0 0.0999712
    outer loop
      vertex 173.729 -195 11.574
      vertex 172.666 -195 0.998373
      vertex 173.729 -215 11.574
    endloop
  endfacet
  facet normal -0.99499 0 0.0999712
    outer loop
      vertex 173.729 -215 11.574
      vertex 172.666 -195 0.998373
      vertex 172.666 -215 0.998373
    endloop
  endfacet
  facet normal 0.994989 -2.22001e-17 -0.0999804
    outer loop
      vertex 174.313 -216 11.574
      vertex 173.15 -216 4.66294e-15
      vertex 173.15 -195 0
    endloop
  endfacet
  facet normal 0.994989 -2.22001e-17 -0.0999804
    outer loop
      vertex 174.313 -195 11.574
      vertex 174.313 -216 11.574
      vertex 173.15 -195 0
    endloop
  endfacet
  facet normal 0.0999712 0 0.99499
    outer loop
      vertex 172.666 -215 0.998373
      vertex 172.666 -195 0.998373
      vertex 166.199 -195 1.64819
    endloop
  endfacet
  facet normal 0.0999712 0 0.99499
    outer loop
      vertex 166.199 -215 1.64819
      vertex 172.666 -215 0.998373
      vertex 166.199 -195 1.64819
    endloop
  endfacet
  facet normal -0.352267 0 0.9359
    outer loop
      vertex 164.538 -215 3.21635
      vertex 164.538 -195 3.21635
      vertex 158.455 -195 0.926613
    endloop
  endfacet
  facet normal -0.352267 0 0.9359
    outer loop
      vertex 158.455 -215 0.926613
      vertex 164.538 -215 3.21635
      vertex 158.455 -195 0.926613
    endloop
  endfacet
  facet normal -0.93591 7.82129e-17 -0.35224
    outer loop
      vertex 158.15 216 4.66294e-15
      vertex 158.15 195 0
      vertex 153.794 216 11.574
    endloop
  endfacet
  facet normal -0.93591 7.82129e-17 -0.35224
    outer loop
      vertex 153.794 216 11.574
      vertex 158.15 195 0
      vertex 153.794 195 11.574
    endloop
  endfacet
  facet normal 0 -2.22045e-16 1
    outer loop
      vertex 174.313 216 11.574
      vertex 154.447 215 11.574
      vertex 161.393 215 11.574
    endloop
  endfacet
  facet normal 0 -2.22045e-16 1
    outer loop
      vertex 167.196 215 11.574
      vertex 174.313 216 11.574
      vertex 161.393 215 11.574
    endloop
  endfacet
  facet normal 0 -2.22045e-16 1
    outer loop
      vertex 154.447 195 11.574
      vertex 154.447 215 11.574
      vertex 153.794 216 11.574
    endloop
  endfacet
  facet normal 0 -2.22045e-16 1
    outer loop
      vertex 161.393 195 11.574
      vertex 167.196 195 11.574
      vertex 161.393 215 11.574
    endloop
  endfacet
  facet normal 0 -2.22045e-16 1
    outer loop
      vertex 167.196 195 11.574
      vertex 167.196 215 11.574
      vertex 161.393 215 11.574
    endloop
  endfacet
  facet normal 0 -2.22045e-16 1
    outer loop
      vertex 173.729 215 11.574
      vertex 174.313 216 11.574
      vertex 167.196 215 11.574
    endloop
  endfacet
  facet normal 0 -2.22045e-16 1
    outer loop
      vertex 173.729 195 11.574
      vertex 174.313 195 11.574
      vertex 173.729 215 11.574
    endloop
  endfacet
  facet normal 0 -2.22045e-16 1
    outer loop
      vertex 174.313 195 11.574
      vertex 174.313 216 11.574
      vertex 173.729 215 11.574
    endloop
  endfacet
  facet normal 0 -2.22045e-16 1
    outer loop
      vertex 174.313 216 11.574
      vertex 153.794 216 11.574
      vertex 154.447 215 11.574
    endloop
  endfacet
  facet normal 0 -2.22045e-16 1
    outer loop
      vertex 153.794 216 11.574
      vertex 153.794 195 11.574
      vertex 154.447 195 11.574
    endloop
  endfacet
  facet normal 0 -1 -2.22045e-16
    outer loop
      vertex 172.666 195 0.998373
      vertex 173.15 195 0
      vertex 174.313 195 11.574
    endloop
  endfacet
  facet normal 0 -1 -2.22045e-16
    outer loop
      vertex 164.538 195 3.21635
      vertex 158.455 195 0.926613
      vertex 158.15 195 0
    endloop
  endfacet
  facet normal 0 -1 -2.22045e-16
    outer loop
      vertex 166.199 195 1.64819
      vertex 167.196 195 11.574
      vertex 164.538 195 3.21635
    endloop
  endfacet
  facet normal 0 -1 -2.22045e-16
    outer loop
      vertex 158.15 195 0
      vertex 173.15 195 0
      vertex 172.666 195 0.998373
    endloop
  endfacet
  facet normal 0 -1 -2.22045e-16
    outer loop
      vertex 158.15 195 0
      vertex 172.666 195 0.998373
      vertex 166.199 195 1.64819
    endloop
  endfacet
  facet normal 0 -1 -2.22045e-16
    outer loop
      vertex 158.455 195 0.926613
      vertex 154.447 195 11.574
      vertex 158.15 195 0
    endloop
  endfacet
  facet normal 0 -1 -2.22045e-16
    outer loop
      vertex 158.15 195 0
      vertex 166.199 195 1.64819
      vertex 164.538 195 3.21635
    endloop
  endfacet
  facet normal 0 -1 -2.22045e-16
    outer loop
      vertex 153.794 195 11.574
      vertex 158.15 195 0
      vertex 154.447 195 11.574
    endloop
  endfacet
  facet normal 0 -1 -2.22045e-16
    outer loop
      vertex 161.393 195 11.574
      vertex 164.538 195 3.21635
      vertex 167.196 195 11.574
    endloop
  endfacet
  facet normal 0 -1 -2.22045e-16
    outer loop
      vertex 173.729 195 11.574
      vertex 172.666 195 0.998373
      vertex 174.313 195 11.574
    endloop
  endfacet
  facet normal 0 1 2.22045e-16
    outer loop
      vertex 173.15 216 4.66294e-15
      vertex 158.15 216 4.66294e-15
      vertex 174.313 216 11.574
    endloop
  endfacet
  facet normal 0 1 2.22045e-16
    outer loop
      vertex 174.313 216 11.574
      vertex 158.15 216 4.66294e-15
      vertex 153.794 216 11.574
    endloop
  endfacet
  facet normal 0 2.22045e-16 -1
    outer loop
      vertex 173.15 216 4.66294e-15
      vertex 173.15 195 0
      vertex 158.15 216 4.66294e-15
    endloop
  endfacet
  facet normal 0 2.22045e-16 -1
    outer loop
      vertex 158.15 216 4.66294e-15
      vertex 173.15 195 0
      vertex 158.15 195 0
    endloop
  endfacet
  facet normal 0.9359 0 0.352267
    outer loop
      vertex 154.447 195 11.574
      vertex 158.455 195 0.926613
      vertex 158.455 215 0.926613
    endloop
  endfacet
  facet normal 0.9359 0 0.352267
    outer loop
      vertex 154.447 215 11.574
      vertex 154.447 195 11.574
      vertex 158.455 215 0.926613
    endloop
  endfacet
  facet normal 0.994989 2.22001e-17 -0.0999804
    outer loop
      vertex 173.15 216 4.66294e-15
      vertex 174.313 216 11.574
      vertex 174.313 195 11.574
    endloop
  endfacet
  facet normal 0.994989 2.22001e-17 -0.0999804
    outer loop
      vertex 173.15 195 0
      vertex 173.15 216 4.66294e-15
      vertex 174.313 195 11.574
    endloop
  endfacet
  facet normal -0.99499 0 0.0999712
    outer loop
      vertex 173.729 215 11.574
      vertex 172.666 215 0.998373
      vertex 173.729 195 11.574
    endloop
  endfacet
  facet normal -0.99499 0 0.0999712
    outer loop
      vertex 173.729 195 11.574
      vertex 172.666 215 0.998373
      vertex 172.666 195 0.998373
    endloop
  endfacet
  facet normal 0 -1 0
    outer loop
      vertex 172.666 215 0.998373
      vertex 173.729 215 11.574
      vertex 167.196 215 11.574
    endloop
  endfacet
  facet normal 0 -1 0
    outer loop
      vertex 166.199 215 1.64819
      vertex 172.666 215 0.998373
      vertex 167.196 215 11.574
    endloop
  endfacet
  facet normal 0.99499 0 -0.0999712
    outer loop
      vertex 166.199 215 1.64819
      vertex 167.196 215 11.574
      vertex 167.196 195 11.574
    endloop
  endfacet
  facet normal 0.99499 0 -0.0999712
    outer loop
      vertex 166.199 195 1.64819
      vertex 166.199 215 1.64819
      vertex 167.196 195 11.574
    endloop
  endfacet
  facet normal -0.9359 0 -0.352267
    outer loop
      vertex 164.538 195 3.21635
      vertex 161.393 195 11.574
      vertex 164.538 215 3.21635
    endloop
  endfacet
  facet normal -0.9359 0 -0.352267
    outer loop
      vertex 164.538 215 3.21635
      vertex 161.393 195 11.574
      vertex 161.393 215 11.574
    endloop
  endfacet
  facet normal 0 -1 0
    outer loop
      vertex 158.455 215 0.926613
      vertex 164.538 215 3.21635
      vertex 161.393 215 11.574
    endloop
  endfacet
  facet normal 0 -1 0
    outer loop
      vertex 154.447 215 11.574
      vertex 158.455 215 0.926613
      vertex 161.393 215 11.574
    endloop
  endfacet
  facet normal -0.352267 0 0.9359
    outer loop
      vertex 164.538 195 3.21635
      vertex 164.538 215 3.21635
      vertex 158.455 215 0.926613
    endloop
  endfacet
  facet normal -0.352267 0 0.9359
    outer loop
      vertex 158.455 195 0.926613
      vertex 164.538 195 3.21635
      vertex 158.455 215 0.926613
    endloop
  endfacet
  facet normal 0.0999712 0 0.99499
    outer loop
      vertex 172.666 195 0.998373
      vertex 172.666 215 0.998373
      vertex 166.199 215 1.64819
    endloop
  endfacet
  facet normal 0.0999712 0 0.99499
    outer loop
      vertex 166.199 195 1.64819
      vertex 172.666 195 0.998373
      vertex 166.199 215 1.64819
    endloop
  endfacet
  facet normal -0.994989 -2.22001e-17 -0.0999804
    outer loop
      vertex -173.15 -195 0
      vertex -173.15 -216 4.66294e-15
      vertex -174.313 -195 11.574
    endloop
  endfacet
  facet normal -0.994989 -2.22001e-17 -0.0999804
    outer loop
      vertex -174.313 -195 11.574
      vertex -173.15 -216 4.66294e-15
      vertex -174.313 -216 11.574
    endloop
  endfacet
  facet normal 0 2.22045e-16 1
    outer loop
      vertex -153.794 -216 11.574
      vertex -153.794 -195 11.574
      vertex -154.447 -195 11.574
    endloop
  endfacet
  facet normal 0 2.22045e-16 1
    outer loop
      vertex -161.393 -215 11.574
      vertex -153.794 -216 11.574
      vertex -154.447 -215 11.574
    endloop
  endfacet
  facet normal 0 2.22045e-16 1
    outer loop
      vertex -154.447 -215 11.574
      vertex -153.794 -216 11.574
      vertex -154.447 -195 11.574
    endloop
  endfacet
  facet normal 0 2.22045e-16 1
    outer loop
      vertex -167.196 -215 11.574
      vertex -153.794 -216 11.574
      vertex -161.393 -215 11.574
    endloop
  endfacet
  facet normal 0 2.22045e-16 1
    outer loop
      vertex -167.196 -195 11.574
      vertex -161.393 -215 11.574
      vertex -161.393 -195 11.574
    endloop
  endfacet
  facet normal 0 2.22045e-16 1
    outer loop
      vertex -167.196 -215 11.574
      vertex -161.393 -215 11.574
      vertex -167.196 -195 11.574
    endloop
  endfacet
  facet normal 0 2.22045e-16 1
    outer loop
      vertex -173.729 -215 11.574
      vertex -153.794 -216 11.574
      vertex -167.196 -215 11.574
    endloop
  endfacet
  facet normal 0 2.22045e-16 1
    outer loop
      vertex -174.313 -216 11.574
      vertex -153.794 -216 11.574
      vertex -173.729 -215 11.574
    endloop
  endfacet
  facet normal 0 2.22045e-16 1
    outer loop
      vertex -174.313 -195 11.574
      vertex -173.729 -215 11.574
      vertex -173.729 -195 11.574
    endloop
  endfacet
  facet normal 0 2.22045e-16 1
    outer loop
      vertex -174.313 -216 11.574
      vertex -173.729 -215 11.574
      vertex -174.313 -195 11.574
    endloop
  endfacet
  facet normal 0 -1 2.22045e-16
    outer loop
      vertex -173.15 -216 4.66294e-15
      vertex -158.15 -216 4.66294e-15
      vertex -153.794 -216 11.574
    endloop
  endfacet
  facet normal 0 -1 2.22045e-16
    outer loop
      vertex -174.313 -216 11.574
      vertex -173.15 -216 4.66294e-15
      vertex -153.794 -216 11.574
    endloop
  endfacet
  facet normal 0 1 -2.22045e-16
    outer loop
      vertex -161.393 -195 11.574
      vertex -166.199 -195 1.64819
      vertex -167.196 -195 11.574
    endloop
  endfacet
  facet normal 0 1 -2.22045e-16
    outer loop
      vertex -164.538 -195 3.21635
      vertex -166.199 -195 1.64819
      vertex -161.393 -195 11.574
    endloop
  endfacet
  facet normal 0 1 -2.22045e-16
    outer loop
      vertex -172.666 -195 0.998373
      vertex -166.199 -195 1.64819
      vertex -158.455 -195 0.926613
    endloop
  endfacet
  facet normal 0 1 -2.22045e-16
    outer loop
      vertex -166.199 -195 1.64819
      vertex -164.538 -195 3.21635
      vertex -158.455 -195 0.926613
    endloop
  endfacet
  facet normal 0 1 -2.22045e-16
    outer loop
      vertex -153.794 -195 11.574
      vertex -158.455 -195 0.926613
      vertex -154.447 -195 11.574
    endloop
  endfacet
  facet normal 0 1 -2.22045e-16
    outer loop
      vertex -158.15 -195 0
      vertex -158.455 -195 0.926613
      vertex -153.794 -195 11.574
    endloop
  endfacet
  facet normal 0 1 -2.22045e-16
    outer loop
      vertex -172.666 -195 0.998373
      vertex -158.455 -195 0.926613
      vertex -158.15 -195 0
    endloop
  endfacet
  facet normal 0 1 -2.22045e-16
    outer loop
      vertex -172.666 -195 0.998373
      vertex -158.15 -195 0
      vertex -173.15 -195 0
    endloop
  endfacet
  facet normal 0 1 -2.22045e-16
    outer loop
      vertex -172.666 -195 0.998373
      vertex -173.15 -195 0
      vertex -173.729 -195 11.574
    endloop
  endfacet
  facet normal 0 1 -2.22045e-16
    outer loop
      vertex -173.15 -195 0
      vertex -174.313 -195 11.574
      vertex -173.729 -195 11.574
    endloop
  endfacet
  facet normal 0 -2.22045e-16 -1
    outer loop
      vertex -158.15 -195 0
      vertex -158.15 -216 4.66294e-15
      vertex -173.15 -195 0
    endloop
  endfacet
  facet normal 0 -2.22045e-16 -1
    outer loop
      vertex -173.15 -195 0
      vertex -158.15 -216 4.66294e-15
      vertex -173.15 -216 4.66294e-15
    endloop
  endfacet
  facet normal 0.93591 -7.82129e-17 -0.35224
    outer loop
      vertex -158.15 -195 0
      vertex -153.794 -195 11.574
      vertex -153.794 -216 11.574
    endloop
  endfacet
  facet normal 0.93591 -7.82129e-17 -0.35224
    outer loop
      vertex -158.15 -216 4.66294e-15
      vertex -158.15 -195 0
      vertex -153.794 -216 11.574
    endloop
  endfacet
  facet normal 0.99499 0 0.0999712
    outer loop
      vertex -172.666 -215 0.998373
      vertex -172.666 -195 0.998373
      vertex -173.729 -195 11.574
    endloop
  endfacet
  facet normal 0.99499 0 0.0999712
    outer loop
      vertex -173.729 -215 11.574
      vertex -172.666 -215 0.998373
      vertex -173.729 -195 11.574
    endloop
  endfacet
  facet normal 0 1 0
    outer loop
      vertex -166.199 -215 1.64819
      vertex -172.666 -215 0.998373
      vertex -167.196 -215 11.574
    endloop
  endfacet
  facet normal 0 1 0
    outer loop
      vertex -167.196 -215 11.574
      vertex -172.666 -215 0.998373
      vertex -173.729 -215 11.574
    endloop
  endfacet
  facet normal -0.99499 0 -0.0999712
    outer loop
      vertex -166.199 -195 1.64819
      vertex -166.199 -215 1.64819
      vertex -167.196 -195 11.574
    endloop
  endfacet
  facet normal -0.99499 0 -0.0999712
    outer loop
      vertex -167.196 -195 11.574
      vertex -166.199 -215 1.64819
      vertex -167.196 -215 11.574
    endloop
  endfacet
  facet normal 0.9359 0 -0.352267
    outer loop
      vertex -164.538 -195 3.21635
      vertex -161.393 -195 11.574
      vertex -161.393 -215 11.574
    endloop
  endfacet
  facet normal 0.9359 0 -0.352267
    outer loop
      vertex -164.538 -215 3.21635
      vertex -164.538 -195 3.21635
      vertex -161.393 -215 11.574
    endloop
  endfacet
  facet normal 0 1 0
    outer loop
      vertex -154.447 -215 11.574
      vertex -158.455 -215 0.926613
      vertex -161.393 -215 11.574
    endloop
  endfacet
  facet normal 0 1 0
    outer loop
      vertex -161.393 -215 11.574
      vertex -158.455 -215 0.926613
      vertex -164.538 -215 3.21635
    endloop
  endfacet
  facet normal -0.9359 0 0.352267
    outer loop
      vertex -154.447 -195 11.574
      vertex -158.455 -195 0.926613
      vertex -154.447 -215 11.574
    endloop
  endfacet
  facet normal -0.9359 0 0.352267
    outer loop
      vertex -154.447 -215 11.574
      vertex -158.455 -195 0.926613
      vertex -158.455 -215 0.926613
    endloop
  endfacet
  facet normal 0.352267 0 0.9359
    outer loop
      vertex -158.455 -215 0.926613
      vertex -158.455 -195 0.926613
      vertex -164.538 -195 3.21635
    endloop
  endfacet
  facet normal 0.352267 0 0.9359
    outer loop
      vertex -164.538 -215 3.21635
      vertex -158.455 -215 0.926613
      vertex -164.538 -195 3.21635
    endloop
  endfacet
  facet normal -0.0999712 0 0.99499
    outer loop
      vertex -166.199 -215 1.64819
      vertex -166.199 -195 1.64819
      vertex -172.666 -195 0.998373
    endloop
  endfacet
  facet normal -0.0999712 0 0.99499
    outer loop
      vertex -172.666 -215 0.998373
      vertex -166.199 -215 1.64819
      vertex -172.666 -195 0.998373
    endloop
  endfacet
  facet normal -0.994989 2.22001e-17 -0.0999804
    outer loop
      vertex -174.313 195 11.574
      vertex -174.313 216 11.574
      vertex -173.15 195 0
    endloop
  endfacet
  facet normal -0.994989 2.22001e-17 -0.0999804
    outer loop
      vertex -173.15 195 0
      vertex -174.313 216 11.574
      vertex -173.15 216 4.66294e-15
    endloop
  endfacet
  facet normal 0 -2.22045e-16 1
    outer loop
      vertex -174.313 216 11.574
      vertex -174.313 195 11.574
      vertex -173.729 195 11.574
    endloop
  endfacet
  facet normal 0 -2.22045e-16 1
    outer loop
      vertex -167.196 215 11.574
      vertex -174.313 216 11.574
      vertex -173.729 215 11.574
    endloop
  endfacet
  facet normal 0 -2.22045e-16 1
    outer loop
      vertex -173.729 215 11.574
      vertex -174.313 216 11.574
      vertex -173.729 195 11.574
    endloop
  endfacet
  facet normal 0 -2.22045e-16 1
    outer loop
      vertex -161.393 215 11.574
      vertex -174.313 216 11.574
      vertex -167.196 215 11.574
    endloop
  endfacet
  facet normal 0 -2.22045e-16 1
    outer loop
      vertex -161.393 195 11.574
      vertex -167.196 215 11.574
      vertex -167.196 195 11.574
    endloop
  endfacet
  facet normal 0 -2.22045e-16 1
    outer loop
      vertex -161.393 215 11.574
      vertex -167.196 215 11.574
      vertex -161.393 195 11.574
    endloop
  endfacet
  facet normal 0 -2.22045e-16 1
    outer loop
      vertex -154.447 215 11.574
      vertex -174.313 216 11.574
      vertex -161.393 215 11.574
    endloop
  endfacet
  facet normal 0 -2.22045e-16 1
    outer loop
      vertex -153.794 216 11.574
      vertex -174.313 216 11.574
      vertex -154.447 215 11.574
    endloop
  endfacet
  facet normal 0 -2.22045e-16 1
    outer loop
      vertex -153.794 195 11.574
      vertex -154.447 215 11.574
      vertex -154.447 195 11.574
    endloop
  endfacet
  facet normal 0 -2.22045e-16 1
    outer loop
      vertex -153.794 216 11.574
      vertex -154.447 215 11.574
      vertex -153.794 195 11.574
    endloop
  endfacet
  facet normal 0 -1 -2.22045e-16
    outer loop
      vertex -173.729 195 11.574
      vertex -174.313 195 11.574
      vertex -173.15 195 0
    endloop
  endfacet
  facet normal 0 -1 -2.22045e-16
    outer loop
      vertex -172.666 195 0.998373
      vertex -173.729 195 11.574
      vertex -173.15 195 0
    endloop
  endfacet
  facet normal 0 -1 -2.22045e-16
    outer loop
      vertex -153.794 195 11.574
      vertex -154.447 195 11.574
      vertex -158.15 195 0
    endloop
  endfacet
  facet normal 0 -1 -2.22045e-16
    outer loop
      vertex -154.447 195 11.574
      vertex -158.455 195 0.926613
      vertex -158.15 195 0
    endloop
  endfacet
  facet normal 0 -1 -2.22045e-16
    outer loop
      vertex -166.199 195 1.64819
      vertex -172.666 195 0.998373
      vertex -173.15 195 0
    endloop
  endfacet
  facet normal 0 -1 -2.22045e-16
    outer loop
      vertex -158.15 195 0
      vertex -166.199 195 1.64819
      vertex -173.15 195 0
    endloop
  endfacet
  facet normal 0 -1 -2.22045e-16
    outer loop
      vertex -158.15 195 0
      vertex -164.538 195 3.21635
      vertex -166.199 195 1.64819
    endloop
  endfacet
  facet normal 0 -1 -2.22045e-16
    outer loop
      vertex -158.455 195 0.926613
      vertex -164.538 195 3.21635
      vertex -158.15 195 0
    endloop
  endfacet
  facet normal 0 -1 -2.22045e-16
    outer loop
      vertex -164.538 195 3.21635
      vertex -161.393 195 11.574
      vertex -167.196 195 11.574
    endloop
  endfacet
  facet normal 0 -1 -2.22045e-16
    outer loop
      vertex -167.196 195 11.574
      vertex -166.199 195 1.64819
      vertex -164.538 195 3.21635
    endloop
  endfacet
  facet normal 0 2.22045e-16 -1
    outer loop
      vertex -173.15 195 0
      vertex -173.15 216 4.66294e-15
      vertex -158.15 195 0
    endloop
  endfacet
  facet normal 0 2.22045e-16 -1
    outer loop
      vertex -158.15 195 0
      vertex -173.15 216 4.66294e-15
      vertex -158.15 216 4.66294e-15
    endloop
  endfacet
  facet normal 0 1 2.22045e-16
    outer loop
      vertex -174.313 216 11.574
      vertex -153.794 216 11.574
      vertex -173.15 216 4.66294e-15
    endloop
  endfacet
  facet normal 0 1 2.22045e-16
    outer loop
      vertex -173.15 216 4.66294e-15
      vertex -153.794 216 11.574
      vertex -158.15 216 4.66294e-15
    endloop
  endfacet
  facet normal 0.93591 7.82129e-17 -0.35224
    outer loop
      vertex -153.794 195 11.574
      vertex -158.15 195 0
      vertex -158.15 216 4.66294e-15
    endloop
  endfacet
  facet normal 0.93591 7.82129e-17 -0.35224
    outer loop
      vertex -153.794 216 11.574
      vertex -153.794 195 11.574
      vertex -158.15 216 4.66294e-15
    endloop
  endfacet
  facet normal -0.9359 0 0.352267
    outer loop
      vertex -154.447 215 11.574
      vertex -158.455 215 0.926613
      vertex -154.447 195 11.574
    endloop
  endfacet
  facet normal -0.9359 0 0.352267
    outer loop
      vertex -154.447 195 11.574
      vertex -158.455 215 0.926613
      vertex -158.455 195 0.926613
    endloop
  endfacet
  facet normal 0 -1 0
    outer loop
      vertex -158.455 215 0.926613
      vertex -154.447 215 11.574
      vertex -161.393 215 11.574
    endloop
  endfacet
  facet normal 0 -1 0
    outer loop
      vertex -164.538 215 3.21635
      vertex -158.455 215 0.926613
      vertex -161.393 215 11.574
    endloop
  endfacet
  facet normal 0.9359 0 -0.352267
    outer loop
      vertex -164.538 215 3.21635
      vertex -161.393 215 11.574
      vertex -161.393 195 11.574
    endloop
  endfacet
  facet normal 0.9359 0 -0.352267
    outer loop
      vertex -164.538 195 3.21635
      vertex -164.538 215 3.21635
      vertex -161.393 195 11.574
    endloop
  endfacet
  facet normal -0.99499 0 -0.0999712
    outer loop
      vertex -166.199 195 1.64819
      vertex -167.196 195 11.574
      vertex -166.199 215 1.64819
    endloop
  endfacet
  facet normal -0.99499 0 -0.0999712
    outer loop
      vertex -166.199 215 1.64819
      vertex -167.196 195 11.574
      vertex -167.196 215 11.574
    endloop
  endfacet
  facet normal 0 -1 0
    outer loop
      vertex -172.666 215 0.998373
      vertex -166.199 215 1.64819
      vertex -167.196 215 11.574
    endloop
  endfacet
  facet normal 0 -1 0
    outer loop
      vertex -173.729 215 11.574
      vertex -172.666 215 0.998373
      vertex -167.196 215 11.574
    endloop
  endfacet
  facet normal 0.99499 0 0.0999712
    outer loop
      vertex -173.729 195 11.574
      vertex -172.666 195 0.998373
      vertex -172.666 215 0.998373
    endloop
  endfacet
  facet normal 0.99499 0 0.0999712
    outer loop
      vertex -173.729 215 11.574
      vertex -173.729 195 11.574
      vertex -172.666 215 0.998373
    endloop
  endfacet
  facet normal -0.0999712 0 0.99499
    outer loop
      vertex -166.199 195 1.64819
      vertex -166.199 215 1.64819
      vertex -172.666 215 0.998373
    endloop
  endfacet
  facet normal -0.0999712 0 0.99499
    outer loop
      vertex -172.666 195 0.998373
      vertex -166.199 195 1.64819
      vertex -172.666 215 0.998373
    endloop
  endfacet
  facet normal 0.352267 0 0.9359
    outer loop
      vertex -158.455 195 0.926613
      vertex -158.455 215 0.926613
      vertex -164.538 215 3.21635
    endloop
  endfacet
  facet normal 0.352267 0 0.9359
    outer loop
      vertex -164.538 195 3.21635
      vertex -158.455 195 0.926613
      vertex -164.538 215 3.21635
    endloop
  endfacet
  facet normal -0.994006 -2.42756e-17 -0.109327
    outer loop
      vertex -216 -216 422.5
      vertex -216 -195 422.5
      vertex -214.837 -216 411.926
    endloop
  endfacet
  facet normal -0.994006 -2.42756e-17 -0.109327
    outer loop
      vertex -214.837 -216 411.926
      vertex -216 -195 422.5
      vertex -214.837 -195 411.926
    endloop
  endfacet
  facet normal -1 0 0
    outer loop
      vertex -216 -216 422.5
      vertex -216 -216 431
      vertex -216 -195 422.5
    endloop
  endfacet
  facet normal -1 0 0
    outer loop
      vertex -216 -195 422.5
      vertex -216 -216 431
      vertex -216 -195 431
    endloop
  endfacet
  facet normal 0 -1 2.22045e-16
    outer loop
      vertex -216 -216 431
      vertex -216 -216 422.5
      vertex -214.837 -216 411.926
    endloop
  endfacet
  facet normal 0 -1 2.22045e-16
    outer loop
      vertex -207.5 -216 422.5
      vertex -216 -216 431
      vertex -206.337 -216 411.926
    endloop
  endfacet
  facet normal 0 -1 2.22045e-16
    outer loop
      vertex -206.337 -216 411.926
      vertex -216 -216 431
      vertex -214.837 -216 411.926
    endloop
  endfacet
  facet normal 0 -1 2.22045e-16
    outer loop
      vertex -207.5 -216 431
      vertex -216 -216 431
      vertex -207.5 -216 422.5
    endloop
  endfacet
  facet normal 0 -2.22045e-16 -1
    outer loop
      vertex -214.837 -216 411.926
      vertex -214.837 -195 411.926
      vertex -213.954 -215 411.926
    endloop
  endfacet
  facet normal 0 -2.22045e-16 -1
    outer loop
      vertex -214.837 -216 411.926
      vertex -213.954 -215 411.926
      vertex -206.337 -216 411.926
    endloop
  endfacet
  facet normal 0 -2.22045e-16 -1
    outer loop
      vertex -207.421 -195 411.926
      vertex -206.337 -216 411.926
      vertex -207.421 -215 411.926
    endloop
  endfacet
  facet normal 0 -2.22045e-16 -1
    outer loop
      vertex -213.954 -215 411.926
      vertex -207.421 -215 411.926
      vertex -206.337 -216 411.926
    endloop
  endfacet
  facet normal 0 -2.22045e-16 -1
    outer loop
      vertex -206.337 -216 411.926
      vertex -207.421 -195 411.926
      vertex -206.337 -195 411.926
    endloop
  endfacet
  facet normal 0 -2.22045e-16 -1
    outer loop
      vertex -213.954 -215 411.926
      vertex -214.837 -195 411.926
      vertex -213.954 -195 411.926
    endloop
  endfacet
  facet normal 0 1 -2.22045e-16
    outer loop
      vertex -216 -195 422.5
      vertex -216 -195 431
      vertex -214.837 -195 411.926
    endloop
  endfacet
  facet normal 0 1 -2.22045e-16
    outer loop
      vertex -215 -195 430
      vertex -216 -195 431
      vertex -207.5 -195 431
    endloop
  endfacet
  facet normal 0 1 -2.22045e-16
    outer loop
      vertex -207.5 -195 423.5
      vertex -208.484 -195 422.502
      vertex -214.951 -195 421.852
    endloop
  endfacet
  facet normal 0 1 -2.22045e-16
    outer loop
      vertex -215 -195 423.5
      vertex -216 -195 431
      vertex -215 -195 430
    endloop
  endfacet
  facet normal 0 1 -2.22045e-16
    outer loop
      vertex -214.837 -195 411.926
      vertex -216 -195 431
      vertex -215 -195 423.5
    endloop
  endfacet
  facet normal 0 1 -2.22045e-16
    outer loop
      vertex -208.484 -195 422.502
      vertex -207.5 -195 423.5
      vertex -207.5 -195 422.5
    endloop
  endfacet
  facet normal 0 1 -2.22045e-16
    outer loop
      vertex -207.421 -195 411.926
      vertex -207.5 -195 422.5
      vertex -206.337 -195 411.926
    endloop
  endfacet
  facet normal 0 1 -2.22045e-16
    outer loop
      vertex -208.484 -195 422.502
      vertex -207.5 -195 422.5
      vertex -207.421 -195 411.926
    endloop
  endfacet
  facet normal 0 1 -2.22045e-16
    outer loop
      vertex -213.954 -195 411.926
      vertex -214.837 -195 411.926
      vertex -214.951 -195 421.852
    endloop
  endfacet
  facet normal 0 1 -2.22045e-16
    outer loop
      vertex -214.837 -195 411.926
      vertex -215 -195 423.5
      vertex -214.951 -195 421.852
    endloop
  endfacet
  facet normal 0 1 -2.22045e-16
    outer loop
      vertex -215 -195 430
      vertex -207.5 -195 431
      vertex -207.5 -195 430
    endloop
  endfacet
  facet normal 0 1 -2.22045e-16
    outer loop
      vertex -207.5 -195 423.5
      vertex -214.951 -195 421.852
      vertex -215 -195 423.5
    endloop
  endfacet
  facet normal 0 2.22045e-16 1
    outer loop
      vertex -216 -195 431
      vertex -216 -216 431
      vertex -207.5 -216 431
    endloop
  endfacet
  facet normal 0 2.22045e-16 1
    outer loop
      vertex -207.5 -195 431
      vertex -216 -195 431
      vertex -207.5 -216 431
    endloop
  endfacet
  facet normal 1 0 0
    outer loop
      vertex -207.5 -215 423.5
      vertex -207.5 -216 422.5
      vertex -207.5 -195 422.5
    endloop
  endfacet
  facet normal 1 0 0
    outer loop
      vertex -207.5 -216 431
      vertex -207.5 -216 422.5
      vertex -207.5 -215 423.5
    endloop
  endfacet
  facet normal 1 0 0
    outer loop
      vertex -207.5 -215 430
      vertex -207.5 -195 430
      vertex -207.5 -216 431
    endloop
  endfacet
  facet normal 1 0 0
    outer loop
      vertex -207.5 -216 431
      vertex -207.5 -215 423.5
      vertex -207.5 -215 430
    endloop
  endfacet
  facet normal 1 0 0
    outer loop
      vertex -207.5 -195 431
      vertex -207.5 -216 431
      vertex -207.5 -195 430
    endloop
  endfacet
  facet normal 1 0 0
    outer loop
      vertex -207.5 -195 423.5
      vertex -207.5 -215 423.5
      vertex -207.5 -195 422.5
    endloop
  endfacet
  facet normal 0.994006 2.42756e-17 0.109327
    outer loop
      vertex -207.5 -195 422.5
      vertex -207.5 -216 422.5
      vertex -206.337 -216 411.926
    endloop
  endfacet
  facet normal 0.994006 2.42756e-17 0.109327
    outer loop
      vertex -206.337 -195 411.926
      vertex -207.5 -195 422.5
      vertex -206.337 -216 411.926
    endloop
  endfacet
  facet normal -0.99499 0 -0.0999712
    outer loop
      vertex -207.421 -195 411.926
      vertex -207.421 -215 411.926
      vertex -208.484 -195 422.502
    endloop
  endfacet
  facet normal -0.99499 0 -0.0999712
    outer loop
      vertex -208.484 -195 422.502
      vertex -207.421 -215 411.926
      vertex -208.484 -215 422.502
    endloop
  endfacet
  facet normal 0 1 0
    outer loop
      vertex -207.421 -215 411.926
      vertex -213.954 -215 411.926
      vertex -208.484 -215 422.502
    endloop
  endfacet
  facet normal 0 1 0
    outer loop
      vertex -208.484 -215 422.502
      vertex -213.954 -215 411.926
      vertex -214.951 -215 421.852
    endloop
  endfacet
  facet normal 0.99499 0 0.0999712
    outer loop
      vertex -213.954 -215 411.926
      vertex -213.954 -195 411.926
      vertex -214.951 -195 421.852
    endloop
  endfacet
  facet normal 0.99499 0 0.0999712
    outer loop
      vertex -214.951 -215 421.852
      vertex -213.954 -215 411.926
      vertex -214.951 -195 421.852
    endloop
  endfacet
  facet normal 0.0999712 0 -0.99499
    outer loop
      vertex -208.484 -195 422.502
      vertex -208.484 -215 422.502
      vertex -214.951 -195 421.852
    endloop
  endfacet
  facet normal 0.0999712 0 -0.99499
    outer loop
      vertex -214.951 -195 421.852
      vertex -208.484 -215 422.502
      vertex -214.951 -215 421.852
    endloop
  endfacet
  facet normal 0 0 1
    outer loop
      vertex -207.5 -215 423.5
      vertex -207.5 -195 423.5
      vertex -215 -195 423.5
    endloop
  endfacet
  facet normal 0 0 1
    outer loop
      vertex -215 -215 423.5
      vertex -207.5 -215 423.5
      vertex -215 -195 423.5
    endloop
  endfacet
  facet normal 1 0 0
    outer loop
      vertex -215 -195 423.5
      vertex -215 -195 430
      vertex -215 -215 430
    endloop
  endfacet
  facet normal 1 0 0
    outer loop
      vertex -215 -215 423.5
      vertex -215 -195 423.5
      vertex -215 -215 430
    endloop
  endfacet
  facet normal 0 0 -1
    outer loop
      vertex -207.5 -195 430
      vertex -207.5 -215 430
      vertex -215 -195 430
    endloop
  endfacet
  facet normal 0 0 -1
    outer loop
      vertex -215 -195 430
      vertex -207.5 -215 430
      vertex -215 -215 430
    endloop
  endfacet
  facet normal 0 1 0
    outer loop
      vertex -207.5 -215 430
      vertex -207.5 -215 423.5
      vertex -215 -215 430
    endloop
  endfacet
  facet normal 0 1 0
    outer loop
      vertex -215 -215 430
      vertex -207.5 -215 423.5
      vertex -215 -215 423.5
    endloop
  endfacet
  facet normal 0 -2.22045e-16 1
    outer loop
      vertex -207.5 195 431
      vertex -207.5 216 431
      vertex -216 216 431
    endloop
  endfacet
  facet normal 0 -2.22045e-16 1
    outer loop
      vertex -216 195 431
      vertex -207.5 195 431
      vertex -216 216 431
    endloop
  endfacet
  facet normal 0 -1 -2.22045e-16
    outer loop
      vertex -216 195 422.5
      vertex -214.837 195 411.926
      vertex -213.954 195 411.926
    endloop
  endfacet
  facet normal 0 -1 -2.22045e-16
    outer loop
      vertex -208.484 195 422.502
      vertex -216 195 422.5
      vertex -214.951 195 421.852
    endloop
  endfacet
  facet normal 0 -1 -2.22045e-16
    outer loop
      vertex -214.951 195 421.852
      vertex -216 195 422.5
      vertex -213.954 195 411.926
    endloop
  endfacet
  facet normal 0 -1 -2.22045e-16
    outer loop
      vertex -207.5 195 423.5
      vertex -216 195 422.5
      vertex -208.484 195 422.502
    endloop
  endfacet
  facet normal 0 -1 -2.22045e-16
    outer loop
      vertex -206.337 195 411.926
      vertex -208.484 195 422.502
      vertex -207.421 195 411.926
    endloop
  endfacet
  facet normal 0 -1 -2.22045e-16
    outer loop
      vertex -207.5 195 422.5
      vertex -208.484 195 422.502
      vertex -206.337 195 411.926
    endloop
  endfacet
  facet normal 0 -1 -2.22045e-16
    outer loop
      vertex -207.5 195 423.5
      vertex -208.484 195 422.502
      vertex -207.5 195 422.5
    endloop
  endfacet
  facet normal 0 -1 -2.22045e-16
    outer loop
      vertex -215 195 423.5
      vertex -216 195 422.5
      vertex -207.5 195 423.5
    endloop
  endfacet
  facet normal 0 -1 -2.22045e-16
    outer loop
      vertex -215 195 430
      vertex -216 195 422.5
      vertex -215 195 423.5
    endloop
  endfacet
  facet normal 0 -1 -2.22045e-16
    outer loop
      vertex -216 195 431
      vertex -216 195 422.5
      vertex -215 195 430
    endloop
  endfacet
  facet normal 0 -1 -2.22045e-16
    outer loop
      vertex -207.5 195 431
      vertex -215 195 430
      vertex -207.5 195 430
    endloop
  endfacet
  facet normal 0 -1 -2.22045e-16
    outer loop
      vertex -216 195 431
      vertex -215 195 430
      vertex -207.5 195 431
    endloop
  endfacet
  facet normal -1 0 0
    outer loop
      vertex -216 216 422.5
      vertex -216 195 422.5
      vertex -216 216 431
    endloop
  endfacet
  facet normal -1 0 0
    outer loop
      vertex -216 216 431
      vertex -216 195 422.5
      vertex -216 195 431
    endloop
  endfacet
  facet normal 1 0 0
    outer loop
      vertex -207.5 216 422.5
      vertex -207.5 215 430
      vertex -207.5 215 423.5
    endloop
  endfacet
  facet normal 1 0 0
    outer loop
      vertex -207.5 195 430
      vertex -207.5 215 430
      vertex -207.5 216 431
    endloop
  endfacet
  facet normal 1 0 0
    outer loop
      vertex -207.5 195 423.5
      vertex -207.5 195 422.5
      vertex -207.5 215 423.5
    endloop
  endfacet
  facet normal 1 0 0
    outer loop
      vertex -207.5 195 422.5
      vertex -207.5 216 422.5
      vertex -207.5 215 423.5
    endloop
  endfacet
  facet normal 1 0 0
    outer loop
      vertex -207.5 216 422.5
      vertex -207.5 216 431
      vertex -207.5 215 430
    endloop
  endfacet
  facet normal 1 0 0
    outer loop
      vertex -207.5 216 431
      vertex -207.5 195 431
      vertex -207.5 195 430
    endloop
  endfacet
  facet normal 0 1 2.22045e-16
    outer loop
      vertex -207.5 216 422.5
      vertex -206.337 216 411.926
      vertex -214.837 216 411.926
    endloop
  endfacet
  facet normal 0 1 2.22045e-16
    outer loop
      vertex -207.5 216 422.5
      vertex -214.837 216 411.926
      vertex -207.5 216 431
    endloop
  endfacet
  facet normal 0 1 2.22045e-16
    outer loop
      vertex -214.837 216 411.926
      vertex -216 216 422.5
      vertex -207.5 216 431
    endloop
  endfacet
  facet normal 0 1 2.22045e-16
    outer loop
      vertex -216 216 422.5
      vertex -216 216 431
      vertex -207.5 216 431
    endloop
  endfacet
  facet normal -0.994006 2.42756e-17 -0.109327
    outer loop
      vertex -214.837 216 411.926
      vertex -214.837 195 411.926
      vertex -216 216 422.5
    endloop
  endfacet
  facet normal -0.994006 2.42756e-17 -0.109327
    outer loop
      vertex -216 216 422.5
      vertex -214.837 195 411.926
      vertex -216 195 422.5
    endloop
  endfacet
  facet normal 0 0 -1
    outer loop
      vertex -207.5 215 430
      vertex -207.5 195 430
      vertex -215 215 430
    endloop
  endfacet
  facet normal 0 0 -1
    outer loop
      vertex -215 215 430
      vertex -207.5 195 430
      vertex -215 195 430
    endloop
  endfacet
  facet normal 1 0 0
    outer loop
      vertex -215 195 423.5
      vertex -215 215 423.5
      vertex -215 215 430
    endloop
  endfacet
  facet normal 1 0 0
    outer loop
      vertex -215 195 430
      vertex -215 195 423.5
      vertex -215 215 430
    endloop
  endfacet
  facet normal 0 0 1
    outer loop
      vertex -207.5 195 423.5
      vertex -207.5 215 423.5
      vertex -215 215 423.5
    endloop
  endfacet
  facet normal 0 0 1
    outer loop
      vertex -215 195 423.5
      vertex -207.5 195 423.5
      vertex -215 215 423.5
    endloop
  endfacet
  facet normal 0.994006 -2.42756e-17 0.109327
    outer loop
      vertex -206.337 195 411.926
      vertex -206.337 216 411.926
      vertex -207.5 216 422.5
    endloop
  endfacet
  facet normal 0.994006 -2.42756e-17 0.109327
    outer loop
      vertex -207.5 195 422.5
      vertex -206.337 195 411.926
      vertex -207.5 216 422.5
    endloop
  endfacet
  facet normal 0 2.22045e-16 -1
    outer loop
      vertex -206.337 216 411.926
      vertex -206.337 195 411.926
      vertex -207.421 215 411.926
    endloop
  endfacet
  facet normal 0 2.22045e-16 -1
    outer loop
      vertex -206.337 216 411.926
      vertex -207.421 215 411.926
      vertex -214.837 216 411.926
    endloop
  endfacet
  facet normal 0 2.22045e-16 -1
    outer loop
      vertex -213.954 195 411.926
      vertex -214.837 216 411.926
      vertex -213.954 215 411.926
    endloop
  endfacet
  facet normal 0 2.22045e-16 -1
    outer loop
      vertex -207.421 215 411.926
      vertex -213.954 215 411.926
      vertex -214.837 216 411.926
    endloop
  endfacet
  facet normal 0 2.22045e-16 -1
    outer loop
      vertex -214.837 216 411.926
      vertex -213.954 195 411.926
      vertex -214.837 195 411.926
    endloop
  endfacet
  facet normal 0 2.22045e-16 -1
    outer loop
      vertex -207.421 215 411.926
      vertex -206.337 195 411.926
      vertex -207.421 195 411.926
    endloop
  endfacet
  facet normal -0.99499 0 -0.0999712
    outer loop
      vertex -207.421 215 411.926
      vertex -207.421 195 411.926
      vertex -208.484 215 422.502
    endloop
  endfacet
  facet normal -0.99499 0 -0.0999712
    outer loop
      vertex -208.484 215 422.502
      vertex -207.421 195 411.926
      vertex -208.484 195 422.502
    endloop
  endfacet
  facet normal 0.0999712 0 -0.99499
    outer loop
      vertex -208.484 215 422.502
      vertex -208.484 195 422.502
      vertex -214.951 215 421.852
    endloop
  endfacet
  facet normal 0.0999712 0 -0.99499
    outer loop
      vertex -214.951 215 421.852
      vertex -208.484 195 422.502
      vertex -214.951 195 421.852
    endloop
  endfacet
  facet normal 0.99499 0 0.0999712
    outer loop
      vertex -213.954 195 411.926
      vertex -213.954 215 411.926
      vertex -214.951 215 421.852
    endloop
  endfacet
  facet normal 0.99499 0 0.0999712
    outer loop
      vertex -214.951 195 421.852
      vertex -213.954 195 411.926
      vertex -214.951 215 421.852
    endloop
  endfacet
  facet normal 0 -1 0
    outer loop
      vertex -207.5 215 423.5
      vertex -207.5 215 430
      vertex -215 215 430
    endloop
  endfacet
  facet normal 0 -1 0
    outer loop
      vertex -215 215 423.5
      vertex -207.5 215 423.5
      vertex -215 215 430
    endloop
  endfacet
  facet normal 0 -1 0
    outer loop
      vertex -213.954 215 411.926
      vertex -207.421 215 411.926
      vertex -208.484 215 422.502
    endloop
  endfacet
  facet normal 0 -1 0
    outer loop
      vertex -214.951 215 421.852
      vertex -213.954 215 411.926
      vertex -208.484 215 422.502
    endloop
  endfacet
  facet normal 0 -2.22045e-16 -1
    outer loop
      vertex 207.421 -195 411.926
      vertex 207.421 -215 411.926
      vertex 206.337 -195 411.926
    endloop
  endfacet
  facet normal 0 -2.22045e-16 -1
    outer loop
      vertex 206.337 -216 411.926
      vertex 207.421 -215 411.926
      vertex 214.837 -216 411.926
    endloop
  endfacet
  facet normal 0 -2.22045e-16 -1
    outer loop
      vertex 214.837 -195 411.926
      vertex 213.954 -215 411.926
      vertex 213.954 -195 411.926
    endloop
  endfacet
  facet normal 0 -2.22045e-16 -1
    outer loop
      vertex 214.837 -216 411.926
      vertex 213.954 -215 411.926
      vertex 214.837 -195 411.926
    endloop
  endfacet
  facet normal 0 -2.22045e-16 -1
    outer loop
      vertex 207.421 -215 411.926
      vertex 213.954 -215 411.926
      vertex 214.837 -216 411.926
    endloop
  endfacet
  facet normal 0 -2.22045e-16 -1
    outer loop
      vertex 206.337 -195 411.926
      vertex 207.421 -215 411.926
      vertex 206.337 -216 411.926
    endloop
  endfacet
  facet normal -0.994006 2.42756e-17 0.109327
    outer loop
      vertex 207.5 -195 422.5
      vertex 206.337 -195 411.926
      vertex 207.5 -216 422.5
    endloop
  endfacet
  facet normal -0.994006 2.42756e-17 0.109327
    outer loop
      vertex 207.5 -216 422.5
      vertex 206.337 -195 411.926
      vertex 206.337 -216 411.926
    endloop
  endfacet
  facet normal 0 -1 2.22045e-16
    outer loop
      vertex 214.837 -216 411.926
      vertex 216 -216 422.5
      vertex 216 -216 431
    endloop
  endfacet
  facet normal 0 -1 2.22045e-16
    outer loop
      vertex 207.5 -216 422.5
      vertex 214.837 -216 411.926
      vertex 207.5 -216 431
    endloop
  endfacet
  facet normal 0 -1 2.22045e-16
    outer loop
      vertex 207.5 -216 431
      vertex 214.837 -216 411.926
      vertex 216 -216 431
    endloop
  endfacet
  facet normal 0 -1 2.22045e-16
    outer loop
      vertex 206.337 -216 411.926
      vertex 214.837 -216 411.926
      vertex 207.5 -216 422.5
    endloop
  endfacet
  facet normal 0 1 -2.22045e-16
    outer loop
      vertex 207.5 -195 423.5
      vertex 215 -195 423.5
      vertex 207.5 -195 422.5
    endloop
  endfacet
  facet normal 0 1 -2.22045e-16
    outer loop
      vertex 216 -195 422.5
      vertex 215 -195 423.5
      vertex 216 -195 431
    endloop
  endfacet
  facet normal 0 1 -2.22045e-16
    outer loop
      vertex 207.5 -195 431
      vertex 215 -195 430
      vertex 207.5 -195 430
    endloop
  endfacet
  facet normal 0 1 -2.22045e-16
    outer loop
      vertex 216 -195 431
      vertex 215 -195 430
      vertex 207.5 -195 431
    endloop
  endfacet
  facet normal 0 1 -2.22045e-16
    outer loop
      vertex 215 -195 423.5
      vertex 215 -195 430
      vertex 216 -195 431
    endloop
  endfacet
  facet normal 0 1 -2.22045e-16
    outer loop
      vertex 208.484 -195 422.502
      vertex 215 -195 423.5
      vertex 216 -195 422.5
    endloop
  endfacet
  facet normal 0 1 -2.22045e-16
    outer loop
      vertex 214.951 -195 421.852
      vertex 216 -195 422.5
      vertex 214.837 -195 411.926
    endloop
  endfacet
  facet normal 0 1 -2.22045e-16
    outer loop
      vertex 208.484 -195 422.502
      vertex 216 -195 422.5
      vertex 214.951 -195 421.852
    endloop
  endfacet
  facet normal 0 1 -2.22045e-16
    outer loop
      vertex 207.5 -195 422.5
      vertex 215 -195 423.5
      vertex 208.484 -195 422.502
    endloop
  endfacet
  facet normal 0 1 -2.22045e-16
    outer loop
      vertex 207.421 -195 411.926
      vertex 207.5 -195 422.5
      vertex 208.484 -195 422.502
    endloop
  endfacet
  facet normal 0 1 -2.22045e-16
    outer loop
      vertex 214.951 -195 421.852
      vertex 214.837 -195 411.926
      vertex 213.954 -195 411.926
    endloop
  endfacet
  facet normal 0 1 -2.22045e-16
    outer loop
      vertex 207.5 -195 422.5
      vertex 207.421 -195 411.926
      vertex 206.337 -195 411.926
    endloop
  endfacet
  facet normal 0.994006 -2.42756e-17 -0.109327
    outer loop
      vertex 214.837 -195 411.926
      vertex 216 -195 422.5
      vertex 216 -216 422.5
    endloop
  endfacet
  facet normal 0.994006 -2.42756e-17 -0.109327
    outer loop
      vertex 214.837 -216 411.926
      vertex 214.837 -195 411.926
      vertex 216 -216 422.5
    endloop
  endfacet
  facet normal -0.99499 0 0.0999712
    outer loop
      vertex 214.951 -215 421.852
      vertex 214.951 -195 421.852
      vertex 213.954 -215 411.926
    endloop
  endfacet
  facet normal -0.99499 0 0.0999712
    outer loop
      vertex 213.954 -215 411.926
      vertex 214.951 -195 421.852
      vertex 213.954 -195 411.926
    endloop
  endfacet
  facet normal 0 1 0
    outer loop
      vertex 214.951 -215 421.852
      vertex 213.954 -215 411.926
      vertex 208.484 -215 422.502
    endloop
  endfacet
  facet normal 0 1 0
    outer loop
      vertex 208.484 -215 422.502
      vertex 213.954 -215 411.926
      vertex 207.421 -215 411.926
    endloop
  endfacet
  facet normal 0.99499 0 -0.0999712
    outer loop
      vertex 208.484 -195 422.502
      vertex 208.484 -215 422.502
      vertex 207.421 -215 411.926
    endloop
  endfacet
  facet normal 0.99499 0 -0.0999712
    outer loop
      vertex 207.421 -195 411.926
      vertex 208.484 -195 422.502
      vertex 207.421 -215 411.926
    endloop
  endfacet
  facet normal -1 0 0
    outer loop
      vertex 207.5 -195 431
      vertex 207.5 -195 430
      vertex 207.5 -216 431
    endloop
  endfacet
  facet normal -1 0 0
    outer loop
      vertex 207.5 -216 431
      vertex 207.5 -195 430
      vertex 207.5 -215 430
    endloop
  endfacet
  facet normal -1 0 0
    outer loop
      vertex 207.5 -216 431
      vertex 207.5 -215 430
      vertex 207.5 -215 423.5
    endloop
  endfacet
  facet normal -1 0 0
    outer loop
      vertex 207.5 -215 423.5
      vertex 207.5 -195 423.5
      vertex 207.5 -195 422.5
    endloop
  endfacet
  facet normal -1 0 0
    outer loop
      vertex 207.5 -215 423.5
      vertex 207.5 -195 422.5
      vertex 207.5 -216 422.5
    endloop
  endfacet
  facet normal -1 0 0
    outer loop
      vertex 207.5 -215 423.5
      vertex 207.5 -216 422.5
      vertex 207.5 -216 431
    endloop
  endfacet
  facet normal 0 2.22045e-16 1
    outer loop
      vertex 216 -216 431
      vertex 216 -195 431
      vertex 207.5 -195 431
    endloop
  endfacet
  facet normal 0 2.22045e-16 1
    outer loop
      vertex 207.5 -216 431
      vertex 216 -216 431
      vertex 207.5 -195 431
    endloop
  endfacet
  facet normal 1 0 0
    outer loop
      vertex 216 -195 422.5
      vertex 216 -195 431
      vertex 216 -216 431
    endloop
  endfacet
  facet normal 1 0 0
    outer loop
      vertex 216 -216 422.5
      vertex 216 -195 422.5
      vertex 216 -216 431
    endloop
  endfacet
  facet normal -0.0999712 0 -0.99499
    outer loop
      vertex 214.951 -195 421.852
      vertex 214.951 -215 421.852
      vertex 208.484 -195 422.502
    endloop
  endfacet
  facet normal -0.0999712 0 -0.99499
    outer loop
      vertex 208.484 -195 422.502
      vertex 214.951 -215 421.852
      vertex 208.484 -215 422.502
    endloop
  endfacet
  facet normal 0 0 -1
    outer loop
      vertex 215 -195 430
      vertex 215 -215 430
      vertex 207.5 -195 430
    endloop
  endfacet
  facet normal 0 0 -1
    outer loop
      vertex 207.5 -195 430
      vertex 215 -215 430
      vertex 207.5 -215 430
    endloop
  endfacet
  facet normal -1 0 0
    outer loop
      vertex 215 -195 430
      vertex 215 -195 423.5
      vertex 215 -215 430
    endloop
  endfacet
  facet normal -1 0 0
    outer loop
      vertex 215 -215 430
      vertex 215 -195 423.5
      vertex 215 -215 423.5
    endloop
  endfacet
  facet normal 0 0 1
    outer loop
      vertex 215 -215 423.5
      vertex 215 -195 423.5
      vertex 207.5 -195 423.5
    endloop
  endfacet
  facet normal 0 0 1
    outer loop
      vertex 207.5 -215 423.5
      vertex 215 -215 423.5
      vertex 207.5 -195 423.5
    endloop
  endfacet
  facet normal 0 1 0
    outer loop
      vertex 215 -215 430
      vertex 215 -215 423.5
      vertex 207.5 -215 430
    endloop
  endfacet
  facet normal 0 1 0
    outer loop
      vertex 207.5 -215 430
      vertex 215 -215 423.5
      vertex 207.5 -215 423.5
    endloop
  endfacet
  facet normal 0 2.22045e-16 -1
    outer loop
      vertex 206.337 195 411.926
      vertex 206.337 216 411.926
      vertex 207.421 195 411.926
    endloop
  endfacet
  facet normal 0 2.22045e-16 -1
    outer loop
      vertex 213.954 215 411.926
      vertex 206.337 216 411.926
      vertex 214.837 216 411.926
    endloop
  endfacet
  facet normal 0 2.22045e-16 -1
    outer loop
      vertex 213.954 195 411.926
      vertex 214.837 216 411.926
      vertex 214.837 195 411.926
    endloop
  endfacet
  facet normal 0 2.22045e-16 -1
    outer loop
      vertex 207.421 215 411.926
      vertex 206.337 216 411.926
      vertex 213.954 215 411.926
    endloop
  endfacet
  facet normal 0 2.22045e-16 -1
    outer loop
      vertex 207.421 195 411.926
      vertex 206.337 216 411.926
      vertex 207.421 215 411.926
    endloop
  endfacet
  facet normal 0 2.22045e-16 -1
    outer loop
      vertex 213.954 215 411.926
      vertex 214.837 216 411.926
      vertex 213.954 195 411.926
    endloop
  endfacet
  facet normal -0.994006 -2.42756e-17 0.109327
    outer loop
      vertex 206.337 195 411.926
      vertex 207.5 195 422.5
      vertex 206.337 216 411.926
    endloop
  endfacet
  facet normal -0.994006 -2.42756e-17 0.109327
    outer loop
      vertex 206.337 216 411.926
      vertex 207.5 195 422.5
      vertex 207.5 216 422.5
    endloop
  endfacet
  facet normal 0 -1 -2.22045e-16
    outer loop
      vertex 207.5 195 422.5
      vertex 206.337 195 411.926
      vertex 207.421 195 411.926
    endloop
  endfacet
  facet normal 0 -1 -2.22045e-16
    outer loop
      vertex 215 195 423.5
      vertex 207.5 195 422.5
      vertex 208.484 195 422.502
    endloop
  endfacet
  facet normal 0 -1 -2.22045e-16
    outer loop
      vertex 208.484 195 422.502
      vertex 207.5 195 422.5
      vertex 207.421 195 411.926
    endloop
  endfacet
  facet normal 0 -1 -2.22045e-16
    outer loop
      vertex 216 195 422.5
      vertex 208.484 195 422.502
      vertex 214.951 195 421.852
    endloop
  endfacet
  facet normal 0 -1 -2.22045e-16
    outer loop
      vertex 214.837 195 411.926
      vertex 214.951 195 421.852
      vertex 213.954 195 411.926
    endloop
  endfacet
  facet normal 0 -1 -2.22045e-16
    outer loop
      vertex 216 195 422.5
      vertex 214.951 195 421.852
      vertex 214.837 195 411.926
    endloop
  endfacet
  facet normal 0 -1 -2.22045e-16
    outer loop
      vertex 215 195 423.5
      vertex 208.484 195 422.502
      vertex 216 195 422.5
    endloop
  endfacet
  facet normal 0 -1 -2.22045e-16
    outer loop
      vertex 207.5 195 431
      vertex 207.5 195 430
      vertex 216 195 431
    endloop
  endfacet
  facet normal 0 -1 -2.22045e-16
    outer loop
      vertex 207.5 195 430
      vertex 215 195 430
      vertex 216 195 431
    endloop
  endfacet
  facet normal 0 -1 -2.22045e-16
    outer loop
      vertex 216 195 431
      vertex 215 195 423.5
      vertex 216 195 422.5
    endloop
  endfacet
  facet normal 0 -1 -2.22045e-16
    outer loop
      vertex 215 195 430
      vertex 215 195 423.5
      vertex 216 195 431
    endloop
  endfacet
  facet normal 0 -1 -2.22045e-16
    outer loop
      vertex 215 195 423.5
      vertex 207.5 195 423.5
      vertex 207.5 195 422.5
    endloop
  endfacet
  facet normal 0.99499 0 -0.0999712
    outer loop
      vertex 207.421 215 411.926
      vertex 208.484 215 422.502
      vertex 208.484 195 422.502
    endloop
  endfacet
  facet normal 0.99499 0 -0.0999712
    outer loop
      vertex 207.421 195 411.926
      vertex 207.421 215 411.926
      vertex 208.484 195 422.502
    endloop
  endfacet
  facet normal 0 -1 0
    outer loop
      vertex 213.954 215 411.926
      vertex 214.951 215 421.852
      vertex 208.484 215 422.502
    endloop
  endfacet
  facet normal 0 -1 0
    outer loop
      vertex 207.421 215 411.926
      vertex 213.954 215 411.926
      vertex 208.484 215 422.502
    endloop
  endfacet
  facet normal -0.99499 0 0.0999712
    outer loop
      vertex 214.951 215 421.852
      vertex 213.954 215 411.926
      vertex 214.951 195 421.852
    endloop
  endfacet
  facet normal -0.99499 0 0.0999712
    outer loop
      vertex 214.951 195 421.852
      vertex 213.954 215 411.926
      vertex 213.954 195 411.926
    endloop
  endfacet
  facet normal 0.994006 2.42756e-17 -0.109327
    outer loop
      vertex 216 195 422.5
      vertex 214.837 195 411.926
      vertex 214.837 216 411.926
    endloop
  endfacet
  facet normal 0.994006 2.42756e-17 -0.109327
    outer loop
      vertex 216 216 422.5
      vertex 216 195 422.5
      vertex 214.837 216 411.926
    endloop
  endfacet
  facet normal 0 1 2.22045e-16
    outer loop
      vertex 206.337 216 411.926
      vertex 207.5 216 422.5
      vertex 214.837 216 411.926
    endloop
  endfacet
  facet normal 0 1 2.22045e-16
    outer loop
      vertex 214.837 216 411.926
      vertex 207.5 216 422.5
      vertex 207.5 216 431
    endloop
  endfacet
  facet normal 0 1 2.22045e-16
    outer loop
      vertex 214.837 216 411.926
      vertex 207.5 216 431
      vertex 216 216 431
    endloop
  endfacet
  facet normal 0 1 2.22045e-16
    outer loop
      vertex 214.837 216 411.926
      vertex 216 216 431
      vertex 216 216 422.5
    endloop
  endfacet
  facet normal -1 0 0
    outer loop
      vertex 207.5 195 431
      vertex 207.5 216 431
      vertex 207.5 195 430
    endloop
  endfacet
  facet normal -1 0 0
    outer loop
      vertex 207.5 215 423.5
      vertex 207.5 216 431
      vertex 207.5 216 422.5
    endloop
  endfacet
  facet normal -1 0 0
    outer loop
      vertex 207.5 195 423.5
      vertex 207.5 216 422.5
      vertex 207.5 195 422.5
    endloop
  endfacet
  facet normal -1 0 0
    outer loop
      vertex 207.5 215 430
      vertex 207.5 216 431
      vertex 207.5 215 423.5
    endloop
  endfacet
  facet normal -1 0 0
    outer loop
      vertex 207.5 195 430
      vertex 207.5 216 431
      vertex 207.5 215 430
    endloop
  endfacet
  facet normal -1 0 0
    outer loop
      vertex 207.5 215 423.5
      vertex 207.5 216 422.5
      vertex 207.5 195 423.5
    endloop
  endfacet
  facet normal 0 0 1
    outer loop
      vertex 215 195 423.5
      vertex 215 215 423.5
      vertex 207.5 215 423.5
    endloop
  endfacet
  facet normal 0 0 1
    outer loop
      vertex 207.5 195 423.5
      vertex 215 195 423.5
      vertex 207.5 215 423.5
    endloop
  endfacet
  facet normal -1 0 0
    outer loop
      vertex 215 215 423.5
      vertex 215 195 423.5
      vertex 215 215 430
    endloop
  endfacet
  facet normal -1 0 0
    outer loop
      vertex 215 215 430
      vertex 215 195 423.5
      vertex 215 195 430
    endloop
  endfacet
  facet normal 0 0 -1
    outer loop
      vertex 215 215 430
      vertex 215 195 430
      vertex 207.5 215 430
    endloop
  endfacet
  facet normal 0 0 -1
    outer loop
      vertex 207.5 215 430
      vertex 215 195 430
      vertex 207.5 195 430
    endloop
  endfacet
  facet normal 0 -2.22045e-16 1
    outer loop
      vertex 207.5 216 431
      vertex 207.5 195 431
      vertex 216 195 431
    endloop
  endfacet
  facet normal 0 -2.22045e-16 1
    outer loop
      vertex 216 216 431
      vertex 207.5 216 431
      vertex 216 195 431
    endloop
  endfacet
  facet normal 1 0 0
    outer loop
      vertex 216 216 431
      vertex 216 195 431
      vertex 216 195 422.5
    endloop
  endfacet
  facet normal 1 0 0
    outer loop
      vertex 216 216 422.5
      vertex 216 216 431
      vertex 216 195 422.5
    endloop
  endfacet
  facet normal -0.0999712 0 -0.99499
    outer loop
      vertex 214.951 215 421.852
      vertex 214.951 195 421.852
      vertex 208.484 215 422.502
    endloop
  endfacet
  facet normal -0.0999712 0 -0.99499
    outer loop
      vertex 208.484 215 422.502
      vertex 214.951 195 421.852
      vertex 208.484 195 422.502
    endloop
  endfacet
  facet normal 0 -1 0
    outer loop
      vertex 215 215 423.5
      vertex 215 215 430
      vertex 207.5 215 430
    endloop
  endfacet
  facet normal 0 -1 0
    outer loop
      vertex 207.5 215 423.5
      vertex 215 215 423.5
      vertex 207.5 215 430
    endloop
  endfacet
  facet normal 0 -2.22045e-16 -1
    outer loop
      vertex -11.856 -216 411.926
      vertex -11.856 -195 411.926
      vertex -10.7026 -215 411.926
    endloop
  endfacet
  facet normal 0 -2.22045e-16 -1
    outer loop
      vertex -11.856 -216 411.926
      vertex -10.7026 -215 411.926
      vertex 11.856 -216 411.926
    endloop
  endfacet
  facet normal 0 -2.22045e-16 -1
    outer loop
      vertex -10.7026 -215 411.926
      vertex -3.75739 -215 411.926
      vertex 11.856 -216 411.926
    endloop
  endfacet
  facet normal 0 -2.22045e-16 -1
    outer loop
      vertex 3.75739 -215 411.926
      vertex -3.75739 -195 411.926
      vertex 3.75739 -195 411.926
    endloop
  endfacet
  facet normal 0 -2.22045e-16 -1
    outer loop
      vertex 10.7026 -195 411.926
      vertex 11.856 -216 411.926
      vertex 10.7026 -215 411.926
    endloop
  endfacet
  facet normal 0 -2.22045e-16 -1
    outer loop
      vertex -3.75739 -215 411.926
      vertex 3.75739 -215 411.926
      vertex 11.856 -216 411.926
    endloop
  endfacet
  facet normal 0 -2.22045e-16 -1
    outer loop
      vertex -3.75739 -195 411.926
      vertex 3.75739 -215 411.926
      vertex -3.75739 -215 411.926
    endloop
  endfacet
  facet normal 0 -2.22045e-16 -1
    outer loop
      vertex 3.75739 -215 411.926
      vertex 10.7026 -215 411.926
      vertex 11.856 -216 411.926
    endloop
  endfacet
  facet normal 0 -2.22045e-16 -1
    outer loop
      vertex 11.856 -216 411.926
      vertex 10.7026 -195 411.926
      vertex 11.856 -195 411.926
    endloop
  endfacet
  facet normal 0 -2.22045e-16 -1
    outer loop
      vertex -10.7026 -215 411.926
      vertex -11.856 -195 411.926
      vertex -10.7026 -195 411.926
    endloop
  endfacet
  facet normal -0.93591 7.82129e-17 0.35224
    outer loop
      vertex -11.856 -216 411.926
      vertex -7.5 -216 423.5
      vertex -11.856 -195 411.926
    endloop
  endfacet
  facet normal -0.93591 7.82129e-17 0.35224
    outer loop
      vertex -11.856 -195 411.926
      vertex -7.5 -216 423.5
      vertex -7.5 -215 423.5
    endloop
  endfacet
  facet normal -0.93591 7.82129e-17 0.35224
    outer loop
      vertex -7.5 -195 423.5
      vertex -11.856 -195 411.926
      vertex -7.5 -215 423.5
    endloop
  endfacet
  facet normal 0 -1 2.22045e-16
    outer loop
      vertex -7.5 -216 423.5
      vertex -11.856 -216 411.926
      vertex 11.856 -216 411.926
    endloop
  endfacet
  facet normal 0 -1 2.22045e-16
    outer loop
      vertex 7.5 -216 431
      vertex -7.5 -216 423.5
      vertex 7.5 -216 423.5
    endloop
  endfacet
  facet normal 0 -1 2.22045e-16
    outer loop
      vertex 7.5 -216 423.5
      vertex -7.5 -216 423.5
      vertex 11.856 -216 411.926
    endloop
  endfacet
  facet normal 0 -1 2.22045e-16
    outer loop
      vertex -7.5 -216 431
      vertex -7.5 -216 423.5
      vertex 7.5 -216 431
    endloop
  endfacet
  facet normal 0.93591 7.82129e-17 0.35224
    outer loop
      vertex 7.5 -215 423.5
      vertex 7.5 -216 423.5
      vertex 11.856 -216 411.926
    endloop
  endfacet
  facet normal 0.93591 7.82129e-17 0.35224
    outer loop
      vertex 11.856 -195 411.926
      vertex 7.5 -215 423.5
      vertex 11.856 -216 411.926
    endloop
  endfacet
  facet normal 0.93591 7.82129e-17 0.35224
    outer loop
      vertex 7.5 -195 423.5
      vertex 7.5 -215 423.5
      vertex 11.856 -195 411.926
    endloop
  endfacet
  facet normal 0 1 -2.22045e-16
    outer loop
      vertex -11.856 -195 411.926
      vertex -7.5 -195 423.5
      vertex -10.7026 -195 411.926
    endloop
  endfacet
  facet normal 0 1 -2.22045e-16
    outer loop
      vertex 0.611625 -195 420.284
      vertex -7.5 -195 423.5
      vertex 7.5 -195 423.5
    endloop
  endfacet
  facet normal 0 1 -2.22045e-16
    outer loop
      vertex 10.7026 -195 411.926
      vertex 7.5 -195 423.5
      vertex 11.856 -195 411.926
    endloop
  endfacet
  facet normal 0 1 -2.22045e-16
    outer loop
      vertex 6.69497 -195 422.573
      vertex 7.5 -195 423.5
      vertex 10.7026 -195 411.926
    endloop
  endfacet
  facet normal 0 1 -2.22045e-16
    outer loop
      vertex 3.75739 -195 411.926
      vertex -3.75739 -195 411.926
      vertex 0.611625 -195 420.284
    endloop
  endfacet
  facet normal 0 1 -2.22045e-16
    outer loop
      vertex -0.611625 -195 420.284
      vertex -7.5 -195 423.5
      vertex 0.611625 -195 420.284
    endloop
  endfacet
  facet normal 0 1 -2.22045e-16
    outer loop
      vertex -0.611625 -195 420.284
      vertex 0.611625 -195 420.284
      vertex -3.75739 -195 411.926
    endloop
  endfacet
  facet normal 0 1 -2.22045e-16
    outer loop
      vertex -6.69497 -195 422.573
      vertex -7.5 -195 423.5
      vertex -0.611625 -195 420.284
    endloop
  endfacet
  facet normal 0 1 -2.22045e-16
    outer loop
      vertex -10.7026 -195 411.926
      vertex -7.5 -195 423.5
      vertex -6.69497 -195 422.573
    endloop
  endfacet
  facet normal 0 1 -2.22045e-16
    outer loop
      vertex 0.611625 -195 420.284
      vertex 7.5 -195 423.5
      vertex 6.69497 -195 422.573
    endloop
  endfacet
  facet normal -0.9359 0 -0.352267
    outer loop
      vertex 10.7026 -195 411.926
      vertex 10.7026 -215 411.926
      vertex 6.69497 -195 422.573
    endloop
  endfacet
  facet normal -0.9359 0 -0.352267
    outer loop
      vertex 6.69497 -195 422.573
      vertex 10.7026 -215 411.926
      vertex 6.69497 -215 422.573
    endloop
  endfacet
  facet normal 0 1 0
    outer loop
      vertex 10.7026 -215 411.926
      vertex 3.75739 -215 411.926
      vertex 6.69497 -215 422.573
    endloop
  endfacet
  facet normal 0 1 0
    outer loop
      vertex 6.69497 -215 422.573
      vertex 3.75739 -215 411.926
      vertex 0.611625 -215 420.284
    endloop
  endfacet
  facet normal 0.9359 0 0.352267
    outer loop
      vertex 3.75739 -215 411.926
      vertex 3.75739 -195 411.926
      vertex 0.611625 -195 420.284
    endloop
  endfacet
  facet normal 0.9359 0 0.352267
    outer loop
      vertex 0.611625 -215 420.284
      vertex 3.75739 -215 411.926
      vertex 0.611625 -195 420.284
    endloop
  endfacet
  facet normal -0.9359 0 0.352267
    outer loop
      vertex -0.611625 -215 420.284
      vertex -0.611625 -195 420.284
      vertex -3.75739 -215 411.926
    endloop
  endfacet
  facet normal -0.9359 0 0.352267
    outer loop
      vertex -3.75739 -215 411.926
      vertex -0.611625 -195 420.284
      vertex -3.75739 -195 411.926
    endloop
  endfacet
  facet normal 0 1 0
    outer loop
      vertex -0.611625 -215 420.284
      vertex -3.75739 -215 411.926
      vertex -6.69497 -215 422.573
    endloop
  endfacet
  facet normal 0 1 0
    outer loop
      vertex -6.69497 -215 422.573
      vertex -3.75739 -215 411.926
      vertex -10.7026 -215 411.926
    endloop
  endfacet
  facet normal 0.9359 0 -0.352267
    outer loop
      vertex -6.69497 -195 422.573
      vertex -6.69497 -215 422.573
      vertex -10.7026 -215 411.926
    endloop
  endfacet
  facet normal 0.9359 0 -0.352267
    outer loop
      vertex -10.7026 -195 411.926
      vertex -6.69497 -195 422.573
      vertex -10.7026 -215 411.926
    endloop
  endfacet
  facet normal 0 0 1
    outer loop
      vertex 7.5 -215 423.5
      vertex 7.5 -195 423.5
      vertex -7.5 -195 423.5
    endloop
  endfacet
  facet normal 0 0 1
    outer loop
      vertex -7.5 -215 423.5
      vertex 7.5 -215 423.5
      vertex -7.5 -195 423.5
    endloop
  endfacet
  facet normal 0 1 0
    outer loop
      vertex -7.5 -215 430
      vertex 7.5 -215 430
      vertex -7.5 -215 423.5
    endloop
  endfacet
  facet normal 0 1 0
    outer loop
      vertex -7.5 -215 423.5
      vertex 7.5 -215 430
      vertex 7.5 -215 423.5
    endloop
  endfacet
  facet normal -1 0 0
    outer loop
      vertex -7.5 -216 423.5
      vertex -7.5 -216 431
      vertex -7.5 -215 423.5
    endloop
  endfacet
  facet normal -1 0 0
    outer loop
      vertex -7.5 -215 430
      vertex -7.5 -216 431
      vertex -7.5 -195 431
    endloop
  endfacet
  facet normal -1 0 0
    outer loop
      vertex -7.5 -215 423.5
      vertex -7.5 -216 431
      vertex -7.5 -215 430
    endloop
  endfacet
  facet normal -1 0 0
    outer loop
      vertex -7.5 -215 430
      vertex -7.5 -195 431
      vertex -7.5 -195 430
    endloop
  endfacet
  facet normal 0 2.22045e-16 1
    outer loop
      vertex -7.5 -195 431
      vertex -7.5 -216 431
      vertex 7.5 -216 431
    endloop
  endfacet
  facet normal 0 2.22045e-16 1
    outer loop
      vertex 7.5 -195 431
      vertex -7.5 -195 431
      vertex 7.5 -216 431
    endloop
  endfacet
  facet normal 1 0 0
    outer loop
      vertex 7.5 -216 431
      vertex 7.5 -216 423.5
      vertex 7.5 -215 423.5
    endloop
  endfacet
  facet normal 1 0 0
    outer loop
      vertex 7.5 -195 430
      vertex 7.5 -216 431
      vertex 7.5 -215 430
    endloop
  endfacet
  facet normal 1 0 0
    outer loop
      vertex 7.5 -215 430
      vertex 7.5 -216 431
      vertex 7.5 -215 423.5
    endloop
  endfacet
  facet normal 1 0 0
    outer loop
      vertex 7.5 -195 431
      vertex 7.5 -216 431
      vertex 7.5 -195 430
    endloop
  endfacet
  facet normal -0.352267 0 -0.9359
    outer loop
      vertex -0.611625 -195 420.284
      vertex -0.611625 -215 420.284
      vertex -6.69497 -195 422.573
    endloop
  endfacet
  facet normal -0.352267 0 -0.9359
    outer loop
      vertex -6.69497 -195 422.573
      vertex -0.611625 -215 420.284
      vertex -6.69497 -215 422.573
    endloop
  endfacet
  facet normal 0.352267 0 -0.9359
    outer loop
      vertex 6.69497 -195 422.573
      vertex 6.69497 -215 422.573
      vertex 0.611625 -195 420.284
    endloop
  endfacet
  facet normal 0.352267 0 -0.9359
    outer loop
      vertex 0.611625 -195 420.284
      vertex 6.69497 -215 422.573
      vertex 0.611625 -215 420.284
    endloop
  endfacet
  facet normal 0 0 -1
    outer loop
      vertex 7.5 -195 430
      vertex 7.5 -215 430
      vertex -7.5 -195 430
    endloop
  endfacet
  facet normal 0 0 -1
    outer loop
      vertex -7.5 -195 430
      vertex 7.5 -215 430
      vertex -7.5 -215 430
    endloop
  endfacet
  facet normal 0 1 -2.22045e-16
    outer loop
      vertex -7.5 -195 430
      vertex -7.5 -195 431
      vertex 7.5 -195 430
    endloop
  endfacet
  facet normal 0 1 -2.22045e-16
    outer loop
      vertex 7.5 -195 430
      vertex -7.5 -195 431
      vertex 7.5 -195 431
    endloop
  endfacet
  facet normal 0 2.22045e-16 -1
    outer loop
      vertex 11.856 216 411.926
      vertex 11.856 195 411.926
      vertex 10.7026 215 411.926
    endloop
  endfacet
  facet normal 0 2.22045e-16 -1
    outer loop
      vertex 11.856 216 411.926
      vertex 10.7026 215 411.926
      vertex -11.856 216 411.926
    endloop
  endfacet
  facet normal 0 2.22045e-16 -1
    outer loop
      vertex 10.7026 215 411.926
      vertex 3.75739 215 411.926
      vertex -11.856 216 411.926
    endloop
  endfacet
  facet normal 0 2.22045e-16 -1
    outer loop
      vertex -3.75739 215 411.926
      vertex 3.75739 195 411.926
      vertex -3.75739 195 411.926
    endloop
  endfacet
  facet normal 0 2.22045e-16 -1
    outer loop
      vertex -10.7026 195 411.926
      vertex -11.856 216 411.926
      vertex -10.7026 215 411.926
    endloop
  endfacet
  facet normal 0 2.22045e-16 -1
    outer loop
      vertex 3.75739 215 411.926
      vertex -3.75739 215 411.926
      vertex -11.856 216 411.926
    endloop
  endfacet
  facet normal 0 2.22045e-16 -1
    outer loop
      vertex 3.75739 195 411.926
      vertex -3.75739 215 411.926
      vertex 3.75739 215 411.926
    endloop
  endfacet
  facet normal 0 2.22045e-16 -1
    outer loop
      vertex -3.75739 215 411.926
      vertex -10.7026 215 411.926
      vertex -11.856 216 411.926
    endloop
  endfacet
  facet normal 0 2.22045e-16 -1
    outer loop
      vertex -11.856 216 411.926
      vertex -10.7026 195 411.926
      vertex -11.856 195 411.926
    endloop
  endfacet
  facet normal 0 2.22045e-16 -1
    outer loop
      vertex 10.7026 215 411.926
      vertex 11.856 195 411.926
      vertex 10.7026 195 411.926
    endloop
  endfacet
  facet normal -0.93591 -7.82129e-17 0.35224
    outer loop
      vertex -7.5 215 423.5
      vertex -7.5 216 423.5
      vertex -11.856 216 411.926
    endloop
  endfacet
  facet normal -0.93591 -7.82129e-17 0.35224
    outer loop
      vertex -7.5 215 423.5
      vertex -11.856 216 411.926
      vertex -7.5 195 423.5
    endloop
  endfacet
  facet normal -0.93591 -7.82129e-17 0.35224
    outer loop
      vertex -11.856 216 411.926
      vertex -11.856 195 411.926
      vertex -7.5 195 423.5
    endloop
  endfacet
  facet normal 0 -1 -2.22045e-16
    outer loop
      vertex 0.611625 195 420.284
      vertex -6.69497 195 422.573
      vertex -0.611625 195 420.284
    endloop
  endfacet
  facet normal 0 -1 -2.22045e-16
    outer loop
      vertex 6.69497 195 422.573
      vertex 7.5 195 423.5
      vertex -6.69497 195 422.573
    endloop
  endfacet
  facet normal 0 -1 -2.22045e-16
    outer loop
      vertex -10.7026 195 411.926
      vertex -6.69497 195 422.573
      vertex -7.5 195 423.5
    endloop
  endfacet
  facet normal 0 -1 -2.22045e-16
    outer loop
      vertex -3.75739 195 411.926
      vertex 3.75739 195 411.926
      vertex -0.611625 195 420.284
    endloop
  endfacet
  facet normal 0 -1 -2.22045e-16
    outer loop
      vertex 3.75739 195 411.926
      vertex 0.611625 195 420.284
      vertex -0.611625 195 420.284
    endloop
  endfacet
  facet normal 0 -1 -2.22045e-16
    outer loop
      vertex 0.611625 195 420.284
      vertex 6.69497 195 422.573
      vertex -6.69497 195 422.573
    endloop
  endfacet
  facet normal 0 -1 -2.22045e-16
    outer loop
      vertex 10.7026 195 411.926
      vertex 11.856 195 411.926
      vertex 6.69497 195 422.573
    endloop
  endfacet
  facet normal 0 -1 -2.22045e-16
    outer loop
      vertex 11.856 195 411.926
      vertex 7.5 195 423.5
      vertex 6.69497 195 422.573
    endloop
  endfacet
  facet normal 0 -1 -2.22045e-16
    outer loop
      vertex 7.5 195 423.5
      vertex -7.5 195 423.5
      vertex -6.69497 195 422.573
    endloop
  endfacet
  facet normal 0 -1 -2.22045e-16
    outer loop
      vertex -7.5 195 423.5
      vertex -11.856 195 411.926
      vertex -10.7026 195 411.926
    endloop
  endfacet
  facet normal 0 1 2.22045e-16
    outer loop
      vertex -7.5 216 431
      vertex 7.5 216 431
      vertex -7.5 216 423.5
    endloop
  endfacet
  facet normal 0 1 2.22045e-16
    outer loop
      vertex -7.5 216 423.5
      vertex 7.5 216 431
      vertex 7.5 216 423.5
    endloop
  endfacet
  facet normal 0 1 2.22045e-16
    outer loop
      vertex -7.5 216 423.5
      vertex 7.5 216 423.5
      vertex 11.856 216 411.926
    endloop
  endfacet
  facet normal 0 1 2.22045e-16
    outer loop
      vertex -7.5 216 423.5
      vertex 11.856 216 411.926
      vertex -11.856 216 411.926
    endloop
  endfacet
  facet normal 0.9359 0 -0.352267
    outer loop
      vertex -10.7026 215 411.926
      vertex -6.69497 215 422.573
      vertex -6.69497 195 422.573
    endloop
  endfacet
  facet normal 0.9359 0 -0.352267
    outer loop
      vertex -10.7026 195 411.926
      vertex -10.7026 215 411.926
      vertex -6.69497 195 422.573
    endloop
  endfacet
  facet normal 0 -1 0
    outer loop
      vertex -3.75739 215 411.926
      vertex -0.611625 215 420.284
      vertex -6.69497 215 422.573
    endloop
  endfacet
  facet normal 0 -1 0
    outer loop
      vertex -10.7026 215 411.926
      vertex -3.75739 215 411.926
      vertex -6.69497 215 422.573
    endloop
  endfacet
  facet normal -0.9359 0 0.352267
    outer loop
      vertex -0.611625 215 420.284
      vertex -3.75739 215 411.926
      vertex -0.611625 195 420.284
    endloop
  endfacet
  facet normal -0.9359 0 0.352267
    outer loop
      vertex -0.611625 195 420.284
      vertex -3.75739 215 411.926
      vertex -3.75739 195 411.926
    endloop
  endfacet
  facet normal 0.9359 0 0.352267
    outer loop
      vertex 3.75739 195 411.926
      vertex 3.75739 215 411.926
      vertex 0.611625 215 420.284
    endloop
  endfacet
  facet normal 0.9359 0 0.352267
    outer loop
      vertex 0.611625 195 420.284
      vertex 3.75739 195 411.926
      vertex 0.611625 215 420.284
    endloop
  endfacet
  facet normal 0 -1 0
    outer loop
      vertex 3.75739 215 411.926
      vertex 10.7026 215 411.926
      vertex 6.69497 215 422.573
    endloop
  endfacet
  facet normal 0 -1 0
    outer loop
      vertex 0.611625 215 420.284
      vertex 3.75739 215 411.926
      vertex 6.69497 215 422.573
    endloop
  endfacet
  facet normal -0.9359 0 -0.352267
    outer loop
      vertex 10.7026 215 411.926
      vertex 10.7026 195 411.926
      vertex 6.69497 215 422.573
    endloop
  endfacet
  facet normal -0.9359 0 -0.352267
    outer loop
      vertex 6.69497 215 422.573
      vertex 10.7026 195 411.926
      vertex 6.69497 195 422.573
    endloop
  endfacet
  facet normal 0.93591 -7.82129e-17 0.35224
    outer loop
      vertex 11.856 195 411.926
      vertex 11.856 216 411.926
      vertex 7.5 216 423.5
    endloop
  endfacet
  facet normal 0.93591 -7.82129e-17 0.35224
    outer loop
      vertex 7.5 215 423.5
      vertex 11.856 195 411.926
      vertex 7.5 216 423.5
    endloop
  endfacet
  facet normal 0.93591 -7.82129e-17 0.35224
    outer loop
      vertex 7.5 215 423.5
      vertex 7.5 195 423.5
      vertex 11.856 195 411.926
    endloop
  endfacet
  facet normal 0 0 1
    outer loop
      vertex -7.5 195 423.5
      vertex 7.5 195 423.5
      vertex 7.5 215 423.5
    endloop
  endfacet
  facet normal 0 0 1
    outer loop
      vertex -7.5 215 423.5
      vertex -7.5 195 423.5
      vertex 7.5 215 423.5
    endloop
  endfacet
  facet normal -1 0 0
    outer loop
      vertex -7.5 216 423.5
      vertex -7.5 215 423.5
      vertex -7.5 216 431
    endloop
  endfacet
  facet normal -1 0 0
    outer loop
      vertex -7.5 216 431
      vertex -7.5 215 423.5
      vertex -7.5 215 430
    endloop
  endfacet
  facet normal -1 0 0
    outer loop
      vertex -7.5 216 431
      vertex -7.5 215 430
      vertex -7.5 195 430
    endloop
  endfacet
  facet normal -1 0 0
    outer loop
      vertex -7.5 216 431
      vertex -7.5 195 430
      vertex -7.5 195 431
    endloop
  endfacet
  facet normal 0 -1 0
    outer loop
      vertex -7.5 215 430
      vertex 7.5 215 423.5
      vertex 7.5 215 430
    endloop
  endfacet
  facet normal 0 -1 0
    outer loop
      vertex 7.5 215 423.5
      vertex -7.5 215 430
      vertex -7.5 215 423.5
    endloop
  endfacet
  facet normal 0.352267 0 -0.9359
    outer loop
      vertex 6.69497 215 422.573
      vertex 6.69497 195 422.573
      vertex 0.611625 215 420.284
    endloop
  endfacet
  facet normal 0.352267 0 -0.9359
    outer loop
      vertex 0.611625 215 420.284
      vertex 6.69497 195 422.573
      vertex 0.611625 195 420.284
    endloop
  endfacet
  facet normal -0.352267 0 -0.9359
    outer loop
      vertex -0.611625 215 420.284
      vertex -0.611625 195 420.284
      vertex -6.69497 215 422.573
    endloop
  endfacet
  facet normal -0.352267 0 -0.9359
    outer loop
      vertex -6.69497 215 422.573
      vertex -0.611625 195 420.284
      vertex -6.69497 195 422.573
    endloop
  endfacet
  facet normal 1 0 0
    outer loop
      vertex 7.5 216 423.5
      vertex 7.5 215 430
      vertex 7.5 215 423.5
    endloop
  endfacet
  facet normal 1 0 0
    outer loop
      vertex 7.5 216 431
      vertex 7.5 215 430
      vertex 7.5 216 423.5
    endloop
  endfacet
  facet normal 1 0 0
    outer loop
      vertex 7.5 195 430
      vertex 7.5 215 430
      vertex 7.5 216 431
    endloop
  endfacet
  facet normal 1 0 0
    outer loop
      vertex 7.5 195 431
      vertex 7.5 195 430
      vertex 7.5 216 431
    endloop
  endfacet
  facet normal 0 -2.22045e-16 1
    outer loop
      vertex 7.5 195 431
      vertex 7.5 216 431
      vertex -7.5 216 431
    endloop
  endfacet
  facet normal 0 -2.22045e-16 1
    outer loop
      vertex -7.5 195 431
      vertex 7.5 195 431
      vertex -7.5 216 431
    endloop
  endfacet
  facet normal 0 -1 -2.22045e-16
    outer loop
      vertex -7.5 195 430
      vertex 7.5 195 430
      vertex 7.5 195 431
    endloop
  endfacet
  facet normal 0 -1 -2.22045e-16
    outer loop
      vertex -7.5 195 431
      vertex -7.5 195 430
      vertex 7.5 195 431
    endloop
  endfacet
  facet normal 0 0 -1
    outer loop
      vertex 7.5 215 430
      vertex 7.5 195 430
      vertex -7.5 215 430
    endloop
  endfacet
  facet normal 0 0 -1
    outer loop
      vertex -7.5 215 430
      vertex 7.5 195 430
      vertex -7.5 195 430
    endloop
  endfacet
endsolid OpenSCAD_Model
