solid OpenSCAD_Model
  facet normal -1 0 0
    outer loop
      vertex -215 -215 426
      vertex -215 -215 430
      vertex -215 215 426
    endloop
  endfacet
  facet normal -1 0 0
    outer loop
      vertex -215 215 426
      vertex -215 -215 430
      vertex -215 215 430
    endloop
  endfacet
  facet normal 0 -1 0
    outer loop
      vertex -215 -215 430
      vertex -215 -215 426
      vertex 215 -215 426
    endloop
  endfacet
  facet normal 0 -1 0
    outer loop
      vertex 215 -215 430
      vertex -215 -215 430
      vertex 215 -215 426
    endloop
  endfacet
  facet normal 0 0 -1
    outer loop
      vertex -215 -215 426
      vertex -215 215 426
      vertex 215 -215 426
    endloop
  endfacet
  facet normal 0 0 -1
    outer loop
      vertex 215 -215 426
      vertex -215 215 426
      vertex 215 215 426
    endloop
  endfacet
  facet normal 0 1 0
    outer loop
      vertex -215 215 426
      vertex -215 215 430
      vertex 215 215 426
    endloop
  endfacet
  facet normal 0 1 0
    outer loop
      vertex 215 215 426
      vertex -215 215 430
      vertex 215 215 430
    endloop
  endfacet
  facet normal 0 0 1
    outer loop
      vertex -215 215 430
      vertex -215 -215 430
      vertex 215 -215 430
    endloop
  endfacet
  facet normal 0 0 1
    outer loop
      vertex 215 215 430
      vertex -215 215 430
      vertex 215 -215 430
    endloop
  endfacet
  facet normal 1 0 0
    outer loop
      vertex 215 -215 430
      vertex 215 -215 426
      vertex 215 215 426
    endloop
  endfacet
  facet normal 1 0 0
    outer loop
      vertex 215 215 430
      vertex 215 -215 430
      vertex 215 215 426
    endloop
  endfacet
  facet normal -0.0998285 0 -0.995005
    outer loop
      vertex 168.39 -215 0.7
      vertex 168.39 215 0.7
      vertex 172.37 -215 0.300685
    endloop
  endfacet
  facet normal -0.0998285 0 -0.995005
    outer loop
      vertex 172.37 -215 0.300685
      vertex 168.39 215 0.7
      vertex 172.37 215 0.300685
    endloop
  endfacet
  facet normal -0.995005 0 0.0998285
    outer loop
      vertex 168.39 -215 0.7
      vertex 211.03 -215 425.699
      vertex 168.39 215 0.7
    endloop
  endfacet
  facet normal -0.995005 0 0.0998285
    outer loop
      vertex 168.39 215 0.7
      vertex 211.03 -215 425.699
      vertex 211.03 215 425.699
    endloop
  endfacet
  facet normal 0 -1 0
    outer loop
      vertex 211.03 -215 425.699
      vertex 168.39 -215 0.7
      vertex 172.37 -215 0.300685
    endloop
  endfacet
  facet normal 0 -1 0
    outer loop
      vertex 215.01 -215 425.3
      vertex 211.03 -215 425.699
      vertex 172.37 -215 0.300685
    endloop
  endfacet
  facet normal 0.995005 0 -0.0998285
    outer loop
      vertex 215.01 -215 425.3
      vertex 172.37 -215 0.300685
      vertex 172.37 215 0.300685
    endloop
  endfacet
  facet normal 0.995005 0 -0.0998285
    outer loop
      vertex 215.01 215 425.3
      vertex 215.01 -215 425.3
      vertex 172.37 215 0.300685
    endloop
  endfacet
  facet normal 0 1 0
    outer loop
      vertex 168.39 215 0.7
      vertex 211.03 215 425.699
      vertex 172.37 215 0.300685
    endloop
  endfacet
  facet normal 0 1 0
    outer loop
      vertex 172.37 215 0.300685
      vertex 211.03 215 425.699
      vertex 215.01 215 425.3
    endloop
  endfacet
  facet normal 0.0998285 0 0.995005
    outer loop
      vertex 211.03 215 425.699
      vertex 211.03 -215 425.699
      vertex 215.01 -215 425.3
    endloop
  endfacet
  facet normal 0.0998285 0 0.995005
    outer loop
      vertex 215.01 215 425.3
      vertex 211.03 215 425.699
      vertex 215.01 -215 425.3
    endloop
  endfacet
  facet normal -0.0998285 0 0.995005
    outer loop
      vertex -215.01 215 425.3
      vertex -215.01 -215 425.3
      vertex -211.03 -215 425.699
    endloop
  endfacet
  facet normal -0.0998285 0 0.995005
    outer loop
      vertex -211.03 215 425.699
      vertex -215.01 215 425.3
      vertex -211.03 -215 425.699
    endloop
  endfacet
  facet normal 0 -1 0
    outer loop
      vertex -211.03 -215 425.699
      vertex -215.01 -215 425.3
      vertex -172.37 -215 0.300685
    endloop
  endfacet
  facet normal 0 -1 0
    outer loop
      vertex -168.39 -215 0.7
      vertex -211.03 -215 425.699
      vertex -172.37 -215 0.300685
    endloop
  endfacet
  facet normal -0.995005 0 -0.0998285
    outer loop
      vertex -215.01 -215 425.3
      vertex -215.01 215 425.3
      vertex -172.37 -215 0.300685
    endloop
  endfacet
  facet normal -0.995005 0 -0.0998285
    outer loop
      vertex -172.37 -215 0.300685
      vertex -215.01 215 425.3
      vertex -172.37 215 0.300685
    endloop
  endfacet
  facet normal 0 1 0
    outer loop
      vertex -215.01 215 425.3
      vertex -211.03 215 425.699
      vertex -172.37 215 0.300685
    endloop
  endfacet
  facet normal 0 1 0
    outer loop
      vertex -172.37 215 0.300685
      vertex -211.03 215 425.699
      vertex -168.39 215 0.7
    endloop
  endfacet
  facet normal 0.995005 0 0.0998285
    outer loop
      vertex -211.03 215 425.699
      vertex -211.03 -215 425.699
      vertex -168.39 -215 0.7
    endloop
  endfacet
  facet normal 0.995005 0 0.0998285
    outer loop
      vertex -168.39 215 0.7
      vertex -211.03 215 425.699
      vertex -168.39 -215 0.7
    endloop
  endfacet
  facet normal 0.0998285 0 -0.995005
    outer loop
      vertex -172.37 -215 0.300685
      vertex -172.37 215 0.300685
      vertex -168.39 -215 0.7
    endloop
  endfacet
  facet normal 0.0998285 0 -0.995005
    outer loop
      vertex -168.39 -215 0.7
      vertex -172.37 215 0.300685
      vertex -168.39 215 0.7
    endloop
  endfacet
  facet normal -0.35906 0 0.933314
    outer loop
      vertex 0.759643 215 423.864
      vertex 0.759643 -215 423.864
      vertex 4.4929 -215 425.3
    endloop
  endfacet
  facet normal -0.35906 0 0.933314
    outer loop
      vertex 4.4929 215 425.3
      vertex 0.759643 215 423.864
      vertex 4.4929 -215 425.3
    endloop
  endfacet
  facet normal 0 -1 0
    outer loop
      vertex 4.4929 -215 425.3
      vertex 0.759643 -215 423.864
      vertex 163.557 -215 0.7
    endloop
  endfacet
  facet normal 0 -1 0
    outer loop
      vertex 167.29 -215 2.13624
      vertex 4.4929 -215 425.3
      vertex 163.557 -215 0.7
    endloop
  endfacet
  facet normal -0.933314 0 -0.35906
    outer loop
      vertex 0.759643 -215 423.864
      vertex 0.759643 215 423.864
      vertex 163.557 -215 0.7
    endloop
  endfacet
  facet normal -0.933314 0 -0.35906
    outer loop
      vertex 163.557 -215 0.7
      vertex 0.759643 215 423.864
      vertex 163.557 215 0.7
    endloop
  endfacet
  facet normal 0 1 0
    outer loop
      vertex 0.759643 215 423.864
      vertex 4.4929 215 425.3
      vertex 163.557 215 0.7
    endloop
  endfacet
  facet normal 0 1 0
    outer loop
      vertex 163.557 215 0.7
      vertex 4.4929 215 425.3
      vertex 167.29 215 2.13624
    endloop
  endfacet
  facet normal 0.933314 0 0.35906
    outer loop
      vertex 4.4929 215 425.3
      vertex 4.4929 -215 425.3
      vertex 167.29 -215 2.13624
    endloop
  endfacet
  facet normal 0.933314 0 0.35906
    outer loop
      vertex 167.29 215 2.13624
      vertex 4.4929 215 425.3
      vertex 167.29 -215 2.13624
    endloop
  endfacet
  facet normal 0.35906 0 -0.933314
    outer loop
      vertex 163.557 -215 0.7
      vertex 163.557 215 0.7
      vertex 167.29 -215 2.13624
    endloop
  endfacet
  facet normal 0.35906 0 -0.933314
    outer loop
      vertex 167.29 -215 2.13624
      vertex 163.557 215 0.7
      vertex 167.29 215 2.13624
    endloop
  endfacet
  facet normal -0.35906 0 -0.933314
    outer loop
      vertex -167.29 -215 2.13624
      vertex -167.29 215 2.13624
      vertex -163.557 -215 0.7
    endloop
  endfacet
  facet normal -0.35906 0 -0.933314
    outer loop
      vertex -163.557 -215 0.7
      vertex -167.29 215 2.13624
      vertex -163.557 215 0.7
    endloop
  endfacet
  facet normal -0.933314 0 0.35906
    outer loop
      vertex -167.29 -215 2.13624
      vertex -4.4929 -215 425.3
      vertex -167.29 215 2.13624
    endloop
  endfacet
  facet normal -0.933314 0 0.35906
    outer loop
      vertex -167.29 215 2.13624
      vertex -4.4929 -215 425.3
      vertex -4.4929 215 425.3
    endloop
  endfacet
  facet normal 0 -1 0
    outer loop
      vertex -4.4929 -215 425.3
      vertex -167.29 -215 2.13624
      vertex -163.557 -215 0.7
    endloop
  endfacet
  facet normal 0 -1 0
    outer loop
      vertex -0.759643 -215 423.864
      vertex -4.4929 -215 425.3
      vertex -163.557 -215 0.7
    endloop
  endfacet
  facet normal 0.933314 0 -0.35906
    outer loop
      vertex -0.759643 -215 423.864
      vertex -163.557 -215 0.7
      vertex -163.557 215 0.7
    endloop
  endfacet
  facet normal 0.933314 0 -0.35906
    outer loop
      vertex -0.759643 215 423.864
      vertex -0.759643 -215 423.864
      vertex -163.557 215 0.7
    endloop
  endfacet
  facet normal 0 1 0
    outer loop
      vertex -167.29 215 2.13624
      vertex -4.4929 215 425.3
      vertex -163.557 215 0.7
    endloop
  endfacet
  facet normal 0 1 0
    outer loop
      vertex -163.557 215 0.7
      vertex -4.4929 215 425.3
      vertex -0.759643 215 423.864
    endloop
  endfacet
  facet normal 0.35906 0 0.933314
    outer loop
      vertex -4.4929 215 425.3
      vertex -4.4929 -215 425.3
      vertex -0.759643 -215 423.864
    endloop
  endfacet
  facet normal 0.35906 0 0.933314
    outer loop
      vertex -0.759643 215 423.864
      vertex -4.4929 215 425.3
      vertex -0.759643 -215 423.864
    endloop
  endfacet
  facet normal -0.933295 -7.97387e-17 -0.359111
    outer loop
      vertex -40.244 -21.4 11.378
      vertex -40.244 -0.7 11.378
      vertex -35.866 -21.4 4.59632e-15
    endloop
  endfacet
  facet normal -0.933295 -7.97387e-17 -0.359111
    outer loop
      vertex -35.866 -21.4 4.59632e-15
      vertex -40.244 -0.7 11.378
      vertex -35.866 -0.7 0
    endloop
  endfacet
  facet normal 0 2.22045e-16 1
    outer loop
      vertex -24.5686 -20.7 11.378
      vertex -40.244 -21.4 11.378
      vertex -22.689 -21.4 11.378
    endloop
  endfacet
  facet normal 0 2.22045e-16 1
    outer loop
      vertex -38.6009 -20.7 11.378
      vertex -38.6009 -0.7 11.378
      vertex -40.244 -0.7 11.378
    endloop
  endfacet
  facet normal 0 2.22045e-16 1
    outer loop
      vertex -22.689 -0.7 11.378
      vertex -24.5686 -0.7 11.378
      vertex -22.689 -21.4 11.378
    endloop
  endfacet
  facet normal 0 2.22045e-16 1
    outer loop
      vertex -28.5887 -20.7 11.378
      vertex -40.244 -21.4 11.378
      vertex -24.5686 -20.7 11.378
    endloop
  endfacet
  facet normal 0 2.22045e-16 1
    outer loop
      vertex -34.3151 -20.7 11.378
      vertex -40.244 -21.4 11.378
      vertex -28.5887 -20.7 11.378
    endloop
  endfacet
  facet normal 0 2.22045e-16 1
    outer loop
      vertex -28.5887 -20.7 11.378
      vertex -28.5887 -0.7 11.378
      vertex -34.3151 -0.7 11.378
    endloop
  endfacet
  facet normal 0 2.22045e-16 1
    outer loop
      vertex -38.6009 -20.7 11.378
      vertex -40.244 -21.4 11.378
      vertex -34.3151 -20.7 11.378
    endloop
  endfacet
  facet normal 0 2.22045e-16 1
    outer loop
      vertex -40.244 -0.7 11.378
      vertex -40.244 -21.4 11.378
      vertex -38.6009 -20.7 11.378
    endloop
  endfacet
  facet normal 0 2.22045e-16 1
    outer loop
      vertex -34.3151 -0.7 11.378
      vertex -34.3151 -20.7 11.378
      vertex -28.5887 -20.7 11.378
    endloop
  endfacet
  facet normal 0 2.22045e-16 1
    outer loop
      vertex -24.5686 -0.7 11.378
      vertex -24.5686 -20.7 11.378
      vertex -22.689 -21.4 11.378
    endloop
  endfacet
  facet normal 0 -1 2.22045e-16
    outer loop
      vertex -22.689 -21.4 11.378
      vertex -40.244 -21.4 11.378
      vertex -35.866 -21.4 4.59632e-15
    endloop
  endfacet
  facet normal 0 -1 2.22045e-16
    outer loop
      vertex -23.831 -21.4 4.59632e-15
      vertex -22.689 -21.4 11.378
      vertex -35.866 -21.4 4.59632e-15
    endloop
  endfacet
  facet normal 0 -2.22045e-16 -1
    outer loop
      vertex -35.866 -21.4 4.59632e-15
      vertex -35.866 -0.7 0
      vertex -23.831 -21.4 4.59632e-15
    endloop
  endfacet
  facet normal 0 -2.22045e-16 -1
    outer loop
      vertex -23.831 -21.4 4.59632e-15
      vertex -35.866 -0.7 0
      vertex -23.831 -0.7 0
    endloop
  endfacet
  facet normal 0 1 -2.22045e-16
    outer loop
      vertex -40.244 -0.7 11.378
      vertex -38.6009 -0.7 11.378
      vertex -35.866 -0.7 0
    endloop
  endfacet
  facet normal 0 1 -2.22045e-16
    outer loop
      vertex -35.866 -0.7 0
      vertex -38.6009 -0.7 11.378
      vertex -34.4929 -0.7 0.7
    endloop
  endfacet
  facet normal 0 1 -2.22045e-16
    outer loop
      vertex -35.866 -0.7 0
      vertex -34.4929 -0.7 0.7
      vertex -30.7596 -0.7 2.13624
    endloop
  endfacet
  facet normal 0 1 -2.22045e-16
    outer loop
      vertex -30.7596 -0.7 2.13624
      vertex -34.3151 -0.7 11.378
      vertex -28.5887 -0.7 11.378
    endloop
  endfacet
  facet normal 0 1 -2.22045e-16
    outer loop
      vertex -30.7596 -0.7 2.13624
      vertex -28.5887 -0.7 11.378
      vertex -29.66 -0.7 0.7
    endloop
  endfacet
  facet normal 0 1 -2.22045e-16
    outer loop
      vertex -30.7596 -0.7 2.13624
      vertex -29.66 -0.7 0.7
      vertex -35.866 -0.7 0
    endloop
  endfacet
  facet normal 0 1 -2.22045e-16
    outer loop
      vertex -29.66 -0.7 0.7
      vertex -25.68 -0.7 0.300685
      vertex -35.866 -0.7 0
    endloop
  endfacet
  facet normal 0 1 -2.22045e-16
    outer loop
      vertex -25.68 -0.7 0.300685
      vertex -24.5686 -0.7 11.378
      vertex -22.689 -0.7 11.378
    endloop
  endfacet
  facet normal 0 1 -2.22045e-16
    outer loop
      vertex -25.68 -0.7 0.300685
      vertex -22.689 -0.7 11.378
      vertex -23.831 -0.7 0
    endloop
  endfacet
  facet normal 0 1 -2.22045e-16
    outer loop
      vertex -25.68 -0.7 0.300685
      vertex -23.831 -0.7 0
      vertex -35.866 -0.7 0
    endloop
  endfacet
  facet normal 0.933314 0 0.35906
    outer loop
      vertex -34.4929 -20.7 0.7
      vertex -34.4929 -0.7 0.7
      vertex -38.6009 -0.7 11.378
    endloop
  endfacet
  facet normal 0.933314 0 0.35906
    outer loop
      vertex -38.6009 -20.7 11.378
      vertex -34.4929 -20.7 0.7
      vertex -38.6009 -0.7 11.378
    endloop
  endfacet
  facet normal 0 1 0
    outer loop
      vertex -30.7596 -20.7 2.13624
      vertex -34.4929 -20.7 0.7
      vertex -34.3151 -20.7 11.378
    endloop
  endfacet
  facet normal 0 1 0
    outer loop
      vertex -34.3151 -20.7 11.378
      vertex -34.4929 -20.7 0.7
      vertex -38.6009 -20.7 11.378
    endloop
  endfacet
  facet normal -0.933314 0 -0.35906
    outer loop
      vertex -30.7596 -0.7 2.13624
      vertex -30.7596 -20.7 2.13624
      vertex -34.3151 -0.7 11.378
    endloop
  endfacet
  facet normal -0.933314 0 -0.35906
    outer loop
      vertex -34.3151 -0.7 11.378
      vertex -30.7596 -20.7 2.13624
      vertex -34.3151 -20.7 11.378
    endloop
  endfacet
  facet normal 0.995005 0 -0.0998285
    outer loop
      vertex -29.66 -0.7 0.7
      vertex -28.5887 -0.7 11.378
      vertex -28.5887 -20.7 11.378
    endloop
  endfacet
  facet normal 0.995005 0 -0.0998285
    outer loop
      vertex -29.66 -20.7 0.7
      vertex -29.66 -0.7 0.7
      vertex -28.5887 -20.7 11.378
    endloop
  endfacet
  facet normal 0 1 0
    outer loop
      vertex -24.5686 -20.7 11.378
      vertex -25.68 -20.7 0.300685
      vertex -28.5887 -20.7 11.378
    endloop
  endfacet
  facet normal 0 1 0
    outer loop
      vertex -28.5887 -20.7 11.378
      vertex -25.68 -20.7 0.300685
      vertex -29.66 -20.7 0.7
    endloop
  endfacet
  facet normal -0.995005 0 0.0998285
    outer loop
      vertex -24.5686 -0.7 11.378
      vertex -25.68 -0.7 0.300685
      vertex -24.5686 -20.7 11.378
    endloop
  endfacet
  facet normal -0.995005 0 0.0998285
    outer loop
      vertex -24.5686 -20.7 11.378
      vertex -25.68 -0.7 0.300685
      vertex -25.68 -20.7 0.300685
    endloop
  endfacet
  facet normal 0.995001 -2.2175e-17 -0.0998674
    outer loop
      vertex -22.689 -21.4 11.378
      vertex -23.831 -21.4 4.59632e-15
      vertex -23.831 -0.7 0
    endloop
  endfacet
  facet normal 0.995001 -2.2175e-17 -0.0998674
    outer loop
      vertex -22.689 -0.7 11.378
      vertex -22.689 -21.4 11.378
      vertex -23.831 -0.7 0
    endloop
  endfacet
  facet normal 0.0998285 0 0.995005
    outer loop
      vertex -25.68 -20.7 0.300685
      vertex -25.68 -0.7 0.300685
      vertex -29.66 -0.7 0.7
    endloop
  endfacet
  facet normal 0.0998285 0 0.995005
    outer loop
      vertex -29.66 -20.7 0.7
      vertex -25.68 -20.7 0.300685
      vertex -29.66 -0.7 0.7
    endloop
  endfacet
  facet normal -0.35906 0 0.933314
    outer loop
      vertex -30.7596 -20.7 2.13624
      vertex -30.7596 -0.7 2.13624
      vertex -34.4929 -0.7 0.7
    endloop
  endfacet
  facet normal -0.35906 0 0.933314
    outer loop
      vertex -34.4929 -20.7 0.7
      vertex -30.7596 -20.7 2.13624
      vertex -34.4929 -0.7 0.7
    endloop
  endfacet
  facet normal -0.99433 -2.36128e-17 -0.106342
    outer loop
      vertex 0.7 -22.7 -4.7
      vertex 0.7 -2 -4.7
      vertex 1.842 -22.7 -15.378
    endloop
  endfacet
  facet normal -0.99433 -2.36128e-17 -0.106342
    outer loop
      vertex 1.842 -22.7 -15.378
      vertex 0.7 -2 -4.7
      vertex 1.842 -2 -15.378
    endloop
  endfacet
  facet normal -1 0 0
    outer loop
      vertex 0.7 -22.7 -4.7
      vertex 0.7 -22.7 2
      vertex 0.7 -2 -4.7
    endloop
  endfacet
  facet normal -1 0 0
    outer loop
      vertex 0.7 -2 -4.7
      vertex 0.7 -22.7 2
      vertex 0.7 -2 2
    endloop
  endfacet
  facet normal 0 -1 2.22045e-16
    outer loop
      vertex 0.7 -22.7 2
      vertex 0.7 -22.7 -4.7
      vertex 1.842 -22.7 -15.378
    endloop
  endfacet
  facet normal 0 -1 2.22045e-16
    outer loop
      vertex 8.7 -22.7 -4.7
      vertex 0.7 -22.7 2
      vertex 9.842 -22.7 -15.378
    endloop
  endfacet
  facet normal 0 -1 2.22045e-16
    outer loop
      vertex 9.842 -22.7 -15.378
      vertex 0.7 -22.7 2
      vertex 1.842 -22.7 -15.378
    endloop
  endfacet
  facet normal 0 -1 2.22045e-16
    outer loop
      vertex 8.7 -22.7 2
      vertex 0.7 -22.7 2
      vertex 8.7 -22.7 -4.7
    endloop
  endfacet
  facet normal 0 -2.22045e-16 -1
    outer loop
      vertex 1.842 -22.7 -15.378
      vertex 1.842 -2 -15.378
      vertex 3.76128 -22 -15.378
    endloop
  endfacet
  facet normal 0 -2.22045e-16 -1
    outer loop
      vertex 1.842 -22.7 -15.378
      vertex 3.76128 -22 -15.378
      vertex 9.842 -22.7 -15.378
    endloop
  endfacet
  facet normal 0 -2.22045e-16 -1
    outer loop
      vertex 7.78136 -2 -15.378
      vertex 9.842 -22.7 -15.378
      vertex 7.78136 -22 -15.378
    endloop
  endfacet
  facet normal 0 -2.22045e-16 -1
    outer loop
      vertex 3.76128 -22 -15.378
      vertex 7.78136 -22 -15.378
      vertex 9.842 -22.7 -15.378
    endloop
  endfacet
  facet normal 0 -2.22045e-16 -1
    outer loop
      vertex 9.842 -22.7 -15.378
      vertex 7.78136 -2 -15.378
      vertex 9.842 -2 -15.378
    endloop
  endfacet
  facet normal 0 -2.22045e-16 -1
    outer loop
      vertex 3.76128 -22 -15.378
      vertex 1.842 -2 -15.378
      vertex 3.76128 -2 -15.378
    endloop
  endfacet
  facet normal 0 1 -2.22045e-16
    outer loop
      vertex 0.7 -2 -4.7
      vertex 0.7 -2 2
      vertex 1.842 -2 -15.378
    endloop
  endfacet
  facet normal 0 1 -2.22045e-16
    outer loop
      vertex 2.7 -2 0
      vertex 0.7 -2 2
      vertex 8.7 -2 2
    endloop
  endfacet
  facet normal 0 1 -2.22045e-16
    outer loop
      vertex 1.842 -2 -15.378
      vertex 0.7 -2 2
      vertex 2.7 -2 0
    endloop
  endfacet
  facet normal 0 1 -2.22045e-16
    outer loop
      vertex 3.76128 -2 -15.378
      vertex 1.842 -2 -15.378
      vertex 2.68996 -2 -4.7
    endloop
  endfacet
  facet normal 0 1 -2.22045e-16
    outer loop
      vertex 1.842 -2 -15.378
      vertex 2.7 -2 0
      vertex 2.7 -2 -4
    endloop
  endfacet
  facet normal 0 1 -2.22045e-16
    outer loop
      vertex 8.7 -2 -4
      vertex 6.66998 -2 -4.30069
      vertex 2.68996 -2 -4.7
    endloop
  endfacet
  facet normal 0 1 -2.22045e-16
    outer loop
      vertex 6.66998 -2 -4.30069
      vertex 8.7 -2 -4
      vertex 8.7 -2 -4.7
    endloop
  endfacet
  facet normal 0 1 -2.22045e-16
    outer loop
      vertex 7.78136 -2 -15.378
      vertex 8.7 -2 -4.7
      vertex 9.842 -2 -15.378
    endloop
  endfacet
  facet normal 0 1 -2.22045e-16
    outer loop
      vertex 6.66998 -2 -4.30069
      vertex 8.7 -2 -4.7
      vertex 7.78136 -2 -15.378
    endloop
  endfacet
  facet normal 0 1 -2.22045e-16
    outer loop
      vertex 1.842 -2 -15.378
      vertex 2.7 -2 -4
      vertex 2.68996 -2 -4.7
    endloop
  endfacet
  facet normal 0 1 -2.22045e-16
    outer loop
      vertex 8.7 -2 -4
      vertex 2.68996 -2 -4.7
      vertex 2.7 -2 -4
    endloop
  endfacet
  facet normal 0 1 -2.22045e-16
    outer loop
      vertex 2.7 -2 0
      vertex 8.7 -2 2
      vertex 8.7 -2 0
    endloop
  endfacet
  facet normal 0 2.22045e-16 1
    outer loop
      vertex 0.7 -2 2
      vertex 0.7 -22.7 2
      vertex 8.7 -22.7 2
    endloop
  endfacet
  facet normal 0 2.22045e-16 1
    outer loop
      vertex 8.7 -2 2
      vertex 0.7 -2 2
      vertex 8.7 -22.7 2
    endloop
  endfacet
  facet normal 1 0 0
    outer loop
      vertex 8.7 -22 -4
      vertex 8.7 -22.7 -4.7
      vertex 8.7 -2 -4.7
    endloop
  endfacet
  facet normal 1 0 0
    outer loop
      vertex 8.7 -22.7 2
      vertex 8.7 -22.7 -4.7
      vertex 8.7 -22 -4
    endloop
  endfacet
  facet normal 1 0 0
    outer loop
      vertex 8.7 -22 0
      vertex 8.7 -2 0
      vertex 8.7 -22.7 2
    endloop
  endfacet
  facet normal 1 0 0
    outer loop
      vertex 8.7 -22.7 2
      vertex 8.7 -22 -4
      vertex 8.7 -22 0
    endloop
  endfacet
  facet normal 1 0 0
    outer loop
      vertex 8.7 -2 2
      vertex 8.7 -22.7 2
      vertex 8.7 -2 0
    endloop
  endfacet
  facet normal 1 0 0
    outer loop
      vertex 8.7 -2 -4
      vertex 8.7 -22 -4
      vertex 8.7 -2 -4.7
    endloop
  endfacet
  facet normal 0.99433 2.36128e-17 0.106342
    outer loop
      vertex 8.7 -2 -4.7
      vertex 8.7 -22.7 -4.7
      vertex 9.842 -22.7 -15.378
    endloop
  endfacet
  facet normal 0.99433 2.36128e-17 0.106342
    outer loop
      vertex 9.842 -2 -15.378
      vertex 8.7 -2 -4.7
      vertex 9.842 -22.7 -15.378
    endloop
  endfacet
  facet normal -0.995005 0 -0.0998285
    outer loop
      vertex 7.78136 -2 -15.378
      vertex 7.78136 -22 -15.378
      vertex 6.66998 -2 -4.30069
    endloop
  endfacet
  facet normal -0.995005 0 -0.0998285
    outer loop
      vertex 6.66998 -2 -4.30069
      vertex 7.78136 -22 -15.378
      vertex 6.66998 -22 -4.30069
    endloop
  endfacet
  facet normal 0 1 0
    outer loop
      vertex 7.78136 -22 -15.378
      vertex 3.76128 -22 -15.378
      vertex 6.66998 -22 -4.30069
    endloop
  endfacet
  facet normal 0 1 0
    outer loop
      vertex 6.66998 -22 -4.30069
      vertex 3.76128 -22 -15.378
      vertex 2.68996 -22 -4.7
    endloop
  endfacet
  facet normal 0.995005 0 0.0998285
    outer loop
      vertex 3.76128 -22 -15.378
      vertex 3.76128 -2 -15.378
      vertex 2.68996 -2 -4.7
    endloop
  endfacet
  facet normal 0.995005 0 0.0998285
    outer loop
      vertex 2.68996 -22 -4.7
      vertex 3.76128 -22 -15.378
      vertex 2.68996 -2 -4.7
    endloop
  endfacet
  facet normal 0.0998285 0 -0.995005
    outer loop
      vertex 6.66998 -2 -4.30069
      vertex 6.66998 -22 -4.30069
      vertex 2.68996 -2 -4.7
    endloop
  endfacet
  facet normal 0.0998285 0 -0.995005
    outer loop
      vertex 2.68996 -2 -4.7
      vertex 6.66998 -22 -4.30069
      vertex 2.68996 -22 -4.7
    endloop
  endfacet
  facet normal 0 0 1
    outer loop
      vertex 8.7 -22 -4
      vertex 8.7 -2 -4
      vertex 2.7 -2 -4
    endloop
  endfacet
  facet normal 0 0 1
    outer loop
      vertex 2.7 -22 -4
      vertex 8.7 -22 -4
      vertex 2.7 -2 -4
    endloop
  endfacet
  facet normal 1 0 0
    outer loop
      vertex 2.7 -2 -4
      vertex 2.7 -2 0
      vertex 2.7 -22 0
    endloop
  endfacet
  facet normal 1 0 0
    outer loop
      vertex 2.7 -22 -4
      vertex 2.7 -2 -4
      vertex 2.7 -22 0
    endloop
  endfacet
  facet normal 0 0 -1
    outer loop
      vertex 8.7 -2 0
      vertex 8.7 -22 0
      vertex 2.7 -2 0
    endloop
  endfacet
  facet normal 0 0 -1
    outer loop
      vertex 2.7 -2 0
      vertex 8.7 -22 0
      vertex 2.7 -22 0
    endloop
  endfacet
  facet normal 0 1 0
    outer loop
      vertex 8.7 -22 0
      vertex 8.7 -22 -4
      vertex 2.7 -22 0
    endloop
  endfacet
  facet normal 0 1 0
    outer loop
      vertex 2.7 -22 0
      vertex 8.7 -22 -4
      vertex 2.7 -22 -4
    endloop
  endfacet
  facet normal -0.995001 -2.2175e-17 -0.0998674
    outer loop
      vertex 23.831 -0.7 0
      vertex 23.831 -21.4 4.59632e-15
      vertex 22.689 -0.7 11.378
    endloop
  endfacet
  facet normal -0.995001 -2.2175e-17 -0.0998674
    outer loop
      vertex 22.689 -0.7 11.378
      vertex 23.831 -21.4 4.59632e-15
      vertex 22.689 -21.4 11.378
    endloop
  endfacet
  facet normal 0 2.22045e-16 1
    outer loop
      vertex 40.244 -21.4 11.378
      vertex 40.244 -0.7 11.378
      vertex 38.6009 -0.7 11.378
    endloop
  endfacet
  facet normal 0 2.22045e-16 1
    outer loop
      vertex 34.3151 -20.7 11.378
      vertex 40.244 -21.4 11.378
      vertex 38.6009 -20.7 11.378
    endloop
  endfacet
  facet normal 0 2.22045e-16 1
    outer loop
      vertex 38.6009 -20.7 11.378
      vertex 40.244 -21.4 11.378
      vertex 38.6009 -0.7 11.378
    endloop
  endfacet
  facet normal 0 2.22045e-16 1
    outer loop
      vertex 28.5887 -20.7 11.378
      vertex 40.244 -21.4 11.378
      vertex 34.3151 -20.7 11.378
    endloop
  endfacet
  facet normal 0 2.22045e-16 1
    outer loop
      vertex 28.5887 -0.7 11.378
      vertex 34.3151 -20.7 11.378
      vertex 34.3151 -0.7 11.378
    endloop
  endfacet
  facet normal 0 2.22045e-16 1
    outer loop
      vertex 28.5887 -20.7 11.378
      vertex 34.3151 -20.7 11.378
      vertex 28.5887 -0.7 11.378
    endloop
  endfacet
  facet normal 0 2.22045e-16 1
    outer loop
      vertex 24.5686 -20.7 11.378
      vertex 40.244 -21.4 11.378
      vertex 28.5887 -20.7 11.378
    endloop
  endfacet
  facet normal 0 2.22045e-16 1
    outer loop
      vertex 22.689 -21.4 11.378
      vertex 40.244 -21.4 11.378
      vertex 24.5686 -20.7 11.378
    endloop
  endfacet
  facet normal 0 2.22045e-16 1
    outer loop
      vertex 22.689 -0.7 11.378
      vertex 24.5686 -20.7 11.378
      vertex 24.5686 -0.7 11.378
    endloop
  endfacet
  facet normal 0 2.22045e-16 1
    outer loop
      vertex 22.689 -21.4 11.378
      vertex 24.5686 -20.7 11.378
      vertex 22.689 -0.7 11.378
    endloop
  endfacet
  facet normal 0 -1 2.22045e-16
    outer loop
      vertex 23.831 -21.4 4.59632e-15
      vertex 35.866 -21.4 4.59632e-15
      vertex 40.244 -21.4 11.378
    endloop
  endfacet
  facet normal 0 -1 2.22045e-16
    outer loop
      vertex 22.689 -21.4 11.378
      vertex 23.831 -21.4 4.59632e-15
      vertex 40.244 -21.4 11.378
    endloop
  endfacet
  facet normal 0 1 -2.22045e-16
    outer loop
      vertex 34.3151 -0.7 11.378
      vertex 29.66 -0.7 0.7
      vertex 28.5887 -0.7 11.378
    endloop
  endfacet
  facet normal 0 1 -2.22045e-16
    outer loop
      vertex 30.7596 -0.7 2.13624
      vertex 29.66 -0.7 0.7
      vertex 34.3151 -0.7 11.378
    endloop
  endfacet
  facet normal 0 1 -2.22045e-16
    outer loop
      vertex 25.68 -0.7 0.300685
      vertex 29.66 -0.7 0.7
      vertex 34.4929 -0.7 0.7
    endloop
  endfacet
  facet normal 0 1 -2.22045e-16
    outer loop
      vertex 29.66 -0.7 0.7
      vertex 30.7596 -0.7 2.13624
      vertex 34.4929 -0.7 0.7
    endloop
  endfacet
  facet normal 0 1 -2.22045e-16
    outer loop
      vertex 40.244 -0.7 11.378
      vertex 34.4929 -0.7 0.7
      vertex 38.6009 -0.7 11.378
    endloop
  endfacet
  facet normal 0 1 -2.22045e-16
    outer loop
      vertex 35.866 -0.7 0
      vertex 34.4929 -0.7 0.7
      vertex 40.244 -0.7 11.378
    endloop
  endfacet
  facet normal 0 1 -2.22045e-16
    outer loop
      vertex 25.68 -0.7 0.300685
      vertex 34.4929 -0.7 0.7
      vertex 35.866 -0.7 0
    endloop
  endfacet
  facet normal 0 1 -2.22045e-16
    outer loop
      vertex 25.68 -0.7 0.300685
      vertex 35.866 -0.7 0
      vertex 23.831 -0.7 0
    endloop
  endfacet
  facet normal 0 1 -2.22045e-16
    outer loop
      vertex 25.68 -0.7 0.300685
      vertex 23.831 -0.7 0
      vertex 24.5686 -0.7 11.378
    endloop
  endfacet
  facet normal 0 1 -2.22045e-16
    outer loop
      vertex 23.831 -0.7 0
      vertex 22.689 -0.7 11.378
      vertex 24.5686 -0.7 11.378
    endloop
  endfacet
  facet normal 0 -2.22045e-16 -1
    outer loop
      vertex 35.866 -0.7 0
      vertex 35.866 -21.4 4.59632e-15
      vertex 23.831 -0.7 0
    endloop
  endfacet
  facet normal 0 -2.22045e-16 -1
    outer loop
      vertex 23.831 -0.7 0
      vertex 35.866 -21.4 4.59632e-15
      vertex 23.831 -21.4 4.59632e-15
    endloop
  endfacet
  facet normal 0.933295 -7.97387e-17 -0.359111
    outer loop
      vertex 35.866 -0.7 0
      vertex 40.244 -0.7 11.378
      vertex 40.244 -21.4 11.378
    endloop
  endfacet
  facet normal 0.933295 -7.97387e-17 -0.359111
    outer loop
      vertex 35.866 -21.4 4.59632e-15
      vertex 35.866 -0.7 0
      vertex 40.244 -21.4 11.378
    endloop
  endfacet
  facet normal 0.995005 0 0.0998285
    outer loop
      vertex 24.5686 -0.7 11.378
      vertex 24.5686 -20.7 11.378
      vertex 25.68 -20.7 0.300685
    endloop
  endfacet
  facet normal 0.995005 0 0.0998285
    outer loop
      vertex 25.68 -0.7 0.300685
      vertex 24.5686 -0.7 11.378
      vertex 25.68 -20.7 0.300685
    endloop
  endfacet
  facet normal 0 1 0
    outer loop
      vertex 24.5686 -20.7 11.378
      vertex 28.5887 -20.7 11.378
      vertex 25.68 -20.7 0.300685
    endloop
  endfacet
  facet normal 0 1 0
    outer loop
      vertex 25.68 -20.7 0.300685
      vertex 28.5887 -20.7 11.378
      vertex 29.66 -20.7 0.7
    endloop
  endfacet
  facet normal -0.995005 0 -0.0998285
    outer loop
      vertex 28.5887 -20.7 11.378
      vertex 28.5887 -0.7 11.378
      vertex 29.66 -20.7 0.7
    endloop
  endfacet
  facet normal -0.995005 0 -0.0998285
    outer loop
      vertex 29.66 -20.7 0.7
      vertex 28.5887 -0.7 11.378
      vertex 29.66 -0.7 0.7
    endloop
  endfacet
  facet normal 0.933314 0 -0.35906
    outer loop
      vertex 34.3151 -20.7 11.378
      vertex 30.7596 -20.7 2.13624
      vertex 30.7596 -0.7 2.13624
    endloop
  endfacet
  facet normal 0.933314 0 -0.35906
    outer loop
      vertex 34.3151 -0.7 11.378
      vertex 34.3151 -20.7 11.378
      vertex 30.7596 -0.7 2.13624
    endloop
  endfacet
  facet normal 0 1 0
    outer loop
      vertex 30.7596 -20.7 2.13624
      vertex 34.3151 -20.7 11.378
      vertex 34.4929 -20.7 0.7
    endloop
  endfacet
  facet normal 0 1 0
    outer loop
      vertex 34.4929 -20.7 0.7
      vertex 34.3151 -20.7 11.378
      vertex 38.6009 -20.7 11.378
    endloop
  endfacet
  facet normal -0.933314 0 0.35906
    outer loop
      vertex 34.4929 -20.7 0.7
      vertex 38.6009 -20.7 11.378
      vertex 34.4929 -0.7 0.7
    endloop
  endfacet
  facet normal -0.933314 0 0.35906
    outer loop
      vertex 34.4929 -0.7 0.7
      vertex 38.6009 -20.7 11.378
      vertex 38.6009 -0.7 11.378
    endloop
  endfacet
  facet normal 0.35906 0 0.933314
    outer loop
      vertex 30.7596 -0.7 2.13624
      vertex 30.7596 -20.7 2.13624
      vertex 34.4929 -20.7 0.7
    endloop
  endfacet
  facet normal 0.35906 0 0.933314
    outer loop
      vertex 34.4929 -0.7 0.7
      vertex 30.7596 -0.7 2.13624
      vertex 34.4929 -20.7 0.7
    endloop
  endfacet
  facet normal -0.0998285 0 0.995005
    outer loop
      vertex 25.68 -0.7 0.300685
      vertex 25.68 -20.7 0.300685
      vertex 29.66 -20.7 0.7
    endloop
  endfacet
  facet normal -0.0998285 0 0.995005
    outer loop
      vertex 29.66 -0.7 0.7
      vertex 25.68 -0.7 0.300685
      vertex 29.66 -20.7 0.7
    endloop
  endfacet
  facet normal 0 -2.22045e-16 -1
    outer loop
      vertex -7.78136 -2 -15.378
      vertex -7.78136 -22 -15.378
      vertex -9.842 -2 -15.378
    endloop
  endfacet
  facet normal 0 -2.22045e-16 -1
    outer loop
      vertex -9.842 -22.7 -15.378
      vertex -7.78136 -22 -15.378
      vertex -1.842 -22.7 -15.378
    endloop
  endfacet
  facet normal 0 -2.22045e-16 -1
    outer loop
      vertex -1.842 -2 -15.378
      vertex -3.76128 -22 -15.378
      vertex -3.76128 -2 -15.378
    endloop
  endfacet
  facet normal 0 -2.22045e-16 -1
    outer loop
      vertex -1.842 -22.7 -15.378
      vertex -3.76128 -22 -15.378
      vertex -1.842 -2 -15.378
    endloop
  endfacet
  facet normal 0 -2.22045e-16 -1
    outer loop
      vertex -7.78136 -22 -15.378
      vertex -3.76128 -22 -15.378
      vertex -1.842 -22.7 -15.378
    endloop
  endfacet
  facet normal 0 -2.22045e-16 -1
    outer loop
      vertex -9.842 -2 -15.378
      vertex -7.78136 -22 -15.378
      vertex -9.842 -22.7 -15.378
    endloop
  endfacet
  facet normal -0.99433 2.36128e-17 0.106342
    outer loop
      vertex -8.7 -2 -4.7
      vertex -9.842 -2 -15.378
      vertex -8.7 -22.7 -4.7
    endloop
  endfacet
  facet normal -0.99433 2.36128e-17 0.106342
    outer loop
      vertex -8.7 -22.7 -4.7
      vertex -9.842 -2 -15.378
      vertex -9.842 -22.7 -15.378
    endloop
  endfacet
  facet normal 0 -1 2.22045e-16
    outer loop
      vertex -1.842 -22.7 -15.378
      vertex -0.7 -22.7 -4.7
      vertex -0.7 -22.7 2
    endloop
  endfacet
  facet normal 0 -1 2.22045e-16
    outer loop
      vertex -8.7 -22.7 -4.7
      vertex -1.842 -22.7 -15.378
      vertex -8.7 -22.7 2
    endloop
  endfacet
  facet normal 0 -1 2.22045e-16
    outer loop
      vertex -8.7 -22.7 2
      vertex -1.842 -22.7 -15.378
      vertex -0.7 -22.7 2
    endloop
  endfacet
  facet normal 0 -1 2.22045e-16
    outer loop
      vertex -9.842 -22.7 -15.378
      vertex -1.842 -22.7 -15.378
      vertex -8.7 -22.7 -4.7
    endloop
  endfacet
  facet normal 0 1 -2.22045e-16
    outer loop
      vertex -7.78136 -2 -15.378
      vertex -8.7 -2 -4.7
      vertex -6.66998 -2 -4.30069
    endloop
  endfacet
  facet normal 0 1 -2.22045e-16
    outer loop
      vertex -0.7 -2 -4.7
      vertex -2.7 -2 -4
      vertex -0.7 -2 2
    endloop
  endfacet
  facet normal 0 1 -2.22045e-16
    outer loop
      vertex -8.7 -2 2
      vertex -2.7 -2 0
      vertex -8.7 -2 0
    endloop
  endfacet
  facet normal 0 1 -2.22045e-16
    outer loop
      vertex -0.7 -2 2
      vertex -2.7 -2 0
      vertex -8.7 -2 2
    endloop
  endfacet
  facet normal 0 1 -2.22045e-16
    outer loop
      vertex -2.7 -2 -4
      vertex -2.7 -2 0
      vertex -0.7 -2 2
    endloop
  endfacet
  facet normal 0 1 -2.22045e-16
    outer loop
      vertex -2.68996 -2 -4.7
      vertex -2.7 -2 -4
      vertex -0.7 -2 -4.7
    endloop
  endfacet
  facet normal 0 1 -2.22045e-16
    outer loop
      vertex -6.66998 -2 -4.30069
      vertex -2.7 -2 -4
      vertex -2.68996 -2 -4.7
    endloop
  endfacet
  facet normal 0 1 -2.22045e-16
    outer loop
      vertex -8.7 -2 -4
      vertex -2.7 -2 -4
      vertex -6.66998 -2 -4.30069
    endloop
  endfacet
  facet normal 0 1 -2.22045e-16
    outer loop
      vertex -8.7 -2 -4
      vertex -6.66998 -2 -4.30069
      vertex -8.7 -2 -4.7
    endloop
  endfacet
  facet normal 0 1 -2.22045e-16
    outer loop
      vertex -8.7 -2 -4.7
      vertex -7.78136 -2 -15.378
      vertex -9.842 -2 -15.378
    endloop
  endfacet
  facet normal 0 1 -2.22045e-16
    outer loop
      vertex -2.68996 -2 -4.7
      vertex -0.7 -2 -4.7
      vertex -1.842 -2 -15.378
    endloop
  endfacet
  facet normal 0 1 -2.22045e-16
    outer loop
      vertex -2.68996 -2 -4.7
      vertex -1.842 -2 -15.378
      vertex -3.76128 -2 -15.378
    endloop
  endfacet
  facet normal 0.99433 -2.36128e-17 -0.106342
    outer loop
      vertex -1.842 -2 -15.378
      vertex -0.7 -2 -4.7
      vertex -0.7 -22.7 -4.7
    endloop
  endfacet
  facet normal 0.99433 -2.36128e-17 -0.106342
    outer loop
      vertex -1.842 -22.7 -15.378
      vertex -1.842 -2 -15.378
      vertex -0.7 -22.7 -4.7
    endloop
  endfacet
  facet normal -0.995005 0 0.0998285
    outer loop
      vertex -3.76128 -2 -15.378
      vertex -3.76128 -22 -15.378
      vertex -2.68996 -2 -4.7
    endloop
  endfacet
  facet normal -0.995005 0 0.0998285
    outer loop
      vertex -2.68996 -2 -4.7
      vertex -3.76128 -22 -15.378
      vertex -2.68996 -22 -4.7
    endloop
  endfacet
  facet normal 0 1 0
    outer loop
      vertex -7.78136 -22 -15.378
      vertex -6.66998 -22 -4.30069
      vertex -3.76128 -22 -15.378
    endloop
  endfacet
  facet normal 0 1 0
    outer loop
      vertex -3.76128 -22 -15.378
      vertex -6.66998 -22 -4.30069
      vertex -2.68996 -22 -4.7
    endloop
  endfacet
  facet normal 0.995005 0 -0.0998285
    outer loop
      vertex -7.78136 -22 -15.378
      vertex -7.78136 -2 -15.378
      vertex -6.66998 -2 -4.30069
    endloop
  endfacet
  facet normal 0.995005 0 -0.0998285
    outer loop
      vertex -6.66998 -22 -4.30069
      vertex -7.78136 -22 -15.378
      vertex -6.66998 -2 -4.30069
    endloop
  endfacet
  facet normal -1 0 0
    outer loop
      vertex -8.7 -2 2
      vertex -8.7 -2 0
      vertex -8.7 -22.7 2
    endloop
  endfacet
  facet normal -1 0 0
    outer loop
      vertex -8.7 -22.7 2
      vertex -8.7 -2 0
      vertex -8.7 -22 0
    endloop
  endfacet
  facet normal -1 0 0
    outer loop
      vertex -8.7 -22.7 2
      vertex -8.7 -22 0
      vertex -8.7 -22 -4
    endloop
  endfacet
  facet normal -1 0 0
    outer loop
      vertex -8.7 -22 -4
      vertex -8.7 -2 -4
      vertex -8.7 -2 -4.7
    endloop
  endfacet
  facet normal -1 0 0
    outer loop
      vertex -8.7 -22 -4
      vertex -8.7 -2 -4.7
      vertex -8.7 -22.7 -4.7
    endloop
  endfacet
  facet normal -1 0 0
    outer loop
      vertex -8.7 -22 -4
      vertex -8.7 -22.7 -4.7
      vertex -8.7 -22.7 2
    endloop
  endfacet
  facet normal 0 2.22045e-16 1
    outer loop
      vertex -0.7 -22.7 2
      vertex -0.7 -2 2
      vertex -8.7 -2 2
    endloop
  endfacet
  facet normal 0 2.22045e-16 1
    outer loop
      vertex -8.7 -22.7 2
      vertex -0.7 -22.7 2
      vertex -8.7 -2 2
    endloop
  endfacet
  facet normal 1 0 0
    outer loop
      vertex -0.7 -2 -4.7
      vertex -0.7 -2 2
      vertex -0.7 -22.7 2
    endloop
  endfacet
  facet normal 1 0 0
    outer loop
      vertex -0.7 -22.7 -4.7
      vertex -0.7 -2 -4.7
      vertex -0.7 -22.7 2
    endloop
  endfacet
  facet normal -0.0998285 0 -0.995005
    outer loop
      vertex -6.66998 -22 -4.30069
      vertex -6.66998 -2 -4.30069
      vertex -2.68996 -22 -4.7
    endloop
  endfacet
  facet normal -0.0998285 0 -0.995005
    outer loop
      vertex -2.68996 -22 -4.7
      vertex -6.66998 -2 -4.30069
      vertex -2.68996 -2 -4.7
    endloop
  endfacet
  facet normal 0 0 -1
    outer loop
      vertex -8.7 -22 0
      vertex -8.7 -2 0
      vertex -2.7 -22 0
    endloop
  endfacet
  facet normal 0 0 -1
    outer loop
      vertex -2.7 -22 0
      vertex -8.7 -2 0
      vertex -2.7 -2 0
    endloop
  endfacet
  facet normal -1 0 0
    outer loop
      vertex -2.7 -22 -4
      vertex -2.7 -22 0
      vertex -2.7 -2 -4
    endloop
  endfacet
  facet normal -1 0 0
    outer loop
      vertex -2.7 -2 -4
      vertex -2.7 -22 0
      vertex -2.7 -2 0
    endloop
  endfacet
  facet normal 0 0 1
    outer loop
      vertex -8.7 -2 -4
      vertex -8.7 -22 -4
      vertex -2.7 -22 -4
    endloop
  endfacet
  facet normal 0 0 1
    outer loop
      vertex -2.7 -2 -4
      vertex -8.7 -2 -4
      vertex -2.7 -22 -4
    endloop
  endfacet
  facet normal 0 1 0
    outer loop
      vertex -8.7 -22 -4
      vertex -8.7 -22 0
      vertex -2.7 -22 -4
    endloop
  endfacet
  facet normal 0 1 0
    outer loop
      vertex -2.7 -22 -4
      vertex -8.7 -22 0
      vertex -2.7 -22 0
    endloop
  endfacet
  facet normal 0 -2.22045e-16 -1
    outer loop
      vertex -10.744 -21.4 22.757
      vertex -10.744 -0.7 22.757
      vertex -8.60089 -20.7 22.757
    endloop
  endfacet
  facet normal 0 -2.22045e-16 -1
    outer loop
      vertex -10.744 -21.4 22.757
      vertex -8.60089 -20.7 22.757
      vertex 10.744 -21.4 22.757
    endloop
  endfacet
  facet normal 0 -2.22045e-16 -1
    outer loop
      vertex -8.60089 -20.7 22.757
      vertex -4.31509 -20.7 22.757
      vertex 10.744 -21.4 22.757
    endloop
  endfacet
  facet normal 0 -2.22045e-16 -1
    outer loop
      vertex 4.31509 -20.7 22.757
      vertex -4.31509 -0.7 22.757
      vertex 4.31509 -0.7 22.757
    endloop
  endfacet
  facet normal 0 -2.22045e-16 -1
    outer loop
      vertex 8.60089 -0.7 22.757
      vertex 10.744 -21.4 22.757
      vertex 8.60089 -20.7 22.757
    endloop
  endfacet
  facet normal 0 -2.22045e-16 -1
    outer loop
      vertex -4.31509 -20.7 22.757
      vertex 4.31509 -20.7 22.757
      vertex 10.744 -21.4 22.757
    endloop
  endfacet
  facet normal 0 -2.22045e-16 -1
    outer loop
      vertex -4.31509 -0.7 22.757
      vertex 4.31509 -20.7 22.757
      vertex -4.31509 -20.7 22.757
    endloop
  endfacet
  facet normal 0 -2.22045e-16 -1
    outer loop
      vertex 4.31509 -20.7 22.757
      vertex 8.60089 -20.7 22.757
      vertex 10.744 -21.4 22.757
    endloop
  endfacet
  facet normal 0 -2.22045e-16 -1
    outer loop
      vertex 10.744 -21.4 22.757
      vertex 8.60089 -0.7 22.757
      vertex 10.744 -0.7 22.757
    endloop
  endfacet
  facet normal 0 -2.22045e-16 -1
    outer loop
      vertex -8.60089 -20.7 22.757
      vertex -10.744 -0.7 22.757
      vertex -8.60089 -0.7 22.757
    endloop
  endfacet
  facet normal -0.933322 7.97228e-17 0.35904
    outer loop
      vertex -10.744 -21.4 22.757
      vertex -6.367 -21.4 34.135
      vertex -10.744 -0.7 22.757
    endloop
  endfacet
  facet normal -0.933322 7.97228e-17 0.35904
    outer loop
      vertex -10.744 -0.7 22.757
      vertex -6.367 -21.4 34.135
      vertex -6.367 -20.7 34.135
    endloop
  endfacet
  facet normal -0.933322 7.97228e-17 0.35904
    outer loop
      vertex -6.367 -0.7 34.135
      vertex -10.744 -0.7 22.757
      vertex -6.367 -20.7 34.135
    endloop
  endfacet
  facet normal 0 -1 2.22045e-16
    outer loop
      vertex -6.367 -21.4 34.135
      vertex -10.744 -21.4 22.757
      vertex 10.744 -21.4 22.757
    endloop
  endfacet
  facet normal 0 -1 2.22045e-16
    outer loop
      vertex 6.367 -21.4 40.135
      vertex -6.367 -21.4 34.135
      vertex 6.367 -21.4 34.135
    endloop
  endfacet
  facet normal 0 -1 2.22045e-16
    outer loop
      vertex 6.367 -21.4 34.135
      vertex -6.367 -21.4 34.135
      vertex 10.744 -21.4 22.757
    endloop
  endfacet
  facet normal 0 -1 2.22045e-16
    outer loop
      vertex -6.367 -21.4 40.135
      vertex -6.367 -21.4 34.135
      vertex 6.367 -21.4 40.135
    endloop
  endfacet
  facet normal 0.933322 7.97228e-17 0.35904
    outer loop
      vertex 6.367 -20.7 34.135
      vertex 6.367 -21.4 34.135
      vertex 10.744 -21.4 22.757
    endloop
  endfacet
  facet normal 0.933322 7.97228e-17 0.35904
    outer loop
      vertex 10.744 -0.7 22.757
      vertex 6.367 -20.7 34.135
      vertex 10.744 -21.4 22.757
    endloop
  endfacet
  facet normal 0.933322 7.97228e-17 0.35904
    outer loop
      vertex 6.367 -0.7 34.135
      vertex 6.367 -20.7 34.135
      vertex 10.744 -0.7 22.757
    endloop
  endfacet
  facet normal 0 1 -2.22045e-16
    outer loop
      vertex -10.744 -0.7 22.757
      vertex -6.367 -0.7 34.135
      vertex -8.60089 -0.7 22.757
    endloop
  endfacet
  facet normal 0 1 -2.22045e-16
    outer loop
      vertex 4.4929 -0.7 33.435
      vertex -6.367 -0.7 34.135
      vertex 6.367 -0.7 34.135
    endloop
  endfacet
  facet normal 0 1 -2.22045e-16
    outer loop
      vertex 8.60089 -0.7 22.757
      vertex 6.367 -0.7 34.135
      vertex 10.744 -0.7 22.757
    endloop
  endfacet
  facet normal 0 1 -2.22045e-16
    outer loop
      vertex 0.759643 -0.7 31.9987
      vertex -6.367 -0.7 34.135
      vertex 4.4929 -0.7 33.435
    endloop
  endfacet
  facet normal 0 1 -2.22045e-16
    outer loop
      vertex -4.4929 -0.7 33.435
      vertex -6.367 -0.7 34.135
      vertex 0.759643 -0.7 31.9987
    endloop
  endfacet
  facet normal 0 1 -2.22045e-16
    outer loop
      vertex 4.31509 -0.7 22.757
      vertex -4.31509 -0.7 22.757
      vertex 0.759643 -0.7 31.9987
    endloop
  endfacet
  facet normal 0 1 -2.22045e-16
    outer loop
      vertex 4.4929 -0.7 33.435
      vertex 6.367 -0.7 34.135
      vertex 8.60089 -0.7 22.757
    endloop
  endfacet
  facet normal 0 1 -2.22045e-16
    outer loop
      vertex -0.759643 -0.7 31.9987
      vertex -4.4929 -0.7 33.435
      vertex 0.759643 -0.7 31.9987
    endloop
  endfacet
  facet normal 0 1 -2.22045e-16
    outer loop
      vertex -8.60089 -0.7 22.757
      vertex -6.367 -0.7 34.135
      vertex -4.4929 -0.7 33.435
    endloop
  endfacet
  facet normal 0 1 -2.22045e-16
    outer loop
      vertex -0.759643 -0.7 31.9987
      vertex 0.759643 -0.7 31.9987
      vertex -4.31509 -0.7 22.757
    endloop
  endfacet
  facet normal -0.933314 0 -0.35906
    outer loop
      vertex 8.60089 -0.7 22.757
      vertex 8.60089 -20.7 22.757
      vertex 4.4929 -0.7 33.435
    endloop
  endfacet
  facet normal -0.933314 0 -0.35906
    outer loop
      vertex 4.4929 -0.7 33.435
      vertex 8.60089 -20.7 22.757
      vertex 4.4929 -20.7 33.435
    endloop
  endfacet
  facet normal 0 1 0
    outer loop
      vertex 8.60089 -20.7 22.757
      vertex 4.31509 -20.7 22.757
      vertex 4.4929 -20.7 33.435
    endloop
  endfacet
  facet normal 0 1 0
    outer loop
      vertex 4.4929 -20.7 33.435
      vertex 4.31509 -20.7 22.757
      vertex 0.759643 -20.7 31.9987
    endloop
  endfacet
  facet normal 0.933314 0 0.35906
    outer loop
      vertex 4.31509 -20.7 22.757
      vertex 4.31509 -0.7 22.757
      vertex 0.759643 -0.7 31.9987
    endloop
  endfacet
  facet normal 0.933314 0 0.35906
    outer loop
      vertex 0.759643 -20.7 31.9987
      vertex 4.31509 -20.7 22.757
      vertex 0.759643 -0.7 31.9987
    endloop
  endfacet
  facet normal -0.933314 0 0.35906
    outer loop
      vertex -0.759643 -20.7 31.9987
      vertex -0.759643 -0.7 31.9987
      vertex -4.31509 -20.7 22.757
    endloop
  endfacet
  facet normal -0.933314 0 0.35906
    outer loop
      vertex -4.31509 -20.7 22.757
      vertex -0.759643 -0.7 31.9987
      vertex -4.31509 -0.7 22.757
    endloop
  endfacet
  facet normal 0 1 0
    outer loop
      vertex -0.759643 -20.7 31.9987
      vertex -4.31509 -20.7 22.757
      vertex -4.4929 -20.7 33.435
    endloop
  endfacet
  facet normal 0 1 0
    outer loop
      vertex -4.4929 -20.7 33.435
      vertex -4.31509 -20.7 22.757
      vertex -8.60089 -20.7 22.757
    endloop
  endfacet
  facet normal 0.933314 0 -0.35906
    outer loop
      vertex -4.4929 -0.7 33.435
      vertex -4.4929 -20.7 33.435
      vertex -8.60089 -20.7 22.757
    endloop
  endfacet
  facet normal 0.933314 0 -0.35906
    outer loop
      vertex -8.60089 -0.7 22.757
      vertex -4.4929 -0.7 33.435
      vertex -8.60089 -20.7 22.757
    endloop
  endfacet
  facet normal 0 0 1
    outer loop
      vertex 6.367 -20.7 34.135
      vertex 6.367 -0.7 34.135
      vertex -6.367 -0.7 34.135
    endloop
  endfacet
  facet normal 0 0 1
    outer loop
      vertex -6.367 -20.7 34.135
      vertex 6.367 -20.7 34.135
      vertex -6.367 -0.7 34.135
    endloop
  endfacet
  facet normal 0 1 0
    outer loop
      vertex -6.367 -20.7 38.135
      vertex 6.367 -20.7 38.135
      vertex -6.367 -20.7 34.135
    endloop
  endfacet
  facet normal 0 1 0
    outer loop
      vertex -6.367 -20.7 34.135
      vertex 6.367 -20.7 38.135
      vertex 6.367 -20.7 34.135
    endloop
  endfacet
  facet normal -1 0 0
    outer loop
      vertex -6.367 -21.4 34.135
      vertex -6.367 -21.4 40.135
      vertex -6.367 -20.7 34.135
    endloop
  endfacet
  facet normal -1 0 0
    outer loop
      vertex -6.367 -20.7 38.135
      vertex -6.367 -21.4 40.135
      vertex -6.367 -0.7 40.135
    endloop
  endfacet
  facet normal -1 0 0
    outer loop
      vertex -6.367 -20.7 34.135
      vertex -6.367 -21.4 40.135
      vertex -6.367 -20.7 38.135
    endloop
  endfacet
  facet normal -1 0 0
    outer loop
      vertex -6.367 -20.7 38.135
      vertex -6.367 -0.7 40.135
      vertex -6.367 -0.7 38.135
    endloop
  endfacet
  facet normal 0 2.22045e-16 1
    outer loop
      vertex -6.367 -0.7 40.135
      vertex -6.367 -21.4 40.135
      vertex 6.367 -21.4 40.135
    endloop
  endfacet
  facet normal 0 2.22045e-16 1
    outer loop
      vertex 6.367 -0.7 40.135
      vertex -6.367 -0.7 40.135
      vertex 6.367 -21.4 40.135
    endloop
  endfacet
  facet normal 1 0 0
    outer loop
      vertex 6.367 -21.4 40.135
      vertex 6.367 -21.4 34.135
      vertex 6.367 -20.7 34.135
    endloop
  endfacet
  facet normal 1 0 0
    outer loop
      vertex 6.367 -0.7 38.135
      vertex 6.367 -21.4 40.135
      vertex 6.367 -20.7 38.135
    endloop
  endfacet
  facet normal 1 0 0
    outer loop
      vertex 6.367 -20.7 38.135
      vertex 6.367 -21.4 40.135
      vertex 6.367 -20.7 34.135
    endloop
  endfacet
  facet normal 1 0 0
    outer loop
      vertex 6.367 -0.7 40.135
      vertex 6.367 -21.4 40.135
      vertex 6.367 -0.7 38.135
    endloop
  endfacet
  facet normal -0.35906 0 -0.933314
    outer loop
      vertex -0.759643 -0.7 31.9987
      vertex -0.759643 -20.7 31.9987
      vertex -4.4929 -0.7 33.435
    endloop
  endfacet
  facet normal -0.35906 0 -0.933314
    outer loop
      vertex -4.4929 -0.7 33.435
      vertex -0.759643 -20.7 31.9987
      vertex -4.4929 -20.7 33.435
    endloop
  endfacet
  facet normal 0.35906 0 -0.933314
    outer loop
      vertex 4.4929 -0.7 33.435
      vertex 4.4929 -20.7 33.435
      vertex 0.759643 -0.7 31.9987
    endloop
  endfacet
  facet normal 0.35906 0 -0.933314
    outer loop
      vertex 0.759643 -0.7 31.9987
      vertex 4.4929 -20.7 33.435
      vertex 0.759643 -20.7 31.9987
    endloop
  endfacet
  facet normal 0 0 -1
    outer loop
      vertex 6.367 -0.7 38.135
      vertex 6.367 -20.7 38.135
      vertex -6.367 -0.7 38.135
    endloop
  endfacet
  facet normal 0 0 -1
    outer loop
      vertex -6.367 -0.7 38.135
      vertex 6.367 -20.7 38.135
      vertex -6.367 -20.7 38.135
    endloop
  endfacet
  facet normal 0 1 -2.22045e-16
    outer loop
      vertex -6.367 -0.7 38.135
      vertex -6.367 -0.7 40.135
      vertex 6.367 -0.7 38.135
    endloop
  endfacet
  facet normal 0 1 -2.22045e-16
    outer loop
      vertex 6.367 -0.7 38.135
      vertex -6.367 -0.7 40.135
      vertex 6.367 -0.7 40.135
    endloop
  endfacet
  facet normal -0.933295 7.97387e-17 -0.359111
    outer loop
      vertex -35.866 21.4 4.59632e-15
      vertex -35.866 0.7 0
      vertex -40.244 21.4 11.378
    endloop
  endfacet
  facet normal -0.933295 7.97387e-17 -0.359111
    outer loop
      vertex -40.244 21.4 11.378
      vertex -35.866 0.7 0
      vertex -40.244 0.7 11.378
    endloop
  endfacet
  facet normal 0 -2.22045e-16 1
    outer loop
      vertex -22.689 21.4 11.378
      vertex -38.6009 20.7 11.378
      vertex -34.3151 20.7 11.378
    endloop
  endfacet
  facet normal 0 -2.22045e-16 1
    outer loop
      vertex -28.5887 20.7 11.378
      vertex -22.689 21.4 11.378
      vertex -34.3151 20.7 11.378
    endloop
  endfacet
  facet normal 0 -2.22045e-16 1
    outer loop
      vertex -38.6009 0.7 11.378
      vertex -38.6009 20.7 11.378
      vertex -40.244 21.4 11.378
    endloop
  endfacet
  facet normal 0 -2.22045e-16 1
    outer loop
      vertex -34.3151 0.7 11.378
      vertex -28.5887 0.7 11.378
      vertex -34.3151 20.7 11.378
    endloop
  endfacet
  facet normal 0 -2.22045e-16 1
    outer loop
      vertex -28.5887 0.7 11.378
      vertex -28.5887 20.7 11.378
      vertex -34.3151 20.7 11.378
    endloop
  endfacet
  facet normal 0 -2.22045e-16 1
    outer loop
      vertex -24.5686 20.7 11.378
      vertex -22.689 21.4 11.378
      vertex -28.5887 20.7 11.378
    endloop
  endfacet
  facet normal 0 -2.22045e-16 1
    outer loop
      vertex -24.5686 0.7 11.378
      vertex -22.689 0.7 11.378
      vertex -24.5686 20.7 11.378
    endloop
  endfacet
  facet normal 0 -2.22045e-16 1
    outer loop
      vertex -22.689 0.7 11.378
      vertex -22.689 21.4 11.378
      vertex -24.5686 20.7 11.378
    endloop
  endfacet
  facet normal 0 -2.22045e-16 1
    outer loop
      vertex -22.689 21.4 11.378
      vertex -40.244 21.4 11.378
      vertex -38.6009 20.7 11.378
    endloop
  endfacet
  facet normal 0 -2.22045e-16 1
    outer loop
      vertex -40.244 21.4 11.378
      vertex -40.244 0.7 11.378
      vertex -38.6009 0.7 11.378
    endloop
  endfacet
  facet normal 0 -1 -2.22045e-16
    outer loop
      vertex -25.68 0.7 0.300685
      vertex -23.831 0.7 0
      vertex -22.689 0.7 11.378
    endloop
  endfacet
  facet normal 0 -1 -2.22045e-16
    outer loop
      vertex -29.66 0.7 0.7
      vertex -28.5887 0.7 11.378
      vertex -30.7596 0.7 2.13624
    endloop
  endfacet
  facet normal 0 -1 -2.22045e-16
    outer loop
      vertex -35.866 0.7 0
      vertex -23.831 0.7 0
      vertex -25.68 0.7 0.300685
    endloop
  endfacet
  facet normal 0 -1 -2.22045e-16
    outer loop
      vertex -35.866 0.7 0
      vertex -25.68 0.7 0.300685
      vertex -29.66 0.7 0.7
    endloop
  endfacet
  facet normal 0 -1 -2.22045e-16
    outer loop
      vertex -34.4929 0.7 0.7
      vertex -38.6009 0.7 11.378
      vertex -35.866 0.7 0
    endloop
  endfacet
  facet normal 0 -1 -2.22045e-16
    outer loop
      vertex -35.866 0.7 0
      vertex -29.66 0.7 0.7
      vertex -30.7596 0.7 2.13624
    endloop
  endfacet
  facet normal 0 -1 -2.22045e-16
    outer loop
      vertex -35.866 0.7 0
      vertex -30.7596 0.7 2.13624
      vertex -34.4929 0.7 0.7
    endloop
  endfacet
  facet normal 0 -1 -2.22045e-16
    outer loop
      vertex -40.244 0.7 11.378
      vertex -35.866 0.7 0
      vertex -38.6009 0.7 11.378
    endloop
  endfacet
  facet normal 0 -1 -2.22045e-16
    outer loop
      vertex -34.3151 0.7 11.378
      vertex -30.7596 0.7 2.13624
      vertex -28.5887 0.7 11.378
    endloop
  endfacet
  facet normal 0 -1 -2.22045e-16
    outer loop
      vertex -24.5686 0.7 11.378
      vertex -25.68 0.7 0.300685
      vertex -22.689 0.7 11.378
    endloop
  endfacet
  facet normal 0 1 2.22045e-16
    outer loop
      vertex -23.831 21.4 4.59632e-15
      vertex -35.866 21.4 4.59632e-15
      vertex -22.689 21.4 11.378
    endloop
  endfacet
  facet normal 0 1 2.22045e-16
    outer loop
      vertex -22.689 21.4 11.378
      vertex -35.866 21.4 4.59632e-15
      vertex -40.244 21.4 11.378
    endloop
  endfacet
  facet normal 0 2.22045e-16 -1
    outer loop
      vertex -23.831 21.4 4.59632e-15
      vertex -23.831 0.7 0
      vertex -35.866 21.4 4.59632e-15
    endloop
  endfacet
  facet normal 0 2.22045e-16 -1
    outer loop
      vertex -35.866 21.4 4.59632e-15
      vertex -23.831 0.7 0
      vertex -35.866 0.7 0
    endloop
  endfacet
  facet normal 0.933314 0 0.35906
    outer loop
      vertex -34.4929 20.7 0.7
      vertex -38.6009 20.7 11.378
      vertex -38.6009 0.7 11.378
    endloop
  endfacet
  facet normal 0.933314 0 0.35906
    outer loop
      vertex -34.4929 0.7 0.7
      vertex -34.4929 20.7 0.7
      vertex -38.6009 0.7 11.378
    endloop
  endfacet
  facet normal 0.995001 2.2175e-17 -0.0998674
    outer loop
      vertex -23.831 21.4 4.59632e-15
      vertex -22.689 21.4 11.378
      vertex -22.689 0.7 11.378
    endloop
  endfacet
  facet normal 0.995001 2.2175e-17 -0.0998674
    outer loop
      vertex -23.831 0.7 0
      vertex -23.831 21.4 4.59632e-15
      vertex -22.689 0.7 11.378
    endloop
  endfacet
  facet normal -0.995005 0 0.0998285
    outer loop
      vertex -25.68 0.7 0.300685
      vertex -24.5686 0.7 11.378
      vertex -25.68 20.7 0.300685
    endloop
  endfacet
  facet normal -0.995005 0 0.0998285
    outer loop
      vertex -25.68 20.7 0.300685
      vertex -24.5686 0.7 11.378
      vertex -24.5686 20.7 11.378
    endloop
  endfacet
  facet normal 0 -1 0
    outer loop
      vertex -28.5887 20.7 11.378
      vertex -29.66 20.7 0.7
      vertex -25.68 20.7 0.300685
    endloop
  endfacet
  facet normal 0 -1 0
    outer loop
      vertex -24.5686 20.7 11.378
      vertex -28.5887 20.7 11.378
      vertex -25.68 20.7 0.300685
    endloop
  endfacet
  facet normal 0.995005 0 -0.0998285
    outer loop
      vertex -28.5887 0.7 11.378
      vertex -29.66 0.7 0.7
      vertex -29.66 20.7 0.7
    endloop
  endfacet
  facet normal 0.995005 0 -0.0998285
    outer loop
      vertex -28.5887 20.7 11.378
      vertex -28.5887 0.7 11.378
      vertex -29.66 20.7 0.7
    endloop
  endfacet
  facet normal -0.933314 0 -0.35906
    outer loop
      vertex -34.3151 20.7 11.378
      vertex -30.7596 20.7 2.13624
      vertex -34.3151 0.7 11.378
    endloop
  endfacet
  facet normal -0.933314 0 -0.35906
    outer loop
      vertex -34.3151 0.7 11.378
      vertex -30.7596 20.7 2.13624
      vertex -30.7596 0.7 2.13624
    endloop
  endfacet
  facet normal 0 -1 0
    outer loop
      vertex -34.3151 20.7 11.378
      vertex -38.6009 20.7 11.378
      vertex -34.4929 20.7 0.7
    endloop
  endfacet
  facet normal 0 -1 0
    outer loop
      vertex -30.7596 20.7 2.13624
      vertex -34.3151 20.7 11.378
      vertex -34.4929 20.7 0.7
    endloop
  endfacet
  facet normal -0.35906 0 0.933314
    outer loop
      vertex -34.4929 20.7 0.7
      vertex -34.4929 0.7 0.7
      vertex -30.7596 0.7 2.13624
    endloop
  endfacet
  facet normal -0.35906 0 0.933314
    outer loop
      vertex -30.7596 20.7 2.13624
      vertex -34.4929 20.7 0.7
      vertex -30.7596 0.7 2.13624
    endloop
  endfacet
  facet normal 0.0998285 0 0.995005
    outer loop
      vertex -29.66 20.7 0.7
      vertex -29.66 0.7 0.7
      vertex -25.68 0.7 0.300685
    endloop
  endfacet
  facet normal 0.0998285 0 0.995005
    outer loop
      vertex -25.68 20.7 0.300685
      vertex -29.66 20.7 0.7
      vertex -25.68 0.7 0.300685
    endloop
  endfacet
  facet normal 0 -2.22045e-16 1
    outer loop
      vertex 8.7 2 2
      vertex 8.7 22.7 2
      vertex 0.7 22.7 2
    endloop
  endfacet
  facet normal 0 -2.22045e-16 1
    outer loop
      vertex 0.7 2 2
      vertex 8.7 2 2
      vertex 0.7 22.7 2
    endloop
  endfacet
  facet normal 0 -1 -2.22045e-16
    outer loop
      vertex 0.7 2 -4.7
      vertex 1.842 2 -15.378
      vertex 3.76128 2 -15.378
    endloop
  endfacet
  facet normal 0 -1 -2.22045e-16
    outer loop
      vertex 6.66998 2 -4.30069
      vertex 0.7 2 -4.7
      vertex 2.68996 2 -4.7
    endloop
  endfacet
  facet normal 0 -1 -2.22045e-16
    outer loop
      vertex 2.68996 2 -4.7
      vertex 0.7 2 -4.7
      vertex 3.76128 2 -15.378
    endloop
  endfacet
  facet normal 0 -1 -2.22045e-16
    outer loop
      vertex 8.7 2 -4
      vertex 0.7 2 -4.7
      vertex 6.66998 2 -4.30069
    endloop
  endfacet
  facet normal 0 -1 -2.22045e-16
    outer loop
      vertex 9.842 2 -15.378
      vertex 6.66998 2 -4.30069
      vertex 7.78136 2 -15.378
    endloop
  endfacet
  facet normal 0 -1 -2.22045e-16
    outer loop
      vertex 8.7 2 -4.7
      vertex 6.66998 2 -4.30069
      vertex 9.842 2 -15.378
    endloop
  endfacet
  facet normal 0 -1 -2.22045e-16
    outer loop
      vertex 8.7 2 -4
      vertex 6.66998 2 -4.30069
      vertex 8.7 2 -4.7
    endloop
  endfacet
  facet normal 0 -1 -2.22045e-16
    outer loop
      vertex 2.7 2 -4
      vertex 0.7 2 -4.7
      vertex 8.7 2 -4
    endloop
  endfacet
  facet normal 0 -1 -2.22045e-16
    outer loop
      vertex 2.7 2 0
      vertex 0.7 2 -4.7
      vertex 2.7 2 -4
    endloop
  endfacet
  facet normal 0 -1 -2.22045e-16
    outer loop
      vertex 0.7 2 2
      vertex 0.7 2 -4.7
      vertex 2.7 2 0
    endloop
  endfacet
  facet normal 0 -1 -2.22045e-16
    outer loop
      vertex 8.7 2 2
      vertex 2.7 2 0
      vertex 8.7 2 0
    endloop
  endfacet
  facet normal 0 -1 -2.22045e-16
    outer loop
      vertex 0.7 2 2
      vertex 2.7 2 0
      vertex 8.7 2 2
    endloop
  endfacet
  facet normal -1 0 0
    outer loop
      vertex 0.7 22.7 -4.7
      vertex 0.7 2 -4.7
      vertex 0.7 22.7 2
    endloop
  endfacet
  facet normal -1 0 0
    outer loop
      vertex 0.7 22.7 2
      vertex 0.7 2 -4.7
      vertex 0.7 2 2
    endloop
  endfacet
  facet normal 1 0 0
    outer loop
      vertex 8.7 22.7 -4.7
      vertex 8.7 22 0
      vertex 8.7 22 -4
    endloop
  endfacet
  facet normal 1 0 0
    outer loop
      vertex 8.7 2 0
      vertex 8.7 22 0
      vertex 8.7 22.7 2
    endloop
  endfacet
  facet normal 1 0 0
    outer loop
      vertex 8.7 2 -4
      vertex 8.7 2 -4.7
      vertex 8.7 22 -4
    endloop
  endfacet
  facet normal 1 0 0
    outer loop
      vertex 8.7 2 -4.7
      vertex 8.7 22.7 -4.7
      vertex 8.7 22 -4
    endloop
  endfacet
  facet normal 1 0 0
    outer loop
      vertex 8.7 22.7 -4.7
      vertex 8.7 22.7 2
      vertex 8.7 22 0
    endloop
  endfacet
  facet normal 1 0 0
    outer loop
      vertex 8.7 22.7 2
      vertex 8.7 2 2
      vertex 8.7 2 0
    endloop
  endfacet
  facet normal 0 1 2.22045e-16
    outer loop
      vertex 8.7 22.7 -4.7
      vertex 9.842 22.7 -15.378
      vertex 1.842 22.7 -15.378
    endloop
  endfacet
  facet normal 0 1 2.22045e-16
    outer loop
      vertex 8.7 22.7 -4.7
      vertex 1.842 22.7 -15.378
      vertex 8.7 22.7 2
    endloop
  endfacet
  facet normal 0 1 2.22045e-16
    outer loop
      vertex 1.842 22.7 -15.378
      vertex 0.7 22.7 -4.7
      vertex 8.7 22.7 2
    endloop
  endfacet
  facet normal 0 1 2.22045e-16
    outer loop
      vertex 0.7 22.7 -4.7
      vertex 0.7 22.7 2
      vertex 8.7 22.7 2
    endloop
  endfacet
  facet normal -0.99433 2.36128e-17 -0.106342
    outer loop
      vertex 1.842 22.7 -15.378
      vertex 1.842 2 -15.378
      vertex 0.7 22.7 -4.7
    endloop
  endfacet
  facet normal -0.99433 2.36128e-17 -0.106342
    outer loop
      vertex 0.7 22.7 -4.7
      vertex 1.842 2 -15.378
      vertex 0.7 2 -4.7
    endloop
  endfacet
  facet normal 0 0 -1
    outer loop
      vertex 2.7 2 0
      vertex 2.7 22 0
      vertex 8.7 2 0
    endloop
  endfacet
  facet normal 0 0 -1
    outer loop
      vertex 8.7 2 0
      vertex 2.7 22 0
      vertex 8.7 22 0
    endloop
  endfacet
  facet normal 1 0 0
    outer loop
      vertex 2.7 22 0
      vertex 2.7 2 0
      vertex 2.7 2 -4
    endloop
  endfacet
  facet normal 1 0 0
    outer loop
      vertex 2.7 22 -4
      vertex 2.7 22 0
      vertex 2.7 2 -4
    endloop
  endfacet
  facet normal 0 0 1
    outer loop
      vertex 2.7 22 -4
      vertex 2.7 2 -4
      vertex 8.7 2 -4
    endloop
  endfacet
  facet normal 0 0 1
    outer loop
      vertex 8.7 22 -4
      vertex 2.7 22 -4
      vertex 8.7 2 -4
    endloop
  endfacet
  facet normal 0.99433 -2.36128e-17 0.106342
    outer loop
      vertex 9.842 2 -15.378
      vertex 9.842 22.7 -15.378
      vertex 8.7 22.7 -4.7
    endloop
  endfacet
  facet normal 0.99433 -2.36128e-17 0.106342
    outer loop
      vertex 8.7 2 -4.7
      vertex 9.842 2 -15.378
      vertex 8.7 22.7 -4.7
    endloop
  endfacet
  facet normal 0 2.22045e-16 -1
    outer loop
      vertex 9.842 22.7 -15.378
      vertex 9.842 2 -15.378
      vertex 7.78136 22 -15.378
    endloop
  endfacet
  facet normal 0 2.22045e-16 -1
    outer loop
      vertex 9.842 22.7 -15.378
      vertex 7.78136 22 -15.378
      vertex 1.842 22.7 -15.378
    endloop
  endfacet
  facet normal 0 2.22045e-16 -1
    outer loop
      vertex 3.76128 2 -15.378
      vertex 1.842 22.7 -15.378
      vertex 3.76128 22 -15.378
    endloop
  endfacet
  facet normal 0 2.22045e-16 -1
    outer loop
      vertex 7.78136 22 -15.378
      vertex 3.76128 22 -15.378
      vertex 1.842 22.7 -15.378
    endloop
  endfacet
  facet normal 0 2.22045e-16 -1
    outer loop
      vertex 1.842 22.7 -15.378
      vertex 3.76128 2 -15.378
      vertex 1.842 2 -15.378
    endloop
  endfacet
  facet normal 0 2.22045e-16 -1
    outer loop
      vertex 7.78136 22 -15.378
      vertex 9.842 2 -15.378
      vertex 7.78136 2 -15.378
    endloop
  endfacet
  facet normal -0.995005 0 -0.0998285
    outer loop
      vertex 6.66998 2 -4.30069
      vertex 6.66998 22 -4.30069
      vertex 7.78136 2 -15.378
    endloop
  endfacet
  facet normal -0.995005 0 -0.0998285
    outer loop
      vertex 7.78136 2 -15.378
      vertex 6.66998 22 -4.30069
      vertex 7.78136 22 -15.378
    endloop
  endfacet
  facet normal 0.0998285 0 -0.995005
    outer loop
      vertex 2.68996 2 -4.7
      vertex 2.68996 22 -4.7
      vertex 6.66998 2 -4.30069
    endloop
  endfacet
  facet normal 0.0998285 0 -0.995005
    outer loop
      vertex 6.66998 2 -4.30069
      vertex 2.68996 22 -4.7
      vertex 6.66998 22 -4.30069
    endloop
  endfacet
  facet normal 0.995005 0 0.0998285
    outer loop
      vertex 2.68996 22 -4.7
      vertex 2.68996 2 -4.7
      vertex 3.76128 2 -15.378
    endloop
  endfacet
  facet normal 0.995005 0 0.0998285
    outer loop
      vertex 3.76128 22 -15.378
      vertex 2.68996 22 -4.7
      vertex 3.76128 2 -15.378
    endloop
  endfacet
  facet normal 0 -1 0
    outer loop
      vertex 2.7 22 0
      vertex 2.7 22 -4
      vertex 8.7 22 -4
    endloop
  endfacet
  facet normal 0 -1 0
    outer loop
      vertex 8.7 22 0
      vertex 2.7 22 0
      vertex 8.7 22 -4
    endloop
  endfacet
  facet normal 0 -1 0
    outer loop
      vertex 6.66998 22 -4.30069
      vertex 2.68996 22 -4.7
      vertex 3.76128 22 -15.378
    endloop
  endfacet
  facet normal 0 -1 0
    outer loop
      vertex 7.78136 22 -15.378
      vertex 6.66998 22 -4.30069
      vertex 3.76128 22 -15.378
    endloop
  endfacet
  facet normal -0.995001 2.2175e-17 -0.0998674
    outer loop
      vertex 22.689 0.7 11.378
      vertex 22.689 21.4 11.378
      vertex 23.831 0.7 0
    endloop
  endfacet
  facet normal -0.995001 2.2175e-17 -0.0998674
    outer loop
      vertex 23.831 0.7 0
      vertex 22.689 21.4 11.378
      vertex 23.831 21.4 4.59632e-15
    endloop
  endfacet
  facet normal 0 -2.22045e-16 1
    outer loop
      vertex 22.689 21.4 11.378
      vertex 22.689 0.7 11.378
      vertex 24.5686 0.7 11.378
    endloop
  endfacet
  facet normal 0 -2.22045e-16 1
    outer loop
      vertex 28.5887 20.7 11.378
      vertex 22.689 21.4 11.378
      vertex 24.5686 20.7 11.378
    endloop
  endfacet
  facet normal 0 -2.22045e-16 1
    outer loop
      vertex 24.5686 20.7 11.378
      vertex 22.689 21.4 11.378
      vertex 24.5686 0.7 11.378
    endloop
  endfacet
  facet normal 0 -2.22045e-16 1
    outer loop
      vertex 34.3151 20.7 11.378
      vertex 22.689 21.4 11.378
      vertex 28.5887 20.7 11.378
    endloop
  endfacet
  facet normal 0 -2.22045e-16 1
    outer loop
      vertex 34.3151 0.7 11.378
      vertex 28.5887 20.7 11.378
      vertex 28.5887 0.7 11.378
    endloop
  endfacet
  facet normal 0 -2.22045e-16 1
    outer loop
      vertex 34.3151 20.7 11.378
      vertex 28.5887 20.7 11.378
      vertex 34.3151 0.7 11.378
    endloop
  endfacet
  facet normal 0 -2.22045e-16 1
    outer loop
      vertex 38.6009 20.7 11.378
      vertex 22.689 21.4 11.378
      vertex 34.3151 20.7 11.378
    endloop
  endfacet
  facet normal 0 -2.22045e-16 1
    outer loop
      vertex 40.244 21.4 11.378
      vertex 22.689 21.4 11.378
      vertex 38.6009 20.7 11.378
    endloop
  endfacet
  facet normal 0 -2.22045e-16 1
    outer loop
      vertex 40.244 0.7 11.378
      vertex 38.6009 20.7 11.378
      vertex 38.6009 0.7 11.378
    endloop
  endfacet
  facet normal 0 -2.22045e-16 1
    outer loop
      vertex 40.244 21.4 11.378
      vertex 38.6009 20.7 11.378
      vertex 40.244 0.7 11.378
    endloop
  endfacet
  facet normal 0 -1 -2.22045e-16
    outer loop
      vertex 24.5686 0.7 11.378
      vertex 22.689 0.7 11.378
      vertex 23.831 0.7 0
    endloop
  endfacet
  facet normal 0 -1 -2.22045e-16
    outer loop
      vertex 40.244 0.7 11.378
      vertex 38.6009 0.7 11.378
      vertex 35.866 0.7 0
    endloop
  endfacet
  facet normal 0 -1 -2.22045e-16
    outer loop
      vertex 35.866 0.7 0
      vertex 34.4929 0.7 0.7
      vertex 23.831 0.7 0
    endloop
  endfacet
  facet normal 0 -1 -2.22045e-16
    outer loop
      vertex 28.5887 0.7 11.378
      vertex 29.66 0.7 0.7
      vertex 30.7596 0.7 2.13624
    endloop
  endfacet
  facet normal 0 -1 -2.22045e-16
    outer loop
      vertex 30.7596 0.7 2.13624
      vertex 34.3151 0.7 11.378
      vertex 28.5887 0.7 11.378
    endloop
  endfacet
  facet normal 0 -1 -2.22045e-16
    outer loop
      vertex 34.4929 0.7 0.7
      vertex 29.66 0.7 0.7
      vertex 23.831 0.7 0
    endloop
  endfacet
  facet normal 0 -1 -2.22045e-16
    outer loop
      vertex 34.4929 0.7 0.7
      vertex 30.7596 0.7 2.13624
      vertex 29.66 0.7 0.7
    endloop
  endfacet
  facet normal 0 -1 -2.22045e-16
    outer loop
      vertex 29.66 0.7 0.7
      vertex 25.68 0.7 0.300685
      vertex 23.831 0.7 0
    endloop
  endfacet
  facet normal 0 -1 -2.22045e-16
    outer loop
      vertex 25.68 0.7 0.300685
      vertex 24.5686 0.7 11.378
      vertex 23.831 0.7 0
    endloop
  endfacet
  facet normal 0 -1 -2.22045e-16
    outer loop
      vertex 38.6009 0.7 11.378
      vertex 34.4929 0.7 0.7
      vertex 35.866 0.7 0
    endloop
  endfacet
  facet normal 0 2.22045e-16 -1
    outer loop
      vertex 23.831 0.7 0
      vertex 23.831 21.4 4.59632e-15
      vertex 35.866 0.7 0
    endloop
  endfacet
  facet normal 0 2.22045e-16 -1
    outer loop
      vertex 35.866 0.7 0
      vertex 23.831 21.4 4.59632e-15
      vertex 35.866 21.4 4.59632e-15
    endloop
  endfacet
  facet normal 0 1 2.22045e-16
    outer loop
      vertex 22.689 21.4 11.378
      vertex 40.244 21.4 11.378
      vertex 23.831 21.4 4.59632e-15
    endloop
  endfacet
  facet normal 0 1 2.22045e-16
    outer loop
      vertex 23.831 21.4 4.59632e-15
      vertex 40.244 21.4 11.378
      vertex 35.866 21.4 4.59632e-15
    endloop
  endfacet
  facet normal 0.933295 7.97387e-17 -0.359111
    outer loop
      vertex 40.244 0.7 11.378
      vertex 35.866 0.7 0
      vertex 35.866 21.4 4.59632e-15
    endloop
  endfacet
  facet normal 0.933295 7.97387e-17 -0.359111
    outer loop
      vertex 40.244 21.4 11.378
      vertex 40.244 0.7 11.378
      vertex 35.866 21.4 4.59632e-15
    endloop
  endfacet
  facet normal -0.933314 0 0.35906
    outer loop
      vertex 38.6009 20.7 11.378
      vertex 34.4929 20.7 0.7
      vertex 38.6009 0.7 11.378
    endloop
  endfacet
  facet normal -0.933314 0 0.35906
    outer loop
      vertex 38.6009 0.7 11.378
      vertex 34.4929 20.7 0.7
      vertex 34.4929 0.7 0.7
    endloop
  endfacet
  facet normal 0 -1 0
    outer loop
      vertex 34.4929 20.7 0.7
      vertex 38.6009 20.7 11.378
      vertex 34.3151 20.7 11.378
    endloop
  endfacet
  facet normal 0 -1 0
    outer loop
      vertex 30.7596 20.7 2.13624
      vertex 34.4929 20.7 0.7
      vertex 34.3151 20.7 11.378
    endloop
  endfacet
  facet normal 0.933314 0 -0.35906
    outer loop
      vertex 30.7596 20.7 2.13624
      vertex 34.3151 20.7 11.378
      vertex 34.3151 0.7 11.378
    endloop
  endfacet
  facet normal 0.933314 0 -0.35906
    outer loop
      vertex 30.7596 0.7 2.13624
      vertex 30.7596 20.7 2.13624
      vertex 34.3151 0.7 11.378
    endloop
  endfacet
  facet normal -0.995005 0 -0.0998285
    outer loop
      vertex 29.66 0.7 0.7
      vertex 28.5887 0.7 11.378
      vertex 29.66 20.7 0.7
    endloop
  endfacet
  facet normal -0.995005 0 -0.0998285
    outer loop
      vertex 29.66 20.7 0.7
      vertex 28.5887 0.7 11.378
      vertex 28.5887 20.7 11.378
    endloop
  endfacet
  facet normal 0 -1 0
    outer loop
      vertex 25.68 20.7 0.300685
      vertex 29.66 20.7 0.7
      vertex 28.5887 20.7 11.378
    endloop
  endfacet
  facet normal 0 -1 0
    outer loop
      vertex 24.5686 20.7 11.378
      vertex 25.68 20.7 0.300685
      vertex 28.5887 20.7 11.378
    endloop
  endfacet
  facet normal 0.995005 0 0.0998285
    outer loop
      vertex 24.5686 0.7 11.378
      vertex 25.68 0.7 0.300685
      vertex 25.68 20.7 0.300685
    endloop
  endfacet
  facet normal 0.995005 0 0.0998285
    outer loop
      vertex 24.5686 20.7 11.378
      vertex 24.5686 0.7 11.378
      vertex 25.68 20.7 0.300685
    endloop
  endfacet
  facet normal -0.0998285 0 0.995005
    outer loop
      vertex 29.66 0.7 0.7
      vertex 29.66 20.7 0.7
      vertex 25.68 20.7 0.300685
    endloop
  endfacet
  facet normal -0.0998285 0 0.995005
    outer loop
      vertex 25.68 0.7 0.300685
      vertex 29.66 0.7 0.7
      vertex 25.68 20.7 0.300685
    endloop
  endfacet
  facet normal 0.35906 0 0.933314
    outer loop
      vertex 34.4929 0.7 0.7
      vertex 34.4929 20.7 0.7
      vertex 30.7596 20.7 2.13624
    endloop
  endfacet
  facet normal 0.35906 0 0.933314
    outer loop
      vertex 30.7596 0.7 2.13624
      vertex 34.4929 0.7 0.7
      vertex 30.7596 20.7 2.13624
    endloop
  endfacet
  facet normal -0.99433 -2.36128e-17 0.106342
    outer loop
      vertex -9.842 2 -15.378
      vertex -8.7 2 -4.7
      vertex -9.842 22.7 -15.378
    endloop
  endfacet
  facet normal -0.99433 -2.36128e-17 0.106342
    outer loop
      vertex -9.842 22.7 -15.378
      vertex -8.7 2 -4.7
      vertex -8.7 22.7 -4.7
    endloop
  endfacet
  facet normal 0 -1 -2.22045e-16
    outer loop
      vertex -8.7 2 -4.7
      vertex -9.842 2 -15.378
      vertex -7.78136 2 -15.378
    endloop
  endfacet
  facet normal 0 -1 -2.22045e-16
    outer loop
      vertex -6.66998 2 -4.30069
      vertex -8.7 2 -4.7
      vertex -7.78136 2 -15.378
    endloop
  endfacet
  facet normal 0 -1 -2.22045e-16
    outer loop
      vertex -0.7 2 -4.7
      vertex -6.66998 2 -4.30069
      vertex -2.68996 2 -4.7
    endloop
  endfacet
  facet normal 0 -1 -2.22045e-16
    outer loop
      vertex -1.842 2 -15.378
      vertex -2.68996 2 -4.7
      vertex -3.76128 2 -15.378
    endloop
  endfacet
  facet normal 0 -1 -2.22045e-16
    outer loop
      vertex -0.7 2 -4.7
      vertex -2.68996 2 -4.7
      vertex -1.842 2 -15.378
    endloop
  endfacet
  facet normal 0 -1 -2.22045e-16
    outer loop
      vertex -2.7 2 -4
      vertex -6.66998 2 -4.30069
      vertex -0.7 2 -4.7
    endloop
  endfacet
  facet normal 0 -1 -2.22045e-16
    outer loop
      vertex -2.7 2 0
      vertex -2.7 2 -4
      vertex -0.7 2 2
    endloop
  endfacet
  facet normal 0 -1 -2.22045e-16
    outer loop
      vertex -8.7 2 2
      vertex -8.7 2 0
      vertex -0.7 2 2
    endloop
  endfacet
  facet normal 0 -1 -2.22045e-16
    outer loop
      vertex -6.66998 2 -4.30069
      vertex -8.7 2 -4
      vertex -8.7 2 -4.7
    endloop
  endfacet
  facet normal 0 -1 -2.22045e-16
    outer loop
      vertex -0.7 2 2
      vertex -2.7 2 -4
      vertex -0.7 2 -4.7
    endloop
  endfacet
  facet normal 0 -1 -2.22045e-16
    outer loop
      vertex -2.7 2 -4
      vertex -8.7 2 -4
      vertex -6.66998 2 -4.30069
    endloop
  endfacet
  facet normal 0 -1 -2.22045e-16
    outer loop
      vertex -8.7 2 0
      vertex -2.7 2 0
      vertex -0.7 2 2
    endloop
  endfacet
  facet normal 0 2.22045e-16 -1
    outer loop
      vertex -9.842 2 -15.378
      vertex -9.842 22.7 -15.378
      vertex -7.78136 2 -15.378
    endloop
  endfacet
  facet normal 0 2.22045e-16 -1
    outer loop
      vertex -3.76128 22 -15.378
      vertex -9.842 22.7 -15.378
      vertex -1.842 22.7 -15.378
    endloop
  endfacet
  facet normal 0 2.22045e-16 -1
    outer loop
      vertex -3.76128 2 -15.378
      vertex -1.842 22.7 -15.378
      vertex -1.842 2 -15.378
    endloop
  endfacet
  facet normal 0 2.22045e-16 -1
    outer loop
      vertex -7.78136 22 -15.378
      vertex -9.842 22.7 -15.378
      vertex -3.76128 22 -15.378
    endloop
  endfacet
  facet normal 0 2.22045e-16 -1
    outer loop
      vertex -7.78136 2 -15.378
      vertex -9.842 22.7 -15.378
      vertex -7.78136 22 -15.378
    endloop
  endfacet
  facet normal 0 2.22045e-16 -1
    outer loop
      vertex -3.76128 22 -15.378
      vertex -1.842 22.7 -15.378
      vertex -3.76128 2 -15.378
    endloop
  endfacet
  facet normal 0 1 2.22045e-16
    outer loop
      vertex -9.842 22.7 -15.378
      vertex -8.7 22.7 -4.7
      vertex -1.842 22.7 -15.378
    endloop
  endfacet
  facet normal 0 1 2.22045e-16
    outer loop
      vertex -1.842 22.7 -15.378
      vertex -8.7 22.7 -4.7
      vertex -8.7 22.7 2
    endloop
  endfacet
  facet normal 0 1 2.22045e-16
    outer loop
      vertex -1.842 22.7 -15.378
      vertex -8.7 22.7 2
      vertex -0.7 22.7 2
    endloop
  endfacet
  facet normal 0 1 2.22045e-16
    outer loop
      vertex -1.842 22.7 -15.378
      vertex -0.7 22.7 2
      vertex -0.7 22.7 -4.7
    endloop
  endfacet
  facet normal -1 0 0
    outer loop
      vertex -8.7 2 2
      vertex -8.7 22.7 2
      vertex -8.7 2 0
    endloop
  endfacet
  facet normal -1 0 0
    outer loop
      vertex -8.7 22 -4
      vertex -8.7 22.7 2
      vertex -8.7 22.7 -4.7
    endloop
  endfacet
  facet normal -1 0 0
    outer loop
      vertex -8.7 2 -4
      vertex -8.7 22.7 -4.7
      vertex -8.7 2 -4.7
    endloop
  endfacet
  facet normal -1 0 0
    outer loop
      vertex -8.7 22 0
      vertex -8.7 22.7 2
      vertex -8.7 22 -4
    endloop
  endfacet
  facet normal -1 0 0
    outer loop
      vertex -8.7 2 0
      vertex -8.7 22.7 2
      vertex -8.7 22 0
    endloop
  endfacet
  facet normal -1 0 0
    outer loop
      vertex -8.7 22 -4
      vertex -8.7 22.7 -4.7
      vertex -8.7 2 -4
    endloop
  endfacet
  facet normal 0 0 1
    outer loop
      vertex -2.7 2 -4
      vertex -2.7 22 -4
      vertex -8.7 22 -4
    endloop
  endfacet
  facet normal 0 0 1
    outer loop
      vertex -8.7 2 -4
      vertex -2.7 2 -4
      vertex -8.7 22 -4
    endloop
  endfacet
  facet normal -1 0 0
    outer loop
      vertex -2.7 22 -4
      vertex -2.7 2 -4
      vertex -2.7 22 0
    endloop
  endfacet
  facet normal -1 0 0
    outer loop
      vertex -2.7 22 0
      vertex -2.7 2 -4
      vertex -2.7 2 0
    endloop
  endfacet
  facet normal 0 0 -1
    outer loop
      vertex -2.7 22 0
      vertex -2.7 2 0
      vertex -8.7 22 0
    endloop
  endfacet
  facet normal 0 0 -1
    outer loop
      vertex -8.7 22 0
      vertex -2.7 2 0
      vertex -8.7 2 0
    endloop
  endfacet
  facet normal 0 -2.22045e-16 1
    outer loop
      vertex -8.7 22.7 2
      vertex -8.7 2 2
      vertex -0.7 2 2
    endloop
  endfacet
  facet normal 0 -2.22045e-16 1
    outer loop
      vertex -0.7 22.7 2
      vertex -8.7 22.7 2
      vertex -0.7 2 2
    endloop
  endfacet
  facet normal 1 0 0
    outer loop
      vertex -0.7 22.7 2
      vertex -0.7 2 2
      vertex -0.7 2 -4.7
    endloop
  endfacet
  facet normal 1 0 0
    outer loop
      vertex -0.7 22.7 -4.7
      vertex -0.7 22.7 2
      vertex -0.7 2 -4.7
    endloop
  endfacet
  facet normal 0.99433 2.36128e-17 -0.106342
    outer loop
      vertex -0.7 2 -4.7
      vertex -1.842 2 -15.378
      vertex -1.842 22.7 -15.378
    endloop
  endfacet
  facet normal 0.99433 2.36128e-17 -0.106342
    outer loop
      vertex -0.7 22.7 -4.7
      vertex -0.7 2 -4.7
      vertex -1.842 22.7 -15.378
    endloop
  endfacet
  facet normal -0.995005 0 0.0998285
    outer loop
      vertex -2.68996 22 -4.7
      vertex -3.76128 22 -15.378
      vertex -2.68996 2 -4.7
    endloop
  endfacet
  facet normal -0.995005 0 0.0998285
    outer loop
      vertex -2.68996 2 -4.7
      vertex -3.76128 22 -15.378
      vertex -3.76128 2 -15.378
    endloop
  endfacet
  facet normal -0.0998285 0 -0.995005
    outer loop
      vertex -2.68996 22 -4.7
      vertex -2.68996 2 -4.7
      vertex -6.66998 22 -4.30069
    endloop
  endfacet
  facet normal -0.0998285 0 -0.995005
    outer loop
      vertex -6.66998 22 -4.30069
      vertex -2.68996 2 -4.7
      vertex -6.66998 2 -4.30069
    endloop
  endfacet
  facet normal 0.995005 0 -0.0998285
    outer loop
      vertex -7.78136 22 -15.378
      vertex -6.66998 22 -4.30069
      vertex -6.66998 2 -4.30069
    endloop
  endfacet
  facet normal 0.995005 0 -0.0998285
    outer loop
      vertex -7.78136 2 -15.378
      vertex -7.78136 22 -15.378
      vertex -6.66998 2 -4.30069
    endloop
  endfacet
  facet normal 0 -1 0
    outer loop
      vertex -3.76128 22 -15.378
      vertex -2.68996 22 -4.7
      vertex -6.66998 22 -4.30069
    endloop
  endfacet
  facet normal 0 -1 0
    outer loop
      vertex -7.78136 22 -15.378
      vertex -3.76128 22 -15.378
      vertex -6.66998 22 -4.30069
    endloop
  endfacet
  facet normal 0 -1 0
    outer loop
      vertex -2.7 22 -4
      vertex -2.7 22 0
      vertex -8.7 22 0
    endloop
  endfacet
  facet normal 0 -1 0
    outer loop
      vertex -8.7 22 -4
      vertex -2.7 22 -4
      vertex -8.7 22 0
    endloop
  endfacet
  facet normal 0 2.22045e-16 -1
    outer loop
      vertex 10.744 21.4 22.757
      vertex 10.744 0.7 22.757
      vertex 8.60089 20.7 22.757
    endloop
  endfacet
  facet normal 0 2.22045e-16 -1
    outer loop
      vertex 10.744 21.4 22.757
      vertex 8.60089 20.7 22.757
      vertex -10.744 21.4 22.757
    endloop
  endfacet
  facet normal 0 2.22045e-16 -1
    outer loop
      vertex 8.60089 20.7 22.757
      vertex 4.31509 20.7 22.757
      vertex -10.744 21.4 22.757
    endloop
  endfacet
  facet normal 0 2.22045e-16 -1
    outer loop
      vertex -4.31509 20.7 22.757
      vertex 4.31509 0.7 22.757
      vertex -4.31509 0.7 22.757
    endloop
  endfacet
  facet normal 0 2.22045e-16 -1
    outer loop
      vertex -8.60089 0.7 22.757
      vertex -10.744 21.4 22.757
      vertex -8.60089 20.7 22.757
    endloop
  endfacet
  facet normal 0 2.22045e-16 -1
    outer loop
      vertex 4.31509 20.7 22.757
      vertex -4.31509 20.7 22.757
      vertex -10.744 21.4 22.757
    endloop
  endfacet
  facet normal 0 2.22045e-16 -1
    outer loop
      vertex 4.31509 0.7 22.757
      vertex -4.31509 20.7 22.757
      vertex 4.31509 20.7 22.757
    endloop
  endfacet
  facet normal 0 2.22045e-16 -1
    outer loop
      vertex -4.31509 20.7 22.757
      vertex -8.60089 20.7 22.757
      vertex -10.744 21.4 22.757
    endloop
  endfacet
  facet normal 0 2.22045e-16 -1
    outer loop
      vertex -10.744 21.4 22.757
      vertex -8.60089 0.7 22.757
      vertex -10.744 0.7 22.757
    endloop
  endfacet
  facet normal 0 2.22045e-16 -1
    outer loop
      vertex 8.60089 20.7 22.757
      vertex 10.744 0.7 22.757
      vertex 8.60089 0.7 22.757
    endloop
  endfacet
  facet normal -0.933322 -7.97228e-17 0.35904
    outer loop
      vertex -6.367 20.7 34.135
      vertex -6.367 21.4 34.135
      vertex -10.744 21.4 22.757
    endloop
  endfacet
  facet normal -0.933322 -7.97228e-17 0.35904
    outer loop
      vertex -6.367 20.7 34.135
      vertex -10.744 21.4 22.757
      vertex -6.367 0.7 34.135
    endloop
  endfacet
  facet normal -0.933322 -7.97228e-17 0.35904
    outer loop
      vertex -10.744 21.4 22.757
      vertex -10.744 0.7 22.757
      vertex -6.367 0.7 34.135
    endloop
  endfacet
  facet normal 0 -1 -2.22045e-16
    outer loop
      vertex 0.759643 0.7 31.9987
      vertex -4.4929 0.7 33.435
      vertex -0.759643 0.7 31.9987
    endloop
  endfacet
  facet normal 0 -1 -2.22045e-16
    outer loop
      vertex 4.4929 0.7 33.435
      vertex 6.367 0.7 34.135
      vertex -4.4929 0.7 33.435
    endloop
  endfacet
  facet normal 0 -1 -2.22045e-16
    outer loop
      vertex -8.60089 0.7 22.757
      vertex -4.4929 0.7 33.435
      vertex -6.367 0.7 34.135
    endloop
  endfacet
  facet normal 0 -1 -2.22045e-16
    outer loop
      vertex -4.31509 0.7 22.757
      vertex 4.31509 0.7 22.757
      vertex -0.759643 0.7 31.9987
    endloop
  endfacet
  facet normal 0 -1 -2.22045e-16
    outer loop
      vertex 4.31509 0.7 22.757
      vertex 0.759643 0.7 31.9987
      vertex -0.759643 0.7 31.9987
    endloop
  endfacet
  facet normal 0 -1 -2.22045e-16
    outer loop
      vertex 0.759643 0.7 31.9987
      vertex 4.4929 0.7 33.435
      vertex -4.4929 0.7 33.435
    endloop
  endfacet
  facet normal 0 -1 -2.22045e-16
    outer loop
      vertex 8.60089 0.7 22.757
      vertex 10.744 0.7 22.757
      vertex 4.4929 0.7 33.435
    endloop
  endfacet
  facet normal 0 -1 -2.22045e-16
    outer loop
      vertex 10.744 0.7 22.757
      vertex 6.367 0.7 34.135
      vertex 4.4929 0.7 33.435
    endloop
  endfacet
  facet normal 0 -1 -2.22045e-16
    outer loop
      vertex 6.367 0.7 34.135
      vertex -6.367 0.7 34.135
      vertex -4.4929 0.7 33.435
    endloop
  endfacet
  facet normal 0 -1 -2.22045e-16
    outer loop
      vertex -6.367 0.7 34.135
      vertex -10.744 0.7 22.757
      vertex -8.60089 0.7 22.757
    endloop
  endfacet
  facet normal 0 1 2.22045e-16
    outer loop
      vertex -6.367 21.4 40.135
      vertex 6.367 21.4 40.135
      vertex -6.367 21.4 34.135
    endloop
  endfacet
  facet normal 0 1 2.22045e-16
    outer loop
      vertex -6.367 21.4 34.135
      vertex 6.367 21.4 40.135
      vertex 6.367 21.4 34.135
    endloop
  endfacet
  facet normal 0 1 2.22045e-16
    outer loop
      vertex -6.367 21.4 34.135
      vertex 6.367 21.4 34.135
      vertex 10.744 21.4 22.757
    endloop
  endfacet
  facet normal 0 1 2.22045e-16
    outer loop
      vertex -6.367 21.4 34.135
      vertex 10.744 21.4 22.757
      vertex -10.744 21.4 22.757
    endloop
  endfacet
  facet normal 0.933314 0 -0.35906
    outer loop
      vertex -4.4929 0.7 33.435
      vertex -8.60089 0.7 22.757
      vertex -8.60089 20.7 22.757
    endloop
  endfacet
  facet normal 0.933314 0 -0.35906
    outer loop
      vertex -4.4929 20.7 33.435
      vertex -4.4929 0.7 33.435
      vertex -8.60089 20.7 22.757
    endloop
  endfacet
  facet normal 0 -1 0
    outer loop
      vertex -4.4929 20.7 33.435
      vertex -8.60089 20.7 22.757
      vertex -4.31509 20.7 22.757
    endloop
  endfacet
  facet normal 0 -1 0
    outer loop
      vertex -0.759643 20.7 31.9987
      vertex -4.4929 20.7 33.435
      vertex -4.31509 20.7 22.757
    endloop
  endfacet
  facet normal -0.933314 0 0.35906
    outer loop
      vertex -4.31509 0.7 22.757
      vertex -0.759643 0.7 31.9987
      vertex -4.31509 20.7 22.757
    endloop
  endfacet
  facet normal -0.933314 0 0.35906
    outer loop
      vertex -4.31509 20.7 22.757
      vertex -0.759643 0.7 31.9987
      vertex -0.759643 20.7 31.9987
    endloop
  endfacet
  facet normal 0.933314 0 0.35906
    outer loop
      vertex 0.759643 20.7 31.9987
      vertex 0.759643 0.7 31.9987
      vertex 4.31509 0.7 22.757
    endloop
  endfacet
  facet normal 0.933314 0 0.35906
    outer loop
      vertex 4.31509 20.7 22.757
      vertex 0.759643 20.7 31.9987
      vertex 4.31509 0.7 22.757
    endloop
  endfacet
  facet normal 0 -1 0
    outer loop
      vertex 4.4929 20.7 33.435
      vertex 0.759643 20.7 31.9987
      vertex 4.31509 20.7 22.757
    endloop
  endfacet
  facet normal 0 -1 0
    outer loop
      vertex 8.60089 20.7 22.757
      vertex 4.4929 20.7 33.435
      vertex 4.31509 20.7 22.757
    endloop
  endfacet
  facet normal -0.933314 0 -0.35906
    outer loop
      vertex 4.4929 0.7 33.435
      vertex 4.4929 20.7 33.435
      vertex 8.60089 0.7 22.757
    endloop
  endfacet
  facet normal -0.933314 0 -0.35906
    outer loop
      vertex 8.60089 0.7 22.757
      vertex 4.4929 20.7 33.435
      vertex 8.60089 20.7 22.757
    endloop
  endfacet
  facet normal 0.933322 -7.97228e-17 0.35904
    outer loop
      vertex 10.744 0.7 22.757
      vertex 10.744 21.4 22.757
      vertex 6.367 21.4 34.135
    endloop
  endfacet
  facet normal 0.933322 -7.97228e-17 0.35904
    outer loop
      vertex 6.367 20.7 34.135
      vertex 10.744 0.7 22.757
      vertex 6.367 21.4 34.135
    endloop
  endfacet
  facet normal 0.933322 -7.97228e-17 0.35904
    outer loop
      vertex 6.367 20.7 34.135
      vertex 6.367 0.7 34.135
      vertex 10.744 0.7 22.757
    endloop
  endfacet
  facet normal 0 0 1
    outer loop
      vertex 6.367 20.7 34.135
      vertex -6.367 20.7 34.135
      vertex -6.367 0.7 34.135
    endloop
  endfacet
  facet normal 0 0 1
    outer loop
      vertex 6.367 0.7 34.135
      vertex 6.367 20.7 34.135
      vertex -6.367 0.7 34.135
    endloop
  endfacet
  facet normal -1 0 0
    outer loop
      vertex -6.367 21.4 34.135
      vertex -6.367 20.7 34.135
      vertex -6.367 21.4 40.135
    endloop
  endfacet
  facet normal -1 0 0
    outer loop
      vertex -6.367 21.4 40.135
      vertex -6.367 20.7 34.135
      vertex -6.367 20.7 38.135
    endloop
  endfacet
  facet normal -1 0 0
    outer loop
      vertex -6.367 21.4 40.135
      vertex -6.367 20.7 38.135
      vertex -6.367 0.7 38.135
    endloop
  endfacet
  facet normal -1 0 0
    outer loop
      vertex -6.367 21.4 40.135
      vertex -6.367 0.7 38.135
      vertex -6.367 0.7 40.135
    endloop
  endfacet
  facet normal 0 -1 0
    outer loop
      vertex 6.367 20.7 38.135
      vertex -6.367 20.7 34.135
      vertex 6.367 20.7 34.135
    endloop
  endfacet
  facet normal 0 -1 0
    outer loop
      vertex -6.367 20.7 38.135
      vertex -6.367 20.7 34.135
      vertex 6.367 20.7 38.135
    endloop
  endfacet
  facet normal 0.35906 0 -0.933314
    outer loop
      vertex 0.759643 0.7 31.9987
      vertex 0.759643 20.7 31.9987
      vertex 4.4929 0.7 33.435
    endloop
  endfacet
  facet normal 0.35906 0 -0.933314
    outer loop
      vertex 4.4929 0.7 33.435
      vertex 0.759643 20.7 31.9987
      vertex 4.4929 20.7 33.435
    endloop
  endfacet
  facet normal -0.35906 0 -0.933314
    outer loop
      vertex -4.4929 0.7 33.435
      vertex -4.4929 20.7 33.435
      vertex -0.759643 0.7 31.9987
    endloop
  endfacet
  facet normal -0.35906 0 -0.933314
    outer loop
      vertex -0.759643 0.7 31.9987
      vertex -4.4929 20.7 33.435
      vertex -0.759643 20.7 31.9987
    endloop
  endfacet
  facet normal 1 0 0
    outer loop
      vertex 6.367 21.4 34.135
      vertex 6.367 20.7 38.135
      vertex 6.367 20.7 34.135
    endloop
  endfacet
  facet normal 1 0 0
    outer loop
      vertex 6.367 21.4 40.135
      vertex 6.367 20.7 38.135
      vertex 6.367 21.4 34.135
    endloop
  endfacet
  facet normal 1 0 0
    outer loop
      vertex 6.367 0.7 38.135
      vertex 6.367 20.7 38.135
      vertex 6.367 21.4 40.135
    endloop
  endfacet
  facet normal 1 0 0
    outer loop
      vertex 6.367 0.7 40.135
      vertex 6.367 0.7 38.135
      vertex 6.367 21.4 40.135
    endloop
  endfacet
  facet normal 0 -2.22045e-16 1
    outer loop
      vertex 6.367 0.7 40.135
      vertex 6.367 21.4 40.135
      vertex -6.367 21.4 40.135
    endloop
  endfacet
  facet normal 0 -2.22045e-16 1
    outer loop
      vertex -6.367 0.7 40.135
      vertex 6.367 0.7 40.135
      vertex -6.367 21.4 40.135
    endloop
  endfacet
  facet normal 0 -1 -2.22045e-16
    outer loop
      vertex -6.367 0.7 38.135
      vertex 6.367 0.7 38.135
      vertex 6.367 0.7 40.135
    endloop
  endfacet
  facet normal 0 -1 -2.22045e-16
    outer loop
      vertex -6.367 0.7 40.135
      vertex -6.367 0.7 38.135
      vertex 6.367 0.7 40.135
    endloop
  endfacet
  facet normal 0 0 -1
    outer loop
      vertex -6.367 0.7 38.135
      vertex -6.367 20.7 38.135
      vertex 6.367 0.7 38.135
    endloop
  endfacet
  facet normal 0 0 -1
    outer loop
      vertex 6.367 0.7 38.135
      vertex -6.367 20.7 38.135
      vertex 6.367 20.7 38.135
    endloop
  endfacet
endsolid OpenSCAD_Model
